<svg width="603" height="118" viewBox="0 0 603 118" fill="none" xmlns="http://www.w3.org/2000/svg">
<path d="M117.978 58.9944C117.984 61.6248 117.813 64.2525 117.467 66.8601C114.296 69.3196 110.689 71.1567 106.835 72.2742C102.493 73.5072 98.0034 74.1423 93.4898 74.162C95.5889 69.3817 96.6651 64.2153 96.6492 58.9944C96.6467 56.797 96.4537 54.6038 96.0723 52.4397L103.676 48.0481C104.684 47.5136 105.574 46.7815 106.293 45.8955C107.012 45.0096 107.545 43.9878 107.86 42.8913C108.176 41.7948 108.267 40.646 108.129 39.5134C107.991 38.3808 107.626 37.2877 107.056 36.2993C106.486 35.3108 105.722 34.4474 104.811 33.7604C103.9 33.0734 102.86 32.5769 101.753 32.3007C100.646 32.0244 99.4949 31.974 98.368 32.1525C97.241 32.3309 96.1616 32.7346 95.194 33.3393L89.321 36.7084C85.6861 31.7931 80.9193 27.8268 75.425 25.146C78.7024 22.0128 81.6258 19.0239 84.2083 16.2709C86.7909 13.5179 88.7704 11.2631 90.5795 9.17871C98.9732 14.5017 105.886 21.8593 110.676 30.5682C115.466 39.2772 117.978 49.0552 117.978 58.9944Z" fill="#8D8D8D"/>
<path d="M85.1129 6.09808C83.212 8.27424 80.9965 10.7126 78.4795 13.3476C75.7003 16.2579 72.541 19.4172 69.0277 22.7077C64.8195 26.6405 60.1002 30.7962 54.8826 34.9781C49.6651 39.16 43.7003 43.5647 37.3685 47.7335C35.271 49.1144 33.1167 50.4778 30.9055 51.8237C27.4111 53.9133 24.1956 56.4373 21.3357 59.3353C16.8146 63.858 13.6728 69.5731 12.2771 75.8139C10.8689 82.951 11.4679 90.3389 14.0075 97.156C5.23011 86.8097 0.287362 73.7541 0.012146 60.189C-0.26307 46.6239 4.14607 33.3785 12.4966 22.6848C20.8472 11.991 32.6286 4.50258 45.8559 1.48127C59.0831 -1.54003 72.9475 0.090487 85.1129 6.09808V6.09808Z" fill="#F9BD00"/>
<path d="M114.176 79.8777C111.243 87.6342 106.706 94.6851 100.864 100.57C95.0211 106.455 88.0032 111.042 80.2681 114.032C72.533 117.022 64.2544 118.348 55.9725 117.922C47.6906 117.497 39.5914 115.33 32.2034 111.563C31.2525 107.997 31.185 104.254 32.0067 100.656C29.2696 98.8795 26.7141 96.8376 24.3771 94.5602C23.6829 96.789 23.4792 99.1417 23.7802 101.457C24.0812 103.772 24.8796 105.994 26.1206 107.971C21.3357 104.484 19.5659 102.727 18.5041 101.888C16.3504 96.1521 15.5082 90.0064 16.0395 83.9023C16.6157 78.0202 18.7719 72.4034 22.2796 67.6466C23.8968 74.5301 27.4191 80.8193 32.4434 85.7947C37.4677 90.77 43.7912 94.2305 50.6902 95.7802C57.5892 97.3298 64.7851 96.9061 71.4546 94.5575C78.124 92.2088 83.9977 88.0302 88.4034 82.4996C93.1579 82.902 97.938 82.902 102.693 82.4996C106.626 82.1774 110.493 81.2945 114.176 79.8777V79.8777Z" fill="#F9BD00"/>
<path d="M83.3562 59.7155C83.2027 64.6235 81.5615 69.369 78.6499 73.3231C76.3977 76.4314 73.4421 78.9627 70.0245 80.7103C66.6069 82.4578 62.8243 83.3719 58.9858 83.378C55.8824 83.3837 52.8069 82.7917 49.9272 81.6345C45.403 79.8241 41.525 76.6997 38.7934 72.6643C36.0618 68.6289 34.602 63.8675 34.6024 58.9945C34.6024 58.1555 34.6024 57.3165 34.7335 56.4906L35.2578 56.1629C45.4489 49.9398 55.1359 42.9266 64.2296 35.1879C69.4989 36.3498 74.2339 39.2268 77.6929 43.3681L70.1681 47.7205C69.1601 48.2549 68.27 48.987 67.5511 49.873C66.8321 50.759 66.299 51.7807 65.9836 52.8772C65.6682 53.9737 65.5769 55.1226 65.7151 56.2551C65.8534 57.3877 66.2184 58.4808 66.7884 59.4693C67.3584 60.4577 68.1216 61.3212 69.0326 62.0082C69.9436 62.6952 70.9836 63.1916 72.0907 63.4678C73.1977 63.7441 74.349 63.7945 75.476 63.616C76.6029 63.4376 77.6824 63.0339 78.6499 62.4292L83.3562 59.7155Z" fill="#00FFE0"/>
<path d="M145.18 59.1647C145.18 64.7755 145.735 68.7651 146.845 71.1336C147.269 72.2243 148.021 73.156 148.999 73.7997C149.976 74.4433 151.129 74.7669 152.299 74.7255C155.936 74.5492 159.54 73.9419 163.035 72.9164L165.5 86.3142C160.664 88.1196 155.546 89.0518 150.385 89.0672C142.781 89.0672 137.253 86.5502 133.801 81.5162C130.349 76.4822 128.632 68.9749 128.649 58.9943C128.649 49.0137 130.454 41.3796 134.063 36.0922C137.673 30.8047 143.563 28.161 151.735 28.161C156.495 28.1501 161.199 29.1885 165.513 31.2024L162.943 45.8849C158.005 44.2418 154.553 43.4203 152.587 43.4203C151.361 43.3454 150.143 43.6602 149.107 44.3195C148.071 44.9788 147.27 45.9488 146.819 47.0909C145.726 49.5293 145.18 53.5539 145.18 59.1647Z" fill="#F9BD00"/>
<path d="M209.888 47.812C209.988 50.8386 209.439 53.8516 208.276 56.6477C207.081 59.1236 205.343 61.2972 203.189 63.0058L211.055 88.0971H193.541L187.655 66.8599H185.465V88.0971H169.498V29.1049H191.548C197.884 29.1049 202.525 30.595 205.47 33.5752C208.416 36.5554 209.888 41.301 209.888 47.812ZM191.391 55.4023C192.249 53.7959 192.614 51.9716 192.44 50.1585C192.599 48.3463 192.235 46.5263 191.391 44.9148C190.986 44.4065 190.462 44.0063 189.865 43.7501C189.268 43.4939 188.616 43.3896 187.969 43.4465H185.347V56.8312H187.812C188.48 56.9066 189.156 56.8156 189.781 56.5663C190.405 56.317 190.958 55.9171 191.391 55.4023V55.4023Z" fill="#F9BD00"/>
<path d="M256.361 29.0918L242.294 69.8621V88.0972H226.131V69.849L212.261 29.0787H230.129L234.403 48.2709H235.163L239.253 29.0787L256.361 29.0918Z" fill="#F9BD00"/>
<path d="M280.876 68.8001H276.51V88.0971H260.53V29.1049H279.814C286.587 29.1049 291.625 30.6561 294.929 33.7587C298.232 36.8613 299.88 41.9608 299.871 49.0574C299.871 56.1539 298.32 61.2229 295.217 64.2643C292.115 67.3056 287.334 68.8176 280.876 68.8001ZM282.685 55.966C283.385 54.1192 283.676 52.142 283.537 50.1717C283.678 48.1632 283.355 46.1491 282.593 44.2855C282.182 43.674 281.608 43.19 280.936 42.8887C280.264 42.5874 279.521 42.4809 278.791 42.5813H276.51V57.5916H279.132C279.814 57.6894 280.511 57.5894 281.138 57.3036C281.765 57.0179 282.297 56.5582 282.672 55.9791L282.685 55.966Z" fill="#F9BD00"/>
<path d="M338.924 43.4335H327.899V88.0972H311.656V43.4335H299.963L300.907 29.0787H339.868L338.924 43.4335Z" fill="#F9BD00"/>
<path d="M347.143 35.2663C350.788 30.5119 356.757 28.1348 365.051 28.1348C373.345 28.1348 379.283 30.477 382.866 35.1614C386.441 39.8546 388.228 47.4711 388.228 58.0111C388.228 68.551 386.415 76.3599 382.788 81.4376C379.108 86.5065 373.152 89.041 364.92 89.041C356.687 89.041 350.748 86.5415 347.104 81.5424C343.495 76.5434 341.69 68.7695 341.69 58.2208C341.69 47.6721 343.508 40.0206 347.143 35.2663ZM370.517 46.2388C369.6 44.185 367.729 43.1538 364.907 43.145C362.084 43.1363 360.262 44.1676 359.44 46.2388C358.618 48.3014 358.208 52.2342 358.208 58.0373V60.3052C358.208 66.4229 358.667 70.4606 359.584 72.4183C360.502 74.376 362.372 75.3417 365.195 75.3155C368.009 75.3155 369.831 74.3978 370.662 72.5625C371.492 70.7272 371.903 66.9255 371.894 61.1573V58.0635C371.903 52.2429 371.448 48.3014 370.531 46.2388H370.517Z" fill="#F9BD00"/>
<path d="M411.812 88.0971H395.661V29.1049H411.812V88.0971Z" fill="white"/>
<path d="M464.171 88.0972H448.584L436.327 60.633H435.566V88.0972H421.146V29.1049H437.205L448.899 57.4212H449.646V29.0918H464.184L464.171 88.0972Z" fill="white"/>
<path d="M516.438 57.3032C516.438 77.8325 508.328 88.0971 492.107 88.0971H472.535V29.1049H492.487C501.166 29.1049 507.327 31.5301 510.972 36.3806C514.616 41.2311 516.438 48.2052 516.438 57.3032ZM498.334 70.7927C499.313 68.4156 499.802 64.4259 499.802 58.8239C499.802 53.2218 499.278 49.2453 498.229 46.8943C497.181 44.5521 494.948 43.381 491.53 43.381H488.686V74.4109H491.819C495.166 74.4109 497.338 73.2049 498.334 70.7927Z" fill="white"/>
<path d="M554.442 88.0971H522.508V29.1049H555.386L554.442 43.6432H538.79V52.4396H552.384V64.9853H538.79V74.778H555.412L554.442 88.0971Z" fill="white"/>
<path d="M602.528 88.0972H583.991L580.058 69.2852H579.298L574.775 88.0972H557.287L566.464 57.4999L558.008 29.0918H577.2L580.425 46.5797H581.186L584.699 29.0918H601.427L593.731 57.4999L602.528 88.0972Z" fill="white"/>
</svg>
