<svg xmlns="http://www.w3.org/2000/svg" width="16" height="16" viewBox="0 0 400 400"><defs><style>.cls-1{fill:#4580d6;}.cls-2{fill:#3967aa;}.cls-3{fill:#294977;}.cls-4{fill:#fff;}</style></defs><title>archi_token</title><g id="Layer_2" data-name="Layer 2"><g id="Layer_1-2" data-name="Layer 1"><path class="cls-1" d="M200,386.55A186.35,186.35,0,0,1,13.45,200c0-.49,0-1,0-1.5a187.22,187.22,0,0,1,60-135.59c3.24-3,6.61-5.89,10-8.63A184.54,184.54,0,0,1,200,13.45c102.87,0,186.55,83.69,186.55,186.55S302.87,386.55,200,386.55Z"/><path class="cls-1" d="M386.55,200c0,96.54-73.71,176.19-167.82,185.62q-9.24.92-18.74.93a186.9,186.9,0,0,1-89.55-22.87q-3.39-1.87-6.7-3.86a187,187,0,0,1-66.53-68.64Q36,289,34.8,286.74a185.66,185.66,0,0,1-14.22-35.46c-.35-1.24-.69-2.46-1-3.71q-1.35-5.14-2.4-10.37A186.71,186.71,0,0,1,13.45,200c0-.49,0-1,0-1.5,0-2.19.08-4.37.17-6.55q.24-5.41.79-10.79A187.38,187.38,0,0,1,70.77,65.46c.89-.87,1.8-1.71,2.71-2.55,3.24-3,6.61-5.89,10-8.63l1.85-1.46A184.49,184.49,0,0,1,200,13.45C302.87,13.45,386.55,97.13,386.55,200Z"/><path class="cls-2" d="M331.93,230.66a162.47,162.47,0,0,1-113.19,155q-9.24.92-18.74.93a186.9,186.9,0,0,1-89.55-22.87q-3.39-1.87-6.7-3.86a187,187,0,0,1-66.53-68.64Q36,289,34.8,286.74a185.66,185.66,0,0,1-14.22-35.46c-.35-1.24-.69-2.46-1-3.71q-1.35-5.14-2.4-10.37A186.71,186.71,0,0,1,13.45,200c0-.49,0-1,0-1.5,0-2.19.08-4.37.17-6.55q.24-5.41.79-10.79a162.52,162.52,0,0,1,40.93-66.41c1.23-1.21,2.46-2.4,3.72-3.55q4.24-3.92,8.75-7.53,2-1.63,4.11-3.17a158.31,158.31,0,0,1,14.82-9.9,162.62,162.62,0,0,1,245.18,138C331.92,229.26,331.93,230,331.93,230.66Z"/><path class="cls-3" d="M226.89,282.95a109.84,109.84,0,0,1-64.07,99.87,186,186,0,0,1-52.38-19.13q-3.39-1.87-6.7-3.86a187,187,0,0,1-66.53-68.64Q36,289,34.8,286.74a185.66,185.66,0,0,1-14.22-35.46c-.35-1.24-.69-2.46-1-3.71q-1.35-5.14-2.4-10.37a110.15,110.15,0,0,1,25.39-35q2.87-2.63,5.91-5.08a109.82,109.82,0,0,1,178.43,85.8Z"/><path class="cls-4" d="M102.69,359.18l1.06.65h0C103.39,359.62,103,359.4,102.69,359.18ZM83.51,54.28l1.86-1.46h0Z"/><path class="cls-4" d="M341.42,58.58A200,200,0,0,0,75.11,43.78c-3.67,2.94-7.29,6.05-10.75,9.25A199.45,199.45,0,0,0,0,198.35c0,.55,0,1.09,0,1.65A200,200,0,1,0,341.42,58.58ZM70.77,65.46C82.92,103.4,132.62,120.94,200.17,142c80.29,25.08,68.58,65.22,68.58,65.22-8.38-13.37-20.08-10-35.13-18.39s-16.72-31.78-16.72-31.78C113.21,160.4,56.34,83.48,56.34,83.48c-16.72,23.39,18.4,61.87,18.4,61.87a449.45,449.45,0,0,0-61.11,46.59A187.27,187.27,0,0,1,70.77,65.46ZM20.58,251.28q-.53-1.85-1-3.71c41.06-39.71,95.32-46.95,95.32-46.95C72.24,230,47.84,259.52,34.8,286.74A185.66,185.66,0,0,1,20.58,251.28ZM200,386.55a186.78,186.78,0,0,1-89.55-22.87q-3.39-1.87-6.7-3.86c-11.33-34.7-10.44-68.33,37.89-99C252.06,190.63,329,280.87,329,280.87c28.45-68.57-40.12-90.4-40.12-90.4-1.68-38.38-56.92-85.21-102.07-91.92C155.28,93.87,109.9,68,85.36,52.82A184.49,184.49,0,0,1,200,13.45c102.87,0,186.55,83.69,186.55,186.55S302.87,386.55,200,386.55Z"/></g></g></svg>