<svg height="16" width="16" xmlns="http://www.w3.org/2000/svg" viewBox="0 0 512 512"><defs><style>.cls-1{fill:#faac1a;}.cls-2{fill:#fff;}</style></defs><title>Asset 35</title><g id="Layer_2" data-name="Layer 2"><g id="Layer_1-2" data-name="Layer 1"><circle class="cls-1" cx="256" cy="256" r="256"/><polygon class="cls-2" points="247.21 68.14 247.21 146.29 146.31 247.21 68.16 247.21 247.21 68.14"/><polygon class="cls-2" points="247.21 365.7 247.21 443.86 68.15 264.79 146.29 264.79 247.21 365.7"/><polygon class="cls-2" points="443.84 247.21 365.69 247.21 264.79 146.3 264.79 68.15 443.84 247.21"/><polygon class="cls-2" points="443.86 264.79 264.79 443.85 264.79 365.69 365.71 264.79 443.86 264.79"/><path class="cls-2" d="M292.77,277.18H316a63.58,63.58,0,1,1,0-42.38H292.77a42.43,42.43,0,1,0,0,42.38Z"/><path class="cls-2" d="M231.88,259.1v-4.67h10.73V264a22,22,0,0,1-5.45,2.86,18.48,18.48,0,0,1-5.62.76,13.65,13.65,0,0,1-6.52-1.36,9.33,9.33,0,0,1-3.91-4.06,13.34,13.34,0,0,1-1.39-6.19,12.92,12.92,0,0,1,1.52-6.4,9.83,9.83,0,0,1,4.45-4.13,14.45,14.45,0,0,1,6.15-1.09,17.28,17.28,0,0,1,5.57.67,7.23,7.23,0,0,1,3.06,2.09,9.29,9.29,0,0,1,1.83,3.59l-6.7,1.2a3.62,3.62,0,0,0-1.4-1.95,4.37,4.37,0,0,0-2.52-.68A4.55,4.55,0,0,0,228,250.9q-1.36,1.59-1.36,5,0,3.65,1.37,5.21a4.82,4.82,0,0,0,3.83,1.56,7.28,7.28,0,0,0,2.22-.34,12,12,0,0,0,2.42-1.15V259.1Z"/><path class="cls-2" d="M245.87,256q0-5.5,3.07-8.57t8.54-3.06q5.61,0,8.65,3t3,8.44a13.84,13.84,0,0,1-1.33,6.46,9.45,9.45,0,0,1-3.83,3.92,12.64,12.64,0,0,1-6.25,1.4,14.37,14.37,0,0,1-6.29-1.21,9.47,9.47,0,0,1-4-3.83A12.72,12.72,0,0,1,245.87,256Zm6.94,0q0,3.4,1.27,4.89a4.79,4.79,0,0,0,6.91,0q1.23-1.46,1.23-5.23a7,7,0,0,0-1.28-4.64,4.38,4.38,0,0,0-3.47-1.46,4.22,4.22,0,0,0-3.37,1.49Q252.81,252.61,252.81,256Z"/><path class="cls-2" d="M272.89,244.77h6.94V261.7h10.84v5.53H272.89Z"/><path class="cls-2" d="M293.92,244.77h10.32a12.36,12.36,0,0,1,4.93.83,8,8,0,0,1,3.1,2.38,9.85,9.85,0,0,1,1.78,3.6,16.72,16.72,0,0,1,.55,4.35,15.11,15.11,0,0,1-.82,5.59,9.25,9.25,0,0,1-2.28,3.33,7.43,7.43,0,0,1-3.13,1.79,16.12,16.12,0,0,1-4.14.61H293.92Zm6.94,5.09v12.28h1.7a7.17,7.17,0,0,0,3.1-.48,3.27,3.27,0,0,0,1.44-1.69,10.59,10.59,0,0,0,.52-3.9q0-3.57-1.17-4.89a4.93,4.93,0,0,0-3.86-1.32Z"/></g></g></svg>