<svg width="64" height="59" viewBox="0 0 64 59" fill="none" xmlns="http://www.w3.org/2000/svg">
<path d="M52.6769 36.1813C51.7757 36.1813 50.9036 36.2985 50.0633 36.4987L49.9837 36.3731L39.541 19.8864C41.857 17.7991 43.3231 14.7754 43.3231 11.3996C43.3231 5.10388 38.2536 0 32 0C25.7465 0 20.6769 5.10375 20.6769 11.3996C20.6769 14.7754 22.1429 17.7991 24.459 19.8864L14.0162 36.3731L13.9368 36.4987C13.0964 36.2985 12.2242 36.1813 11.323 36.1813C5.06962 36.1813 0 41.285 0 47.5809C0 53.8768 5.0695 58.9805 11.3231 58.9805C17.5766 58.9805 22.6461 53.8768 22.6461 47.5809C22.6461 43.2675 20.2655 39.5153 16.7559 37.5789L26.8981 21.5666C28.4326 22.3487 30.1624 22.7991 32 22.7991C33.8376 22.7991 35.5675 22.3487 37.102 21.5666L47.2441 37.5789C43.7345 39.5151 41.3539 43.2675 41.3539 47.5809C41.3539 53.8766 46.4234 58.9805 52.6769 58.9805C58.9305 58.9805 64 53.8768 64 47.5809C64 41.285 58.9305 36.1813 52.6769 36.1813ZM11.2941 52.9641C8.37925 52.9641 6.01625 50.6012 6.01625 47.6864C6.01625 44.7715 8.37925 42.4085 11.2941 42.4085C14.209 42.4085 16.5719 44.7715 16.5719 47.6864C16.5719 50.6012 14.209 52.9641 11.2941 52.9641Z" fill="#424766"/>
</svg>
