<svg width="1920" height="1165" viewBox="0 0 1920 1165" fill="none" xmlns="http://www.w3.org/2000/svg">
<path d="M1853.23 0H66.774C29.8957 0 0 29.8957 0 66.774V1097.72C0 1134.6 29.8957 1164.5 66.774 1164.5H1853.23C1890.1 1164.5 1920 1134.6 1920 1097.72V66.774C1920 29.8957 1890.1 0 1853.23 0Z" fill="#E1E9EB"/>
<path d="M1920 66.774V247.101H6.04618e-06V66.774C-0.00372663 58.004 1.72089 49.3193 5.07527 41.2163C8.42965 33.1132 13.348 25.7506 19.5493 19.5493C25.7506 13.348 33.1132 8.42965 41.2163 5.07527C49.3193 1.72089 58.004 -0.00372663 66.774 6.04619e-06H1853.28C1862.05 0.0037351 1870.73 1.73385 1878.82 5.09158C1886.92 8.4493 1894.28 13.3689 1900.47 19.5694C1906.67 25.7699 1911.58 33.13 1914.93 41.2294C1918.28 49.3288 1920 58.0088 1920 66.774Z" fill="#98B8C3"/>
<path d="M702.023 185.524C702.026 186.158 701.805 186.772 701.398 187.257C700.839 187.861 700.12 188.295 699.324 188.506C698.075 188.887 696.79 189.144 695.49 189.273C691.428 189.655 687.339 189.655 683.277 189.273C681.958 189.148 680.654 188.891 679.386 188.506C678.59 188.295 677.871 187.861 677.312 187.257C676.903 186.773 676.681 186.158 676.688 185.524V68.478C676.684 67.8447 676.905 67.2306 677.312 66.7455C677.88 66.1375 678.609 65.704 679.414 65.4958C680.685 65.1195 681.987 64.8628 683.305 64.7289C685.305 64.5183 687.316 64.4234 689.327 64.4449C691.375 64.4215 693.424 64.5163 695.462 64.7289C696.762 64.8593 698.046 65.1162 699.296 65.4958C700.091 65.709 700.81 66.1421 701.369 66.7455C701.776 67.2306 701.998 67.8447 701.994 68.478L702.023 185.524Z" fill="white"/>
<path d="M831.992 125.169C832.222 135.078 830.712 144.95 827.532 154.338C824.94 161.9 820.554 168.722 814.751 174.22C808.962 179.51 802.033 183.397 794.501 185.581C785.256 188.141 775.689 189.347 766.098 189.159H736.503C734.561 189.214 732.669 188.546 731.192 187.285C730.412 186.489 729.815 185.533 729.442 184.484C729.069 183.434 728.93 182.316 729.033 181.207V73.2777C728.93 72.1686 729.069 71.0503 729.442 70.0007C729.815 68.951 730.412 67.9951 731.192 67.1996C732.669 65.9383 734.561 65.2703 736.503 65.325H768.314C777.834 65.1071 787.328 66.4209 796.432 69.2161C803.684 71.5031 810.332 75.3851 815.887 80.5771C821.28 85.8523 825.39 92.2945 827.902 99.4079C830.757 107.691 832.141 116.409 831.992 125.169V125.169ZM805.947 126.021C805.987 120.49 805.29 114.979 803.873 109.633C802.615 104.859 800.36 100.406 797.256 96.5676C794.113 92.7881 790.11 89.8174 785.582 87.9049C779.617 85.6126 773.251 84.5499 766.865 84.7806H754.112V169.05H767.234C773.16 169.212 779.067 168.308 784.673 166.381C789.224 164.708 793.286 161.926 796.489 158.286C799.816 154.375 802.241 149.778 803.589 144.823C805.255 138.707 806.048 132.387 805.947 126.049V126.021Z" fill="white"/>
<path d="M982.723 170.187C982.723 171.777 982.723 173.027 982.581 174.248C982.508 175.204 982.366 176.153 982.155 177.089C981.994 177.811 981.736 178.509 981.388 179.162C980.959 179.876 980.444 180.534 979.854 181.122C978.627 182.238 977.262 183.192 975.793 183.962C973.429 185.267 970.958 186.369 968.408 187.257C965.161 188.404 961.827 189.287 958.439 189.898C954.437 190.623 950.377 190.975 946.311 190.949C938.476 191.064 930.687 189.735 923.333 187.029C916.737 184.524 910.815 180.518 906.036 175.328C901.003 169.702 897.244 163.056 895.016 155.844C892.312 147.033 891.018 137.849 891.182 128.634C891.022 119.112 892.442 109.63 895.385 100.573C897.865 92.9748 901.876 85.9664 907.172 79.9809C912.187 74.448 918.393 70.1262 925.322 67.3419C932.739 64.3978 940.66 62.9313 948.64 63.0247C951.982 63.0118 955.318 63.297 958.609 63.8768C961.615 64.4021 964.577 65.1522 967.471 66.1206C970.005 66.9684 972.457 68.0425 974.798 69.33C976.438 70.1768 977.965 71.2265 979.343 72.4543C980.022 73.0936 980.614 73.8194 981.104 74.6129C981.466 75.31 981.724 76.0564 981.871 76.8283C982.081 77.8688 982.223 78.9219 982.297 79.9809C982.391 81.1928 982.439 82.6886 982.439 84.4685C982.439 86.2484 982.372 87.8768 982.24 89.3537C982.158 90.4677 981.928 91.566 981.558 92.62C981.332 93.3088 980.942 93.9325 980.422 94.4377C979.998 94.8085 979.452 95.0107 978.888 95.0058C977.533 94.8359 976.263 94.2505 975.253 93.33C973.432 91.9732 971.536 90.7215 969.572 89.5809C966.928 88.0611 964.141 86.8054 961.251 85.8318C957.525 84.6409 953.629 84.0747 949.719 84.1561C945.217 84.0436 940.756 85.0483 936.737 87.0804C932.717 89.1124 929.264 92.1086 926.685 95.801C923.799 99.8944 921.7 104.488 920.493 109.349C919.022 115.207 918.316 121.231 918.391 127.271C918.277 133.649 919.032 140.013 920.635 146.187C921.861 150.969 924.044 155.452 927.054 159.366C929.718 162.723 933.172 165.367 937.109 167.063C941.31 168.806 945.824 169.667 950.372 169.59C954.294 169.665 958.204 169.128 961.961 168C964.905 167.107 967.758 165.937 970.481 164.506C972.81 163.238 974.704 162.092 976.162 161.07C977.165 160.251 978.373 159.72 979.655 159.536C980.191 159.512 980.723 159.64 981.189 159.905C981.67 160.297 982.009 160.836 982.155 161.439C982.458 162.485 982.649 163.561 982.723 164.648C982.723 166.05 982.723 167.896 982.723 170.187Z" fill="white"/>
<path d="M1072.22 186.007C1072.23 186.409 1072.15 186.808 1071.99 187.173C1071.82 187.539 1071.57 187.859 1071.25 188.109C1070.36 188.722 1069.32 189.102 1068.24 189.217C1066.23 189.482 1064.19 189.596 1062.16 189.557C1060.07 189.603 1057.97 189.489 1055.89 189.217C1054.85 189.128 1053.87 188.743 1053.05 188.109C1052.77 187.833 1052.56 187.505 1052.42 187.143C1052.27 186.782 1052.21 186.395 1052.22 186.007V179.19C1048.82 182.872 1044.74 185.862 1040.21 187.995C1035.54 190.136 1030.46 191.222 1025.33 191.176C1021.09 191.223 1016.88 190.63 1012.83 189.415C1009.22 188.342 1005.87 186.555 1002.97 184.161C1000.17 181.811 997.958 178.847 996.497 175.498C994.891 171.681 994.107 167.568 994.196 163.427C994.059 158.933 995.035 154.474 997.036 150.447C999.072 146.688 1002.08 143.548 1005.76 141.359C1010.21 138.743 1015.1 136.944 1020.18 136.047C1026.74 134.827 1033.4 134.247 1040.07 134.315H1048.39V129.117C1048.42 126.743 1048.15 124.375 1047.56 122.073C1047.1 120.204 1046.18 118.478 1044.89 117.046C1043.52 115.68 1041.8 114.701 1039.92 114.206C1037.42 113.509 1034.83 113.184 1032.23 113.24C1028.59 113.191 1024.97 113.641 1021.46 114.575C1018.56 115.314 1015.71 116.263 1012.94 117.415C1010.52 118.495 1008.49 119.441 1006.86 120.256C1005.66 121.012 1004.3 121.47 1002.89 121.59C1002.2 121.597 1001.53 121.355 1001.01 120.909C1000.42 120.392 999.962 119.739 999.678 119.006C999.28 118.02 999.004 116.99 998.854 115.938C998.654 114.604 998.559 113.255 998.57 111.905C998.527 110.329 998.689 108.753 999.053 107.219C999.384 106.04 1000.01 104.965 1000.87 104.095C1002.26 102.833 1003.84 101.798 1005.56 101.027C1008.1 99.786 1010.73 98.7415 1013.42 97.9029C1016.64 96.8907 1019.93 96.103 1023.25 95.5455C1026.87 94.9324 1030.54 94.6284 1034.22 94.6366C1040 94.5275 1045.78 95.1865 1051.4 96.5964C1055.72 97.6771 1059.73 99.7374 1063.13 102.618C1066.27 105.444 1068.58 109.065 1069.83 113.098C1071.33 118.031 1072.04 123.168 1071.93 128.322L1072.22 186.007ZM1048.56 149.396H1039.36C1036.01 149.343 1032.67 149.628 1029.39 150.248C1027.01 150.679 1024.73 151.556 1022.68 152.833C1021.07 153.861 1019.77 155.303 1018.91 157.008C1018.07 158.783 1017.66 160.728 1017.71 162.689C1017.62 164.272 1017.87 165.857 1018.46 167.33C1019.05 168.804 1019.96 170.128 1021.12 171.209C1023.77 173.384 1027.13 174.48 1030.55 174.277C1033.85 174.304 1037.08 173.408 1039.9 171.692C1043.14 169.619 1046.06 167.073 1048.56 164.137V149.396Z" fill="white"/>
<path d="M1151.13 108.213C1151.13 110.504 1151.06 112.398 1150.93 113.894C1150.85 115.055 1150.66 116.207 1150.36 117.331C1150.21 117.994 1149.86 118.598 1149.36 119.063C1148.9 119.399 1148.34 119.569 1147.77 119.546C1147.18 119.531 1146.6 119.416 1146.04 119.205L1143.88 118.495C1143.09 118.249 1142.21 118.012 1141.24 117.785C1140.21 117.552 1139.15 117.438 1138.09 117.444C1136.7 117.455 1135.33 117.734 1134.06 118.268C1132.55 118.906 1131.14 119.757 1129.88 120.796C1128.23 122.17 1126.73 123.712 1125.39 125.397C1123.58 127.664 1121.9 130.035 1120.37 132.497V185.723C1120.38 186.331 1120.18 186.924 1119.8 187.399C1119.27 187.97 1118.59 188.382 1117.84 188.592C1116.64 188.963 1115.4 189.201 1114.15 189.302C1112.61 189.454 1110.66 189.529 1108.3 189.529C1105.93 189.529 1103.98 189.454 1102.44 189.302C1101.19 189.202 1099.95 188.964 1098.75 188.592C1098 188.384 1097.32 187.971 1096.79 187.399C1096.41 186.925 1096.21 186.331 1096.22 185.723V100.289C1096.21 99.6937 1096.37 99.1075 1096.71 98.6134C1097.15 98.0485 1097.75 97.6323 1098.44 97.4205C1099.48 97.0568 1100.55 96.8184 1101.65 96.7104C1103.29 96.5384 1104.94 96.4625 1106.59 96.4832C1108.29 96.4622 1109.99 96.5381 1111.67 96.7104C1112.74 96.8006 1113.8 97.0396 1114.8 97.4205C1115.43 97.6571 1115.99 98.0712 1116.39 98.6134C1116.72 99.1075 1116.89 99.6937 1116.87 100.289V110.77C1118.79 107.984 1120.9 105.345 1123.21 102.874C1124.92 101.032 1126.83 99.3759 1128.89 97.9317C1130.52 96.7944 1132.34 95.9399 1134.25 95.4039C1136.01 94.932 1137.81 94.6932 1139.62 94.6938C1140.51 94.6965 1141.41 94.7439 1142.29 94.8359C1143.25 94.944 1144.2 95.1052 1145.13 95.3187C1146.05 95.5099 1146.95 95.7662 1147.83 96.0856C1148.44 96.2844 1149.01 96.5924 1149.51 96.9944C1149.84 97.284 1150.1 97.6429 1150.27 98.0453C1150.47 98.5605 1150.61 99.0932 1150.7 99.6359C1150.86 100.632 1150.95 101.638 1150.98 102.647C1151.08 104.067 1151.13 105.922 1151.13 108.213Z" fill="white"/>
<path d="M1244.62 185.723C1244.59 186.347 1244.39 186.95 1244.02 187.456C1243.61 188.001 1243.04 188.415 1242.4 188.648C1241.4 189.025 1240.34 189.255 1239.28 189.33C1237.97 189.463 1236.36 189.529 1234.45 189.529C1232.4 189.529 1230.76 189.529 1229.48 189.33C1228.41 189.247 1227.36 189.018 1226.35 188.648C1225.68 188.42 1225.08 188.007 1224.62 187.456C1224.25 186.945 1224.06 186.325 1224.08 185.695V176.095C1220.1 180.492 1215.43 184.214 1210.25 187.115C1205.21 189.675 1199.63 191.021 1193.98 191.046C1188.32 191.07 1182.74 189.773 1177.67 187.257C1173.23 184.795 1169.45 181.297 1166.65 177.06C1163.68 172.485 1161.58 167.401 1160.46 162.064C1159.16 156.131 1158.53 150.073 1158.56 144C1158.47 137.087 1159.29 130.193 1161 123.493C1162.4 117.928 1164.81 112.67 1168.13 107.986C1171.16 103.797 1175.16 100.413 1179.8 98.1301C1184.83 95.7533 1190.34 94.5769 1195.91 94.6935C1200.41 94.6035 1204.88 95.5765 1208.94 97.5337C1213.23 99.7533 1217.14 102.628 1220.53 106.054V60.0426C1220.53 59.423 1220.71 58.8175 1221.07 58.31C1221.57 57.6913 1222.24 57.2362 1223 57.0035C1224.2 56.5876 1225.44 56.3112 1226.69 56.1799C1230.59 55.7981 1234.5 55.7981 1238.4 56.1799C1239.64 56.3083 1240.86 56.5848 1242.03 57.0035C1242.77 57.2569 1243.43 57.7088 1243.93 58.31C1244.31 58.8094 1244.51 59.4183 1244.5 60.0426L1244.62 185.723ZM1220.67 128.634C1217.83 124.885 1214.49 121.532 1210.76 118.665C1207.91 116.479 1204.44 115.273 1200.85 115.228C1197.97 115.156 1195.14 115.98 1192.75 117.586C1190.42 119.182 1188.52 121.328 1187.21 123.834C1185.79 126.603 1184.76 129.557 1184.15 132.611C1183.47 135.871 1183.12 139.193 1183.12 142.523C1183.11 146.025 1183.4 149.521 1183.98 152.975C1184.48 156.118 1185.43 159.17 1186.82 162.035C1188.02 164.548 1189.81 166.731 1192.04 168.398C1194.46 170.064 1197.35 170.901 1200.28 170.783C1201.92 170.789 1203.54 170.549 1205.11 170.073C1206.83 169.485 1208.46 168.643 1209.94 167.574C1211.75 166.331 1213.44 164.903 1214.96 163.314C1216.97 161.252 1218.86 159.091 1220.64 156.838L1220.67 128.634Z" fill="white"/>
<path d="M298.225 53.9648H56.8047V193.136H298.225V53.9648Z" fill="#589CCB"/>
<path d="M284.026 68.166H71.0078V178.935H284.026V68.166Z" fill="#CAD587"/>
<path d="M284.022 115.029H68.1641V132.071H284.022V115.029Z" fill="#589CCB"/>
<path d="M176.093 161.893C197.27 161.893 214.436 144.727 214.436 123.55C214.436 102.374 197.27 85.207 176.093 85.207C154.917 85.207 137.75 102.374 137.75 123.55C137.75 144.727 154.917 161.893 176.093 161.893Z" fill="#589CCB"/>
<path d="M176.094 151.953C191.78 151.953 204.496 139.237 204.496 123.55C204.496 107.864 191.78 95.1479 176.094 95.1479C160.408 95.1479 147.691 107.864 147.691 123.55C147.691 139.237 160.408 151.953 176.094 151.953Z" fill="#CAD587"/>
<path d="M684.497 323.787H113.609V1067.93H684.497V323.787Z" fill="#EDF7F9"/>
<path d="M261.581 667.029C259.82 669.5 255.702 876.696 294.499 918.873L512.63 917.51C512.63 917.51 571.224 758.087 530.069 665.354L260.246 667.029H261.581Z" fill="#231F20"/>
<path d="M471.993 797.026L319.305 797.986L319.951 900.857L472.639 899.898L471.993 797.026Z" fill="#F6AD78"/>
<path d="M356.789 872.151C380.075 881.375 404.853 886.256 429.897 886.551C444.202 886.378 458.462 884.905 472.5 882.149L471.961 796.942L319.27 797.908L319.61 851.105C330.73 860.164 343.3 867.279 356.789 872.151V872.151Z" fill="#F79965"/>
<path d="M564.779 615.167C565.035 658.282 557.906 701.908 537.797 739.342C520.216 772.062 493.745 798.334 465.229 819.38C443.586 835.371 420.495 853.804 393.484 854.258V389.255C487.354 388.914 563.927 476.052 564.779 615.167Z" fill="#F79965"/>
<path d="M393.482 389.254V854.258C391.665 854.258 389.819 854.258 387.944 854.116C357.298 851.815 333.269 825.714 310.746 805.605C278.472 776.764 253.703 740.501 238.576 699.948C229.136 673.416 224.332 645.458 224.375 617.297C223.494 477.955 299.215 389.851 393.255 389.283L393.482 389.254Z" fill="#F6AD78"/>
<path d="M628.886 945.458L462.789 896.72L396.271 897.146L329.753 897.515L164.252 948.355C164.252 948.355 87.5656 981.501 79.7266 1084.97L397.379 1082.98L715.059 1080.99C705.914 977.638 628.886 945.458 628.886 945.458Z" fill="#F6AD78"/>
<path d="M628.889 945.458L537.036 918.504L397.296 1059.89L255.284 920.379L164.255 948.355C164.255 948.355 85.8643 982.04 79.7578 1084.97L544.25 1082.13L718.357 1081.05C702.224 973.804 628.889 945.458 628.889 945.458Z" fill="#003A54"/>
<path d="M233.754 534.731C274 573.728 402.066 564.469 386.275 563.759L401.385 485.141L411.382 564.895C411.382 564.895 435.467 574.211 489.972 565.15L503.065 510.93L512.779 561.004C512.779 561.004 550.099 550.864 558.563 532.601C558.563 532.601 551.15 394.793 408.4 381.614C408.485 381.614 265.053 384.597 233.754 534.731Z" fill="#231F20"/>
<path d="M512.012 427.796C512.012 427.796 575.065 828.696 492.414 937.988C492.414 937.988 577.167 904.275 587.761 835.74C587.732 835.683 654.648 542.485 512.012 427.796Z" fill="#231F20"/>
<path d="M301.526 426.035C301.526 426.035 233.786 830.712 317.8 938.982C317.8 938.982 232.593 906.319 221.232 837.841C221.204 837.869 160.337 542.712 301.526 426.035Z" fill="#231F20"/>
<path d="M252.051 921.458L398.635 1070.68L556.382 924.185L509.745 906.035L396.477 928.786L305.05 897.714L252.051 921.458Z" fill="#E2E3E4"/>
<path d="M252.051 921.458L322.773 889.761L395.256 917.681L467.369 888.852L543.317 919.64L436.609 987.636L395.341 932.848L351.573 988.175L252.051 921.458Z" fill="#CCCECF"/>
<path d="M908.874 891.834H772.543V914.556H908.874V891.834Z" fill="#A7B4B5"/>
<path d="M1459.88 891.834H1323.55V914.556H1459.88V891.834Z" fill="#A7B4B5"/>
<path d="M925.916 937.278H772.543V991.243H925.916V937.278Z" fill="#C6D4D5"/>
<path d="M1136.09 1013.96H772.543V1067.93H1136.09V1013.96Z" fill="#C6D4D5"/>
<path d="M1582.01 937.278H1323.55V991.243H1582.01V937.278Z" fill="#C6D4D5"/>
<path d="M1687.1 1013.96H1323.55V1067.93H1687.1V1013.96Z" fill="#C6D4D5"/>
<path d="M991.241 323.787H772.543V346.509H991.241V323.787Z" fill="#A7B4B5"/>
<path d="M1022.48 522.604H772.543V545.325H1022.48V522.604Z" fill="#A7B4B5"/>
<path d="M1045.21 721.42H772.543V744.142H1045.21V721.42Z" fill="#A7B4B5"/>
<path d="M1113.37 369.23H772.543V423.195H1113.37V369.23Z" fill="#C6D4D5"/>
<path d="M1209.94 445.917H772.543V499.881H1209.94V445.917Z" fill="#C6D4D5"/>
<path d="M1102.01 568.047H772.543V622.012H1102.01V568.047Z" fill="#C6D4D5"/>
<path d="M1158.82 644.734H772.543V698.698H1158.82V644.734Z" fill="#C6D4D5"/>
<path d="M1306.51 766.864H772.543V820.828H1306.51V766.864Z" fill="#C6D4D5"/>
<path d="M1570.65 445.179L1579 464.123C1581.93 470.686 1586.87 476.149 1593.1 479.723C1599.33 483.296 1606.54 484.796 1613.68 484.005L1634.25 481.761C1640.78 481.047 1647.38 482.249 1653.25 485.221C1659.11 488.193 1663.98 492.807 1667.27 498.5C1670.56 504.193 1672.12 510.719 1671.76 517.284C1671.41 523.848 1669.15 530.167 1665.26 535.47L1653.05 552.171C1648.8 557.977 1646.51 564.985 1646.51 572.18C1646.51 579.375 1648.8 586.383 1653.05 592.189L1665.26 608.89C1669.15 614.193 1671.41 620.512 1671.76 627.076C1672.12 633.641 1670.56 640.167 1667.27 645.86C1663.98 651.553 1659.11 656.167 1653.25 659.139C1647.38 662.111 1640.78 663.313 1634.25 662.599L1613.68 660.355C1606.54 659.564 1599.33 661.064 1593.1 664.637C1586.87 668.211 1581.93 673.674 1579 680.237L1570.65 699.437C1568 705.448 1563.66 710.559 1558.16 714.146C1552.65 717.734 1546.22 719.644 1539.65 719.644C1533.08 719.644 1526.65 717.734 1521.15 714.146C1515.65 710.559 1511.3 705.448 1508.65 699.437L1500.3 680.492C1497.38 673.93 1492.44 668.467 1486.21 664.893C1479.97 661.319 1472.76 659.82 1465.62 660.611L1445.06 662.855C1438.52 663.569 1431.92 662.367 1426.06 659.395C1420.19 656.423 1415.32 651.809 1412.03 646.116C1408.75 640.423 1407.19 633.896 1407.54 627.332C1407.9 620.768 1410.16 614.449 1414.04 609.146L1426.26 592.445C1430.5 586.639 1432.8 579.631 1432.8 572.436C1432.8 565.241 1430.5 558.233 1426.26 552.426L1414.04 535.726C1410.16 530.422 1407.9 524.104 1407.54 517.539C1407.19 510.975 1408.75 504.448 1412.03 498.755C1415.32 493.062 1420.19 488.449 1426.06 485.476C1431.92 482.504 1438.52 481.302 1445.06 482.017L1465.62 484.26C1472.76 485.052 1479.97 483.552 1486.21 479.978C1492.44 476.405 1497.38 470.942 1500.3 464.379L1508.65 445.434C1511.28 439.412 1515.6 434.284 1521.09 430.673C1526.58 427.063 1533 425.126 1539.57 425.099C1546.14 425.072 1552.58 426.956 1558.09 430.521C1563.61 434.086 1567.98 439.178 1570.65 445.179V445.179Z" fill="#C6D4D8"/>
<path d="M1539.61 650.414C1582.74 650.414 1617.71 615.445 1617.71 572.308C1617.71 529.171 1582.74 494.201 1539.61 494.201C1496.47 494.201 1461.5 529.171 1461.5 572.308C1461.5 615.445 1496.47 650.414 1539.61 650.414Z" fill="#AFC3C9"/>
</svg>
