<svg xmlns="http://www.w3.org/2000/svg" xmlns:xlink="http://www.w3.org/1999/xlink" viewBox="0 0 994.78 197.9"><defs><style>.cls-1{fill:#f7941d;}.cls-2{fill:url(#linear-gradient);}.cls-3{fill:#39b54a;}.cls-4{fill:url(#linear-gradient-12);}.cls-5{fill:url(#linear-gradient-13);}</style><linearGradient id="linear-gradient" x1="212.86" y1="98.95" x2="994.78" y2="98.95" gradientUnits="userSpaceOnUse"><stop offset="0.25" stop-color="#fdcd15"/><stop offset="0.5" stop-color="#fff"/><stop offset="0.75" stop-color="#fdcd15"/></linearGradient><linearGradient id="linear-gradient-12" x1="-2.7" y1="68.93" x2="128.97" y2="200.59" xlink:href="#linear-gradient"/><linearGradient id="linear-gradient-13" x1="48.29" y1="42.63" x2="155.27" y2="149.61" xlink:href="#linear-gradient"/></defs><title>Asset 32</title><g id="Layer_2" data-name="Layer 2"><g id="Layer_1-2" data-name="Layer 1"><path class="cls-1" d="M212.86,99c0-24.45,20.29-44.79,44.69-44.79,11.17.11,22,5.23,29.9,13.17l-5.72,7.72c-6.26-6.42-15-10.9-24.56-10.9-17.49,0-34.38,15.11-34.38,34.81s16.73,34.7,34.54,34.7c9.82,0,18.19-4.64,24.45-10.79l5.67,7.88c-7.23,7.18-17,12.79-29.85,12.79C233.42,143.58,212.86,123.67,212.86,99Z"/><path class="cls-1" d="M349.78,142.45,325.5,108.5H309.25v33.95h-9.82l-.05-87h25.69c16.14,0,29.31,12.41,29.31,27.74a25.5,25.5,0,0,1-18.3,24.18l25.85,35.08Zm-24.39-42.21c10.36,0,18.89-7.88,18.89-17.27,0-10-8.63-17.81-18.89-17.81H309.2v35Z"/><path class="cls-1" d="M385.24,105.48l-30.71-50h11l24.61,39.07,24.61-39.07h11.06l-30.82,50v37h-9.77Z"/><path class="cls-1" d="M436.35,55.45h27.58c16.84,0,30.6,12.63,30.6,28.06,0,14.79-13.76,26.82-30.6,26.82H446.17v32.11h-9.82Zm48.36,28c0-10-9.34-18.24-20.78-18.24H446.17v35.46l17.76.05C475.37,100.73,484.71,93,484.71,83.41Z"/><path class="cls-1" d="M560.38,65.16H535.17v77.29h-9.82V65.16H500V55.45h60.34Z"/><path class="cls-1" d="M563.4,99A44.71,44.71,0,1,1,608,143.58,44.87,44.87,0,0,1,563.4,99Zm79.5-.05A34.78,34.78,0,1,0,608,133.65,35,35,0,0,0,642.9,98.95Z"/><path class="cls-1" d="M666.59,55.45h9.82v87h-9.82Z"/><path class="cls-1" d="M764.71,55.23V143.8h-.49L704.58,77.58v65h-9.82V54.1h.54l59.58,66.17v-65Z"/><path class="cls-1" d="M851.65,99c0,26.55-17.27,43.45-44.36,43.45H783.06v-87l24.23-.05C834.38,55.4,851.65,72.34,851.65,99Zm-9.88,0c0-20.56-13.49-33.84-34.54-33.84H792.88v67.46H807.4C828.34,132.63,841.78,119.46,841.78,99Z"/><path class="cls-1" d="M875.24,65.11V92.63H911v9.82H875.24v30.22h41.29v9.77H865.41v-87h51.11v9.66Z"/><path class="cls-1" d="M953.82,97.22,926.51,55.45H937.9l21.7,33.25,21.59-33.25h11.44L965.26,97.22l29.52,45.23H983.61l-24.07-36.38-24,36.38H924.35Z"/><path class="cls-2" d="M212.86,99c0-24.45,20.29-44.79,44.69-44.79,11.17.11,22,5.23,29.9,13.17l-5.72,7.72c-6.26-6.42-15-10.9-24.56-10.9-17.49,0-34.38,15.11-34.38,34.81s16.73,34.7,34.54,34.7c9.82,0,18.19-4.64,24.45-10.79l5.67,7.88c-7.23,7.18-17,12.79-29.85,12.79C233.42,143.58,212.86,123.67,212.86,99Z"/><path class="cls-2" d="M349.78,142.45,325.5,108.5H309.25v33.95h-9.82l-.05-87h25.69c16.14,0,29.31,12.41,29.31,27.74a25.5,25.5,0,0,1-18.3,24.18l25.85,35.08Zm-24.39-42.21c10.36,0,18.89-7.88,18.89-17.27,0-10-8.63-17.81-18.89-17.81H309.2v35Z"/><path class="cls-2" d="M385.24,105.48l-30.71-50h11l24.61,39.07,24.61-39.07h11.06l-30.82,50v37h-9.77Z"/><path class="cls-2" d="M436.35,55.45h27.58c16.84,0,30.6,12.63,30.6,28.06,0,14.79-13.76,26.82-30.6,26.82H446.17v32.11h-9.82Zm48.36,28c0-10-9.34-18.24-20.78-18.24H446.17v35.46l17.76.05C475.37,100.73,484.71,93,484.71,83.41Z"/><path class="cls-2" d="M560.38,65.16H535.17v77.29h-9.82V65.16H500V55.45h60.34Z"/><path class="cls-2" d="M563.4,99A44.71,44.71,0,1,1,608,143.58,44.87,44.87,0,0,1,563.4,99Zm79.5-.05A34.78,34.78,0,1,0,608,133.65,35,35,0,0,0,642.9,98.95Z"/><path class="cls-2" d="M666.59,55.45h9.82v87h-9.82Z"/><path class="cls-2" d="M764.71,55.23V143.8h-.49L704.58,77.58v65h-9.82V54.1h.54l59.58,66.17v-65Z"/><path class="cls-2" d="M851.65,99c0,26.55-17.27,43.45-44.36,43.45H783.06v-87l24.23-.05C834.38,55.4,851.65,72.34,851.65,99Zm-9.88,0c0-20.56-13.49-33.84-34.54-33.84H792.88v67.46H807.4C828.34,132.63,841.78,119.46,841.78,99Z"/><path class="cls-2" d="M875.24,65.11V92.63H911v9.82H875.24v30.22h41.29v9.77H865.41v-87h51.11v9.66Z"/><path class="cls-2" d="M953.82,97.22,926.51,55.45H937.9l21.7,33.25,21.59-33.25h11.44L965.26,97.22l29.52,45.23H983.61l-24.07-36.38-24,36.38H924.35Z"/><path class="cls-3" d="M130,19.38v2.35A90.88,90.88,0,1,1,35,34.91l-1.53-1.53a93,93,0,1,0,96.49-14Z"/><path class="cls-3" d="M124.68,17.28v2.29a90.27,90.27,0,0,0-24.53-5.36q-2.63-.21-5.31-.26l-1.74,0A90.46,90.46,0,0,0,35,34.91l-1.53-1.53a93.16,93.16,0,0,1,91.18-16.1Z"/><path class="cls-4" d="M164.51,164.4,163,162.87l-8.33-8.33A79.14,79.14,0,1,1,43.36,43.24l-9.92-9.92A93.1,93.1,0,1,0,164.57,164.46Z"/><path class="cls-5" d="M140.72,140.61a59.69,59.69,0,0,1-10.73,11v-51h8V36.86h-8V0h-5.31V36.86h-8v63.69h8v54.78A59.18,59.18,0,0,1,100.15,164V114.29h8V50.6h-8V14.2q-2.63-.21-5.31-.26V50.6h-8v63.69h8v50.07c-.58,0-1.16,0-1.74,0A59.33,59.33,0,0,1,70.76,160V128h8V64.33h-8V27.47H65.45V64.33h-8V128h8v29.56A59.59,59.59,0,0,1,57.29,57.17L45.84,45.73A75.65,75.65,0,1,0,152.17,152.06ZM62.8,122.71V69.64H73.42v53.07ZM92.18,109V55.9H102.8V109ZM122,95.24V42.17h10.61V95.24Z"/></g></g></svg>