<svg width="2574" height="512" viewBox="0 0 2574 512" fill="none" xmlns="http://www.w3.org/2000/svg">
<g clip-path="url(#clip0)">
<path d="M550.702 256.352C550.912 225.727 563.15 196.412 584.777 174.728C606.404 153.044 635.688 140.73 666.312 140.44C695.546 141.317 723.292 153.54 743.67 174.52L728.892 194.626C720.745 185.836 710.923 178.765 700.004 173.827C689.084 168.889 677.287 166.185 665.307 165.874C650.378 165.639 635.625 169.125 622.38 176.017C609.135 182.909 597.815 192.99 589.44 205.351C581.066 217.713 575.901 231.964 574.413 246.821C572.924 261.677 575.158 276.671 580.913 290.448C586.667 304.225 595.762 316.352 607.376 325.735C618.99 335.119 632.758 341.462 647.437 344.194C662.115 346.926 677.243 345.959 691.455 341.382C705.667 336.805 718.516 328.761 728.842 317.977L743.519 338.384C733.538 348.81 721.556 357.113 708.289 362.797C695.022 368.48 680.745 371.426 666.312 371.459C635.798 371.263 606.581 359.088 584.957 337.558C563.333 316.028 551.031 286.865 550.702 256.352Z" fill="#F7941D"/>
<path d="M904.771 368.544L841.94 280.731H799.918V368.544H774.484V143.457H840.935C882.705 143.457 916.735 175.576 916.735 215.235C916.581 229.326 911.921 242.997 903.437 254.249C894.953 265.5 883.091 273.741 869.586 277.765L936.489 368.544H904.771ZM841.789 259.318C868.581 259.318 890.647 238.91 890.647 214.632C890.647 188.645 868.329 168.539 841.789 168.539H799.918V259.016L841.789 259.318Z" fill="url(#paint0_linear)"/>
<path d="M996.655 272.889L917.186 143.457H945.686L1009.37 244.54L1073.06 143.457H1101.66L1021.94 272.889V368.393H996.805L996.655 272.889Z" fill="#F7941D"/>
<path d="M1128.85 143.457H1200.18C1243.76 143.457 1279.35 176.129 1279.35 216.039C1279.35 254.291 1243.76 285.455 1200.18 285.455H1154.24V368.544H1128.8L1128.85 143.457ZM1253.96 215.788C1253.96 189.801 1229.79 168.589 1200.23 168.589H1154.29V260.323H1200.23C1229.84 260.574 1253.96 240.468 1253.96 215.788Z" fill="#F7941D"/>
<path d="M1449.75 168.589H1384.4V368.544H1358.97V168.589H1293.62V143.457H1449.75V168.589Z" fill="#F7941D"/>
<path d="M1457.69 256.352C1457.63 233.473 1464.36 211.092 1477.02 192.04C1489.69 172.989 1507.73 158.124 1528.85 149.327C1549.96 140.531 1573.22 138.198 1595.67 142.625C1618.11 147.052 1638.74 158.039 1654.94 174.195C1671.14 190.351 1682.18 210.95 1686.66 233.385C1691.15 255.819 1688.88 279.08 1680.13 300.222C1671.39 321.365 1656.58 339.438 1637.56 352.155C1618.54 364.872 1596.17 371.66 1573.3 371.66C1542.72 371.541 1513.43 359.364 1491.79 337.774C1470.14 316.184 1457.89 286.924 1457.69 256.352ZM1663.37 256.352C1663.41 238.556 1658.17 221.149 1648.32 206.331C1638.47 191.513 1624.44 179.949 1608.01 173.102C1591.59 166.256 1573.5 164.434 1556.04 167.866C1538.58 171.299 1522.53 179.832 1509.92 192.387C1497.31 204.942 1488.7 220.955 1485.19 238.4C1481.68 255.846 1483.42 273.941 1490.19 290.397C1496.97 306.852 1508.47 320.93 1523.24 330.85C1538.02 340.769 1555.4 346.085 1573.2 346.125C1597.05 346.006 1619.9 336.469 1636.76 319.59C1653.62 302.711 1663.13 279.857 1663.22 256L1663.37 256.352Z" fill="#F7941D"/>
<path d="M1724.49 143.457H1749.93V368.544H1724.49V143.457Z" fill="#F7941D"/>
<path d="M1978.33 142.903V371.961H1977.08L1822.81 200.708V368.795H1797.38V139.938H1798.79L1952.95 311.141V142.903H1978.33Z" fill="#F7941D"/>
<path d="M2203.27 256.352C2203.27 325.064 2158.58 368.745 2088.51 368.745H2025.68V143.457H2088.36C2158.63 143.306 2203.27 187.137 2203.27 256.352ZM2177.73 256.352C2177.73 203.171 2142.85 168.79 2088.36 168.79H2051.22V343.109H2088.76C2142.95 343.109 2177.73 309.03 2177.73 256.352Z" fill="#F7941D"/>
<path d="M2264.29 168.438V239.664H2356.88V265.098H2264.29V343.26H2371.1V368.393H2238.91V143.457H2371.15V168.589L2264.29 168.438Z" fill="#F7941D"/>
<path d="M2467.61 251.325L2396.94 143.255H2426.4L2482.54 229.259L2538.39 143.456H2567.99L2497.22 251.325L2573.57 368.543H2544.67L2482.39 274.397L2420.26 368.543H2391.36L2467.61 251.325Z" fill="#F7941D"/>
<path d="M550.702 256.352C550.912 225.727 563.15 196.412 584.777 174.728C606.404 153.044 635.688 140.73 666.312 140.44C695.546 141.317 723.292 153.54 743.67 174.52L728.892 194.626C720.745 185.836 710.923 178.765 700.004 173.827C689.084 168.889 677.287 166.185 665.307 165.874C650.378 165.639 635.625 169.125 622.38 176.017C609.135 182.909 597.815 192.99 589.44 205.351C581.066 217.713 575.901 231.964 574.413 246.821C572.924 261.677 575.158 276.671 580.913 290.448C586.667 304.225 595.762 316.352 607.376 325.735C618.99 335.119 632.758 341.462 647.437 344.194C662.115 346.926 677.243 345.959 691.455 341.382C705.667 336.805 718.516 328.761 728.842 317.977L743.519 338.384C733.538 348.81 721.556 357.113 708.289 362.797C695.022 368.48 680.745 371.426 666.312 371.459C635.798 371.263 606.581 359.088 584.957 337.558C563.333 316.028 551.031 286.865 550.702 256.352Z" fill="#F7BC16"/>
<path d="M904.771 368.544L841.94 280.731H799.918V368.544H774.484V143.457H840.935C882.705 143.457 916.735 175.576 916.735 215.235C916.581 229.326 911.921 242.997 903.437 254.249C894.953 265.5 883.091 273.741 869.586 277.765L936.489 368.544H904.771ZM841.789 259.318C868.581 259.318 890.647 238.91 890.647 214.632C890.647 188.645 868.329 168.539 841.789 168.539H799.918V259.016L841.789 259.318Z" fill="#F7BC16"/>
<path d="M996.655 272.889L917.186 143.457H945.686L1009.37 244.54L1073.06 143.457H1101.66L1021.94 272.889V368.393H996.805L996.655 272.889Z" fill="#F7BC16"/>
<path d="M1128.85 143.457H1200.18C1243.76 143.457 1279.35 176.129 1279.35 216.039C1279.35 254.291 1243.76 285.455 1200.18 285.455H1154.24V368.544H1128.8L1128.85 143.457ZM1253.96 215.788C1253.96 189.801 1229.79 168.589 1200.23 168.589H1154.29V260.323H1200.23C1229.84 260.574 1253.96 240.468 1253.96 215.788Z" fill="#F7BC16"/>
<path d="M1449.75 168.589H1384.4V368.544H1358.97V168.589H1293.62V143.457H1449.75V168.589Z" fill="#F7BC16"/>
<path d="M1457.69 256.352C1457.63 233.473 1464.36 211.092 1477.02 192.04C1489.69 172.989 1507.73 158.124 1528.85 149.327C1549.96 140.531 1573.22 138.198 1595.67 142.625C1618.11 147.052 1638.74 158.039 1654.94 174.195C1671.14 190.351 1682.18 210.95 1686.66 233.385C1691.15 255.819 1688.88 279.08 1680.13 300.222C1671.39 321.365 1656.58 339.438 1637.56 352.155C1618.54 364.872 1596.17 371.66 1573.3 371.66C1542.72 371.541 1513.43 359.364 1491.79 337.774C1470.14 316.184 1457.89 286.924 1457.69 256.352ZM1663.37 256.352C1663.41 238.556 1658.17 221.149 1648.32 206.331C1638.47 191.513 1624.44 179.949 1608.01 173.102C1591.59 166.256 1573.5 164.434 1556.04 167.866C1538.58 171.299 1522.53 179.832 1509.92 192.387C1497.31 204.942 1488.7 220.955 1485.19 238.4C1481.68 255.846 1483.42 273.941 1490.19 290.397C1496.97 306.852 1508.47 320.93 1523.24 330.85C1538.02 340.769 1555.4 346.085 1573.2 346.125C1597.05 346.006 1619.9 336.469 1636.76 319.59C1653.62 302.711 1663.13 279.857 1663.22 256L1663.37 256.352Z" fill="#F7BC16"/>
<path d="M1724.49 143.457H1749.93V368.544H1724.49V143.457Z" fill="#F7BC16"/>
<path d="M1978.33 142.903V371.961H1977.08L1822.81 200.708V368.795H1797.38V139.938H1798.79L1952.95 311.141V142.903H1978.33Z" fill="#F7BC16"/>
<path d="M2203.27 256.352C2203.27 325.064 2158.58 368.745 2088.51 368.745H2025.68V143.457H2088.36C2158.63 143.306 2203.27 187.137 2203.27 256.352ZM2177.73 256.352C2177.73 203.171 2142.85 168.79 2088.36 168.79H2051.22V343.109H2088.76C2142.95 343.109 2177.73 309.03 2177.73 256.352Z" fill="#F7BC16"/>
<path d="M2264.29 168.438V239.664H2356.88V265.098H2264.29V343.26H2371.1V368.393H2238.91V143.457H2371.15V168.589L2264.29 168.438Z" fill="#F7BC16"/>
<path d="M2467.61 251.325L2396.94 143.255H2426.4L2482.54 229.259L2538.39 143.456H2567.99L2497.22 251.325L2573.57 368.543H2544.67L2482.39 274.397L2420.26 368.543H2391.36L2467.61 251.325Z" fill="#F7BC16"/>
<path d="M336.273 50.265V56.3471C382.972 77.0911 421.641 112.486 446.425 157.173C471.209 201.86 480.758 253.406 473.626 304.005C466.495 354.604 443.07 401.502 406.9 437.598C370.731 473.694 323.785 497.022 273.171 504.05C222.557 511.078 171.031 501.423 126.395 476.548C81.7588 451.672 46.4431 412.931 25.795 366.189C5.14685 319.446 0.290644 267.249 11.9617 217.5C23.6327 167.752 51.1953 123.16 90.4764 90.4771L86.5054 86.5061C46.3119 120.098 18.1779 165.888 6.37589 216.923C-5.42614 267.959 -0.251553 321.451 21.1139 369.278C42.4793 417.105 78.8684 456.654 124.755 481.918C170.642 507.183 223.52 516.783 275.36 509.261C327.199 501.739 375.168 477.506 411.982 440.242C448.796 402.978 472.445 354.718 479.336 302.791C486.227 250.864 475.985 198.106 450.164 152.53C424.344 106.953 384.356 71.0475 336.273 50.265Z" fill="#39B54A"/>
<path d="M322.551 44.6856V50.6168C302.139 43.0564 280.771 38.3868 259.066 36.7437C254.542 36.3751 249.968 36.1573 245.343 36.0902H240.82C185.875 36.0089 132.653 55.262 90.4768 90.477L86.5059 86.5061C118.795 59.5709 157.563 41.5419 198.967 34.2063C240.371 26.8707 282.973 30.4831 322.551 44.6856Z" fill="#39B54A"/>
<path d="M425.594 425.343L421.623 421.372L400.11 399.808C382.065 422.133 359.526 440.414 333.958 453.463C308.389 466.512 280.362 474.039 251.696 475.554C223.03 477.069 194.366 472.539 167.565 462.257C140.763 451.976 116.423 436.173 96.1249 415.875C75.8268 395.577 60.0241 371.237 49.7428 344.435C39.4614 317.634 34.9313 288.97 36.4464 260.304C37.9615 231.638 45.4879 203.611 58.5372 178.043C71.5865 152.474 89.8668 129.936 112.192 111.89L86.5061 86.2047C60.8176 107.639 39.8759 134.189 25.0156 164.163C10.1553 194.138 1.70223 226.88 0.195193 260.302C-1.31184 293.724 4.16017 327.093 16.2625 358.284C28.3648 389.474 46.8321 417.801 70.4873 441.46C94.1426 465.119 122.467 483.59 153.656 495.697C184.844 507.804 218.213 513.281 251.635 511.779C285.058 510.277 317.801 501.829 347.777 486.973C377.754 472.117 404.307 451.179 425.745 425.494L425.594 425.343Z" fill="#F7BC16"/>
<path d="M364.07 363.768C356.06 374.357 346.717 383.869 336.273 392.068V260.122H356.882V95.5036H336.273V0H322.551V95.5036H301.942V260.122H322.551V401.819C303.306 413.874 281.621 421.497 259.066 424.137V295.659H279.675V130.689H259.066V36.7438C254.542 36.3752 249.968 36.1573 245.344 36.0903V130.689H224.735V295.659H245.344V425.192H240.82C221.009 425.222 201.379 421.416 183.015 413.983V331.197H203.624V166.428H183.015V70.924H169.343V166.428H148.734V331.197H169.343V407.65C146.3 395.577 126.686 377.87 112.329 356.176C97.9712 334.483 89.3369 309.509 87.2297 283.58C85.1224 257.651 89.6109 231.611 100.277 207.884C110.943 184.157 127.44 163.515 148.232 147.88L118.626 118.274C97.0909 135.454 79.4254 156.987 66.7844 181.463C54.1433 205.94 46.8114 232.81 45.2683 260.315C43.7251 287.82 48.0054 315.341 57.8292 341.078C67.6531 366.815 82.7991 390.189 102.277 409.67C121.755 429.151 145.125 444.302 170.861 454.13C196.596 463.959 224.116 468.244 251.622 466.706C279.127 465.168 305.998 457.841 330.477 445.204C354.956 432.568 376.492 414.906 393.676 393.374L364.07 363.768ZM162.457 317.474V180.15H189.952V317.474H162.457ZM238.458 281.937V144.613H265.953V281.937H238.458ZM315.715 246.299V109.075H343.16V246.299H315.715Z" fill="#F7BC16"/>
</g>
<defs>
<linearGradient id="paint0_linear" x1="774.484" y1="256" x2="936.338" y2="256" gradientUnits="userSpaceOnUse">
<stop offset="0.25" stop-color="#FDCD15"/>
<stop offset="0.5" stop-color="white"/>
<stop offset="0.75" stop-color="#FDCD15"/>
</linearGradient>
<clipPath id="clip0">
<rect width="2573.57" height="512" fill="white"/>
</clipPath>
</defs>
</svg>
