<svg width="146" height="29" viewBox="0 0 146 29" fill="none" xmlns="http://www.w3.org/2000/svg">
<path d="M28.5875 14.2951C28.5888 14.9325 28.5474 15.5692 28.4636 16.201C27.6954 16.797 26.8213 17.2422 25.8874 17.513C24.8353 17.8117 23.7474 17.9656 22.6537 17.9704C23.1623 16.8121 23.4231 15.5602 23.4192 14.2951C23.4186 13.7626 23.3719 13.2312 23.2795 12.7068L25.1219 11.6427C25.3661 11.5131 25.5818 11.3358 25.756 11.1211C25.9302 10.9064 26.0594 10.6588 26.1358 10.3931C26.2123 10.1274 26.2344 9.84903 26.2009 9.57459C26.1674 9.30015 26.0789 9.03528 25.9408 8.79577C25.8027 8.55626 25.6178 8.34703 25.397 8.18056C25.1763 8.0141 24.9243 7.89381 24.656 7.82687C24.3878 7.75993 24.1088 7.74771 23.8357 7.79095C23.5626 7.83419 23.3011 7.932 23.0666 8.07854L21.6435 8.89492C20.7627 7.70386 19.6077 6.74278 18.2764 6.09318C19.0705 5.33398 19.7789 4.60973 20.4047 3.94265C21.0305 3.27557 21.5101 2.7292 21.9485 2.22412C23.9824 3.51396 25.6574 5.29678 26.8181 7.40706C27.9787 9.51735 28.5874 11.8867 28.5875 14.2951Z" fill="#8D8D8D"/>
<path d="M20.6239 1.47764C20.1633 2.00495 19.6265 2.59579 19.0166 3.23429C18.3431 3.93948 17.5776 4.70504 16.7263 5.50236C15.7066 6.45533 14.563 7.4623 13.2987 8.47563C12.0345 9.48895 10.5891 10.5563 9.05485 11.5664C8.5466 11.901 8.02458 12.2314 7.4888 12.5575C6.64206 13.0639 5.86289 13.6755 5.1699 14.3777C4.07438 15.4736 3.3131 16.8584 2.97489 18.3706C2.63367 20.1001 2.77882 21.8902 3.3942 23.5421C1.26732 21.0351 0.0696313 17.8715 0.00294313 14.5845C-0.063745 11.2975 1.00464 8.08803 3.02809 5.4968C5.05153 2.90557 7.90633 1.09103 11.1115 0.358931C14.3166 -0.373169 17.6761 0.0219261 20.6239 1.47764Z" fill="#F9BD00"/>
<path d="M27.6664 19.3556C26.9555 21.2351 25.8563 22.9436 24.4406 24.3696C23.0248 25.7957 21.3243 26.9072 19.45 27.6317C17.5757 28.3562 15.5697 28.6774 13.5628 28.5743C11.556 28.4712 9.59349 27.9461 7.80329 27.0334C7.57287 26.1694 7.55651 25.2622 7.75564 24.3905C7.0924 23.96 6.47316 23.4652 5.90688 22.9133C5.73866 23.4534 5.68932 24.0235 5.76225 24.5844C5.83517 25.1454 6.02864 25.6839 6.32936 26.163C5.16991 25.318 4.74107 24.8924 4.48377 24.6891C3.9619 23.2991 3.75785 21.8099 3.88658 20.3308C4.02621 18.9055 4.54866 17.5445 5.39862 16.3918C5.7905 18.0598 6.64399 19.5838 7.86145 20.7893C9.07891 21.9949 10.6112 22.8334 12.2829 23.209C13.9546 23.5845 15.6982 23.4818 17.3143 22.9127C18.9304 22.3436 20.3537 21.331 21.4212 19.9909C22.5733 20.0884 23.7316 20.0884 24.8837 19.9909C25.8368 19.9128 26.7739 19.6989 27.6664 19.3556Z" fill="#F9BD00"/>
<path d="M20.1984 14.47C20.1613 15.6592 19.7636 16.8091 19.058 17.7673C18.5123 18.5204 17.7961 19.1338 16.968 19.5573C16.1399 19.9807 15.2233 20.2022 14.2932 20.2037C13.5412 20.2051 12.7959 20.0616 12.0982 19.7812C11.0019 19.3425 10.0622 18.5855 9.40031 17.6076C8.73841 16.6298 8.38469 15.4761 8.38477 14.2953C8.38477 14.092 8.38477 13.8887 8.41653 13.6885L8.54359 13.6091C11.013 12.1012 13.3603 10.4018 15.5638 8.52661C16.8406 8.80817 17.988 9.5053 18.8262 10.5088L17.0028 11.5634C16.7585 11.6929 16.5429 11.8703 16.3687 12.085C16.1944 12.2997 16.0653 12.5473 15.9888 12.813C15.9124 13.0787 15.8903 13.357 15.9238 13.6315C15.9573 13.9059 16.0457 14.1708 16.1838 14.4103C16.322 14.6498 16.5069 14.859 16.7276 15.0255C16.9484 15.192 17.2004 15.3123 17.4687 15.3792C17.7369 15.4461 18.0159 15.4584 18.289 15.4151C18.562 15.3719 18.8236 15.2741 19.058 15.1275L20.1984 14.47Z" fill="#00FFE0"/>
<path d="M35.179 14.3366C35.179 15.6962 35.3135 16.6629 35.5825 17.2368C35.6851 17.5011 35.8675 17.7269 36.1043 17.8828C36.3411 18.0388 36.6205 18.1172 36.9039 18.1072C37.7854 18.0644 38.6587 17.9173 39.5055 17.6688L40.1027 20.9153C38.931 21.3527 37.6909 21.5786 36.4401 21.5823C34.5977 21.5823 33.2583 20.9724 32.4218 19.7526C31.5853 18.5328 31.1691 16.7137 31.1734 14.2953C31.1734 11.8769 31.6107 10.027 32.4853 8.74582C33.3599 7.4646 34.7873 6.824 36.7673 6.824C37.9208 6.82136 39.0607 7.07298 40.1059 7.56096L39.4833 11.1187C38.2868 10.7206 37.4503 10.5215 36.9738 10.5215C36.6768 10.5034 36.3816 10.5796 36.1306 10.7394C35.8795 10.8992 35.6855 11.1342 35.5761 11.411C35.3114 12.0018 35.179 12.977 35.179 14.3366Z" fill="#F9BD00"/>
<path d="M50.8588 11.5862C50.8831 12.3196 50.7498 13.0497 50.4681 13.7272C50.1787 14.3271 49.7573 14.8538 49.2356 15.2678L51.1415 21.3478H46.8976L45.4713 16.2017H44.9408V21.3478H41.0718V7.05322H46.4148C47.9501 7.05322 49.0746 7.41429 49.7883 8.13643C50.502 8.85857 50.8588 10.0085 50.8588 11.5862ZM46.3767 13.4254C46.5847 13.0362 46.6731 12.5941 46.6308 12.1548C46.6694 11.7157 46.5812 11.2747 46.3767 10.8842C46.2786 10.761 46.1516 10.664 46.0069 10.602C45.8622 10.5399 45.7044 10.5146 45.5476 10.5284H44.9123V13.7717H45.5094C45.6713 13.7899 45.8352 13.7679 45.9865 13.7075C46.1378 13.6471 46.2719 13.5502 46.3767 13.4254Z" fill="#F9BD00"/>
<path d="M62.1196 7.05005L58.7111 16.9292V21.3478H54.7944V16.926L51.4336 7.04688H55.7633L56.7988 11.6974H56.9831L57.9742 7.04688L62.1196 7.05005Z" fill="#F9BD00"/>
<path d="M68.0594 16.6719H67.0016V21.3478H63.1294V7.05322H67.8021C69.4434 7.05322 70.6642 7.42912 71.4647 8.18091C72.2652 8.93269 72.6644 10.1684 72.6623 11.888C72.6623 13.6075 72.2864 14.8358 71.5346 15.5728C70.7828 16.3098 69.6244 16.6761 68.0594 16.6719ZM68.4978 13.562C68.6676 13.1145 68.7381 12.6354 68.7043 12.158C68.7386 11.6713 68.6603 11.1832 68.4756 10.7317C68.3761 10.5835 68.237 10.4662 68.0741 10.3932C67.9113 10.3202 67.7312 10.2944 67.5544 10.3187H67.0016V13.9559H67.6369C67.8023 13.9796 67.971 13.9554 68.123 13.8861C68.275 13.8169 68.404 13.7055 68.4946 13.5652L68.4978 13.562Z" fill="#F9BD00"/>
<path d="M82.1253 10.5252H79.4538V21.3478H75.5181V10.5252H72.6846L72.9133 7.04688H82.3541L82.1253 10.5252Z" fill="#F9BD00"/>
<path d="M84.1174 8.54593C85.0004 7.39389 86.4468 6.81787 88.4566 6.81787C90.4663 6.81787 91.9052 7.38542 92.7735 8.52051C93.6397 9.65773 94.0727 11.5033 94.0727 14.0573C94.0727 16.6112 93.6333 18.5034 92.7545 19.7338C91.8629 20.9621 90.4197 21.5762 88.4248 21.5762C86.4299 21.5762 84.9909 20.9706 84.1078 19.7592C83.2332 18.5479 82.7959 16.6642 82.7959 14.1081C82.7959 11.552 83.2364 9.69796 84.1174 8.54593ZM89.7812 11.2047C89.5588 10.7071 89.1056 10.4572 88.4216 10.455C87.7376 10.4529 87.296 10.7028 87.097 11.2047C86.8979 11.7045 86.7984 12.6575 86.7984 14.0636V14.6132C86.7984 16.0956 86.9096 17.074 87.1319 17.5483C87.3543 18.0227 87.8075 18.2567 88.4915 18.2504C89.1734 18.2504 89.6149 18.028 89.8161 17.5833C90.0173 17.1386 90.1168 16.2173 90.1147 14.8197V14.07C90.1168 12.6596 90.0067 11.7045 89.7844 11.2047H89.7812Z" fill="#F9BD00"/>
<path d="M99.7871 21.3478H95.8735V7.05322H99.7871V21.3478Z" fill="white"/>
<path d="M112.475 21.3478H108.698L105.728 14.6929H105.544V21.3478H102.049V7.05323H105.941L108.774 13.9146H108.955V7.05005H112.478L112.475 21.3478Z" fill="white"/>
<path d="M125.139 13.886C125.139 18.8605 123.174 21.3478 119.244 21.3478H114.501V7.05322H119.336C121.439 7.05322 122.932 7.64089 123.815 8.81622C124.698 9.99155 125.139 11.6815 125.139 13.886ZM120.752 17.1547C120.99 16.5787 121.108 15.612 121.108 14.2545C121.108 12.8971 120.981 11.9335 120.727 11.3638C120.473 10.7963 119.932 10.5125 119.104 10.5125H118.415V18.0315H119.174C119.985 18.0315 120.511 17.7392 120.752 17.1547Z" fill="white"/>
<path d="M134.348 21.3478H126.61V7.05322H134.577L134.348 10.576H130.556V12.7075H133.85V15.7475H130.556V18.1204H134.584L134.348 21.3478Z" fill="white"/>
<path d="M146 21.3478H141.508L140.555 16.7894H140.371L139.275 21.3478H135.038L137.261 13.9337L135.212 7.05005H139.863L140.644 11.2876H140.828L141.68 7.05005H145.733L143.868 13.9337L146 21.3478Z" fill="white"/>
</svg>
