<svg width="126" height="126" viewBox="0 0 126 126" fill="none" xmlns="http://www.w3.org/2000/svg">
<circle cx="63" cy="63" r="61" fill="url(#paint0_radial)" stroke="#242D50" stroke-width="4"/>
<path d="M38.1152 58.4473C38.1152 58.4473 43.0774 53.0446 48.0354 51.9765C48.0354 51.9765 29.8574 70.9151 41.7517 89.7954C37.837 86.9223 34.5497 83.2807 32.0909 79.0934C29.6321 74.9061 28.0535 70.2612 27.4517 65.4428C26.8499 60.6244 27.2375 55.7338 28.5909 51.0704C29.9442 46.407 32.2348 42.0687 35.3226 38.321C38.4103 34.5733 42.2302 31.495 46.5486 29.2745C50.867 27.054 55.593 25.7378 60.4375 25.4067C65.2821 25.0756 70.1433 25.7364 74.7236 27.3486C79.304 28.9609 83.5072 31.4908 87.0762 34.7835C86.4403 34.4801 44.3034 14.5607 38.1152 58.4473Z" fill="#F9BD00"/>
<path d="M91.5853 65.7785C91.5853 65.7785 81.6651 54.1419 67.4269 63.1894C53.1887 72.2368 70.8763 83.25 66.3463 93.3863C65.4585 89.4668 63.6008 85.8328 60.9436 82.8178C56.6298 78.0717 56.1976 73.3257 56.1976 73.3257C56.1976 73.3257 52.3367 77.6354 54.4812 82.3814C54.1819 81.9658 44.8685 68.5921 63.9774 55.4303C63.9774 55.4303 34.94 59.3036 50.4042 94.5541C51.2631 96.513 52.2633 98.5688 53.4048 100.722C50.9002 98.3859 48.6694 95.773 46.7553 92.9333V92.9333C39.898 82.8511 33.4231 64.6439 58.7992 48.3028C58.7992 48.3028 54.2692 43.3407 56.4261 40.3235C56.4261 40.3235 63.7613 50.2437 77.1309 49.8156C77.1309 49.8156 77.3471 52.837 79.2879 53.9133C81.2287 54.9897 82.7373 54.5617 83.8178 56.2864C83.8178 56.2864 85.3264 51.1081 74.974 47.8748C64.6216 44.6415 57.5191 42.0565 57.9347 34.9332C57.9347 34.9332 67.4269 41.404 73.2493 42.2684C79.0718 43.1329 86.195 49.1714 86.4111 54.1211C86.4111 54.1211 95.2549 56.9347 91.5853 65.7785Z" fill="#F9BD00"/>
<path d="M98.7047 61.1444C98.7036 69.6682 95.6534 77.9105 90.1053 84.3816C84.5573 90.8526 76.8774 95.1256 68.4537 96.4282C72.7093 91.919 68.9441 84.9786 65.7108 76.5629C62.4775 68.1471 70.6729 64.0535 70.6729 64.0535C67.2235 81.5084 72.7177 79.5468 73.046 79.152C74.0434 77.9385 72.6304 74.1898 72.6304 74.1898C77.3764 76.779 74.7873 86.4831 74.7873 86.4831C91.8266 89.9325 98.6548 58.8752 98.6548 58.8752C98.6544 58.8836 98.6544 58.8919 98.6548 58.9002C98.688 59.6482 98.7047 60.3963 98.7047 61.1444Z" fill="#F9BD00"/>
<defs>
<radialGradient id="paint0_radial" cx="0" cy="0" r="1" gradientUnits="userSpaceOnUse" gradientTransform="translate(63 63) rotate(90) scale(63)">
<stop stop-color="#2D375B"/>
<stop offset="1" stop-color="#1C233F"/>
</radialGradient>
</defs>
</svg>
