<svg width="221" height="138" viewBox="0 0 221 138" fill="none" xmlns="http://www.w3.org/2000/svg">
<rect width="220.9" height="138" rx="5" fill="#AEB4CE"/>
<path d="M42.3301 103.66L42.3828 104.369C42.832 103.818 43.4395 103.543 44.2051 103.543C45.0215 103.543 45.582 103.865 45.8867 104.51C46.332 103.865 46.9668 103.543 47.791 103.543C48.4785 103.543 48.9902 103.744 49.3262 104.146C49.6621 104.545 49.8301 105.146 49.8301 105.951V110H48.1309V105.957C48.1309 105.598 48.0605 105.336 47.9199 105.172C47.7793 105.004 47.5312 104.92 47.1758 104.92C46.668 104.92 46.3164 105.162 46.1211 105.646L46.127 110H44.4336V105.963C44.4336 105.596 44.3613 105.33 44.2168 105.166C44.0723 105.002 43.8262 104.92 43.4785 104.92C42.998 104.92 42.6504 105.119 42.4355 105.518V110H40.7422V103.66H42.3301ZM54.8105 110C54.7324 109.848 54.6758 109.658 54.6406 109.432C54.2305 109.889 53.6973 110.117 53.041 110.117C52.4199 110.117 51.9043 109.938 51.4941 109.578C51.0879 109.219 50.8848 108.766 50.8848 108.219C50.8848 107.547 51.1328 107.031 51.6289 106.672C52.1289 106.312 52.8496 106.131 53.791 106.127H54.5703V105.764C54.5703 105.471 54.4941 105.236 54.3418 105.061C54.1934 104.885 53.957 104.797 53.6328 104.797C53.3477 104.797 53.123 104.865 52.959 105.002C52.7988 105.139 52.7188 105.326 52.7188 105.564H51.0254C51.0254 105.197 51.1387 104.857 51.3652 104.545C51.5918 104.232 51.9121 103.988 52.3262 103.812C52.7402 103.633 53.2051 103.543 53.7207 103.543C54.502 103.543 55.1211 103.74 55.5781 104.135C56.0391 104.525 56.2695 105.076 56.2695 105.787V108.535C56.2734 109.137 56.3574 109.592 56.5215 109.9V110H54.8105ZM53.4102 108.822C53.6602 108.822 53.8906 108.768 54.1016 108.658C54.3125 108.545 54.4688 108.395 54.5703 108.207V107.117H53.9375C53.0898 107.117 52.6387 107.41 52.584 107.996L52.5781 108.096C52.5781 108.307 52.6523 108.48 52.8008 108.617C52.9492 108.754 53.1523 108.822 53.4102 108.822ZM59.873 107.457L59.2637 108.066V110H57.5703V101H59.2637V105.986L59.5918 105.564L61.2148 103.66H63.248L60.957 106.303L63.4473 110H61.502L59.873 107.457ZM67.4141 108.248C67.4141 108.041 67.3105 107.879 67.1035 107.762C66.9004 107.641 66.5723 107.533 66.1191 107.439C64.6113 107.123 63.8574 106.482 63.8574 105.518C63.8574 104.955 64.0898 104.486 64.5547 104.111C65.0234 103.732 65.6348 103.543 66.3887 103.543C67.1934 103.543 67.8359 103.732 68.3164 104.111C68.8008 104.49 69.043 104.982 69.043 105.588H67.3496C67.3496 105.346 67.2715 105.146 67.1152 104.99C66.959 104.83 66.7148 104.75 66.3828 104.75C66.0977 104.75 65.877 104.814 65.7207 104.943C65.5645 105.072 65.4863 105.236 65.4863 105.436C65.4863 105.623 65.5742 105.775 65.75 105.893C65.9297 106.006 66.2305 106.105 66.6523 106.191C67.0742 106.273 67.4297 106.367 67.7188 106.473C68.6133 106.801 69.0605 107.369 69.0605 108.178C69.0605 108.756 68.8125 109.225 68.3164 109.584C67.8203 109.939 67.1797 110.117 66.3945 110.117C65.8633 110.117 65.3906 110.023 64.9766 109.836C64.5664 109.645 64.2441 109.385 64.0098 109.057C63.7754 108.725 63.6582 108.367 63.6582 107.984H65.2637C65.2793 108.285 65.3906 108.516 65.5977 108.676C65.8047 108.836 66.082 108.916 66.4297 108.916C66.7539 108.916 66.998 108.855 67.1621 108.734C67.3301 108.609 67.4141 108.447 67.4141 108.248ZM71.9434 110H70.2441V103.66H71.9434V110ZM70.1445 102.02C70.1445 101.766 70.2285 101.557 70.3965 101.393C70.5684 101.229 70.8008 101.146 71.0938 101.146C71.3828 101.146 71.6133 101.229 71.7852 101.393C71.957 101.557 72.043 101.766 72.043 102.02C72.043 102.277 71.9551 102.488 71.7793 102.652C71.6074 102.816 71.3789 102.898 71.0938 102.898C70.8086 102.898 70.5781 102.816 70.4023 102.652C70.2305 102.488 70.1445 102.277 70.1445 102.02ZM74.9316 103.66L74.9844 104.369C75.4336 103.818 76.041 103.543 76.8066 103.543C77.623 103.543 78.1836 103.865 78.4883 104.51C78.9336 103.865 79.5684 103.543 80.3926 103.543C81.0801 103.543 81.5918 103.744 81.9277 104.146C82.2637 104.545 82.4316 105.146 82.4316 105.951V110H80.7324V105.957C80.7324 105.598 80.6621 105.336 80.5215 105.172C80.3809 105.004 80.1328 104.92 79.7773 104.92C79.2695 104.92 78.918 105.162 78.7227 105.646L78.7285 110H77.0352V105.963C77.0352 105.596 76.9629 105.33 76.8184 105.166C76.6738 105.002 76.4277 104.92 76.0801 104.92C75.5996 104.92 75.252 105.119 75.0371 105.518V110H73.3438V103.66H74.9316ZM87.4121 110C87.334 109.848 87.2773 109.658 87.2422 109.432C86.832 109.889 86.2988 110.117 85.6426 110.117C85.0215 110.117 84.5059 109.938 84.0957 109.578C83.6895 109.219 83.4863 108.766 83.4863 108.219C83.4863 107.547 83.7344 107.031 84.2305 106.672C84.7305 106.312 85.4512 106.131 86.3926 106.127H87.1719V105.764C87.1719 105.471 87.0957 105.236 86.9434 105.061C86.7949 104.885 86.5586 104.797 86.2344 104.797C85.9492 104.797 85.7246 104.865 85.5605 105.002C85.4004 105.139 85.3203 105.326 85.3203 105.564H83.627C83.627 105.197 83.7402 104.857 83.9668 104.545C84.1934 104.232 84.5137 103.988 84.9277 103.812C85.3418 103.633 85.8066 103.543 86.3223 103.543C87.1035 103.543 87.7227 103.74 88.1797 104.135C88.6406 104.525 88.8711 105.076 88.8711 105.787V108.535C88.875 109.137 88.959 109.592 89.123 109.9V110H87.4121ZM86.0117 108.822C86.2617 108.822 86.4922 108.768 86.7031 108.658C86.9141 108.545 87.0703 108.395 87.1719 108.207V107.117H86.5391C85.6914 107.117 85.2402 107.41 85.1855 107.996L85.1797 108.096C85.1797 108.307 85.2539 108.48 85.4023 108.617C85.5508 108.754 85.7539 108.822 86.0117 108.822ZM91.959 110H90.2598V101H91.959V110ZM100.145 109.355C99.7266 109.863 99.1484 110.117 98.4102 110.117C97.7305 110.117 97.2109 109.922 96.8516 109.531C96.4961 109.141 96.3145 108.568 96.3066 107.814V103.66H98V107.756C98 108.416 98.3008 108.746 98.9023 108.746C99.4766 108.746 99.8711 108.547 100.086 108.148V103.66H101.785V110H100.191L100.145 109.355ZM105.365 107.457L104.756 108.066V110H103.062V101H104.756V105.986L105.084 105.564L106.707 103.66H108.74L106.449 106.303L108.939 110H106.994L105.365 107.457ZM113.27 109.355C112.852 109.863 112.273 110.117 111.535 110.117C110.855 110.117 110.336 109.922 109.977 109.531C109.621 109.141 109.439 108.568 109.432 107.814V103.66H111.125V107.756C111.125 108.416 111.426 108.746 112.027 108.746C112.602 108.746 112.996 108.547 113.211 108.148V103.66H114.91V110H113.316L113.27 109.355ZM119.75 105.248C119.52 105.217 119.316 105.201 119.141 105.201C118.5 105.201 118.08 105.418 117.881 105.852V110H116.188V103.66H117.787L117.834 104.416C118.174 103.834 118.645 103.543 119.246 103.543C119.434 103.543 119.609 103.568 119.773 103.619L119.75 105.248ZM124.068 110C123.99 109.848 123.934 109.658 123.898 109.432C123.488 109.889 122.955 110.117 122.299 110.117C121.678 110.117 121.162 109.938 120.752 109.578C120.346 109.219 120.143 108.766 120.143 108.219C120.143 107.547 120.391 107.031 120.887 106.672C121.387 106.312 122.107 106.131 123.049 106.127H123.828V105.764C123.828 105.471 123.752 105.236 123.6 105.061C123.451 104.885 123.215 104.797 122.891 104.797C122.605 104.797 122.381 104.865 122.217 105.002C122.057 105.139 121.977 105.326 121.977 105.564H120.283C120.283 105.197 120.396 104.857 120.623 104.545C120.85 104.232 121.17 103.988 121.584 103.812C121.998 103.633 122.463 103.543 122.979 103.543C123.76 103.543 124.379 103.74 124.836 104.135C125.297 104.525 125.527 105.076 125.527 105.787V108.535C125.531 109.137 125.615 109.592 125.779 109.9V110H124.068ZM122.668 108.822C122.918 108.822 123.148 108.768 123.359 108.658C123.57 108.545 123.727 108.395 123.828 108.207V107.117H123.195C122.348 107.117 121.896 107.41 121.842 107.996L121.836 108.096C121.836 108.307 121.91 108.48 122.059 108.617C122.207 108.754 122.41 108.822 122.668 108.822ZM128.387 103.66L128.439 104.393C128.893 103.826 129.5 103.543 130.262 103.543C130.934 103.543 131.434 103.74 131.762 104.135C132.09 104.529 132.258 105.119 132.266 105.904V110H130.572V105.945C130.572 105.586 130.494 105.326 130.338 105.166C130.182 105.002 129.922 104.92 129.559 104.92C129.082 104.92 128.725 105.123 128.486 105.529V110H126.793V103.66H128.387ZM136.953 110V104.902H136.01V103.66H136.953V103.367C136.961 102.57 137.205 101.957 137.686 101.527C138.17 101.094 138.852 100.877 139.73 100.877C140.258 100.877 140.898 100.992 141.652 101.223L141.406 102.623C141.023 102.51 140.727 102.438 140.516 102.406C140.305 102.371 140.078 102.354 139.836 102.354C139.047 102.354 138.652 102.703 138.652 103.402V103.66H139.9V104.902H138.652V110H136.953ZM142.443 110H140.744V103.66H142.443V110ZM145.631 110H143.932V101H145.631V110ZM149.949 110.117C149.02 110.117 148.262 109.832 147.676 109.262C147.094 108.691 146.803 107.932 146.803 106.982V106.818C146.803 106.182 146.926 105.613 147.172 105.113C147.418 104.609 147.766 104.223 148.215 103.953C148.668 103.68 149.184 103.543 149.762 103.543C150.629 103.543 151.311 103.816 151.807 104.363C152.307 104.91 152.557 105.686 152.557 106.689V107.381H148.52C148.574 107.795 148.738 108.127 149.012 108.377C149.289 108.627 149.639 108.752 150.061 108.752C150.713 108.752 151.223 108.516 151.59 108.043L152.422 108.975C152.168 109.334 151.824 109.615 151.391 109.818C150.957 110.018 150.477 110.117 149.949 110.117ZM149.756 104.914C149.42 104.914 149.146 105.027 148.936 105.254C148.729 105.48 148.596 105.805 148.537 106.227H150.893V106.092C150.885 105.717 150.783 105.428 150.588 105.225C150.393 105.018 150.115 104.914 149.756 104.914ZM158.164 104.984H159.066C159.496 104.984 159.814 104.877 160.021 104.662C160.229 104.447 160.332 104.162 160.332 103.807C160.332 103.463 160.229 103.195 160.021 103.004C159.818 102.812 159.537 102.717 159.178 102.717C158.854 102.717 158.582 102.807 158.363 102.986C158.145 103.162 158.035 103.393 158.035 103.678H156.342C156.342 103.232 156.461 102.834 156.699 102.482C156.941 102.127 157.277 101.85 157.707 101.65C158.141 101.451 158.617 101.352 159.137 101.352C160.039 101.352 160.746 101.568 161.258 102.002C161.77 102.432 162.025 103.025 162.025 103.783C162.025 104.174 161.906 104.533 161.668 104.861C161.43 105.189 161.117 105.441 160.73 105.617C161.211 105.789 161.568 106.047 161.803 106.391C162.041 106.734 162.16 107.141 162.16 107.609C162.16 108.367 161.883 108.975 161.328 109.432C160.777 109.889 160.047 110.117 159.137 110.117C158.285 110.117 157.588 109.893 157.045 109.443C156.506 108.994 156.236 108.4 156.236 107.662H157.93C157.93 107.982 158.049 108.244 158.287 108.447C158.529 108.65 158.826 108.752 159.178 108.752C159.58 108.752 159.895 108.646 160.121 108.436C160.352 108.221 160.467 107.938 160.467 107.586C160.467 106.734 159.998 106.309 159.061 106.309H158.164V104.984ZM164.99 103.66L165.043 104.369C165.492 103.818 166.1 103.543 166.865 103.543C167.682 103.543 168.242 103.865 168.547 104.51C168.992 103.865 169.627 103.543 170.451 103.543C171.139 103.543 171.65 103.744 171.986 104.146C172.322 104.545 172.49 105.146 172.49 105.951V110H170.791V105.957C170.791 105.598 170.721 105.336 170.58 105.172C170.439 105.004 170.191 104.92 169.836 104.92C169.328 104.92 168.977 105.162 168.781 105.646L168.787 110H167.094V105.963C167.094 105.596 167.021 105.33 166.877 105.166C166.732 105.002 166.486 104.92 166.139 104.92C165.658 104.92 165.311 105.119 165.096 105.518V110H163.402V103.66H164.99ZM179.51 106.889C179.51 107.904 179.293 108.697 178.859 109.268C178.426 109.834 177.82 110.117 177.043 110.117C176.355 110.117 175.807 109.854 175.396 109.326L175.32 110H173.797V101H175.49V104.229C175.881 103.771 176.395 103.543 177.031 103.543C177.805 103.543 178.41 103.828 178.848 104.398C179.289 104.965 179.51 105.764 179.51 106.795V106.889ZM177.816 106.766C177.816 106.125 177.715 105.658 177.512 105.365C177.309 105.068 177.006 104.92 176.604 104.92C176.064 104.92 175.693 105.141 175.49 105.582V108.084C175.697 108.529 176.072 108.752 176.615 108.752C177.162 108.752 177.521 108.482 177.693 107.943C177.775 107.686 177.816 107.293 177.816 106.766Z" fill="white"/>
<path d="M128.517 54.6317C127.352 45.453 119.493 38.333 110 38.333C102.651 38.333 96.2666 42.629 93.3519 49.3997C87.6239 51.1117 83.3333 56.5197 83.3333 62.333C83.3333 69.685 89.3146 75.6663 96.6666 75.6663H126C131.883 75.6663 136.667 70.8823 136.667 64.9997C136.663 62.6093 135.858 60.2892 134.38 58.4099C132.903 56.5306 130.839 55.2004 128.517 54.6317ZM112.667 62.333V70.333H107.333V62.333H99.3333L110 48.9997L120.667 62.333H112.667Z" fill="white"/>
</svg>
