<svg width="1080" height="1048" viewBox="0 0 1080 1048" fill="none" xmlns="http://www.w3.org/2000/svg">
<path d="M921.854 515.179C1132.72 636.929 1132.72 834.336 921.854 956.086C710.992 1077.84 369.007 1077.86 158.146 956.086C-52.7153 834.313 -52.7153 636.929 158.146 515.179C369.007 393.43 710.97 393.43 921.854 515.179Z" fill="#08091A"/>
<path d="M850.136 843.826C814.725 823.381 814.725 790.24 850.136 769.795C885.547 749.351 942.961 749.351 978.372 769.795C1013.78 790.24 1013.78 823.381 978.372 843.826C942.961 864.27 885.547 864.179 850.136 843.826Z" fill="#171728"/>
<path d="M129.91 846.645L36.6728 792.875C31.4242 789.849 31.4242 784.922 36.6728 781.896L578.564 469.088C581.511 467.592 584.77 466.812 588.075 466.812C591.381 466.812 594.64 467.592 597.587 469.088L690.733 522.858C695.981 525.883 695.981 530.811 690.733 533.836L148.979 846.645C146.026 848.148 142.759 848.932 139.445 848.932C136.131 848.932 132.864 848.148 129.91 846.645Z" fill="#171728"/>
<path d="M464.719 750.816L544.8 704.519C553.051 699.751 557.177 693.517 557.177 687.26C557.177 681.003 557.177 676.121 557.177 676.121L474.093 629.273C471.779 627.766 469.852 625.736 468.466 623.348C467.081 620.959 466.276 618.278 466.117 615.521V516.737L326.307 597.552V696.267C326.466 699.024 327.271 701.705 328.656 704.094C330.042 706.482 331.969 708.512 334.283 710.019L404.967 750.748C421.446 760.328 448.217 760.328 464.719 750.816Z" fill="#7E8ED5"/>
<g opacity="0.6">
<path opacity="0.6" d="M464.719 750.816L544.8 704.519C553.051 699.751 557.177 693.517 557.177 687.26C557.177 681.003 557.177 676.121 557.177 676.121L474.093 629.273C471.779 627.766 469.852 625.736 468.466 623.348C467.081 620.959 466.276 618.278 466.117 615.521V516.737L326.307 597.552V696.267C326.466 699.024 327.271 701.705 328.656 704.094C330.042 706.482 331.969 708.512 334.283 710.019L404.967 750.748C421.446 760.328 448.217 760.328 464.719 750.816Z" fill="black"/>
</g>
<path opacity="0.3" d="M359.839 713.755V724.848L334.215 710.065C331.905 708.555 329.982 706.524 328.601 704.136C327.22 701.747 326.418 699.068 326.262 696.313V597.552L352.963 582.265C353.513 589.141 354.109 596.016 354.659 602.892L335.98 613.711V690.835C336.127 693.592 336.925 696.275 338.307 698.665C339.689 701.055 341.617 703.084 343.933 704.587L359.839 713.755Z" fill="black"/>
<path d="M335.936 690.722C336.095 693.478 336.9 696.159 338.285 698.548C339.67 700.936 341.598 702.966 343.912 704.473L404.924 739.609C421.426 749.144 448.196 749.144 464.721 739.609L544.94 693.311C561.443 683.777 561.443 668.329 544.94 658.794L483.882 623.613C481.569 622.105 479.641 620.076 478.256 617.687C476.87 615.298 476.066 612.618 475.906 609.861V532.759L336.096 613.574L335.936 690.722Z" fill="#7E8ED5"/>
<path opacity="0.3" d="M335.936 690.722C336.095 693.478 336.9 696.159 338.285 698.548C339.67 700.936 341.598 702.966 343.912 704.473L404.924 739.609C421.426 749.144 448.196 749.144 464.721 739.609L544.94 693.311C561.443 683.777 561.443 668.329 544.94 658.794L483.882 623.613C481.569 622.105 479.641 620.076 478.256 617.687C476.87 615.298 476.066 612.618 475.906 609.861V532.759L336.096 613.574L335.936 690.722Z" fill="black"/>
<path opacity="0.5" d="M500.015 633.078L483.788 623.704C481.474 622.197 479.547 620.167 478.162 617.779C476.776 615.39 475.972 612.709 475.812 609.952V532.759L336.002 613.574V690.722C336.161 693.478 336.966 696.159 338.351 698.548C339.737 700.936 341.664 702.966 343.978 704.473L360.022 713.641L500.015 633.078Z" fill="black"/>
<path d="M557.202 676.121V687.26C557.202 693.517 553.054 699.728 544.826 704.519L464.744 750.794C455.968 755.487 446.161 757.921 436.209 757.876V746.783C446.161 746.828 455.968 744.394 464.744 739.7L544.826 693.38C553.054 688.635 557.202 682.378 557.202 676.121Z" fill="#7E8ED5"/>
<path opacity="0.5" d="M557.202 676.121V687.26C557.202 693.517 553.054 699.728 544.826 704.519L464.744 750.794C455.968 755.487 446.161 757.921 436.209 757.876V746.783C446.161 746.828 455.968 744.394 464.744 739.7L544.826 693.38C553.054 688.635 557.202 682.378 557.202 676.121Z" fill="black"/>
<path d="M111.368 786.594C114.383 788.052 117.699 788.78 121.047 788.721C124.395 788.661 127.683 787.815 130.644 786.251L671.549 473.969C674.451 472.079 676.866 469.531 678.598 466.532C680.33 463.534 681.331 460.169 681.519 456.711V19.1505C681.402 15.7965 680.497 12.5173 678.876 9.57852C677.256 6.63976 674.965 4.12422 672.191 2.23579C669.168 0.774127 665.843 0.0456005 662.486 0.109316C659.129 0.173031 655.835 1.02719 652.87 2.60251L111.964 314.884C109.063 316.774 106.648 319.322 104.915 322.321C103.183 325.319 102.182 328.684 101.994 332.142V769.703C102.12 773.057 103.034 776.334 104.663 779.269C106.291 782.203 108.589 784.713 111.368 786.594V786.594Z" fill="#7E8ED5"/>
<path d="M130.644 786.25L671.549 473.946C674.451 472.056 676.866 469.508 678.598 466.509C680.33 463.51 681.331 460.146 681.519 456.688V19.1272C681.519 12.7785 677.05 10.1886 671.549 13.3744L130.644 325.564C127.742 327.454 125.327 330.002 123.595 333.001C121.863 336 120.862 339.364 120.674 342.822V780.474C120.72 786.846 125.189 789.413 130.644 786.25Z" fill="#7E8ED5"/>
<path opacity="0.5" d="M130.644 786.25L671.549 473.946C674.451 472.056 676.866 469.508 678.598 466.509C680.33 463.51 681.331 460.146 681.519 456.688V19.1272C681.519 12.7785 677.05 10.1886 671.549 13.3744L130.644 325.564C127.742 327.454 125.327 330.002 123.595 333.001C121.863 336 120.862 339.364 120.674 342.822V780.474C120.72 786.846 125.189 789.413 130.644 786.25Z" fill="black"/>
<path d="M129.221 797.711C126.392 798.932 123.335 799.531 120.254 799.467C117.174 799.404 114.143 798.68 111.367 797.345C108.588 795.454 106.293 792.935 104.669 789.993C103.044 787.05 102.135 783.766 102.016 780.407V740.412L120.695 751.23V791.065C120.695 796.909 124.385 799.545 129.221 797.711Z" fill="#7E8ED5"/>
<path opacity="0.5" d="M129.221 797.711C126.392 798.932 123.335 799.531 120.254 799.467C117.174 799.404 114.143 798.68 111.367 797.345C108.588 795.454 106.293 792.935 104.669 789.993C103.044 787.05 102.135 783.766 102.016 780.407V740.412L120.695 751.23V791.065C120.695 796.909 124.385 799.545 129.221 797.711Z" fill="black"/>
<path d="M120.697 751.275V791.109C120.697 797.458 125.167 800.048 130.667 796.862L671.55 484.581C674.451 482.691 676.866 480.143 678.599 477.144C680.331 474.146 681.332 470.781 681.52 467.323V427.396L120.697 751.275Z" fill="#7E8ED5"/>
<path opacity="0.3" d="M120.719 751.206V791.109C120.719 797.458 125.188 800.048 130.689 796.862L671.548 484.581C674.45 482.691 676.865 480.143 678.597 477.144C680.33 474.146 681.33 470.781 681.518 467.323V427.396L120.719 751.206Z" fill="black"/>
<path d="M139.4 701.287V349.125C139.513 347.05 140.114 345.03 141.153 343.23C142.192 341.43 143.641 339.901 145.382 338.766L656.859 43.4679C660.159 41.5656 662.841 43.1012 662.841 46.9288V399.09C662.73 401.166 662.13 403.186 661.091 404.987C660.051 406.787 658.601 408.316 656.859 409.45L145.382 704.748C142.105 706.65 139.4 705.114 139.4 701.287Z" fill="#7E8ED5"/>
<path d="M139.4 701.287V349.125C139.513 347.05 140.114 345.03 141.153 343.23C142.192 341.43 143.641 339.901 145.382 338.766L656.859 43.4679C660.159 41.5656 662.841 43.1012 662.841 46.9288V399.09C662.73 401.166 662.13 403.186 661.091 404.987C660.051 406.787 658.601 408.316 656.859 409.45L145.382 704.748C142.105 706.65 139.4 705.114 139.4 701.287Z" fill="#263238"/>
<path d="M401.095 602.021C398.37 603.794 396.102 606.186 394.477 609.002C392.852 611.818 391.915 614.979 391.744 618.225C391.744 624.185 395.938 626.614 401.095 623.612C403.821 621.839 406.089 619.447 407.714 616.631C409.339 613.814 410.275 610.654 410.447 607.407C410.47 601.448 406.298 599.042 401.095 602.021Z" fill="#7E8ED5"/>
<path opacity="0.7" d="M123.652 333.058C121.878 336.052 120.871 339.437 120.718 342.914V751.274L102.016 740.411V332.142C102.146 328.661 103.155 325.271 104.949 322.286L123.652 333.058Z" fill="black"/>
<path opacity="0.3" d="M681.448 17.5002C680.715 12.3662 676.589 10.4868 671.547 13.3747L130.642 325.564C127.713 327.403 125.293 329.949 123.605 332.967L104.926 322.172C106.609 319.15 109.029 316.603 111.962 314.769L652.867 2.48783C655.834 0.914339 659.13 0.0631165 662.487 0.00337768C665.844 -0.0563611 669.168 0.677071 672.189 2.14404C674.75 3.88301 676.904 6.15616 678.502 8.80707C680.1 11.458 681.106 14.4237 681.448 17.5002V17.5002Z" fill="black"/>
<path d="M710.621 71.3383C709.817 70.9334 708.917 70.7577 708.019 70.8305C707.122 70.9033 706.262 71.2217 705.533 71.7509L195.157 366.453C193.146 367.788 191.476 369.576 190.282 371.674C189.087 373.772 188.402 376.12 188.281 378.531V728.561C188.207 729.74 188.438 730.919 188.952 731.983C189.466 733.046 190.245 733.96 191.215 734.635C192.361 735.254 198.343 738.738 200.131 739.7C200.766 740.027 201.477 740.178 202.19 740.137C202.903 740.097 203.593 739.867 204.187 739.471L714.449 444.746C716.462 443.413 718.133 441.625 719.327 439.527C720.521 437.429 721.206 435.079 721.325 432.668V80.8271C721.425 79.9386 721.276 79.0397 720.896 78.2305C720.516 77.4213 719.918 76.7334 719.171 76.2432C718.025 75.5785 711.905 72.1176 710.621 71.3383Z" fill="#7E8ED5"/>
<path d="M201.696 738.991C199.747 738.991 198.166 736.699 198.166 733.627V383.598C198.308 381.379 198.961 379.223 200.074 377.299C201.188 375.374 202.731 373.733 204.584 372.504L715.097 77.7797C715.862 77.2977 716.738 77.0214 717.641 76.9775C719.337 76.9775 720.369 78.4215 720.369 80.8051V432.554C720.23 434.774 719.579 436.931 718.465 438.856C717.352 440.781 715.806 442.421 713.951 443.647L203.506 738.486C202.96 738.816 202.334 738.99 201.696 738.991V738.991Z" fill="#FAFAFA"/>
<path d="M717.593 78.0319C718.968 78.0319 719.175 79.7279 719.175 80.7135V432.554C719.049 434.576 718.456 436.542 717.442 438.296C716.428 440.05 715.02 441.544 713.33 442.662L202.954 737.478C202.605 737.704 202.201 737.831 201.785 737.845C200.501 737.845 199.493 735.874 199.493 733.627V383.598C199.62 381.576 200.214 379.611 201.228 377.857C202.242 376.103 203.649 374.609 205.338 373.49L715.622 78.7882C716.212 78.4063 716.891 78.185 717.593 78.1465V78.0319ZM717.593 75.8545C716.488 75.8973 715.413 76.2292 714.476 76.8171L203.985 371.404C201.971 372.741 200.299 374.533 199.105 376.635C197.91 378.738 197.227 381.091 197.109 383.506V733.536C197.109 737.065 199.058 740.045 201.693 740.045C202.503 740.03 203.293 739.8 203.985 739.38L714.453 444.747C716.466 443.414 718.137 441.626 719.331 439.528C720.525 437.43 721.21 435.08 721.329 432.669V80.8281C721.329 77.6652 719.748 75.8545 717.456 75.8545H717.593Z" fill="#7E8ED5"/>
<path d="M191.102 734.636C191.858 735.049 197.29 738.143 199.674 739.495C198.804 738.777 198.117 737.862 197.671 736.826C197.224 735.789 197.031 734.662 197.107 733.536V406.449L188.168 401.2V728.585C188.098 729.761 188.331 730.934 188.845 731.994C189.359 733.053 190.136 733.963 191.102 734.636V734.636Z" fill="#F0F0F0"/>
<path d="M721.444 80.7822C721.444 76.3816 718.304 74.5939 714.568 76.7942L203.985 371.404C201.971 372.741 200.299 374.533 199.105 376.635C197.91 378.738 197.227 381.091 197.109 383.506V406.426L721.444 103.702V80.7822Z" fill="#7E8ED5"/>
<g opacity="0.4">
<path opacity="0.4" d="M714.477 76.7937L203.986 371.404C201.933 372.687 200.238 374.469 199.058 376.584L190.234 371.564C191.393 369.481 193.066 367.729 195.093 366.476L705.561 71.7285C706.287 71.2037 707.143 70.8877 708.036 70.815C708.929 70.7423 709.825 70.9155 710.627 71.3159C711.887 72.0952 717.686 75.3727 719.153 76.1749C718.382 75.8891 717.553 75.7961 716.738 75.904C715.923 76.0118 715.147 76.3173 714.477 76.7937V76.7937Z" fill="white"/>
</g>
<path opacity="0.15" d="M188.17 401.2V378.51C188.287 376.074 189.02 373.708 190.301 371.634L199.194 376.745C197.918 378.819 197.199 381.187 197.109 383.621V406.541L188.17 401.2Z" fill="black"/>
<path d="M613.809 344.633L308.129 521.115C306.64 522.083 305.402 523.389 304.514 524.926C303.625 526.464 303.113 528.189 303.018 529.962V617.607C303.115 619.376 303.628 621.098 304.516 622.631C305.404 624.165 306.642 625.466 308.129 626.431L317.067 631.565C318.648 632.365 320.395 632.781 322.167 632.781C323.939 632.781 325.686 632.365 327.267 631.565L632.924 455.083C634.412 454.115 635.651 452.809 636.539 451.272C637.427 449.734 637.94 448.009 638.035 446.236V358.568C637.938 356.799 637.425 355.077 636.536 353.544C635.648 352.011 634.41 350.709 632.924 349.744L623.985 344.61C622.405 343.818 620.662 343.407 618.894 343.411C617.127 343.415 615.385 343.834 613.809 344.633Z" fill="#7E8ED5"/>
<path opacity="0.5" d="M638.013 357.651C637.669 355.015 635.515 354.052 632.948 355.519L327.268 532.001C325.756 532.942 324.516 534.262 323.669 535.829L304.531 524.965C305.387 523.43 306.617 522.137 308.107 521.206L613.81 344.724C615.39 343.923 617.138 343.505 618.91 343.505C620.682 343.505 622.429 343.923 624.009 344.724L632.948 349.858C634.29 350.731 635.434 351.876 636.306 353.218C637.178 354.56 637.76 356.07 638.013 357.651Z" fill="white"/>
<path d="M326.396 631.954C324.901 632.547 323.297 632.819 321.69 632.752C320.083 632.685 318.508 632.28 317.067 631.564L308.129 626.43C306.639 625.463 305.4 624.158 304.511 622.62C303.623 621.083 303.111 619.357 303.018 617.583V529.938C303.084 528.149 303.605 526.406 304.53 524.873L323.668 535.92C322.736 537.434 322.215 539.164 322.156 540.94V628.585C322.156 631.518 323.989 632.871 326.396 631.954Z" fill="#263238"/>
<path d="M327.265 532.117L632.946 355.635C635.765 354.008 638.057 355.337 638.034 358.592V446.26C637.939 448.033 637.426 449.758 636.538 451.296C635.65 452.833 634.411 454.139 632.923 455.107L327.265 631.589C324.446 633.216 322.154 631.887 322.154 628.632V541.01C322.243 539.229 322.752 537.495 323.64 535.949C324.529 534.403 325.771 533.09 327.265 532.117V532.117Z" fill="#7E8ED5"/>
<path d="M532.765 391.412L308.152 521.115C306.662 522.047 305.432 523.34 304.576 524.874L323.714 535.921C324.561 534.354 325.801 533.035 327.313 532.093L551.926 402.414L532.765 391.412Z" fill="#455A64"/>
<path d="M551.879 402.436L327.265 532.115C325.777 533.083 324.539 534.389 323.65 535.927C322.762 537.464 322.25 539.189 322.154 540.962V628.607C322.154 631.862 324.446 633.191 327.265 631.564L551.879 501.884V402.436Z" fill="#37474F"/>
<path d="M379.064 521.457L495.06 454.532C499.873 451.759 503.77 453.73 503.77 458.932C503.554 461.854 502.653 464.684 501.14 467.192C499.626 469.701 497.544 471.818 495.06 473.372L379.178 540.275C374.365 543.048 370.469 541.077 370.469 535.874C370.676 532.967 371.561 530.148 373.053 527.645C374.546 525.141 376.604 523.022 379.064 521.457V521.457Z" fill="#7E8ED5"/>
<path d="M402.807 543.599C402.829 543.575 402.855 543.555 402.885 543.542C402.915 543.528 402.947 543.521 402.979 543.521C403.012 543.521 403.044 543.528 403.074 543.542C403.103 543.555 403.13 543.575 403.151 543.599C403.259 543.753 403.308 543.94 403.289 544.126V557.168C403.295 558.428 403.188 559.686 402.968 560.926C402.773 562.059 402.45 563.167 402.005 564.227C401.602 565.2 401.062 566.111 400.401 566.931C399.76 567.7 398.983 568.345 398.109 568.834C397.43 569.286 396.632 569.525 395.817 569.521C395.506 569.497 395.203 569.409 394.927 569.263C394.651 569.117 394.408 568.916 394.213 568.673C393.709 568 393.378 567.213 393.25 566.381C393.022 565.265 392.914 564.128 392.929 562.989V550.177C392.927 549.941 392.974 549.707 393.067 549.489C393.128 549.303 393.249 549.142 393.41 549.031L394.854 548.183C394.876 548.159 394.902 548.139 394.932 548.126C394.962 548.112 394.994 548.105 395.026 548.105C395.059 548.105 395.091 548.112 395.121 548.126C395.15 548.139 395.177 548.159 395.198 548.183C395.304 548.337 395.353 548.524 395.336 548.71V561.637C395.323 562.345 395.392 563.053 395.542 563.746C395.621 564.183 395.81 564.593 396.092 564.937C396.2 565.061 396.334 565.158 396.485 565.221C396.636 565.285 396.799 565.313 396.963 565.304C397.354 565.272 397.731 565.146 398.063 564.937C398.476 564.691 398.847 564.382 399.163 564.021C399.523 563.618 399.816 563.162 400.034 562.668C400.294 562.081 400.486 561.466 400.607 560.835C400.748 560.079 400.818 559.312 400.813 558.543V545.593C400.812 545.357 400.859 545.123 400.951 544.905C401.014 544.72 401.134 544.559 401.295 544.447L402.807 543.599Z" fill="#FAFAFA"/>
<path d="M411.791 555.952C411.805 555.773 411.756 555.595 411.654 555.447C411.596 555.392 411.528 555.349 411.453 555.321C411.378 555.294 411.298 555.282 411.218 555.287C410.944 555.256 410.667 555.256 410.393 555.287L409.064 555.539C408.635 555.647 408.186 555.647 407.757 555.539C407.419 555.422 407.129 555.196 406.932 554.897C406.703 554.536 406.555 554.129 406.497 553.706C406.412 553.144 406.373 552.577 406.382 552.009C406.388 551.33 406.473 550.653 406.634 549.993C406.803 549.28 407.049 548.589 407.368 547.93C407.677 547.276 408.062 546.661 408.514 546.096C408.946 545.554 409.474 545.095 410.072 544.744C410.544 544.445 411.076 544.257 411.631 544.194C412.037 544.152 412.447 544.24 412.8 544.446C413.138 544.659 413.402 544.971 413.556 545.34C413.738 545.76 413.839 546.211 413.854 546.669C413.864 546.906 413.816 547.142 413.717 547.357C413.652 547.542 413.532 547.702 413.373 547.815L411.998 548.617C411.814 548.617 411.677 548.732 411.585 548.617L411.287 548.388C411.159 548.3 411.007 548.252 410.852 548.251C410.562 548.277 410.285 548.379 410.049 548.549C409.686 548.761 409.367 549.041 409.11 549.374C408.831 549.734 408.685 550.179 408.697 550.634C408.656 550.808 408.656 550.988 408.697 551.161C408.736 551.224 408.79 551.276 408.854 551.312C408.918 551.348 408.99 551.367 409.064 551.368C409.323 551.401 409.584 551.401 409.843 551.368L411.127 551.116C411.523 550.964 411.957 550.94 412.368 551.047C412.779 551.154 413.146 551.386 413.419 551.712C413.92 552.562 414.152 553.545 414.083 554.531C414.076 555.212 413.983 555.889 413.808 556.548C413.625 557.262 413.364 557.953 413.029 558.61C412.688 559.286 412.265 559.918 411.768 560.49C411.294 561.047 410.728 561.52 410.095 561.888C409.593 562.213 409.018 562.409 408.422 562.461C407.993 562.489 407.566 562.377 407.207 562.14C406.861 561.89 406.591 561.549 406.428 561.154C406.241 560.712 406.14 560.237 406.13 559.756C406.121 559.519 406.168 559.284 406.268 559.069C406.333 558.885 406.453 558.725 406.611 558.61L407.987 557.808C408.17 557.808 408.307 557.808 408.399 557.808L408.697 558.152C408.826 558.283 408.996 558.364 409.178 558.381C409.507 558.377 409.827 558.273 410.095 558.083L410.645 557.694C410.837 557.543 411.013 557.374 411.172 557.189C411.335 557.001 411.474 556.793 411.585 556.571C411.697 556.381 411.768 556.17 411.791 555.952V555.952Z" fill="#FAFAFA"/>
<path d="M416.469 549.718C416.467 548.535 416.566 547.354 416.767 546.188C416.952 545.078 417.243 543.988 417.638 542.933C417.99 541.999 418.459 541.113 419.036 540.298C419.509 539.601 420.127 539.015 420.846 538.579C421.38 538.226 422.026 538.087 422.657 538.189C423.229 538.319 423.73 538.664 424.055 539.152C424.487 539.773 424.791 540.474 424.949 541.214C425.17 542.176 425.278 543.161 425.27 544.148V545.592C425.273 545.828 425.226 546.063 425.132 546.28C425.071 546.466 424.95 546.627 424.789 546.738L418.807 550.176C418.797 550.581 418.86 550.984 418.99 551.368C419.071 551.637 419.231 551.877 419.448 552.055C419.639 552.199 419.876 552.264 420.113 552.239C420.389 552.217 420.656 552.131 420.892 551.987C421.245 551.797 421.563 551.549 421.832 551.253C422.066 550.988 422.266 550.696 422.428 550.382C422.524 550.2 422.631 550.024 422.749 549.855C422.841 549.733 422.958 549.631 423.093 549.557L424.536 548.732C424.583 548.689 424.645 548.664 424.708 548.664C424.772 548.664 424.834 548.689 424.88 548.732C424.937 548.807 424.978 548.891 425.002 548.982C425.025 549.072 425.031 549.167 425.018 549.259C424.978 549.704 424.886 550.143 424.743 550.566C424.543 551.193 424.282 551.8 423.964 552.376C423.6 553.045 423.17 553.674 422.68 554.256C422.185 554.854 421.588 555.358 420.915 555.745C420.382 556.1 419.741 556.255 419.105 556.181C418.532 556.051 418.032 555.706 417.706 555.218C417.265 554.521 416.969 553.741 416.835 552.926C416.604 551.872 416.481 550.797 416.469 549.718V549.718ZM420.846 542.406C420.5 542.604 420.196 542.869 419.953 543.185C419.706 543.511 419.498 543.865 419.334 544.24C419.167 544.616 419.036 545.007 418.944 545.409C418.857 545.771 418.796 546.138 418.761 546.509L422.818 544.217C422.791 543.909 422.745 543.603 422.68 543.3C422.631 543.02 422.522 542.754 422.359 542.521C422.29 542.423 422.201 542.34 422.099 542.277C421.996 542.214 421.882 542.172 421.763 542.154C421.446 542.142 421.134 542.231 420.869 542.406H420.846Z" fill="#FAFAFA"/>
<path d="M432.468 536.034C431.769 536.425 431.221 537.038 430.91 537.776C430.554 538.743 430.39 539.771 430.428 540.801V549.075C430.429 549.312 430.382 549.545 430.291 549.763C430.23 549.949 430.109 550.11 429.947 550.221L428.595 551.001C428.548 551.044 428.487 551.068 428.423 551.068C428.359 551.068 428.298 551.044 428.251 551.001C428.143 550.847 428.094 550.66 428.113 550.474V535.644C428.112 535.408 428.158 535.174 428.251 534.957C428.314 534.771 428.434 534.611 428.595 534.498L429.947 533.719C429.994 533.676 430.055 533.652 430.119 533.652C430.183 533.652 430.244 533.676 430.291 533.719C430.397 533.874 430.445 534.06 430.428 534.246V534.98C430.696 534.367 431.026 533.783 431.414 533.238C431.789 532.739 432.265 532.325 432.812 532.023L433.614 531.565C433.661 531.521 433.722 531.497 433.786 531.497C433.85 531.497 433.911 531.521 433.958 531.565C434.064 531.719 434.113 531.906 434.095 532.092V534.132C434.096 534.368 434.049 534.602 433.958 534.819C433.897 535.006 433.776 535.167 433.614 535.278L432.468 536.034Z" fill="#FAFAFA"/>
<path d="M449.565 534.911C449.612 534.867 449.673 534.843 449.737 534.843C449.801 534.843 449.863 534.867 449.909 534.911C450.015 535.065 450.064 535.252 450.047 535.438V537.73C450.047 537.966 450.001 538.2 449.909 538.417C449.847 538.603 449.726 538.764 449.565 538.876L441.727 543.46C441.68 543.503 441.619 543.527 441.555 543.527C441.491 543.527 441.43 543.503 441.383 543.46C441.277 543.306 441.228 543.119 441.246 542.933V522.305C441.245 522.069 441.292 521.835 441.383 521.617C441.444 521.431 441.565 521.27 441.727 521.159L443.171 520.311C443.217 520.267 443.279 520.243 443.343 520.243C443.406 520.243 443.468 520.267 443.515 520.311C443.622 520.464 443.671 520.651 443.652 520.838V538.28L449.565 534.911Z" fill="#FAFAFA"/>
<path d="M456.598 517.951C457.129 517.606 457.754 517.438 458.386 517.47C458.917 517.526 459.408 517.779 459.761 518.18C460.198 518.668 460.519 519.247 460.701 519.876C460.953 520.686 461.092 521.527 461.113 522.374C461.113 522.558 461.113 522.787 461.113 523.108V524.964C461.113 525.239 461.113 525.492 461.113 525.698C461.066 526.701 460.928 527.699 460.701 528.677C460.489 529.623 460.181 530.544 459.784 531.428C459.422 532.246 458.96 533.015 458.409 533.72C457.917 534.347 457.31 534.876 456.621 535.278C456.091 535.623 455.465 535.791 454.833 535.76C454.306 535.707 453.816 535.463 453.458 535.072C453.028 534.593 452.714 534.02 452.541 533.399C452.299 532.587 452.16 531.747 452.129 530.901C452.129 530.717 452.129 530.488 452.129 530.19C452.129 529.892 452.129 529.617 452.129 529.319C452.129 529.021 452.129 528.723 452.129 528.425C452.129 528.127 452.129 527.875 452.129 527.669C452.17 526.665 452.308 525.667 452.541 524.689C452.766 523.737 453.081 522.809 453.481 521.916C453.842 521.098 454.304 520.328 454.856 519.624C455.324 518.959 455.915 518.391 456.598 517.951V517.951ZM458.776 523.864C458.767 523.358 458.682 522.856 458.523 522.374C458.432 522.086 458.256 521.83 458.019 521.641C457.923 521.575 457.815 521.528 457.701 521.505C457.587 521.481 457.469 521.481 457.355 521.504C457.096 521.552 456.848 521.645 456.621 521.779C456.353 521.938 456.107 522.13 455.888 522.352C455.621 522.622 455.397 522.931 455.223 523.268C455.003 523.69 454.834 524.136 454.719 524.598C454.575 525.184 454.49 525.783 454.467 526.385C454.467 526.569 454.467 526.775 454.467 527.05C454.467 527.325 454.467 527.577 454.467 527.852C454.467 528.127 454.467 528.402 454.467 528.654C454.467 528.907 454.467 529.113 454.467 529.273C454.477 529.78 454.562 530.282 454.719 530.763C454.81 531.053 454.985 531.308 455.223 531.497C455.319 531.563 455.427 531.609 455.541 531.633C455.656 531.656 455.773 531.657 455.888 531.634C456.146 531.585 456.394 531.492 456.621 531.359C456.889 531.2 457.135 531.007 457.355 530.786C457.621 530.515 457.845 530.206 458.019 529.869C458.239 529.448 458.409 529.001 458.523 528.54C458.669 527.954 458.753 527.355 458.776 526.752C458.776 526.592 458.776 526.385 458.776 526.11V524.506C458.776 524.231 458.776 524.025 458.753 523.864H458.776Z" fill="#FAFAFA"/>
<path d="M468.104 531.359C468.395 531.187 468.658 530.971 468.883 530.717C469.165 530.399 469.404 530.044 469.593 529.663C469.823 529.203 469.999 528.719 470.121 528.219C470.261 527.657 470.331 527.08 470.327 526.5V525.331C470.327 525.583 470.098 525.858 469.96 526.179C469.793 526.506 469.601 526.82 469.387 527.119C469.154 527.446 468.893 527.753 468.608 528.036C468.315 528.331 467.984 528.586 467.622 528.792C467.387 528.953 467.121 529.064 466.842 529.119C466.562 529.174 466.274 529.172 465.995 529.113C465.486 528.953 465.048 528.621 464.757 528.173C464.377 527.585 464.105 526.933 463.955 526.248C463.744 525.385 463.629 524.501 463.611 523.612C463.611 523.291 463.611 522.925 463.611 522.512C463.611 522.1 463.611 521.71 463.611 521.389C463.642 520.38 463.757 519.376 463.955 518.387C464.139 517.418 464.407 516.466 464.757 515.545C465.077 514.734 465.493 513.965 465.995 513.253C466.415 512.618 466.971 512.086 467.622 511.694C467.923 511.502 468.257 511.37 468.608 511.304C468.865 511.249 469.13 511.249 469.387 511.304C469.598 511.359 469.794 511.461 469.96 511.602C470.099 511.725 470.222 511.863 470.327 512.015V511.213C470.325 510.976 470.372 510.742 470.464 510.525C470.526 510.339 470.646 510.178 470.808 510.067L472.16 509.287C472.207 509.244 472.268 509.22 472.332 509.22C472.396 509.22 472.458 509.244 472.504 509.287C472.612 509.441 472.661 509.628 472.642 509.815V524.735C472.705 526.967 472.291 529.186 471.427 531.245C470.752 532.859 469.58 534.215 468.081 535.118C467.57 535.439 466.987 535.628 466.385 535.668C465.907 535.69 465.434 535.562 465.032 535.301C464.633 535.024 464.317 534.644 464.116 534.201C463.882 533.682 463.757 533.12 463.749 532.551C463.737 532.314 463.784 532.077 463.886 531.863C463.95 531.678 464.071 531.518 464.23 531.405L465.445 530.694C465.473 530.665 465.506 530.641 465.544 530.625C465.581 530.608 465.622 530.6 465.663 530.6C465.703 530.6 465.744 530.608 465.781 530.625C465.819 530.641 465.853 530.665 465.88 530.694L466.178 531.084C466.244 531.211 466.335 531.323 466.445 531.414C466.555 531.504 466.683 531.571 466.82 531.611C467.264 531.688 467.721 531.598 468.104 531.359V531.359ZM465.949 520.243C465.912 520.838 465.912 521.435 465.949 522.031C465.879 522.943 466.13 523.851 466.66 524.598C466.869 524.771 467.133 524.866 467.405 524.866C467.676 524.866 467.94 524.771 468.149 524.598C468.809 524.165 469.321 523.541 469.616 522.81C470.043 521.849 470.277 520.813 470.304 519.762C470.304 519.441 470.304 519.028 470.304 518.524C470.304 518.02 470.304 517.63 470.304 517.332C470.357 516.511 470.113 515.697 469.616 515.04C469.415 514.86 469.153 514.76 468.883 514.76C468.612 514.76 468.351 514.86 468.149 515.04C467.486 515.464 466.966 516.08 466.66 516.805C466.197 517.892 465.955 519.061 465.949 520.243V520.243Z" fill="#FAFAFA"/>
<path d="M477.96 499.89C477.981 499.866 478.008 499.846 478.037 499.833C478.067 499.819 478.099 499.812 478.132 499.812C478.164 499.812 478.196 499.819 478.226 499.833C478.256 499.846 478.282 499.866 478.304 499.89C478.409 500.044 478.458 500.231 478.441 500.417V502.893C478.443 503.129 478.396 503.363 478.304 503.58C478.241 503.766 478.12 503.926 477.96 504.039L476.424 504.932C476.377 504.976 476.316 505 476.252 505C476.188 505 476.127 504.976 476.08 504.932C475.974 504.778 475.926 504.592 475.943 504.405V501.93C475.942 501.694 475.988 501.46 476.08 501.242C476.141 501.056 476.262 500.895 476.424 500.784L477.96 499.89ZM478.349 521.389C478.352 521.625 478.305 521.859 478.212 522.076C478.149 522.262 478.029 522.423 477.868 522.535L476.516 523.314C476.469 523.358 476.408 523.382 476.344 523.382C476.28 523.382 476.219 523.358 476.172 523.314C476.064 523.161 476.015 522.973 476.034 522.787V507.958C476.032 507.722 476.079 507.487 476.172 507.27C476.233 507.084 476.354 506.923 476.516 506.812L477.868 506.033C477.915 505.989 477.976 505.965 478.04 505.965C478.104 505.965 478.165 505.989 478.212 506.033C478.32 506.186 478.368 506.373 478.349 506.56V521.389Z" fill="#FAFAFA"/>
<path d="M490.478 514.421C490.478 514.658 490.431 514.891 490.34 515.109C490.278 515.295 490.157 515.455 489.996 515.567L488.644 516.347C488.597 516.39 488.536 516.414 488.472 516.414C488.408 516.414 488.347 516.39 488.3 516.347C488.195 516.184 488.154 515.988 488.186 515.797V507.706C488.252 506.754 488.079 505.8 487.682 504.933C487.345 504.367 486.833 504.283 486.146 504.681C485.429 505.158 484.902 505.872 484.656 506.698C484.273 507.779 484.087 508.92 484.106 510.067V518.089C484.107 518.325 484.06 518.559 483.969 518.776C483.907 518.963 483.786 519.124 483.625 519.235L482.272 520.014C482.226 520.057 482.164 520.082 482.101 520.082C482.037 520.082 481.975 520.057 481.929 520.014C481.821 519.86 481.772 519.673 481.791 519.487V504.658C481.789 504.421 481.836 504.187 481.929 503.97C481.991 503.784 482.112 503.624 482.272 503.512L483.625 502.732C483.646 502.708 483.673 502.688 483.702 502.675C483.732 502.662 483.764 502.655 483.797 502.655C483.829 502.655 483.861 502.662 483.891 502.675C483.921 502.688 483.947 502.708 483.969 502.732C484.074 502.887 484.123 503.073 484.106 503.26V503.993C484.403 503.292 484.772 502.624 485.206 501.999C485.591 501.427 486.101 500.949 486.696 500.601C487.226 500.218 487.882 500.054 488.53 500.143C488.783 500.208 489.019 500.325 489.225 500.487C489.43 500.649 489.599 500.851 489.721 501.082C490.058 501.701 490.276 502.377 490.363 503.076C490.492 503.987 490.554 504.907 490.546 505.827L490.478 514.421Z" fill="#FAFAFA"/>
<path d="M606.086 447.702L583.831 460.56L587.292 429.343C584.634 427.945 582.938 424.461 582.938 419.488C582.938 410.618 588.324 400.327 594.97 396.568C601.617 392.809 607.003 396.797 607.003 405.736C606.868 410.988 605.367 416.115 602.648 420.611L606.086 447.702Z" fill="#455A64"/>
<path d="M606.089 447.703L586.492 436.403L583.811 460.561L606.089 447.703Z" fill="#37474F"/>
<path d="M594.948 396.477C590.103 399.754 586.49 404.552 584.68 410.114L602.626 420.473C605.344 415.977 606.845 410.851 606.981 405.599C606.981 396.614 601.594 392.649 594.948 396.477Z" fill="#37474F"/>
<path d="M486.722 292.56C479.113 288.159 468.592 288.778 456.926 295.493C433.709 308.901 414.846 341.608 414.846 368.355C414.846 381.809 419.59 391.275 427.268 395.63L442.097 404.225C449.707 408.625 460.227 408.006 471.893 401.291C495.133 387.883 513.973 355.245 513.973 328.406C513.973 314.998 509.275 305.486 501.666 301.177" fill="#7E8ED5"/>
<path d="M471.87 304.133C448.629 317.564 429.789 350.179 429.789 377.018C429.789 403.857 448.629 414.721 471.87 401.313C495.11 387.905 513.973 355.267 513.95 328.428C513.927 301.589 495.064 290.703 471.87 304.133Z" fill="#7E8ED5"/>
<path d="M495.067 363.656V366.819C489.499 376.764 481.504 385.138 471.827 391.16C462.659 396.386 454.591 396.959 448.586 393.612V387.264C448.884 380.662 450.763 374.229 454.066 368.505C457.368 362.782 461.997 357.935 467.563 354.374L473.683 350.867C479.115 347.727 484.364 347.337 488.489 349.721C492.615 352.105 495.067 357.216 495.067 363.656Z" fill="#7E8ED5"/>
<path opacity="0.4" d="M486.722 292.559L501.643 301.2C494.033 296.799 483.513 297.418 471.847 304.133C456.628 312.934 443.312 329.964 435.909 348.208L420.988 339.567C428.368 321.231 441.616 304.294 456.926 295.516C468.593 288.777 479.021 288.135 486.722 292.559Z" fill="white"/>
<path opacity="0.2" d="M441.569 403.903L427.29 395.629C419.634 391.251 414.867 381.877 414.867 368.354L429.788 376.995C429.788 390.105 434.28 399.388 441.569 403.903Z" fill="black"/>
<path opacity="0.1" d="M421.011 339.543L435.932 348.184C432.075 357.31 429.991 367.088 429.789 376.994L414.846 368.353C415.057 358.446 417.149 348.669 421.011 339.543Z" fill="black"/>
<path d="M466.578 349.423C465.156 349.437 463.756 349.074 462.521 348.369C461.029 347.38 459.832 346.005 459.057 344.391C458.283 342.777 457.959 340.984 458.121 339.201C458.317 335.025 459.51 330.958 461.599 327.337C463.688 323.717 466.614 320.649 470.131 318.39C471.544 317.262 473.265 316.586 475.068 316.452C476.872 316.317 478.674 316.73 480.238 317.636C481.803 318.543 483.058 319.9 483.839 321.531C484.62 323.162 484.891 324.991 484.616 326.778C484.418 330.953 483.224 335.02 481.135 338.641C479.046 342.261 476.122 345.329 472.606 347.589C470.791 348.715 468.713 349.347 466.578 349.423V349.423Z" fill="white"/>
<path d="M488.488 349.721C484.363 347.429 479.091 347.727 473.682 350.867L467.563 354.373C462.017 357.931 457.405 362.766 454.111 368.472C450.817 374.178 448.938 380.59 448.631 387.172V393.52C454.613 396.844 462.818 396.294 471.871 391.068C481.52 385.065 489.498 376.725 495.066 366.819V363.748C495.066 357.216 492.774 352.15 488.488 349.721Z" fill="white"/>
<path d="M959.674 746.233C959.674 746.233 962.722 719.463 976.039 698.697C989.355 677.932 1007.64 664.96 1024.72 663.607C1041.8 662.255 1055.57 677.955 1037.3 688.819C1019.04 699.683 986.582 710.616 971.661 750.954L959.674 746.233Z" fill="#7E8ED5"/>
<path opacity="0.1" d="M959.674 746.233C959.674 746.233 962.722 719.463 976.039 698.697C989.355 677.932 1007.64 664.96 1024.72 663.607C1041.8 662.255 1055.57 677.955 1037.3 688.819C1019.04 699.683 986.582 710.616 971.661 750.954L959.674 746.233Z" fill="black"/>
<path d="M964.694 739.288H964.51C964.286 739.196 964.106 739.02 964.012 738.796C963.917 738.573 963.915 738.321 964.006 738.096C982.021 693.724 1016.31 675.204 1031.94 671.629C1032.18 671.574 1032.43 671.616 1032.63 671.745C1032.84 671.874 1032.99 672.08 1033.04 672.317C1033.09 672.554 1033.05 672.803 1032.92 673.009C1032.8 673.215 1032.59 673.362 1032.35 673.417C1017.04 676.946 983.442 695.145 965.702 738.807C965.61 738.987 965.462 739.132 965.28 739.219C965.097 739.306 964.891 739.33 964.694 739.288V739.288Z" fill="white"/>
<path d="M1055.87 739.816C1054.33 743.3 1050.53 745.111 1046.97 746.532C1043.42 747.953 1039.59 749.488 1037.69 752.789C1033.84 759.435 1040.17 768.832 1036.02 775.273C1035.05 776.571 1033.83 777.659 1032.44 778.47C1031.04 779.282 1029.49 779.801 1027.88 779.994C1025.23 780.366 1022.56 780.603 1019.88 780.705C1018.61 780.682 1017.34 780.582 1016.08 780.407C1012.38 779.581 1008.52 779.991 1005.08 781.576C999.783 784.555 998.201 791.225 994.947 796.382C992.958 799.418 990.338 801.989 987.264 803.92C984.191 805.85 980.737 807.094 977.138 807.567C974.846 807.888 970.262 808.3 967.97 806.948L967.466 806.627C967.145 806.26 966.71 805.779 966.526 805.504C966.517 805.451 966.517 805.397 966.526 805.344C965.587 801.883 967.122 798.307 967.191 794.732C967.191 794.503 967.191 794.296 967.191 794.09C967.053 789.942 966.916 785.816 966.824 781.69C966.625 774.051 966.549 766.411 966.595 758.771C966.595 753.82 966.045 748.411 968.154 743.758C970.445 738.647 976.221 738.533 978.399 733.49C979.27 731.496 979.728 729.342 980.691 727.325C982.001 724.359 984.1 721.81 986.76 719.955C989.419 718.1 992.536 717.01 995.772 716.805C1005.83 716.301 1014.84 724.437 1024.9 723.681C1027.49 723.325 1030.06 722.836 1032.6 722.214C1040.74 720.678 1050.16 723.016 1054.74 729.892C1055.74 731.324 1056.36 732.981 1056.56 734.713C1056.75 736.445 1056.51 738.198 1055.87 739.816V739.816Z" fill="#7E8ED5"/>
<path d="M965.518 789.483C965.409 789.454 965.307 789.404 965.218 789.335C965.128 789.265 965.054 789.179 964.998 789.081C964.943 788.983 964.908 788.875 964.894 788.763C964.881 788.651 964.891 788.537 964.922 788.429C978.811 736.309 1033.68 728.838 1046.58 729.686C1046.81 729.701 1047.03 729.806 1047.18 729.978C1047.33 730.15 1047.4 730.375 1047.39 730.602C1047.37 730.83 1047.27 731.043 1047.09 731.193C1046.92 731.344 1046.7 731.42 1046.47 731.405C1033.91 730.488 980.186 737.868 966.572 788.864C966.546 788.975 966.497 789.08 966.429 789.172C966.361 789.263 966.275 789.34 966.177 789.398C966.078 789.456 965.969 789.493 965.856 789.508C965.743 789.523 965.628 789.514 965.518 789.483V789.483Z" fill="white"/>
<path d="M1026.55 763.08C1026.38 763.053 1026.22 762.973 1026.09 762.851C1021.02 758.457 1015.04 755.236 1008.58 753.418C1002.12 751.6 995.333 751.228 988.712 752.331C988.601 752.347 988.487 752.342 988.378 752.314C988.269 752.287 988.166 752.238 988.075 752.171C987.985 752.104 987.909 752.02 987.851 751.924C987.793 751.827 987.754 751.72 987.738 751.609C987.721 751.497 987.727 751.384 987.754 751.275C987.782 751.165 987.83 751.063 987.897 750.972C987.964 750.882 988.048 750.805 988.145 750.747C988.241 750.689 988.348 750.651 988.46 750.635C995.348 749.498 1002.4 749.897 1009.12 751.802C1015.83 753.708 1022.04 757.074 1027.31 761.659C1027.44 761.786 1027.53 761.953 1027.56 762.135C1027.59 762.316 1027.56 762.503 1027.47 762.666C1027.39 762.829 1027.25 762.96 1027.09 763.038C1026.92 763.117 1026.73 763.14 1026.55 763.103V763.08Z" fill="white"/>
<path d="M833.545 116.764L840.834 119.561V103.517C840.834 90.7734 850.987 87.7251 862.034 94.0968C873.059 100.468 881.998 115.962 881.998 128.683V130.975C883.534 130.509 885.156 130.394 886.743 130.64C888.33 130.886 889.842 131.486 891.165 132.396V132.396C895.349 135.123 898.83 138.798 901.327 143.123C903.824 147.448 905.266 152.3 905.536 157.286V158.341L915.712 164.208C918.467 166.004 920.759 168.424 922.404 171.271C924.048 174.118 924.999 177.313 925.178 180.596C925.178 186.624 920.938 189.076 915.712 186.051L833.431 138.561C830.676 136.765 828.384 134.346 826.739 131.498C825.095 128.651 824.144 125.457 823.965 122.173C824.079 116.191 828.297 113.739 833.545 116.764Z" fill="#E6E6E6"/>
<path d="M931.159 104.068L944.292 111.7C944.26 111.12 944.26 110.538 944.292 109.958V106.107C944.292 99.2315 949.082 96.527 954.972 99.942C957.513 101.498 959.687 103.586 961.344 106.062C962.307 97.4896 969.045 94.3038 977.205 99.0023C981.871 102.032 985.757 106.121 988.545 110.936C991.332 115.751 992.944 121.157 993.248 126.712V132.442C993.308 134.732 992.846 137.005 991.896 139.089L1002.87 145.438C1004.6 146.562 1006.04 148.078 1007.07 149.862C1008.1 151.646 1008.7 153.648 1008.81 155.706C1008.81 159.487 1006.15 161.023 1002.87 159.121L931.159 117.751C929.432 116.626 927.995 115.11 926.963 113.326C925.932 111.542 925.336 109.54 925.223 107.483C925.223 103.701 927.881 102.165 931.159 104.068Z" fill="#E6E6E6"/>
<path d="M879.96 451.897C870.333 468.17 861.074 482.311 854.565 489.095C842.211 494.848 813.309 503.672 801.849 505.139C799.846 505.386 797.822 504.906 796.142 503.787C791.673 500.853 788.235 500.395 783.513 498.768C779.823 497.484 778.265 495.742 777.577 496.476C776.867 497.308 776.51 498.385 776.583 499.477C776.656 500.569 777.152 501.589 777.967 502.32C779.751 503.987 781.728 505.434 783.857 506.629C778.822 507.865 773.574 507.951 768.501 506.881C758.646 504.337 754.062 508.921 760.64 519.693C762.932 523.521 772.397 529.64 791.375 527.99C798.138 527.632 804.873 526.866 811.544 525.698C829.765 521.802 850.004 518.043 862.449 514.238C867.067 512.408 871.2 509.538 874.528 505.85C895.453 481.99 902.398 464.984 911.566 449.536L910.764 424.324C895.935 423.82 888.004 438.282 879.96 451.897Z" fill="#FFA8A7"/>
<path d="M913.332 423.82C909.026 423.219 904.638 423.805 900.64 425.513C896.641 427.222 893.185 429.988 890.642 433.515C880.443 446.556 862.428 477.864 862.428 477.864C862.428 477.864 868.341 493.564 884.247 496.2L909.917 461.637C909.917 461.637 921.904 437.755 913.332 423.82Z" fill="#455A64"/>
<path d="M968.588 775.775H951.926V805.479H968.588V775.775Z" fill="#FFA8A7"/>
<path d="M910.83 774.194L894.19 774.79L893.342 743.344L910.83 742.748V774.194Z" fill="#FFA8A7"/>
<path d="M970.925 518.639C970.925 535.21 968.496 668.534 968.496 668.534C968.886 673.302 973.08 682.08 972.255 700.393C970.994 725.261 969.321 790.628 969.321 790.628C966.463 792.098 963.308 792.898 960.095 792.965C956.882 793.033 953.696 792.367 950.779 791.017C950.779 791.017 937.279 699.338 934.3 674.791C931.687 653.27 925.132 581.921 925.132 581.921L916.101 666.128C918.024 675.161 918.718 684.412 918.164 693.631C917.385 705.091 912.022 764.407 912.022 764.407C909.144 766.109 905.917 767.132 902.584 767.398C899.252 767.664 895.903 767.166 892.792 765.943C892.792 765.943 883.326 676.556 883.12 666.059C882.891 654.141 888.667 518.41 888.667 518.41L970.925 518.639Z" fill="#37474F"/>
<path d="M951.929 796.908V794.433C950.325 795.166 946.635 809.881 940.034 816.161C934.785 821.157 927.611 826.91 925.801 832.48C923.99 838.049 935.771 841.464 940.699 840.547C946.406 839.493 956.284 835.322 958.759 831.379C961.235 827.437 962.404 821.776 964.42 818.934C966.437 816.092 971.09 812.929 972.167 809.629C972.504 806.539 972.176 803.413 971.205 800.461C970.425 797.39 969.6 794.02 968.592 794.318C968.592 794.685 968.592 796.221 968.592 796.221C966.251 798.149 963.304 799.188 960.272 799.154C957.82 799.338 951.906 798.833 951.929 796.908Z" fill="#263238"/>
<path d="M894.008 769.427C893.138 769.427 892.45 770.734 890.525 772.888C887.691 775.868 884.375 778.348 880.715 780.222C874.481 783.477 862.379 788.473 856.856 791.04C853.418 792.645 853.578 796.954 857.131 799.406C860.683 801.859 869.232 803.623 879.5 801.24C885.093 799.933 892.381 794.547 896.988 794.845C901.595 795.143 910.236 795.074 913.628 792.553C917.02 790.032 915.668 784.898 914.705 780.406C913.651 775.501 912.413 767.869 910.786 768.212V769.908C908.792 773.071 898.455 774.355 894.054 772.017L894.008 769.427Z" fill="#263238"/>
<path d="M924.997 581.898C916.336 579.103 908.411 574.404 901.803 568.146C901.803 568.146 906.387 576.879 919.588 584.992L916.792 660.192L924.997 581.898Z" fill="#263238"/>
<path d="M961.6 426.41C961.6 426.41 975.352 429.573 974.367 454.418L971.479 493.978V553.34C959.24 567.229 905.012 566.198 886.332 552.24C886.332 552.24 888.441 481.991 889.701 454.968C890.595 435.762 895.019 426.067 913.904 423.958L937.122 424.989L961.6 426.41Z" fill="#7E8ED5"/>
<path d="M944.114 374.679C944.249 381.393 941.713 387.885 937.062 392.729C932.412 397.572 926.028 400.371 919.315 400.51C905.563 400.51 897.518 388.637 894.516 374.679C889.038 349.169 905.609 348.849 919.315 348.849C926.028 348.987 932.412 351.786 937.062 356.63C941.713 361.473 944.249 367.966 944.114 374.679V374.679Z" fill="#263238"/>
<path d="M956.765 385.155C956.765 385.155 952.96 403.766 951.447 406.814C950.48 408.661 948.838 410.065 946.863 410.734L947.138 397.647L956.765 385.155Z" fill="#263238"/>
<path d="M951.975 358.452C951.975 358.452 954.702 357.765 957.59 362.303C960.066 366.176 960.639 374.909 956.742 385.222L949.568 386.07L951.975 358.452Z" fill="#263238"/>
<path d="M954.607 362.234L963.386 362.394C963.446 361.826 963.388 361.25 963.215 360.705C963.043 360.16 962.759 359.656 962.382 359.226C962.006 358.795 961.544 358.447 961.026 358.204C960.509 357.96 959.946 357.826 959.375 357.811C958.174 357.828 957.022 358.29 956.142 359.107C955.262 359.924 954.715 361.038 954.607 362.234V362.234Z" fill="#263238"/>
<path d="M955.757 360.149L962.266 353.892C961.891 353.449 961.429 353.09 960.908 352.835C960.386 352.581 959.818 352.437 959.239 352.414C958.66 352.39 958.082 352.487 957.541 352.698C957.001 352.909 956.511 353.229 956.101 353.639C955.233 354.481 954.715 355.619 954.651 356.827C954.587 358.034 954.983 359.22 955.757 360.149V360.149Z" fill="#263238"/>
<path d="M947.435 385.98C948.879 386.874 950.919 384.009 952.684 382.061C954.448 380.112 960.018 378.302 962.906 384.628C965.794 390.953 960.866 397.211 956.74 399.273C949.337 402.94 946.999 397.6 946.999 397.6L946.404 427.075C935.975 443.119 912.391 442.614 920.871 426.296V417.242C917.374 417.828 913.822 418.02 910.282 417.815C904.506 416.876 900.885 412.154 899.12 405.645C896.301 395.194 895.247 386.759 897.63 366.2C900.243 343.67 925.409 343.441 938.886 352.448C952.363 361.456 947.435 385.98 947.435 385.98Z" fill="#FFA8A7"/>
<path d="M916.082 362.785C922.087 362.189 928.023 360.952 934.051 360.493C935.351 360.335 936.668 360.397 937.947 360.677C942.531 361.914 941.958 367.278 942.692 371.036C943.952 377.5 944.984 388.432 947.436 388.478C948.169 388.478 950.897 383.734 952.685 382.061C953.673 380.602 954.229 378.894 954.289 377.133C954.747 374.451 954.999 371.747 955.206 369.042C955.389 366.75 955.618 364.458 955.595 362.167C955.714 359.577 955.514 356.983 954.999 354.443C954.428 352.28 953.325 350.295 951.791 348.667L951.332 348.163C948.311 345.005 944.645 342.534 940.583 340.92C934.739 338.729 928.61 337.393 922.385 336.955C916.169 336.503 909.981 335.738 903.843 334.663C903.491 334.562 903.117 334.562 902.765 334.663C902.518 334.802 902.309 335.001 902.157 335.241C902.005 335.481 901.915 335.755 901.894 336.038C901.647 337.461 901.809 338.925 902.361 340.26C902.912 341.595 903.832 342.745 905.012 343.579C900.863 343.899 896.096 341.745 892.085 340.668C891.762 340.532 891.415 340.462 891.065 340.462C890.715 340.462 890.368 340.532 890.045 340.668C889.646 340.949 889.362 341.364 889.243 341.837C888.997 342.931 888.997 344.066 889.243 345.16C889.614 348.476 890.847 351.636 892.818 354.328C895.911 358.346 900.274 361.198 905.195 362.419C908.784 363.092 912.455 363.216 916.082 362.785Z" fill="#263238"/>
<path d="M920.918 417.242C920.918 417.242 933.799 414.538 938.314 412.04C940.99 410.576 943.162 408.339 944.548 405.622C943.875 408.349 942.676 410.918 941.019 413.186C937.718 417.563 920.941 420.795 920.941 420.795L920.918 417.242Z" fill="#C06F6F"/>
<path d="M926.576 385.476C928.007 385.472 929.163 384.217 929.158 382.672C929.154 381.128 927.991 379.879 926.561 379.883C925.13 379.887 923.974 381.143 923.979 382.687C923.983 384.231 925.146 385.48 926.576 385.476Z" fill="#263238"/>
<path d="M928.256 371.403L933.78 374.566C934.176 373.78 934.264 372.873 934.027 372.025C933.789 371.177 933.243 370.448 932.496 369.982C932.128 369.777 931.722 369.651 931.303 369.613C930.884 369.574 930.461 369.623 930.062 369.756C929.663 369.89 929.296 370.106 928.985 370.389C928.674 370.673 928.426 371.018 928.256 371.403V371.403Z" fill="#263238"/>
<path d="M922.064 401.199L916.174 403.491C916.29 403.897 916.488 404.275 916.757 404.601C917.025 404.927 917.358 405.194 917.735 405.385C918.111 405.577 918.523 405.688 918.945 405.714C919.366 405.739 919.788 405.676 920.185 405.531C920.985 405.177 921.622 404.535 921.97 403.732C922.319 402.93 922.352 402.025 922.064 401.199V401.199Z" fill="#C06F6F"/>
<path d="M900.314 373.855L905.356 369.822C905.13 369.469 904.832 369.169 904.483 368.939C904.133 368.71 903.739 368.557 903.326 368.49C902.913 368.423 902.49 368.443 902.086 368.55C901.681 368.657 901.304 368.848 900.978 369.111C900.3 369.679 899.857 370.479 899.734 371.355C899.611 372.232 899.818 373.123 900.314 373.855V373.855Z" fill="#263238"/>
<path d="M905.161 384.576C906.592 384.572 907.747 383.316 907.743 381.772C907.738 380.228 906.575 378.979 905.145 378.984C903.714 378.988 902.558 380.243 902.563 381.787C902.568 383.332 903.731 384.58 905.161 384.576Z" fill="#263238"/>
<path d="M916.356 379.701L916.058 396.02L906.799 393.888L916.356 379.701Z" fill="#C06F6F"/>
<path d="M696.465 516.188L710.836 507.891L716.52 500.992L702.172 509.289L696.465 516.188Z" fill="#7E8ED5"/>
<path opacity="0.4" d="M696.465 516.188L710.836 507.891L716.52 500.992L702.172 509.289L696.465 516.188Z" fill="black"/>
<path d="M735.539 538.74L749.91 530.443L761.897 519.831L747.549 528.128L735.539 538.74Z" fill="#7E8ED5"/>
<path opacity="0.4" d="M735.539 538.74L749.91 530.443L761.897 519.831L747.549 528.128L735.539 538.74Z" fill="black"/>
<path d="M857.611 567.391C861.002 571.949 863.057 577.362 863.548 583.022C860.157 578.463 858.102 573.051 857.611 567.391V567.391ZM890.983 567.826C886.146 534.936 868.475 502.39 847.435 490.243C837.327 484.398 827.976 484.192 820.482 488.57L806.959 496.362C806.698 496.501 806.446 496.654 806.203 496.821C805.603 497.157 805.022 497.524 804.461 497.921C803.352 498.689 802.31 499.547 801.344 500.488L800.885 500.923C800.45 501.359 800.037 501.817 799.648 502.299C799.258 502.78 798.662 503.445 798.204 504.064C797.228 505.35 796.347 506.706 795.568 508.12C795.155 508.831 794.766 509.587 794.399 510.412L676.316 442.249L661.969 450.523V459.691L663.183 460.401L664.307 461.066V462.991L662.015 464.367V469.684L679.365 506.355L696.509 516.28L702.216 509.404L717.343 518.457L726.029 533.355L735.587 538.879L747.574 528.244L762.311 536.747L767.262 557.146L791.924 571.379C793.148 576.576 794.679 581.696 796.507 586.712C796.668 587.239 796.851 587.743 797.08 588.316C805.286 609.884 818.327 628.334 833.041 636.837C834.816 637.872 836.671 638.761 838.588 639.496C839.599 639.9 840.632 640.244 841.682 640.528C842.586 640.789 843.504 640.996 844.433 641.146C847.318 641.688 850.279 641.688 853.165 641.146L854.357 640.871C854.928 640.75 855.487 640.582 856.03 640.367L857.313 639.863C857.772 639.691 858.216 639.484 858.643 639.244C859.06 639.053 859.465 638.839 859.858 638.602L860.476 638.258C860.577 638.222 860.67 638.167 860.751 638.098L874.297 630.305C885.207 623.979 892.266 607.981 892.266 585.383C892.284 579.507 891.863 573.639 891.005 567.826H890.983Z" fill="#7E8ED5"/>
<path d="M853.417 595.122C847.756 591.845 843.149 582.127 843.149 573.417C843.149 564.708 847.733 560.284 853.417 563.539C859.101 566.794 863.662 576.535 863.662 585.244C863.662 593.954 859.078 598.308 853.417 595.122ZM876.658 576.076C871.822 543.209 854.151 510.663 833.11 498.516C823.346 492.878 814.339 492.465 806.982 496.338C806.721 496.477 806.469 496.63 806.225 496.797C805.626 497.133 805.045 497.5 804.484 497.897C803.375 498.665 802.332 499.523 801.366 500.464L800.908 500.899C800.473 501.335 800.06 501.793 799.67 502.275C799.281 502.756 798.685 503.421 798.226 504.039C797.251 505.326 796.37 506.682 795.591 508.096C795.178 508.807 794.788 509.563 794.422 510.388C792.295 514.823 790.754 519.515 789.838 524.346L661.969 450.499V459.667L663.183 460.377L664.307 461.042V462.967L662.015 464.343V469.66L679.365 506.331L696.509 516.256L702.216 509.38L717.343 518.433L726.029 533.331L735.587 538.855L747.574 528.22L762.311 536.723L767.262 557.122L791.924 571.355C793.148 576.552 794.679 581.672 796.507 586.688C796.668 587.215 796.851 587.719 797.08 588.292C805.286 609.86 818.327 628.31 833.041 636.813C834.816 637.848 836.671 638.737 838.588 639.472C839.599 639.876 840.632 640.22 841.682 640.503C842.586 640.765 843.504 640.972 844.433 641.122C847.318 641.664 850.279 641.664 853.165 641.122L854.357 640.847C854.928 640.726 855.487 640.558 856.03 640.343L857.313 639.839C857.772 639.667 858.216 639.46 858.643 639.22C859.06 639.029 859.465 638.815 859.858 638.578L860.476 638.234C860.577 638.198 860.67 638.144 860.751 638.074C871.203 631.473 877.918 615.704 877.918 593.633C877.922 587.758 877.501 581.89 876.658 576.076V576.076Z" fill="#7E8ED5"/>
<path opacity="0.4" d="M863.664 585.245C863.664 593.955 859.08 598.401 853.418 595.124C847.757 591.846 843.15 582.151 843.15 573.419C843.15 564.686 847.734 560.263 853.418 563.54C855.057 564.534 856.483 565.843 857.613 567.391C858.112 573.049 860.167 578.459 863.549 583.022C863.633 583.76 863.671 584.503 863.664 585.245V585.245Z" fill="black"/>
<path opacity="0.4" d="M892.31 585.222C892.31 607.843 885.251 623.841 874.341 630.144L860.795 637.937C871.247 631.336 877.962 615.567 877.962 593.496C877.938 587.657 877.494 581.828 876.633 576.054C871.797 543.187 854.126 510.641 833.086 498.493C823.322 492.855 814.314 492.443 806.957 496.316L820.48 488.523C827.974 484.146 837.326 484.352 847.433 490.197C868.496 502.344 886.168 534.89 890.981 567.78C891.855 573.553 892.3 579.383 892.31 585.222V585.222Z" fill="white"/>
<path d="M877.964 593.519C877.964 615.591 871.248 631.359 860.797 637.96L874.342 630.167C885.252 623.842 892.311 607.844 892.311 585.245C892.311 584.42 892.311 583.572 892.311 582.724L877.826 590.998C877.826 591.846 877.964 592.694 877.964 593.519Z" fill="#7E8ED5"/>
<path opacity="0.1" d="M877.964 593.519C877.964 615.591 871.248 631.359 860.797 637.96L874.342 630.167C885.252 623.842 892.311 607.844 892.311 585.245C892.311 584.42 892.311 583.572 892.311 582.724L877.826 590.998C877.826 591.846 877.964 592.694 877.964 593.519Z" fill="black"/>
<path opacity="0.15" d="M790.363 533.7V538.375L661.967 464.23L664.328 462.878V460.93L790.363 533.7Z" fill="black"/>
<path opacity="0.15" d="M790.363 535.625V538.375L661.967 464.23L664.328 462.877V462.854L790.363 535.625Z" fill="black"/>
<path opacity="0.15" d="M795.703 546.03C795.703 577.82 812.435 613.231 833.085 625.149C853.736 637.067 870.467 620.955 870.467 589.188C870.467 557.421 853.736 521.987 833.085 510.069C812.435 498.151 795.703 514.241 795.703 546.03Z" stroke="black" stroke-miterlimit="10"/>
<path opacity="0.4" d="M794.398 510.32C792.272 514.755 790.731 519.447 789.814 524.279L661.945 450.431L676.293 442.157L794.398 510.32Z" fill="white"/>
<path d="M960.499 517.494C967.214 504.819 974.846 476.239 978.651 461.982C984.06 441.584 975.305 428.749 965.38 428.222C959.146 429.161 938.702 503.605 938.702 503.605C936.41 505.415 905.308 521.184 895.292 525.149C893.506 525.829 891.532 525.829 889.745 525.149C884.932 523.407 881.678 523.728 876.979 523.247C873.289 522.88 871.433 521.574 870.974 522.353C870.532 523.319 870.472 524.418 870.808 525.426C871.144 526.434 871.851 527.277 872.785 527.785C874.805 528.969 876.96 529.908 879.202 530.581C875.188 531.811 871 532.384 866.803 532.277C857.199 532.071 853.738 536.242 861.187 546.029C865.771 552.126 873.381 554.051 890.295 548.321C895.177 546.625 901.755 543.347 907.921 541.124C920.641 536.54 923.964 536.013 933.66 532.713C947.709 527.854 957.519 523.132 960.499 517.494Z" fill="#FFA8A7"/>
<path d="M961.596 426.411C967.441 427.213 973.056 428.543 976.517 433.287C979.978 438.031 982.751 444.747 979.359 463.083C976.766 475.891 973.29 488.504 968.954 500.831C968.954 500.831 955.339 506.653 940.877 491.893L950.824 453.433C950.824 453.433 952.52 428.222 961.596 426.411Z" fill="#455A64"/>
</svg>
