<svg width="1920" height="1164" viewBox="0 0 1920 1164" fill="none" xmlns="http://www.w3.org/2000/svg">
<rect width="1920" height="1164" rx="72" fill="url(#paint0_radial)"/>
<path d="M540.263 765.957C540.119 767.492 539.975 769.053 539.883 770.654C540.053 767.558 540.145 765.957 540.145 765.957H540.263Z" fill="#003A54"/>
<path d="M1377.05 416.244H1185.88C1181.93 416.244 1178.73 419.445 1178.73 423.394V533.72C1178.73 537.669 1181.93 540.87 1185.88 540.87H1377.05C1381 540.87 1384.2 537.669 1384.2 533.72V423.394C1384.2 419.445 1381 416.244 1377.05 416.244Z" fill="#E1E9EB"/>
<path d="M1384.21 423.394V442.691H1178.73V423.394C1178.73 421.498 1179.48 419.679 1180.82 418.338C1182.16 416.997 1183.98 416.244 1185.88 416.244H1377.07C1378 416.244 1378.93 416.429 1379.8 416.788C1380.67 417.148 1381.46 417.674 1382.12 418.338C1382.78 419.002 1383.31 419.79 1383.67 420.658C1384.03 421.525 1384.21 422.455 1384.21 423.394V423.394Z" fill="#98B8C3"/>
<path d="M1253.86 436.106C1253.86 436.173 1253.83 436.238 1253.79 436.289C1253.73 436.353 1253.65 436.398 1253.57 436.42C1253.43 436.46 1253.3 436.486 1253.16 436.499H1252.5H1251.85C1251.71 436.487 1251.57 436.461 1251.43 436.42C1251.34 436.399 1251.27 436.353 1251.21 436.289C1251.16 436.238 1251.14 436.173 1251.14 436.106V423.577C1251.14 423.51 1251.16 423.445 1251.21 423.394C1251.27 423.33 1251.34 423.285 1251.43 423.263C1251.57 423.223 1251.71 423.197 1251.85 423.184H1252.49H1253.15C1253.29 423.197 1253.42 423.223 1253.55 423.263C1253.64 423.285 1253.72 423.33 1253.78 423.394C1253.82 423.445 1253.84 423.51 1253.84 423.577L1253.86 436.106Z" fill="white"/>
<path d="M1267.77 429.638C1267.8 430.699 1267.64 431.755 1267.3 432.761C1267.04 433.56 1266.59 434.284 1265.99 434.873C1265.37 435.435 1264.63 435.848 1263.83 436.08C1262.83 436.353 1261.81 436.481 1260.78 436.46H1257.52C1257.31 436.466 1257.11 436.396 1256.95 436.263C1256.87 436.178 1256.8 436.075 1256.76 435.962C1256.72 435.848 1256.7 435.727 1256.71 435.607V424.05C1256.7 423.93 1256.72 423.809 1256.76 423.695C1256.8 423.582 1256.87 423.479 1256.95 423.394C1257.11 423.261 1257.31 423.191 1257.52 423.197H1260.91C1261.93 423.176 1262.94 423.317 1263.92 423.617C1264.7 423.866 1265.41 424.288 1266 424.85C1266.59 425.413 1267.04 426.104 1267.31 426.87C1267.63 427.759 1267.78 428.696 1267.77 429.638V429.638ZM1264.98 429.73C1264.98 429.137 1264.91 428.546 1264.76 427.972C1264.62 427.46 1264.38 426.981 1264.05 426.569C1263.69 426.155 1263.24 425.834 1262.74 425.637C1262.1 425.394 1261.41 425.282 1260.73 425.309H1259.42V434.335H1260.82C1261.45 434.352 1262.09 434.254 1262.68 434.046C1263.19 433.874 1263.64 433.576 1264 433.18C1264.35 432.761 1264.61 432.269 1264.76 431.737C1264.92 431.082 1265 430.406 1264.98 429.73Z" fill="white"/>
<path d="M1283.9 434.466C1283.9 434.637 1283.9 434.781 1283.9 434.899C1283.91 435 1283.91 435.1 1283.9 435.201C1283.89 435.278 1283.86 435.353 1283.82 435.424C1283.78 435.501 1283.72 435.571 1283.65 435.634C1283.52 435.752 1283.38 435.854 1283.22 435.935C1282.97 436.075 1282.71 436.194 1282.43 436.29C1282.09 436.41 1281.73 436.502 1281.37 436.565C1280.94 436.645 1280.5 436.685 1280.06 436.683C1279.22 436.696 1278.38 436.554 1277.59 436.263C1276.88 435.98 1276.24 435.53 1275.73 434.952C1275.19 434.349 1274.79 433.638 1274.55 432.866C1274.26 431.922 1274.12 430.94 1274.14 429.953C1274.12 428.934 1274.27 427.919 1274.59 426.949C1274.87 426.132 1275.32 425.382 1275.9 424.745C1276.44 424.167 1277.1 423.719 1277.84 423.434C1278.63 423.12 1279.48 422.964 1280.33 422.974C1280.69 422.973 1281.05 423.004 1281.4 423.066C1281.72 423.121 1282.03 423.2 1282.34 423.302C1282.61 423.392 1282.88 423.506 1283.13 423.643C1283.3 423.732 1283.47 423.842 1283.61 423.971C1283.69 424.042 1283.75 424.121 1283.8 424.208C1283.84 424.282 1283.86 424.362 1283.88 424.444C1283.88 424.557 1283.88 424.671 1283.88 424.785C1283.88 424.916 1283.88 425.078 1283.88 425.27C1283.88 425.463 1283.88 425.637 1283.88 425.795C1283.87 425.915 1283.85 426.035 1283.81 426.149C1283.79 426.223 1283.75 426.291 1283.69 426.346C1283.64 426.366 1283.58 426.366 1283.52 426.346C1283.37 426.327 1283.24 426.263 1283.13 426.162C1282.94 426.02 1282.73 425.888 1282.53 425.769C1282.24 425.609 1281.94 425.477 1281.63 425.375C1281.23 425.246 1280.82 425.184 1280.4 425.191C1279.92 425.18 1279.44 425.288 1279.01 425.505C1278.58 425.722 1278.21 426.043 1277.93 426.438C1277.63 426.878 1277.4 427.372 1277.28 427.894C1276.97 429.187 1276.97 430.536 1277.28 431.829C1277.41 432.338 1277.64 432.815 1277.96 433.233C1278.24 433.594 1278.61 433.878 1279.04 434.06C1279.48 434.248 1279.97 434.341 1280.45 434.335C1280.87 434.344 1281.29 434.286 1281.7 434.164C1282.01 434.065 1282.31 433.938 1282.59 433.784C1282.84 433.644 1283.05 433.522 1283.21 433.417C1283.32 433.33 1283.45 433.276 1283.59 433.259C1283.64 433.242 1283.7 433.242 1283.76 433.259C1283.81 433.3 1283.85 433.355 1283.86 433.417C1283.88 433.53 1283.88 433.644 1283.86 433.758C1283.89 434.011 1283.9 434.248 1283.9 434.466Z" fill="white"/>
<path d="M1293.47 436.145C1293.47 436.188 1293.46 436.23 1293.45 436.269C1293.43 436.308 1293.4 436.342 1293.37 436.368C1293.27 436.434 1293.16 436.475 1293.04 436.486C1292.82 436.503 1292.6 436.503 1292.38 436.486C1292.16 436.503 1291.94 436.503 1291.71 436.486C1291.6 436.477 1291.5 436.436 1291.41 436.368C1291.38 436.34 1291.36 436.305 1291.34 436.267C1291.33 436.228 1291.32 436.187 1291.32 436.145V435.45C1290.95 435.848 1290.5 436.168 1290.01 436.394C1289.51 436.625 1288.96 436.741 1288.41 436.736C1287.96 436.74 1287.52 436.678 1287.1 436.552C1286.71 436.436 1286.36 436.244 1286.05 435.988C1285.75 435.735 1285.51 435.417 1285.35 435.056C1285.18 434.642 1285.09 434.195 1285.1 433.745C1285.09 433.262 1285.2 432.784 1285.42 432.354C1285.64 431.953 1285.96 431.617 1286.35 431.383C1286.83 431.104 1287.35 430.913 1287.9 430.819C1288.6 430.688 1289.32 430.627 1290.04 430.635H1290.93V430.084C1290.93 429.832 1290.9 429.581 1290.84 429.337C1290.78 429.137 1290.68 428.953 1290.55 428.799C1290.4 428.648 1290.21 428.539 1290.01 428.484C1289.74 428.409 1289.46 428.373 1289.18 428.379C1288.79 428.374 1288.4 428.423 1288.03 428.523C1287.72 428.607 1287.43 428.712 1287.14 428.838L1286.48 429.153C1286.35 429.234 1286.21 429.283 1286.06 429.297C1285.99 429.299 1285.92 429.276 1285.86 429.232C1285.8 429.175 1285.75 429.103 1285.72 429.022C1285.68 428.917 1285.64 428.807 1285.63 428.694C1285.62 428.55 1285.62 428.405 1285.63 428.261C1285.61 428.095 1285.61 427.928 1285.63 427.762C1285.66 427.638 1285.73 427.526 1285.82 427.435C1285.97 427.3 1286.14 427.189 1286.32 427.107C1286.59 426.976 1286.87 426.866 1287.16 426.779C1287.51 426.672 1287.86 426.588 1288.21 426.529C1288.6 426.466 1288.99 426.435 1289.38 426.437C1290 426.426 1290.62 426.497 1291.22 426.647C1291.7 426.754 1292.15 426.975 1292.53 427.29C1292.87 427.594 1293.12 427.984 1293.25 428.418C1293.41 428.946 1293.48 429.494 1293.47 430.045V436.145ZM1290.94 432.21H1289.96C1289.6 432.204 1289.24 432.235 1288.89 432.301C1288.64 432.347 1288.39 432.44 1288.17 432.577C1288 432.686 1287.86 432.84 1287.77 433.023C1287.67 433.211 1287.63 433.418 1287.63 433.626C1287.63 433.795 1287.65 433.963 1287.72 434.12C1287.78 434.276 1287.88 434.417 1288 434.532C1288.29 434.764 1288.65 434.881 1289.01 434.86C1289.36 434.862 1289.71 434.767 1290.01 434.584C1290.36 434.361 1290.67 434.087 1290.94 433.771V432.21Z" fill="white"/>
<path d="M1301.93 427.828C1301.93 428.073 1301.93 428.274 1301.93 428.432C1301.94 428.554 1301.94 428.677 1301.93 428.799C1301.91 428.869 1301.87 428.933 1301.82 428.983C1301.77 429.001 1301.71 429.001 1301.65 428.983H1301.47L1301.23 428.904L1300.81 428.891H1300.47C1300.32 428.893 1300.17 428.924 1300.04 428.983C1299.88 429.053 1299.73 429.145 1299.59 429.258C1299.41 429.403 1299.25 429.566 1299.11 429.744C1298.91 429.987 1298.73 430.241 1298.57 430.504V436.198C1298.59 436.257 1298.59 436.322 1298.57 436.382C1298.51 436.444 1298.44 436.49 1298.36 436.513C1298.23 436.553 1298.1 436.58 1297.96 436.591H1297.33H1296.71C1296.57 436.58 1296.44 436.553 1296.31 436.513C1296.23 436.49 1296.16 436.444 1296.1 436.382C1296.08 436.322 1296.08 436.257 1296.1 436.198V427.015C1296.08 426.955 1296.08 426.891 1296.1 426.831C1296.15 426.77 1296.21 426.724 1296.29 426.7C1296.4 426.66 1296.51 426.634 1296.63 426.621H1297.15H1297.69C1297.8 426.632 1297.91 426.659 1298.02 426.7C1298.09 426.726 1298.14 426.772 1298.19 426.831C1298.21 426.891 1298.21 426.955 1298.19 427.015V428.156C1298.39 427.86 1298.62 427.579 1298.87 427.317C1299.05 427.121 1299.25 426.945 1299.47 426.792C1299.65 426.668 1299.84 426.575 1300.05 426.516C1300.24 426.465 1300.43 426.438 1300.63 426.438H1300.92H1301.23L1301.52 426.516C1301.59 426.536 1301.65 426.567 1301.7 426.608C1301.74 426.641 1301.77 426.682 1301.78 426.726C1301.79 426.783 1301.79 426.84 1301.78 426.897C1301.79 427.006 1301.79 427.116 1301.78 427.225C1301.88 427.382 1301.93 427.583 1301.93 427.828Z" fill="white"/>
<path d="M1311.94 436.119C1311.95 436.179 1311.95 436.243 1311.94 436.303C1311.89 436.362 1311.84 436.407 1311.77 436.434C1311.66 436.471 1311.55 436.493 1311.44 436.499H1310.93H1310.39C1310.28 436.492 1310.17 436.47 1310.06 436.434C1309.99 436.408 1309.93 436.363 1309.88 436.303C1309.86 436.243 1309.86 436.179 1309.88 436.119V435.109C1309.45 435.58 1308.95 435.979 1308.4 436.29C1307.85 436.558 1307.26 436.697 1306.65 436.697C1306.05 436.697 1305.45 436.558 1304.91 436.29C1304.43 436.027 1304.03 435.653 1303.73 435.201C1303.41 434.712 1303.19 434.169 1303.07 433.6C1302.93 432.967 1302.86 432.32 1302.86 431.672C1302.85 430.933 1302.94 430.197 1303.12 429.481C1303.27 428.883 1303.53 428.318 1303.88 427.815C1304.23 427.36 1304.68 427 1305.2 426.766C1305.73 426.512 1306.32 426.386 1306.91 426.398C1307.4 426.393 1307.87 426.5 1308.3 426.713C1308.77 426.952 1309.19 427.262 1309.55 427.631V422.686C1309.53 422.626 1309.53 422.562 1309.55 422.502C1309.6 422.434 1309.68 422.384 1309.76 422.358C1309.89 422.312 1310.02 422.281 1310.15 422.266H1310.78H1311.41C1311.55 422.28 1311.68 422.311 1311.81 422.358C1311.89 422.385 1311.96 422.435 1312.02 422.502C1312.04 422.562 1312.04 422.626 1312.02 422.686L1311.94 436.119ZM1309.31 430.006C1309.01 429.606 1308.65 429.249 1308.25 428.943C1307.95 428.709 1307.57 428.581 1307.19 428.576C1306.88 428.567 1306.58 428.654 1306.32 428.825C1306.07 428.996 1305.87 429.226 1305.73 429.494C1305.58 429.792 1305.47 430.11 1305.4 430.439C1305.33 430.788 1305.3 431.144 1305.3 431.501C1305.3 431.875 1305.33 432.248 1305.39 432.616C1305.44 432.953 1305.55 433.28 1305.69 433.587C1305.82 433.857 1306.02 434.091 1306.26 434.269C1306.51 434.45 1306.82 434.542 1307.14 434.532C1307.31 434.531 1307.48 434.504 1307.65 434.453C1307.83 434.395 1308 434.311 1308.16 434.204C1308.35 434.07 1308.53 433.916 1308.7 433.745C1308.91 433.523 1309.11 433.291 1309.3 433.049L1309.31 430.006Z" fill="white"/>
<path d="M1210.67 422.017H1184.83V436.906H1210.67V422.017Z" fill="#589CCB"/>
<path d="M1209.13 423.538H1186.33V435.397H1209.13V423.538Z" fill="#CAD587"/>
<path d="M1209.13 428.563H1186.03V430.386H1209.13V428.563Z" fill="#589CCB"/>
<path d="M1197.58 433.574C1199.85 433.574 1201.69 431.736 1201.69 429.468C1201.69 427.2 1199.85 425.362 1197.58 425.362C1195.31 425.362 1193.48 427.2 1193.48 429.468C1193.48 431.736 1195.31 433.574 1197.58 433.574Z" fill="#589CCB"/>
<path d="M1197.57 432.511C1199.26 432.511 1200.62 431.148 1200.62 429.468C1200.62 427.787 1199.26 426.424 1197.57 426.424C1195.89 426.424 1194.53 427.787 1194.53 429.468C1194.53 431.148 1195.89 432.511 1197.57 432.511Z" fill="#CAD587"/>
<path d="M1251.98 450.904H1190.89V530.546H1251.98V450.904Z" fill="#EDF7F9"/>
<path d="M1206.72 487.636C1206.54 487.898 1206.09 510.081 1210.25 514.594L1233.6 514.45C1233.6 514.45 1239.87 497.396 1235.46 487.465L1206.6 487.649L1206.72 487.636Z" fill="#231F20"/>
<path d="M1229.25 501.532L1212.91 501.635L1212.98 512.641L1229.32 512.539L1229.25 501.532Z" fill="#F6AD78"/>
<path d="M1216.85 509.583C1219.35 510.578 1222.02 511.103 1224.72 511.131C1226.25 511.113 1227.78 510.955 1229.28 510.659V501.542L1212.94 501.646V507.34C1214.11 508.299 1215.43 509.058 1216.85 509.583Z" fill="#F79965"/>
<path d="M1239.15 482.087C1239.3 486.688 1238.31 491.255 1236.26 495.376C1234.34 498.769 1231.68 501.695 1228.49 503.942C1226.17 505.648 1223.71 507.629 1220.82 507.668V457.91C1230.88 457.87 1239.08 467.197 1239.15 482.087Z" fill="#F79965"/>
<path d="M1220.78 457.909V507.68H1220.19C1216.91 507.431 1214.34 504.65 1211.93 502.433C1208.47 499.348 1205.81 495.467 1204.19 491.125C1203.18 488.287 1202.66 485.296 1202.66 482.283C1202.57 467.367 1210.67 457.935 1220.74 457.883L1220.78 457.909Z" fill="#F6AD78"/>
<path d="M1246.04 517.428L1228.26 512.181H1221.14H1214.01L1196.3 517.612C1196.3 517.612 1188.11 521.154 1187.27 532.226L1221.27 532.016L1255.27 531.806C1254.27 520.879 1246.04 517.428 1246.04 517.428Z" fill="#F6AD78"/>
<path d="M1246.04 517.428L1236.21 514.542L1221.26 529.681L1206.07 514.752L1196.32 517.743C1196.32 517.743 1187.92 521.351 1187.28 532.357L1236.99 532.042L1255.62 531.924C1253.88 520.472 1246.04 517.428 1246.04 517.428Z" fill="#003A54"/>
<path d="M1203.74 473.494C1208.05 477.666 1221.75 476.682 1220.07 476.603L1221.69 468.194L1222.76 476.735C1222.76 476.735 1225.39 477.732 1231.17 476.735L1232.6 470.871L1233.64 476.236C1233.64 476.236 1237.57 475.147 1238.53 473.192C1238.53 473.192 1237.75 458.447 1222.46 457.031C1222.46 457.083 1207.1 457.411 1203.74 473.494Z" fill="#231F20"/>
<path d="M1233.52 462.029C1233.52 462.029 1240.26 504.939 1231.42 516.628C1231.42 516.628 1240.5 513.02 1241.63 505.674C1241.63 505.687 1248.79 474.321 1233.52 462.029Z" fill="#231F20"/>
<path d="M1211 461.858C1211 461.858 1203.74 505.149 1212.74 516.759C1212.74 516.759 1203.62 513.269 1202.4 505.936C1202.42 505.923 1195.86 474.334 1211 461.858Z" fill="#231F20"/>
<path d="M1205.7 514.857L1221.39 530.835L1238.28 515.159L1233.29 513.217L1221.16 515.644L1211.38 512.325L1205.7 514.857Z" fill="#E2E3E4"/>
<path d="M1205.7 514.857L1213.27 511.472L1221.04 514.463L1228.75 511.381L1236.89 514.66L1225.46 521.941L1221.04 516.077L1216.36 522.007L1205.7 514.857Z" fill="#CCCECF"/>
<path d="M1276 511.695H1261.41V514.122H1276V511.695Z" fill="#A7B4B5"/>
<path d="M1334.97 511.695H1320.38V514.122H1334.97V511.695Z" fill="#A7B4B5"/>
<path d="M1277.83 516.549H1261.41V522.321H1277.83V516.549Z" fill="#C6D4D5"/>
<path d="M1300.32 524.76H1261.41V530.533H1300.32V524.76Z" fill="#C6D4D5"/>
<path d="M1348.05 516.549H1320.38V522.321H1348.05V516.549Z" fill="#C6D4D5"/>
<path d="M1359.29 524.76H1320.38V530.533H1359.29V524.76Z" fill="#C6D4D5"/>
<path d="M1284.82 450.904H1261.41V453.33H1284.82V450.904Z" fill="#A7B4B5"/>
<path d="M1288.16 472.182H1261.41V474.609H1288.16V472.182Z" fill="#A7B4B5"/>
<path d="M1290.59 493.447H1261.41V495.874H1290.59V493.447Z" fill="#A7B4B5"/>
<path d="M1297.88 455.758H1261.41V461.53H1297.88V455.758Z" fill="#C6D4D5"/>
<path d="M1308.22 463.97H1261.41V469.742H1308.22V463.97Z" fill="#C6D4D5"/>
<path d="M1296.68 477.036H1261.41V482.808H1296.68V477.036Z" fill="#C6D4D5"/>
<path d="M1302.75 485.248H1261.41V491.02H1302.75V485.248Z" fill="#C6D4D5"/>
<path d="M1318.56 498.314H1261.41V504.086H1318.56V498.314Z" fill="#C6D4D5"/>
<path d="M1346.82 463.891L1347.71 465.924C1348.02 466.629 1348.55 467.217 1349.21 467.601C1349.88 467.986 1350.65 468.148 1351.42 468.063L1353.62 467.826C1354.32 467.748 1355.03 467.875 1355.66 468.192C1356.29 468.51 1356.81 469.004 1357.16 469.614C1357.52 470.223 1357.68 470.923 1357.64 471.626C1357.6 472.329 1357.36 473.005 1356.94 473.572L1355.63 475.357C1355.17 475.978 1354.93 476.73 1354.93 477.501C1354.93 478.273 1355.17 479.025 1355.63 479.646L1356.94 481.43C1357.36 481.997 1357.6 482.674 1357.64 483.377C1357.68 484.08 1357.52 484.779 1357.16 485.389C1356.81 485.999 1356.29 486.493 1355.66 486.81C1355.03 487.128 1354.32 487.255 1353.62 487.176L1351.42 486.94C1350.65 486.855 1349.88 487.017 1349.21 487.401C1348.55 487.786 1348.02 488.373 1347.71 489.078L1346.82 491.112C1346.53 491.758 1346.07 492.308 1345.48 492.694C1344.89 493.08 1344.2 493.286 1343.5 493.286C1342.79 493.286 1342.1 493.08 1341.51 492.694C1340.92 492.308 1340.46 491.758 1340.18 491.112L1339.29 489.078C1338.98 488.373 1338.45 487.786 1337.78 487.401C1337.11 487.017 1336.34 486.855 1335.57 486.94L1333.37 487.176C1332.66 487.264 1331.94 487.14 1331.3 486.819C1330.66 486.498 1330.13 485.995 1329.78 485.373C1329.42 484.752 1329.26 484.039 1329.31 483.326C1329.36 482.612 1329.63 481.93 1330.06 481.365L1331.38 479.581C1331.83 478.959 1332.08 478.207 1332.08 477.436C1332.08 476.664 1331.83 475.913 1331.38 475.291L1330.06 473.507C1329.65 472.94 1329.4 472.263 1329.36 471.56C1329.32 470.857 1329.49 470.158 1329.84 469.548C1330.2 468.938 1330.72 468.444 1331.35 468.127C1331.98 467.809 1332.68 467.682 1333.38 467.761L1335.59 467.997C1336.35 468.082 1337.13 467.92 1337.79 467.536C1338.46 467.151 1338.99 466.564 1339.3 465.859L1340.19 463.825C1340.48 463.186 1340.95 462.644 1341.54 462.267C1342.13 461.889 1342.82 461.692 1343.52 461.699C1344.23 461.706 1344.91 461.917 1345.5 462.306C1346.08 462.695 1346.54 463.246 1346.82 463.891Z" fill="#C6D4D8"/>
<path d="M1343.5 485.851C1348.12 485.851 1351.86 482.11 1351.86 477.495C1351.86 472.88 1348.12 469.138 1343.5 469.138C1338.89 469.138 1335.15 472.88 1335.15 477.495C1335.15 482.11 1338.89 485.851 1343.5 485.851Z" fill="#AFC3C9"/>
<path d="M1353.93 613.324C1353.93 613.324 1298.83 964.021 1269.88 1001.63C1240.93 1039.24 1229.3 1048.01 1211.91 1033.51C1201.12 1024.52 1153.57 963.142 1114.83 898.389V1164H540.148C531.976 946.547 538.115 804.553 539.768 772.727C539.768 772.006 539.86 771.415 539.886 770.759C539.886 770.759 539.886 770.667 539.886 770.641C539.978 769.041 540.122 767.48 540.267 765.945C549.45 666.244 625.97 633.317 625.97 633.317L718.941 604.771L768.909 653.9L863.743 747.172L955.94 653.9L1006.37 602.855L1100.1 630.404C1100.1 630.404 1174.87 659.265 1191.39 768.687L1220.61 882.818C1238.41 837.557 1252.93 791.076 1264.08 743.735C1281.48 668.382 1281.48 613.311 1281.48 613.311L1353.93 613.324Z" fill="#003A54"/>
<path d="M955.937 653.899L863.74 747.172L768.906 653.899H955.937Z" fill="#003A54"/>
<path d="M725.278 346.244C723.481 348.763 719.283 560.207 758.875 603.236L981.469 601.845C981.469 601.845 1041.25 439.176 999.258 344.526L723.953 346.244H725.278Z" fill="#231F20"/>
<path d="M939.993 478.908L784.188 479.886L784.847 584.872L940.653 583.893L939.993 478.908Z" fill="#F6AD78"/>
<path d="M822.443 555.576C845.978 564.759 871.769 570.23 897.048 570.269C911.646 570.095 926.197 568.593 940.523 565.783L940.051 478.912L784.242 479.883L784.57 534.18C795.524 543.744 809.535 550.552 822.443 555.576Z" fill="#F79965"/>
<path d="M1034.69 293.337C1034.95 337.324 1027.67 381.861 1007.14 420.049C989.205 453.449 962.168 480.25 933.097 501.738C911.019 518.044 887.445 536.869 859.883 537.315V62.8057C955.674 62.4515 1033.82 151.356 1034.69 293.337Z" fill="#F79965"/>
<path d="M859.906 62.8057V537.315C858.057 537.315 856.167 537.315 854.265 537.158C822.978 534.797 798.472 508.297 775.554 487.649C742.581 458.229 717.268 421.223 701.802 379.828C692.016 353.591 687.372 323.851 687.227 295.489C686.283 153.323 763.538 63.396 859.5 62.8057H859.906Z" fill="#F6AD78"/>
<path d="M539.941 770.759C539.941 771.362 539.849 772.005 539.823 772.726C539.771 772.07 539.836 771.401 539.941 770.759Z" fill="#003A54"/>
<path d="M696.891 211.255C737.952 250.991 868.638 241.611 852.62 240.863L868.035 160.643L878.241 241.978C878.241 241.978 902.812 251.489 958.447 242.227L971.802 186.894L981.707 238.056C981.707 238.056 1019.75 227.705 1028.42 209.064C1028.42 209.064 1020.87 68.4465 875.184 55C875.184 55.0131 728.847 58.0566 696.891 211.255Z" fill="#231F20"/>
<path d="M980.826 102.148C980.826 102.148 1045.17 511.249 960.82 622.769C960.82 622.769 1047.32 588.359 1058.11 518.346C1058.12 518.333 1126.34 219.283 980.826 102.148Z" fill="#231F20"/>
<path d="M766.051 100.456C766.051 100.456 696.916 513.4 782.659 623.884C782.659 623.884 695.735 590.55 684.073 520.681C684.073 520.72 621.957 219.401 766.051 100.456Z" fill="#231F20"/>
<path d="M715.578 605.873L865.142 758.152L1026.12 608.667L978.526 590.143L862.925 613.35L769.653 581.656L715.578 605.873Z" fill="#E2E3E4"/>
<path d="M715.578 605.872L787.743 573.548L861.692 602.015L935.3 572.617L1012.79 604.022L903.894 673.419L861.784 617.508L817.129 673.957L715.578 605.872Z" fill="#CCCECF"/>
<path d="M1293.07 622.021V572.748L1232.2 566.949L1180.03 540.87C1180.03 540.87 1191.63 529.273 1203.21 532.172C1214.8 535.071 1243.79 540.87 1243.79 540.87H1357.64L1336.52 624.92L1293.07 622.021Z" fill="#F6AD78"/>
<path d="M1258.28 414.801C1258.28 420.39 1251.79 424.942 1243.85 424.942C1235.92 424.942 1229.42 420.39 1229.42 414.801C1229.43 413.241 1229.92 411.722 1230.84 410.459H1256.87C1257.78 411.722 1258.28 413.241 1258.28 414.801Z" fill="#F6AD78"/>
<path d="M1287.27 414.801C1287.27 420.39 1280.78 424.942 1272.84 424.942C1264.91 424.942 1258.41 420.39 1258.41 414.801C1258.42 413.241 1258.91 411.722 1259.83 410.459H1285.86C1286.77 411.722 1287.27 413.241 1287.27 414.801V414.801Z" fill="#F6AD78"/>
<path d="M1316.25 414.801C1316.25 420.39 1309.76 424.942 1301.82 424.942C1293.88 424.942 1287.39 420.39 1287.39 414.801C1287.39 413.241 1287.89 411.722 1288.81 410.459H1314.95C1315.83 411.736 1316.28 413.254 1316.25 414.801V414.801Z" fill="#F6AD78"/>
<path d="M1345.23 414.801C1345.23 420.39 1338.73 424.942 1330.8 424.942C1322.86 424.942 1316.37 420.39 1316.37 414.801C1316.37 413.241 1316.87 411.722 1317.78 410.459H1343.93C1344.8 411.736 1345.26 413.254 1345.23 414.801V414.801Z" fill="#F6AD78"/>
<path d="M629.906 1164L635.154 845.194L652.549 894.467L640.952 888.669L629.906 1164Z" fill="#0071BC"/>
<defs>
<radialGradient id="paint0_radial" cx="0" cy="0" r="1" gradientUnits="userSpaceOnUse" gradientTransform="translate(960 582) rotate(90) scale(582 960)">
<stop stop-color="white"/>
<stop offset="1" stop-color="#D7D7D7"/>
</radialGradient>
</defs>
</svg>
