<svg width="443" height="367" viewBox="0 0 443 367" fill="none" xmlns="http://www.w3.org/2000/svg">
<path d="M106.234 180.898H59.5547V285H0.960938V0.625H106.625C140.219 0.625 166.13 8.11198 184.359 23.0859C202.589 38.0599 211.703 59.2188 211.703 86.5625C211.703 105.964 207.471 122.174 199.008 135.195C190.674 148.086 177.979 158.372 160.922 166.055L222.445 282.266V285H159.555L106.234 180.898ZM59.5547 133.438H106.82C121.534 133.438 132.927 129.727 141 122.305C149.073 114.753 153.109 104.401 153.109 91.25C153.109 77.8385 149.268 67.2917 141.586 59.6094C134.034 51.9271 122.38 48.0859 106.625 48.0859H59.5547V133.438ZM442.953 181.289C442.953 213.841 435.531 239.948 420.688 259.609C405.974 279.141 386.052 288.906 360.922 288.906C339.568 288.906 322.315 281.484 309.164 266.641V366.25H252.719V73.6719H305.062L307.016 94.375C320.688 77.9688 338.526 69.7656 360.531 69.7656C386.573 69.7656 406.82 79.401 421.273 98.6719C435.727 117.943 442.953 144.505 442.953 178.359V181.289ZM386.508 177.188C386.508 157.526 382.992 142.357 375.961 131.68C369.06 121.003 358.969 115.664 345.688 115.664C327.979 115.664 315.805 122.435 309.164 135.977V222.5C316.065 236.432 328.37 243.398 346.078 243.398C373.031 243.398 386.508 221.328 386.508 177.188Z" fill="#F9BD00"/>
</svg>
