<svg width="83" height="128" viewBox="0 0 83 128" fill="none" xmlns="http://www.w3.org/2000/svg">
<path d="M36.5714 128V117.594C13.8657 116.286 0.0714286 104.589 0 86.8571H20.5714C21.0771 94.3829 27.3886 100.129 36.5714 101.143V73.1429L28.9229 71.1429C11.4943 67.0914 2.16857 57.0314 2.16857 41.9771C2.16857 24.2314 14.88 12.5943 36.5714 10.8571V0H45.7143V10.8571C67.8257 12.6571 79.7143 24.4971 80 41.1429H59.4286C59.2114 34.2686 54.9057 28.7457 45.7143 28V54.2857L54.52 56.3657C73.0314 60.4171 82.2857 70 82.2857 85.7143C82.2857 104.097 69.7886 115.966 45.7143 117.52V128H36.5714ZM36.5714 52.5714V28C28.6886 28.4343 23.0657 33.2771 23.0657 40.1514C23.0657 46.5229 27.7486 50.6886 36.5714 52.5714ZM45.7143 74.8571V101.143C56.6143 100.703 61.8229 95.7372 61.8229 88.0657C61.8229 81.0429 56.6143 76.3143 45.7143 74.8571Z" fill="#F9BD00"/>
</svg>
