<svg width="19" height="18" viewBox="0 0 19 18" fill="none" xmlns="http://www.w3.org/2000/svg">
<path d="M17.75 0H1.75C1.48478 0 1.23043 0.105357 1.04289 0.292893C0.855357 0.48043 0.75 0.734784 0.75 1V17C0.75 17.2652 0.855357 17.5196 1.04289 17.7071C1.23043 17.8946 1.48478 18 1.75 18H17.75C18.0152 18 18.2696 17.8946 18.4571 17.7071C18.6446 17.5196 18.75 17.2652 18.75 17V1C18.75 0.734784 18.6446 0.48043 18.4571 0.292893C18.2696 0.105357 18.0152 0 17.75 0ZM6.089 15.337H3.417V6.747H6.089V15.337ZM4.753 5.574C4.34244 5.574 3.9487 5.41091 3.6584 5.1206C3.36809 4.8303 3.205 4.43655 3.205 4.026C3.205 3.61544 3.36809 3.22171 3.6584 2.9314C3.9487 2.64109 4.34244 2.478 4.753 2.478C5.16356 2.478 5.55729 2.64109 5.8476 2.9314C6.13791 3.22171 6.301 3.61544 6.301 4.026C6.301 4.43655 6.13791 4.8303 5.8476 5.1206C5.55729 5.41091 5.16356 5.574 4.753 5.574ZM16.088 15.337H13.419V11.16C13.419 10.164 13.401 8.883 12.031 8.883C10.641 8.883 10.43 9.969 10.43 11.09V15.338H7.763V6.748H10.323V7.922H10.36C10.715 7.247 11.587 6.535 12.884 6.535C15.588 6.535 16.087 8.313 16.087 10.627V15.337H16.088Z" fill="#0077B5"/>
</svg>
