<svg width="19" height="19" viewBox="0 0 19 19" fill="none" xmlns="http://www.w3.org/2000/svg">
<path d="M18 0H0.75C0.335156 0 0 0.335156 0 0.75V18C0 18.4148 0.335156 18.75 0.75 18.75H18C18.4148 18.75 18.75 18.4148 18.75 18V0.75C18.75 0.335156 18.4148 0 18 0ZM14.4211 6.78984C14.4281 6.9 14.4281 7.01484 14.4281 7.12734C14.4281 10.568 11.8078 14.5312 7.01953 14.5312C5.54297 14.5312 4.17422 14.1023 3.02109 13.3641C3.23203 13.3875 3.43359 13.3969 3.64922 13.3969C4.86797 13.3969 5.98828 12.9844 6.88125 12.2859C5.7375 12.2625 4.77656 11.5125 4.44844 10.4813C4.84922 10.5398 5.21016 10.5398 5.62266 10.4344C5.03373 10.3147 4.50439 9.99488 4.12457 9.52918C3.74474 9.06348 3.53786 8.48064 3.53906 7.87969V7.84687C3.88359 8.04141 4.28906 8.16094 4.71328 8.17734C4.35666 7.93967 4.0642 7.61768 3.86182 7.23991C3.65945 6.86215 3.55341 6.44028 3.55313 6.01172C3.55313 5.52656 3.67969 5.08359 3.90703 4.69922C4.56071 5.50391 5.3764 6.16205 6.30109 6.63086C7.22578 7.09966 8.23877 7.36864 9.27422 7.42031C8.90625 5.65078 10.2281 4.21875 11.8172 4.21875C12.5672 4.21875 13.2422 4.53281 13.718 5.03906C14.3062 4.92891 14.8687 4.70859 15.3703 4.41328C15.1758 5.01562 14.768 5.52422 14.2266 5.84531C14.7516 5.78906 15.2578 5.64375 15.7266 5.43984C15.3727 5.96016 14.9297 6.42188 14.4211 6.78984Z" fill="#00ACEE"/>
</svg>
