<svg width="18" height="15" viewBox="0 0 18 15" fill="none" xmlns="http://www.w3.org/2000/svg">
<path d="M17.6239 2.94053C17.4169 2.07829 16.8069 1.39921 16.0325 1.16876C14.6288 0.75 9 0.75 9 0.75C9 0.75 3.37127 0.75 1.96752 1.16876C1.19308 1.39925 0.583143 2.07829 0.376127 2.94053C0 4.50339 0 7.76415 0 7.76415C0 7.76415 0 11.0249 0.376127 12.5878C0.583143 13.45 1.19308 14.1008 1.96752 14.3312C3.37127 14.75 9 14.75 9 14.75C9 14.75 14.6287 14.75 16.0325 14.3312C16.8069 14.1008 17.4169 13.45 17.6239 12.5878C18 11.0249 18 7.76415 18 7.76415C18 7.76415 18 4.50339 17.6239 2.94053ZM7.15908 10.7247V4.80362L11.8636 7.76422L7.15908 10.7247Z" fill="#FF0000"/>
</svg>
