<svg width="243" height="256" viewBox="0 0 243 256" fill="none" xmlns="http://www.w3.org/2000/svg">
<path d="M37.1405 112.466C37.1405 112.466 53.9887 94.1218 70.8228 90.4953C70.8228 90.4953 9.10251 154.798 49.4874 218.903C36.1959 209.148 25.0344 196.783 16.686 182.566C8.33761 168.349 2.97776 152.578 0.934409 136.218C-1.10894 119.858 0.207173 103.253 4.80223 87.4188C9.3973 71.5849 17.1747 56.855 27.6585 44.1304C38.1424 31.4058 51.1122 20.954 65.7745 13.4145C80.4368 5.87508 96.4833 1.40648 112.932 0.28215C129.381 -0.842183 145.886 1.40139 161.438 6.87561C176.99 12.3498 191.261 20.9396 203.379 32.1193C201.22 31.0892 58.1514 -36.5435 37.1405 112.466Z" fill="#F9BD00"/>
<path d="M218.687 137.357C218.687 137.357 185.005 97.8472 136.662 128.566C88.3184 159.285 148.374 196.679 132.993 231.095C129.979 217.787 123.671 205.448 114.649 195.211C100.002 179.097 98.5346 162.982 98.5346 162.982C98.5346 162.982 85.4257 177.615 92.7068 193.73C91.6909 192.318 60.0687 146.91 124.95 102.222C124.95 102.222 26.3582 115.373 78.8642 235.06C81.7804 241.711 85.1764 248.691 89.0522 256C80.5485 248.07 72.9741 239.198 66.475 229.557C43.1923 195.324 21.2078 133.505 107.368 78.0216C107.368 78.0216 91.9872 61.1734 99.3107 50.929C99.3107 50.929 124.216 84.6113 169.61 83.1579C169.61 83.1579 170.344 93.4164 176.934 97.0711C183.523 100.726 188.646 99.2724 192.314 105.128C192.314 105.128 197.437 87.5464 162.287 76.5682C127.137 65.5901 103.022 56.8132 104.433 32.6274C104.433 32.6274 136.662 54.5978 156.431 57.5329C176.2 60.4679 200.386 80.9708 201.12 97.7766C201.12 97.7766 231.147 107.33 218.687 137.357Z" fill="#F9BD00"/>
<path d="M242.862 121.624C242.858 150.565 232.502 178.55 213.664 200.522C194.827 222.493 168.751 237.001 140.15 241.424C154.599 226.114 141.815 202.549 130.837 173.975C119.858 145.401 147.685 131.502 147.685 131.502C135.973 190.767 154.627 184.106 155.742 182.766C159.129 178.645 154.331 165.918 154.331 165.918C170.445 174.709 161.654 207.657 161.654 207.657C219.508 219.369 242.692 113.92 242.692 113.92C242.691 113.948 242.691 113.976 242.692 114.004C242.805 116.544 242.862 119.084 242.862 121.624Z" fill="#F9BD00"/>
</svg>
