<svg width="512" height="512" viewBox="0 0 512 512" fill="none" xmlns="http://www.w3.org/2000/svg">
<circle cx="256" cy="256" r="256" fill="#3C9B35"/>
<path d="M365.689 337.84C361.418 337.851 357.28 335.948 353.991 332.462L256.018 227.717L157.862 328.721C155.992 330.664 153.841 332.114 151.532 332.989C149.223 333.864 146.801 334.147 144.406 333.821C142.011 333.495 139.69 332.567 137.576 331.09C135.462 329.613 133.598 327.616 132.089 325.214C130.571 322.823 129.437 320.071 128.753 317.117C128.069 314.163 127.848 311.065 128.103 308.002C128.357 304.938 129.083 301.969 130.238 299.266C131.392 296.562 132.953 294.177 134.831 292.248L244.502 179.319C247.773 175.88 251.876 174 256.109 174C260.343 174 264.446 175.88 267.716 179.319L377.388 296.222C379.238 298.185 380.768 300.596 381.89 303.316C383.011 306.036 383.702 309.013 383.923 312.075C384.144 315.137 383.89 318.225 383.176 321.162C382.462 324.099 381.303 326.827 379.764 329.189C378.063 331.871 375.919 334.038 373.485 335.534C371.051 337.03 368.389 337.817 365.689 337.84Z" fill="white"/>
</svg>
