<svg width="512" height="512" viewBox="0 0 512 512" fill="none" xmlns="http://www.w3.org/2000/svg">
<circle cx="256" cy="256" r="256" fill="#A74952"/>
<path d="M146.311 174C150.582 173.989 154.72 175.892 158.009 179.377L255.982 284.123L354.138 183.118C356.008 181.176 358.159 179.726 360.468 178.851C362.777 177.976 365.199 177.693 367.594 178.019C369.989 178.345 372.31 179.273 374.424 180.75C376.538 182.227 378.402 184.224 379.911 186.625C381.429 189.017 382.563 191.769 383.247 194.723C383.931 197.677 384.152 200.774 383.897 203.838C383.643 206.901 382.917 209.87 381.762 212.574C380.608 215.278 379.047 217.663 377.169 219.592L267.498 332.521C264.227 335.96 260.124 337.84 255.891 337.84C251.657 337.84 247.554 335.96 244.284 332.521L134.612 215.618C132.762 213.655 131.232 211.244 130.11 208.524C128.989 205.804 128.298 202.827 128.077 199.765C127.856 196.702 128.11 193.614 128.824 190.678C129.538 187.741 130.697 185.013 132.236 182.651C133.937 179.969 136.081 177.802 138.515 176.306C140.949 174.81 143.611 174.023 146.311 174Z" fill="white"/>
</svg>
