<svg width="449" height="404" viewBox="0 0 449 404" fill="none" xmlns="http://www.w3.org/2000/svg">
<path d="M430.85 285.95H133.1L148.05 255.5L396.45 255.05C404.85 255.05 412.05 249.05 413.55 240.75L447.95 48.2C448.85 43.15 447.5 37.95 444.2 34C442.569 32.056 440.535 30.4901 438.238 29.4109C435.941 28.3316 433.438 27.7649 430.9 27.75L114.9 26.7L112.2 14C110.5 5.9 103.2 0 94.9 0H17.65C12.9689 0 8.47958 1.85955 5.16957 5.16956C1.85955 8.47958 0 12.9689 0 17.65C0 22.3311 1.85955 26.8204 5.16957 30.1304C8.47958 33.4404 12.9689 35.3 17.65 35.3H80.6L92.4 91.4L121.45 232.05L84.05 293.1C82.1078 295.721 80.9379 298.834 80.6728 302.086C80.4077 305.338 81.058 308.599 82.55 311.5C85.55 317.45 91.6 321.2 98.3 321.2H129.7C123.006 330.091 119.39 340.921 119.4 352.05C119.4 380.35 142.4 403.35 170.7 403.35C199 403.35 222 380.35 222 352.05C222 340.9 218.3 330.05 211.7 321.2H292.25C285.556 330.091 281.94 340.921 281.95 352.05C281.95 380.35 304.95 403.35 333.25 403.35C361.55 403.35 384.55 380.35 384.55 352.05C384.55 340.9 380.85 330.05 374.25 321.2H430.9C440.6 321.2 448.55 313.3 448.55 303.55C448.521 298.874 446.644 294.399 443.328 291.102C440.012 287.804 435.526 285.953 430.85 285.95V285.95ZM122.25 61.5L410.15 62.45L381.95 220.35L155.8 220.75L122.25 61.5ZM170.7 367.85C162 367.85 154.9 360.75 154.9 352.05C154.9 343.35 162 336.25 170.7 336.25C179.4 336.25 186.5 343.35 186.5 352.05C186.5 356.24 184.835 360.259 181.872 363.222C178.909 366.185 174.89 367.85 170.7 367.85V367.85ZM333.25 367.85C324.55 367.85 317.45 360.75 317.45 352.05C317.45 343.35 324.55 336.25 333.25 336.25C341.95 336.25 349.05 343.35 349.05 352.05C349.05 356.24 347.385 360.259 344.422 363.222C341.459 366.185 337.44 367.85 333.25 367.85V367.85Z" fill="black"/>
</svg>
