<svg width="1383" height="398" viewBox="0 0 1383 398" fill="none" xmlns="http://www.w3.org/2000/svg">
<path d="M280.734 103.715L181.286 4.26706C180.036 2.87893 178.499 1.77889 176.782 1.04301C175.065 0.307132 173.209 -0.0470326 171.341 0.00500653H29.273C21.7442 0.0274921 14.5301 3.02829 9.20639 8.35202C3.88266 13.6758 0.881861 20.8898 0.859375 28.4187V369.383C0.881861 376.912 3.88266 384.126 9.20639 389.45C14.5301 394.773 21.7442 397.774 29.273 397.797H256.582C264.111 397.774 271.325 394.773 276.649 389.45C281.973 384.126 284.974 376.912 284.996 369.383V113.66C285.048 111.792 284.694 109.936 283.958 108.219C283.222 106.502 282.122 104.965 280.734 103.715V103.715ZM171.341 34.1014L250.9 113.66H171.341V34.1014ZM256.582 369.383H29.273V28.4187H142.928V113.66C142.95 121.189 145.951 128.403 151.275 133.726C156.598 139.05 163.813 142.051 171.341 142.073H256.582V369.383Z" fill="white"/>
<path d="M74.8791 183.899C75.8216 182.954 76.9412 182.205 78.1738 181.693C79.4064 181.182 80.7278 180.918 82.0623 180.918C83.3968 180.918 84.7182 181.182 85.9508 181.693C87.1834 182.205 88.303 182.954 89.2454 183.899L142.937 237.611L196.628 183.899C197.571 182.956 198.691 182.207 199.923 181.697C201.156 181.186 202.477 180.924 203.811 180.924C205.145 180.924 206.466 181.186 207.698 181.697C208.931 182.207 210.051 182.956 210.994 183.899C211.937 184.842 212.686 185.962 213.196 187.195C213.707 188.427 213.969 189.748 213.969 191.082C213.969 192.416 213.707 193.737 213.196 194.97C212.686 196.202 211.937 197.322 210.994 198.265L157.283 251.957L210.994 305.648C211.937 306.591 212.686 307.711 213.196 308.943C213.707 310.176 213.969 311.497 213.969 312.831C213.969 314.165 213.707 315.486 213.196 316.718C212.686 317.951 211.937 319.071 210.994 320.014C210.051 320.957 208.931 321.706 207.698 322.216C206.466 322.727 205.145 322.989 203.811 322.989C202.477 322.989 201.156 322.727 199.923 322.216C198.691 321.706 197.571 320.957 196.628 320.014L142.937 266.303L89.2454 320.014C88.3021 320.957 87.1823 321.706 85.9498 322.216C84.7173 322.727 83.3963 322.989 82.0623 322.989C80.7282 322.989 79.4073 322.727 78.1748 322.216C76.9423 321.706 75.8224 320.957 74.8791 320.014C73.9358 319.071 73.1875 317.951 72.677 316.718C72.1665 315.486 71.9037 314.165 71.9037 312.831C71.9037 311.497 72.1665 310.176 72.677 308.943C73.1875 307.711 73.9358 306.591 74.8791 305.648L128.59 251.957L74.8791 198.265C73.9343 197.323 73.1847 196.203 72.6732 194.971C72.1617 193.738 71.8984 192.417 71.8984 191.082C71.8984 189.748 72.1617 188.426 72.6732 187.194C73.1847 185.961 73.9343 184.842 74.8791 183.899Z" fill="white"/>
<path d="M516 268H497.8L424.6 157V268H406.4V128.4H424.6L497.8 239.2V128.4H516V268ZM594.825 269.8C584.558 269.8 575.225 267.467 566.825 262.8C558.558 258.133 552.025 251.533 547.225 243C542.558 234.333 540.225 224.333 540.225 213C540.225 201.8 542.625 191.933 547.425 183.4C552.358 174.733 559.025 168.133 567.425 163.6C575.825 158.933 585.225 156.6 595.625 156.6C606.025 156.6 615.425 158.933 623.825 163.6C632.225 168.133 638.825 174.667 643.625 183.2C648.558 191.733 651.025 201.667 651.025 213C651.025 224.333 648.492 234.333 643.425 243C638.492 251.533 631.758 258.133 623.225 262.8C614.692 267.467 605.225 269.8 594.825 269.8ZM594.825 253.8C601.358 253.8 607.492 252.267 613.225 249.2C618.958 246.133 623.558 241.533 627.025 235.4C630.625 229.267 632.425 221.8 632.425 213C632.425 204.2 630.692 196.733 627.225 190.6C623.758 184.467 619.225 179.933 613.625 177C608.025 173.933 601.958 172.4 595.425 172.4C588.758 172.4 582.625 173.933 577.025 177C571.558 179.933 567.158 184.467 563.825 190.6C560.492 196.733 558.825 204.2 558.825 213C558.825 221.933 560.425 229.467 563.625 235.6C566.958 241.733 571.358 246.333 576.825 249.4C582.292 252.333 588.292 253.8 594.825 253.8ZM791.475 269.4C778.542 269.4 766.742 266.4 756.075 260.4C745.408 254.267 736.942 245.8 730.675 235C724.542 224.067 721.475 211.8 721.475 198.2C721.475 184.6 724.542 172.4 730.675 161.6C736.942 150.667 745.408 142.2 756.075 136.2C766.742 130.067 778.542 127 791.475 127C804.542 127 816.408 130.067 827.075 136.2C837.742 142.2 846.142 150.6 852.275 161.4C858.408 172.2 861.475 184.467 861.475 198.2C861.475 211.933 858.408 224.2 852.275 235C846.142 245.8 837.742 254.267 827.075 260.4C816.408 266.4 804.542 269.4 791.475 269.4ZM791.475 253.6C801.208 253.6 809.942 251.333 817.675 246.8C825.542 242.267 831.675 235.8 836.075 227.4C840.608 219 842.875 209.267 842.875 198.2C842.875 187 840.608 177.267 836.075 169C831.675 160.6 825.608 154.133 817.875 149.6C810.142 145.067 801.342 142.8 791.475 142.8C781.608 142.8 772.808 145.067 765.075 149.6C757.342 154.133 751.208 160.6 746.675 169C742.275 177.267 740.075 187 740.075 198.2C740.075 209.267 742.275 219 746.675 227.4C751.208 235.8 757.342 242.267 765.075 246.8C772.942 251.333 781.742 253.6 791.475 253.6ZM903.702 176.2C906.902 169.933 911.435 165.067 917.302 161.6C923.302 158.133 930.568 156.4 939.102 156.4V175.2H934.302C913.902 175.2 903.702 186.267 903.702 208.4V268H885.502V158.4H903.702V176.2ZM953.311 212.8C953.311 201.6 955.578 191.8 960.111 183.4C964.644 174.867 970.844 168.267 978.711 163.6C986.711 158.933 995.644 156.6 1005.51 156.6C1014.04 156.6 1021.98 158.6 1029.31 162.6C1036.64 166.467 1042.24 171.6 1046.11 178V120H1064.51V268H1046.11V247.4C1042.51 253.933 1037.18 259.333 1030.11 263.6C1023.04 267.733 1014.78 269.8 1005.31 269.8C995.578 269.8 986.711 267.4 978.711 262.6C970.844 257.8 964.644 251.067 960.111 242.4C955.578 233.733 953.311 223.867 953.311 212.8ZM1046.11 213C1046.11 204.733 1044.44 197.533 1041.11 191.4C1037.78 185.267 1033.24 180.6 1027.51 177.4C1021.91 174.067 1015.71 172.4 1008.91 172.4C1002.11 172.4 995.911 174 990.311 177.2C984.711 180.4 980.244 185.067 976.911 191.2C973.578 197.333 971.911 204.533 971.911 212.8C971.911 221.2 973.578 228.533 976.911 234.8C980.244 240.933 984.711 245.667 990.311 249C995.911 252.2 1002.11 253.8 1008.91 253.8C1015.71 253.8 1021.91 252.2 1027.51 249C1033.24 245.667 1037.78 240.933 1041.11 234.8C1044.44 228.533 1046.11 221.267 1046.11 213ZM1195.27 209C1195.27 212.467 1195.07 216.133 1194.67 220H1107.07C1107.73 230.8 1111.4 239.267 1118.07 245.4C1124.87 251.4 1133.07 254.4 1142.67 254.4C1150.53 254.4 1157.07 252.6 1162.27 249C1167.6 245.267 1171.33 240.333 1173.47 234.2H1193.07C1190.13 244.733 1184.27 253.333 1175.47 260C1166.67 266.533 1155.73 269.8 1142.67 269.8C1132.27 269.8 1122.93 267.467 1114.67 262.8C1106.53 258.133 1100.13 251.533 1095.47 243C1090.8 234.333 1088.47 224.333 1088.47 213C1088.47 201.667 1090.73 191.733 1095.27 183.2C1099.8 174.667 1106.13 168.133 1114.27 163.6C1122.53 158.933 1132 156.6 1142.67 156.6C1153.07 156.6 1162.27 158.867 1170.27 163.4C1178.27 167.933 1184.4 174.2 1188.67 182.2C1193.07 190.067 1195.27 199 1195.27 209ZM1176.47 205.2C1176.47 198.267 1174.93 192.333 1171.87 187.4C1168.8 182.333 1164.6 178.533 1159.27 176C1154.07 173.333 1148.27 172 1141.87 172C1132.67 172 1124.8 174.933 1118.27 180.8C1111.87 186.667 1108.2 194.8 1107.27 205.2H1176.47ZM1237.49 176.2C1240.69 169.933 1245.22 165.067 1251.09 161.6C1257.09 158.133 1264.36 156.4 1272.89 156.4V175.2H1268.09C1247.69 175.2 1237.49 186.267 1237.49 208.4V268H1219.29V158.4H1237.49V176.2ZM1332.7 269.8C1324.3 269.8 1316.77 268.4 1310.1 265.6C1303.43 262.667 1298.17 258.667 1294.3 253.6C1290.43 248.4 1288.3 242.467 1287.9 235.8H1306.7C1307.23 241.267 1309.77 245.733 1314.3 249.2C1318.97 252.667 1325.03 254.4 1332.5 254.4C1339.43 254.4 1344.9 252.867 1348.9 249.8C1352.9 246.733 1354.9 242.867 1354.9 238.2C1354.9 233.4 1352.77 229.867 1348.5 227.6C1344.23 225.2 1337.63 222.867 1328.7 220.6C1320.57 218.467 1313.9 216.333 1308.7 214.2C1303.63 211.933 1299.23 208.667 1295.5 204.4C1291.9 200 1290.1 194.267 1290.1 187.2C1290.1 181.6 1291.77 176.467 1295.1 171.8C1298.43 167.133 1303.17 163.467 1309.3 160.8C1315.43 158 1322.43 156.6 1330.3 156.6C1342.43 156.6 1352.23 159.667 1359.7 165.8C1367.17 171.933 1371.17 180.333 1371.7 191H1353.5C1353.1 185.267 1350.77 180.667 1346.5 177.2C1342.37 173.733 1336.77 172 1329.7 172C1323.17 172 1317.97 173.4 1314.1 176.2C1310.23 179 1308.3 182.667 1308.3 187.2C1308.3 190.8 1309.43 193.8 1311.7 196.2C1314.1 198.467 1317.03 200.333 1320.5 201.8C1324.1 203.133 1329.03 204.667 1335.3 206.4C1343.17 208.533 1349.57 210.667 1354.5 212.8C1359.43 214.8 1363.63 217.867 1367.1 222C1370.7 226.133 1372.57 231.533 1372.7 238.2C1372.7 244.2 1371.03 249.6 1367.7 254.4C1364.37 259.2 1359.63 263 1353.5 265.8C1347.5 268.467 1340.57 269.8 1332.7 269.8Z" fill="white"/>
</svg>
