<svg width="256" height="227" viewBox="0 0 256 227" fill="none" xmlns="http://www.w3.org/2000/svg">
<path d="M167.385 132.923C167.385 129.028 168.54 125.221 170.704 121.982C172.867 118.744 175.943 116.22 179.541 114.73C183.139 113.239 187.099 112.849 190.919 113.609C194.739 114.369 198.248 116.244 201.002 118.998C203.756 121.752 205.631 125.261 206.391 129.081C207.151 132.901 206.761 136.86 205.27 140.459C203.78 144.057 201.256 147.133 198.018 149.296C194.779 151.46 190.972 152.615 187.077 152.615C181.854 152.615 176.846 150.54 173.153 146.847C169.46 143.154 167.385 138.146 167.385 132.923ZM256 73.846V201.846C255.993 208.372 253.397 214.629 248.782 219.244C244.168 223.858 237.911 226.454 231.385 226.461H34.4621C25.3255 226.451 16.5659 222.817 10.1053 216.356C3.64476 209.896 0.0107714 201.136 0.000672542 192V39.6147C-0.0296651 34.4233 0.966654 29.2771 2.93232 24.4722C4.89799 19.6672 7.79422 15.2983 11.4544 11.6167C15.1147 7.93511 19.4666 5.01347 24.26 3.01984C29.0534 1.0262 34.1937 -8.86379e-05 39.3852 5.74182e-09H201.846C205.763 5.74182e-09 209.52 1.55603 212.29 4.3258C215.059 7.09556 216.615 10.8522 216.615 14.7692C216.615 18.6862 215.059 22.4428 212.29 25.2126C209.52 27.9824 205.763 29.5384 201.846 29.5384H39.3852C36.7813 29.5384 34.2834 30.5698 32.4381 32.407C30.5928 34.2442 29.5504 36.7376 29.5391 39.3415V39.4584C29.5403 39.5568 29.5415 39.6578 29.5452 39.7587C29.7418 42.3721 30.9326 44.8107 32.8727 46.5727C34.8128 48.3347 37.3545 49.2859 39.9747 49.2307H231.385C237.911 49.2378 244.168 51.8335 248.782 56.4483C253.397 61.063 255.993 67.3198 256 73.846ZM226.462 78.7691H39.9759C36.454 78.773 32.9462 78.3234 29.5391 77.4312V192C29.5404 193.305 30.0595 194.556 30.9824 195.479C31.9054 196.402 33.1568 196.921 34.4621 196.923H226.462V78.7691Z" fill="#00688F"/>
</svg>
