<svg width="257" height="256" viewBox="0 0 257 256" fill="none" xmlns="http://www.w3.org/2000/svg">
<path fill-rule="evenodd" clip-rule="evenodd" d="M128.034 181.345V141.799C128.034 128.966 137.238 118.531 148.578 118.531H224.024V93.8918C224.024 82.2062 217.535 72.4397 208.652 69.2527V69.2698L182.133 69.0299L181.812 68.0361H62.7723L60.5075 68.8586L18.5201 68.8243L18.4398 68.4645C8.22401 70.5206 0 80.39 0 93.0865V229.356C0 243.612 10.4085 256 22.343 256H202.468C214.402 256 224.04 244.417 224.04 230.161V205.265H148.594C137.254 205.265 128.034 194.179 128.034 181.345V181.345Z" fill="#00688F"/>
<path fill-rule="evenodd" clip-rule="evenodd" d="M240.598 137.243H160.173C151.676 137.243 144.785 145.262 144.785 155.149V169.13C144.785 179 151.676 187.018 160.173 187.018H240.598C249.095 187.018 256.002 179 256.002 169.13V155.149C256.002 145.245 249.095 137.243 240.598 137.243V137.243ZM192.973 170.741H159.852V153.332H192.973V170.741Z" fill="#00688F"/>
<path fill-rule="evenodd" clip-rule="evenodd" d="M62.7802 68.0404L169.291 29.1626L181.819 68.0404H202.46C204.628 68.0404 206.684 68.5373 208.66 69.2398L186.349 0L16.5684 60.33L18.4477 68.4859C19.7166 68.2289 21.0177 68.0575 22.3348 68.0575H62.7802V68.0404V68.0404Z" fill="#00688F"/>
</svg>
