<svg width="25" height="24" viewBox="0 0 25 24" fill="none" xmlns="http://www.w3.org/2000/svg">
<path d="M14.9061 0.358925C8.47643 -1.24338 1.96758 2.66937 0.365269 9.099C-1.23824 15.5262 2.67451 22.0375 9.09935 23.641C15.529 25.2433 22.0414 21.3318 23.6425 14.9021C25.246 8.47368 21.3333 1.96243 14.9061 0.358925ZM17.2957 10.2908C17.1217 11.4599 16.4724 12.0252 15.613 12.2244C16.7952 12.8389 17.3953 13.7823 16.824 15.4182C16.1135 17.4478 14.426 17.6194 12.1791 17.1946L11.6342 19.379L10.3188 19.0513L10.8553 16.8981C10.5043 16.8104 10.1542 16.7192 9.80508 16.6245L9.26618 18.7897L7.95193 18.4596L8.49683 16.2716C8.18837 16.1924 7.87631 16.1084 7.55825 16.0291L5.84312 15.6031L6.49845 14.0956C6.49845 14.0956 7.46823 14.3536 7.45503 14.3344C7.8283 14.4268 7.99273 14.1844 8.05755 14.0212L8.92051 10.5705L9.05854 10.6053C9.01401 10.5873 8.9683 10.5725 8.92171 10.5609L9.53623 8.09681C9.55183 7.81596 9.45702 7.46309 8.92291 7.32986C8.94452 7.31666 7.96633 7.09222 7.96633 7.09222L8.3156 5.68555L10.1327 6.13924L10.1315 6.14524C10.404 6.21365 10.6849 6.27846 10.9717 6.34327L11.5106 4.18046L12.8273 4.50812L12.2992 6.62773C12.652 6.70814 13.0085 6.78976 13.3542 6.87618L13.8799 4.76977L15.1965 5.09744L14.6576 7.26025C16.3187 7.83516 17.5334 8.69453 17.2957 10.2908Z" fill="white"/>
</svg>
