<svg width="24" height="24" viewBox="0 0 24 24" fill="none" xmlns="http://www.w3.org/2000/svg">
<path d="M23 0H3.66667C3.11438 0 2.66667 0.671562 2.66667 1.5V2H1C0.447708 2 0 2.67156 0 3.5V20.5C0 22.433 1.04467 24 2.33333 24H22C23.1046 24 24 22.6569 24 21V1.5C24 0.671562 23.5523 0 23 0ZM2.33333 21C2.24493 21 2.16014 20.9473 2.09763 20.8536C2.03512 20.7598 2 20.6326 2 20.5V5H2.66667V20.5C2.66667 20.6326 2.63155 20.7598 2.56904 20.8536C2.50652 20.9473 2.42174 21 2.33333 21ZM12.1667 20H5.83333C5.55721 20 5.33333 19.6642 5.33333 19.25V18.75C5.33333 18.3358 5.55721 18 5.83333 18H12.1667C12.4428 18 12.6667 18.3358 12.6667 18.75V19.25C12.6667 19.6642 12.4428 20 12.1667 20ZM20.8333 20H14.5C14.2239 20 14 19.6642 14 19.25V18.75C14 18.3358 14.2239 18 14.5 18H20.8333C21.1095 18 21.3333 18.3358 21.3333 18.75V19.25C21.3333 19.6642 21.1095 20 20.8333 20ZM12.1667 14H5.83333C5.55721 14 5.33333 13.6642 5.33333 13.25V12.75C5.33333 12.3358 5.55721 12 5.83333 12H12.1667C12.4428 12 12.6667 12.3358 12.6667 12.75V13.25C12.6667 13.6642 12.4428 14 12.1667 14ZM20.8333 14H14.5C14.2239 14 14 13.6642 14 13.25V12.75C14 12.3358 14.2239 12 14.5 12H20.8333C21.1095 12 21.3333 12.3358 21.3333 12.75V13.25C21.3333 13.6642 21.1095 14 20.8333 14ZM20.8333 8H5.83333C5.55721 8 5.33333 7.66419 5.33333 7.25V4.75C5.33333 4.33581 5.55721 4 5.83333 4H20.8333C21.1095 4 21.3333 4.33581 21.3333 4.75V7.25C21.3333 7.66419 21.1095 8 20.8333 8Z" fill="white"/>
</svg>
