<svg width="21" height="20" viewBox="0 0 21 20" fill="none" xmlns="http://www.w3.org/2000/svg">
<path d="M19.3342 15.5633L15.2233 13.4333L10.7868 15.7367V20L19.3342 15.5633V15.5633ZM9.33236 20V15.7342L4.894 13.4325L0.78492 15.5633L9.33236 20ZM10.0549 14.6042L14.497 12.3V7.69667L10.0586 5.39667L5.62213 7.69667V12.3025L10.0568 14.6033L10.0549 14.6042V14.6042ZM0.0604979 5.56833V14.4358L4.17143 12.3033V7.69917L0.0595703 5.56667L0.0604979 5.56833V5.56833ZM18.2545 6.5025L15.9505 7.69917V12.3008L20.0596 14.4333V5.565L18.2545 6.5025V6.5025ZM0.78492 4.43667L4.89864 6.56917L9.33329 4.2675V0.0025L0.78492 4.43667ZM15.2233 6.56917L19.3361 4.43667L10.7849 0V4.2675L15.2233 6.56917V6.56917Z" fill="white"/>
</svg>
