<svg width="24" height="24" viewBox="0 0 24 24" fill="none" xmlns="http://www.w3.org/2000/svg">
<path d="M23.9446 9.2963C23.9446 9.34568 23.9569 9.38272 23.9815 9.40741C24.0062 9.4321 24.0062 9.46914 23.9815 9.51852V10.2593C23.9815 10.5062 23.8953 10.716 23.7229 10.8889C23.5504 11.0617 23.341 11.1481 23.0947 11.1481H21.3949V23.1481C21.3949 23.3951 21.321 23.5926 21.1732 23.7407C21.0254 23.8889 20.816 23.9753 20.545 24H3.43649C3.19015 24 2.98075 23.9136 2.80831 23.7407C2.63587 23.5679 2.54965 23.3704 2.54965 23.1481V11.1481H0.849885C0.603541 11.1481 0.406467 11.0617 0.25866 10.8889C0.110855 10.716 0.0246343 10.5062 0 10.2593V9.51852C0 9.41975 0.0123172 9.34568 0.0369515 9.2963L2.21709 1.25926C2.34026 0.864198 2.54965 0.555556 2.84527 0.333333C3.14088 0.111111 3.48576 0 3.87991 0H20.1016C20.4958 0 20.8406 0.111111 21.1363 0.333333C21.4319 0.555556 21.6289 0.864198 21.7275 1.25926L23.9446 9.2963ZM18.8453 11.1481H5.13626V15.8519C5.13626 15.9753 5.18553 16.0741 5.28406 16.1481C5.3826 16.2222 5.48114 16.2716 5.57968 16.2963H18.4018C18.525 16.2963 18.6359 16.2469 18.7344 16.1481C18.8329 16.0494 18.8699 15.9506 18.8453 15.8519V11.1481Z" fill="white"/>
</svg>
