<svg width="24" height="24" viewBox="0 0 24 24" fill="none" xmlns="http://www.w3.org/2000/svg">
<path d="M5.88708 13.8492L10.1483 18.1128L17.9699 10.2912L13.7063 6.03003L5.88708 13.8492ZM22.9247 7.99683L21.1115 6.18243C20.6509 6.43407 20.1213 6.52977 19.6018 6.4552C19.0823 6.38063 18.6009 6.13981 18.2298 5.76878C17.8586 5.39775 17.6176 4.91648 17.5429 4.39702C17.4681 3.87756 17.5636 3.34786 17.8151 2.88723L16.0019 1.07283C15.7733 0.846244 15.4645 0.719116 15.1427 0.719116C14.8208 0.719116 14.512 0.846244 14.2835 1.07283L1.07148 14.2848C0.844901 14.5134 0.717773 14.8222 0.717773 15.144C0.717773 15.4659 0.844901 15.7747 1.07148 16.0032L2.88588 17.8152C3.34666 17.5629 3.87682 17.4668 4.39683 17.5413C4.91685 17.6158 5.39869 17.8569 5.77008 18.2285C6.14148 18.6 6.3824 19.0819 6.45672 19.602C6.53104 20.122 6.43475 20.6521 6.18228 21.1128L7.99668 22.9248C8.22493 23.152 8.53386 23.2795 8.85588 23.2795C9.17791 23.2795 9.48683 23.152 9.71508 22.9248L22.9247 9.71523C23.1518 9.48697 23.2794 9.17805 23.2794 8.85603C23.2794 8.534 23.1518 8.22508 22.9247 7.99683ZM10.1483 20.0628L3.93708 13.8492L13.7075 4.08003L19.9187 10.2912L10.1483 20.0628Z" fill="white"/>
</svg>
