<svg width="256" height="50" viewBox="0 0 256 50" fill="none" xmlns="http://www.w3.org/2000/svg">
<path d="M19.8983 7.6532C16.837 7.6532 16.0717 9.18384 16.0717 11.8625V16.837H24.1076L23.3423 24.8729H16.0717V48.9805H6.50522V24.8729H0V16.837H6.50522V12.2451C6.50522 4.20926 9.5665 0 18.7503 0C20.6636 0 22.9596 0 24.1076 0.38266V7.6532" fill="white"/>
<path d="M24.8728 31.7613C24.8728 22.9601 29.0821 16.0723 37.8832 16.0723C42.8578 16.0723 45.5364 18.3682 47.0671 21.8122V16.8376H56.2509V48.5984H47.0671V43.6238C45.5364 46.6851 42.8578 48.981 37.8832 48.981C29.0821 48.981 24.8728 42.4758 24.8728 33.292V31.7613ZM34.4393 34.0573C34.4393 38.6492 36.3526 42.0932 40.5619 42.0932C44.3885 42.0932 46.6844 39.0319 46.6844 34.8226V31.3787C46.6844 26.7867 44.7711 24.1081 40.5619 24.1081C36.3526 23.7255 34.4393 27.1694 34.4393 31.7613V34.0573Z" fill="white"/>
<path d="M76.5318 16.4536C80.3584 16.4536 83.8023 17.2189 85.7156 18.7496L83.4197 25.6375C81.889 24.8721 79.5931 24.1068 76.9144 24.1068C71.5572 24.1068 69.2612 27.1681 69.2612 32.1427V34.056C69.2612 39.0306 71.5572 42.0918 76.9144 42.0918C79.5931 42.0918 81.889 41.3265 83.4197 40.5612L85.7156 47.4491C83.8023 48.9797 80.3584 49.745 76.5318 49.745C65.052 49.745 60.0774 43.6225 60.0774 34.056V32.1427C60.0774 22.1935 65.052 16.4536 76.5318 16.4536Z" fill="white"/>
<path d="M86.8638 34.056V31.3774C86.8638 22.1935 91.8383 16.4536 102.553 16.4536C112.502 16.4536 116.711 22.5762 116.711 31.3774V36.3519H96.4303C96.8129 40.5612 98.7262 42.4745 104.083 42.4745C107.527 42.4745 111.354 41.7092 114.415 40.5612L116.329 47.0664C113.65 48.2144 108.675 49.3624 104.083 49.3624C91.4557 49.3624 86.8638 43.6225 86.8638 34.056ZM96.4303 29.8467H107.91V29.0814C107.91 25.6375 106.379 22.9588 102.17 22.9588C98.3436 22.9588 96.4303 25.6375 96.4303 29.8467Z" fill="white"/>
<path d="M152.682 34.0567C152.682 42.8579 148.472 49.7458 139.671 49.7458C134.697 49.7458 131.635 47.4499 130.105 44.3886V49.3632H120.921V0.76532L130.487 0V21.429C132.018 18.7503 135.079 16.4544 139.289 16.4544C148.09 16.4544 152.299 22.9596 152.299 32.1434L152.682 34.0567ZM143.115 31.7608C143.115 27.1689 141.202 24.1076 136.61 24.1076C132.783 24.1076 130.487 26.7862 130.487 31.3781V34.4394C130.487 39.0313 132.783 41.71 136.61 41.71C141.202 41.71 143.115 38.266 143.115 34.0567V31.7608Z" fill="white"/>
<path d="M155.742 33.6733V32.1427C155.742 22.9588 161.1 16.4536 171.431 16.4536C182.146 16.4536 187.503 22.9588 187.503 32.1427V33.6733C187.503 42.8572 182.146 49.3624 171.814 49.3624C161.1 49.3624 155.742 42.8572 155.742 33.6733ZM177.937 31.3774C177.937 27.1681 176.023 23.7242 171.814 23.7242C167.222 23.7242 165.692 27.1681 165.692 31.3774V34.4386C165.692 38.6479 167.605 42.0918 171.814 42.0918C176.406 42.0918 177.937 38.6479 177.937 34.4386V31.3774Z" fill="white"/>
<path d="M190.565 33.6733V32.1427C190.565 22.9588 195.922 16.4536 206.254 16.4536C216.968 16.4536 221.943 22.9588 221.943 32.1427V33.6733C221.943 42.8572 216.586 49.3624 206.254 49.3624C195.922 49.3624 190.565 42.8572 190.565 33.6733ZM212.759 31.3774C212.759 27.1681 210.846 23.7242 206.637 23.7242C202.045 23.7242 200.514 27.1681 200.514 31.3774V34.4386C200.514 38.6479 202.427 42.0918 206.637 42.0918C211.229 42.0918 212.759 38.6479 212.759 34.4386V31.3774Z" fill="white"/>
<path d="M235.719 32.1434L245.285 16.837H255.617L245.285 32.5261L256 48.9805H245.668L235.719 33.2914V48.9805H226.152V0.76532L235.719 0" fill="white"/>
</svg>
