<svg width="142" height="98" viewBox="0 0 142 98" fill="none" xmlns="http://www.w3.org/2000/svg">
<path d="M42.6 49C56.3341 49 67.45 38.0406 67.45 24.5C67.45 10.9594 56.3341 0 42.6 0C28.8659 0 17.75 10.9594 17.75 24.5C17.75 38.0406 28.8659 49 42.6 49ZM59.64 56H57.7984C53.1834 58.1875 48.0581 59.5 42.6 59.5C37.1419 59.5 32.0387 58.1875 27.4016 56H25.56C11.4487 56 0 67.2875 0 81.2V87.5C0 93.2969 4.77031 98 10.65 98H74.55C80.4297 98 85.2 93.2969 85.2 87.5V81.2C85.2 67.2875 73.7512 56 59.64 56ZM106.5 49C118.259 49 127.8 39.5938 127.8 28C127.8 16.4062 118.259 7 106.5 7C94.7406 7 85.2 16.4062 85.2 28C85.2 39.5938 94.7406 49 106.5 49ZM117.15 56H116.307C113.223 57.05 109.961 57.75 106.5 57.75C103.039 57.75 99.7772 57.05 96.6931 56H95.85C91.3237 56 87.1525 57.2906 83.4916 59.3687C88.9053 65.1219 92.3 72.7563 92.3 81.2V89.6C92.3 90.0813 92.1891 90.5406 92.1669 91H131.35C137.23 91 142 86.2969 142 80.5C142 66.9594 130.884 56 117.15 56V56Z" fill="#00ACEE"/>
</svg>
