<svg width="143" height="136" viewBox="0 0 143 136" fill="none" xmlns="http://www.w3.org/2000/svg">
<path d="M42.8576 86.8919C56.6153 86.8919 67.7504 75.9083 67.7504 62.3378C67.7504 48.7673 56.6153 37.7837 42.8576 37.7837C29.0999 37.7837 17.9649 48.7673 17.9649 62.3378C17.9649 75.9083 29.0999 86.8919 42.8576 86.8919ZM59.927 93.9073H58.0822C53.4593 96.0996 48.3252 97.415 42.8576 97.415C37.3901 97.415 32.2782 96.0996 27.633 93.9073H25.7883C11.6528 93.9073 0.184326 105.22 0.184326 119.163V125.477C0.184326 131.287 4.96285 136 10.8527 136H74.8626C80.7524 136 85.5309 131.287 85.5309 125.477V119.163C85.5309 105.22 74.0625 93.9073 59.927 93.9073ZM106.868 86.8919C118.647 86.8919 128.204 77.4648 128.204 65.8455C128.204 54.2262 118.647 44.7991 106.868 44.7991C95.088 44.7991 85.5309 54.2262 85.5309 65.8455C85.5309 77.4648 95.088 86.8919 106.868 86.8919ZM117.536 93.9073H116.691C113.602 94.9596 110.335 95.6612 106.868 95.6612C103.4 95.6612 100.133 94.9596 97.0438 93.9073H96.1993C91.6652 93.9073 87.4868 95.2008 83.8196 97.2835C89.2426 103.049 92.6432 110.701 92.6432 119.163V127.581C92.6432 128.064 92.532 128.524 92.5098 128.985H131.76C137.65 128.985 142.429 124.271 142.429 118.461C142.429 104.891 131.294 93.9073 117.536 93.9073V93.9073Z" fill="#00ACEE"/>
<path d="M41.6531 20.024C41.8931 20.6 42.0131 21.016 42.0131 21.272C42.0131 21.88 41.5171 22.392 40.5251 22.808C40.0131 23.032 39.5971 23.144 39.2771 23.144C38.9731 23.144 38.7171 23.072 38.5091 22.928C38.3171 22.768 38.1731 22.608 38.0771 22.448C37.9171 22.144 37.2931 20.696 36.2051 18.104L35.4611 18.152H32.4371V20.864C32.4371 21.232 32.4211 21.512 32.3891 21.704C32.3731 21.88 32.3011 22.088 32.1731 22.328C31.9491 22.76 31.3251 22.976 30.3011 22.976C29.1811 22.976 28.5251 22.68 28.3331 22.088C28.2371 21.816 28.1891 21.4 28.1891 20.84V7.52C28.1891 7.152 28.1971 6.88 28.2131 6.704C28.2451 6.512 28.3251 6.296 28.4531 6.056C28.6771 5.624 29.3011 5.408 30.3251 5.408H35.5091C36.9171 5.408 38.2851 5.92 39.6131 6.944C40.2531 7.44 40.7811 8.112 41.1971 8.96C41.6131 9.808 41.8211 10.752 41.8211 11.792C41.8211 13.6 41.2211 15.088 40.0211 16.256C40.3731 17.104 40.9171 18.36 41.6531 20.024ZM32.4371 13.904H35.5091C35.9731 13.904 36.4371 13.728 36.9011 13.376C37.3651 13.024 37.5971 12.496 37.5971 11.792C37.5971 11.088 37.3651 10.56 36.9011 10.208C36.4371 9.84 35.9571 9.656 35.4611 9.656H32.4371V13.904ZM43.3298 26.432V12.416C43.3298 12.048 43.3378 11.776 43.3538 11.6C43.3858 11.424 43.4578 11.224 43.5698 11C43.7938 10.568 44.3298 10.352 45.1778 10.352C46.0258 10.352 46.5938 10.464 46.8818 10.688C47.1858 10.896 47.3618 11.208 47.4098 11.624C48.0178 10.792 48.9698 10.376 50.2658 10.376C51.5778 10.376 52.8178 10.992 53.9858 12.224C55.1538 13.456 55.7378 14.888 55.7378 16.52C55.7378 18.152 55.1538 19.584 53.9858 20.816C52.8338 22.048 51.6018 22.664 50.2898 22.664C48.9778 22.664 48.0258 22.296 47.4338 21.56V26.408C47.4338 26.776 47.4178 27.048 47.3858 27.224C47.3698 27.4 47.2978 27.6 47.1698 27.824C47.0578 28.064 46.8578 28.232 46.5698 28.328C46.2818 28.424 45.8898 28.472 45.3938 28.472C44.8978 28.472 44.4978 28.424 44.1938 28.328C43.9058 28.232 43.6978 28.072 43.5698 27.848C43.4578 27.624 43.3858 27.424 43.3538 27.248C43.3378 27.072 43.3298 26.8 43.3298 26.432ZM48.0818 15.128C47.7138 15.56 47.5298 16.032 47.5298 16.544C47.5298 17.056 47.7138 17.528 48.0818 17.96C48.4658 18.376 48.9458 18.584 49.5218 18.584C50.1138 18.584 50.6098 18.376 51.0098 17.96C51.4258 17.544 51.6338 17.072 51.6338 16.544C51.6338 16.016 51.4418 15.544 51.0578 15.128C50.6738 14.696 50.1698 14.48 49.5458 14.48C48.9378 14.48 48.4498 14.696 48.0818 15.128Z" fill="#00ACEE"/>
</svg>
