<svg width="256" height="65" viewBox="0 0 256 65" fill="none" xmlns="http://www.w3.org/2000/svg">
<path d="M0 9.59985H10.0059V46.0468H28.5298V55.2807H0V9.59985ZM32.9535 24.3078H42.5659V55.2637H32.9535V24.3078ZM37.7597 8.91797C38.8625 8.91817 39.9405 9.24537 40.8574 9.85821C41.7742 10.4711 42.4888 11.342 42.9107 12.3609C43.3326 13.3799 43.4429 14.501 43.2276 15.5826C43.0123 16.6642 42.4812 17.6577 41.7013 18.4375C40.9214 19.2172 39.9278 19.7482 38.8462 19.9633C37.7645 20.1783 36.6434 20.0679 35.6245 19.6458C34.6057 19.2237 33.7348 18.509 33.1222 17.592C32.5095 16.675 32.1825 15.597 32.1825 14.4942C32.1825 13.7618 32.3267 13.0366 32.607 12.36C32.8873 11.6834 33.2982 11.0687 33.8161 10.5508C34.334 10.033 34.9488 9.62231 35.6254 9.34214C36.3021 9.06197 37.0273 8.91784 37.7597 8.91797ZM82.7757 9.59284H92.3881V36.893L103.282 24.2938H115.067L102.451 38.6253L114.802 55.2767H102.72L92.5162 39.975H92.3901V55.2747H82.7777L82.7757 9.59284ZM47.8957 24.3108H57.1266V28.5413H57.2578C58.1798 26.9616 59.5136 25.6621 61.1166 24.7814C62.7196 23.9006 64.5318 23.4719 66.3595 23.5408C76.1071 23.5408 77.9014 29.9541 77.9014 38.2858V55.2617H68.289V40.2113C68.289 36.6187 68.2229 32.0007 63.2826 32.0007C58.2861 32.0007 57.5151 35.9128 57.5151 39.95V55.2577H47.9027L47.8957 24.3108Z" fill="white"/>
<path d="M135.311 36.185C135.329 35.4052 135.189 34.6297 134.899 33.9056C134.609 33.1815 134.174 32.5238 133.623 31.9724C133.071 31.421 132.413 30.9874 131.689 30.6977C130.964 30.4081 130.189 30.2685 129.409 30.2874C127.729 30.1829 126.076 30.7426 124.805 31.8459C123.535 32.9491 122.748 34.5075 122.616 36.185H135.311ZM143.453 49.9027C141.856 51.8397 139.848 53.3972 137.574 54.4624C135.301 55.5277 132.819 56.0739 130.308 56.0617C120.696 56.0617 113 49.6454 113 39.7096C113 29.7738 120.695 23.3605 130.308 23.3605C139.293 23.3605 144.927 29.7688 144.927 39.7096V42.7235H122.616C122.894 44.4327 123.78 45.984 125.111 47.0915C126.443 48.199 128.129 48.7881 129.86 48.7502C131.229 48.7418 132.573 48.3912 133.771 47.7305C134.969 47.0698 135.983 46.1199 136.72 44.9674L143.453 49.9027ZM164.963 31.7904C160.157 31.7904 157.273 34.9995 157.273 39.6755C157.273 44.3516 160.156 47.5637 164.963 47.5637C169.77 47.5637 172.66 44.3596 172.66 39.6755C172.66 34.9915 169.775 31.7904 164.963 31.7904ZM181.509 55.2576H172.66V51.1523H172.528C171.418 52.6456 169.978 53.8623 168.321 54.7078C166.663 55.5532 164.833 56.0046 162.972 56.0266C153.736 56.0266 147.652 49.361 147.652 39.9349C147.652 31.2777 153.036 23.3285 161.887 23.3285C165.865 23.3285 169.581 24.4169 171.76 27.4338H171.887V9.58977H181.508L181.509 55.2576ZM246.402 55.2756H236.789V40.2222C236.789 36.6326 236.725 32.0117 231.79 32.0117C226.783 32.0117 226.017 35.9227 226.017 39.9609V55.2746H216.405V24.3188H225.633V28.5492H225.762C226.686 26.9702 228.02 25.6713 229.623 24.7907C231.227 23.9101 233.039 23.4809 234.867 23.5488C244.609 23.5488 246.406 29.957 246.406 38.2938L246.402 55.2756ZM205.559 20.0873C204.456 20.0875 203.377 19.7605 202.46 19.1478C201.542 18.535 200.827 17.6639 200.405 16.6447C199.982 15.6255 199.872 14.5039 200.087 13.4218C200.302 12.3397 200.833 11.3457 201.613 10.5654C202.393 9.78518 203.387 9.25373 204.469 9.0383C205.551 8.82287 206.672 8.93314 207.692 9.35515C208.711 9.77717 209.582 10.492 210.196 11.4092C210.809 12.3264 211.136 13.4048 211.136 14.5081C211.136 15.2406 210.992 15.966 210.712 16.6429C210.432 17.3197 210.021 17.9347 209.503 18.4528C208.985 18.9709 208.37 19.3819 207.694 19.6623C207.017 19.9428 206.292 20.0872 205.559 20.0873ZM210.365 55.2756H200.743V24.3188H210.365V55.2756ZM251.194 0.00441824H195.913C194.658 -0.00974136 193.449 0.474819 192.551 1.35162C191.654 2.22842 191.141 3.42573 191.125 4.68044V60.191C191.14 61.4463 191.653 62.6444 192.55 63.5222C193.448 64.3999 194.657 64.8854 195.913 64.872H251.194C252.452 64.8878 253.664 64.4037 254.566 63.526C255.467 62.6483 255.983 61.4488 256 60.191V4.67644C255.982 3.41924 255.466 2.22057 254.565 1.34379C253.663 0.467009 252.451 -0.0161679 251.194 0.000413079V0.00441824Z" fill="white"/>
</svg>
