<svg width="143" height="132" viewBox="0 0 143 132" fill="none" xmlns="http://www.w3.org/2000/svg">
<path d="M43.2624 82.8919C57.0201 82.8919 68.1552 71.9083 68.1552 58.3378C68.1552 44.7673 57.0201 33.7837 43.2624 33.7837C29.5047 33.7837 18.3697 44.7673 18.3697 58.3378C18.3697 71.9083 29.5047 82.8919 43.2624 82.8919ZM60.3317 89.9073H58.487C53.8641 92.0996 48.7299 93.415 43.2624 93.415C37.7949 93.415 32.683 92.0996 28.0378 89.9073H26.1931C12.0576 89.9073 0.589111 101.22 0.589111 115.163V121.477C0.589111 127.287 5.36763 132 11.2574 132H75.2674C81.1572 132 85.9357 127.287 85.9357 121.477V115.163C85.9357 101.22 74.4673 89.9073 60.3317 89.9073ZM107.272 82.8919C119.052 82.8919 128.609 73.4648 128.609 61.8455C128.609 50.2262 119.052 40.7991 107.272 40.7991C95.4928 40.7991 85.9357 50.2262 85.9357 61.8455C85.9357 73.4648 95.4928 82.8919 107.272 82.8919ZM117.941 89.9073H117.096C114.007 90.9596 110.74 91.6612 107.272 91.6612C103.805 91.6612 100.538 90.9596 97.4486 89.9073H96.6041C92.07 89.9073 87.8916 91.2008 84.2243 93.2835C89.6474 99.0493 93.0479 106.701 93.0479 115.163V123.581C93.0479 124.064 92.9368 124.524 92.9146 124.985H132.165C138.055 124.985 142.833 120.271 142.833 114.461C142.833 100.891 131.698 89.9073 117.941 89.9073V89.9073Z" fill="#00ACEE"/>
<path d="M32.7156 22.2345L24.0476 12.548C23.5268 11.966 23.5268 11.0225 24.0476 10.4405L25.9334 8.33294C26.4542 7.75093 27.2986 7.75093 27.8193 8.33294L33.6585 14.8582L46.1654 0.881773C46.6862 0.299826 47.5306 0.299826 48.0514 0.881773L49.9372 2.98929C50.458 3.57124 50.458 4.5148 49.9372 5.0968L34.6015 22.2345C34.0807 22.8165 33.2363 22.8165 32.7156 22.2345V22.2345Z" fill="#00ACEE"/>
</svg>
