<svg width="256" height="52" viewBox="0 0 256 52" fill="none" xmlns="http://www.w3.org/2000/svg">
<path d="M13.7958 50.6712C8.80948 49.3278 4.23369 45.5397 1.89269 40.8171C0.0986134 37.1979 0.100858 37.2232 0.0966188 20.5891C-0.115928 6.20021 -0.0346557 5.73592 0.924542 4.3482C2.9618 0.950777 7.45436 0.225258 10.3999 2.81801C12.4679 4.63835 12.6323 5.25652 12.6323 11.2127V16.378H21.3205C26.635 16.378 30.5148 16.4865 31.3119 16.6575C35.846 17.6298 37.5672 23.052 34.4192 26.4458C34.0482 26.8457 33.284 27.4215 32.721 27.7253C31.7329 28.2585 31.3663 28.2804 22.1648 28.3559L12.6323 28.4342V30.7377C12.6323 34.088 12.9798 35.1842 14.5349 36.7393C16.3509 38.5553 16.8357 38.6408 25.349 38.6475C31.9538 38.6525 32.5478 38.6906 33.6167 39.1744C37.6715 41.0099 38.6816 45.897 35.6917 49.2134C33.9441 51.152 33.8287 51.1714 24.1481 51.1603C16.5922 51.1517 15.3641 51.0937 13.7958 50.6712H13.7958ZM52.4854 50.7811C48.5485 49.8272 44.4854 46.836 42.002 43.0635C39.7135 39.587 39.2673 37.1409 39.2556 28.0042C39.2454 20.1249 39.4037 19.1325 40.9194 17.5718C42.3225 16.1271 43.2165 15.7527 45.2805 15.745C46.8567 15.7387 47.2546 15.8388 48.3446 16.5127C49.1203 16.9923 49.8923 17.7639 50.3718 18.539C51.3319 20.2029 51.1558 20.9008 51.2743 27.7449C51.3996 35.5346 51.4146 35.7189 52.0023 36.6641C53.9873 39.8569 58.0919 40.3273 60.8146 37.6742C62.3865 36.1425 62.5342 35.2425 62.5342 27.1974C62.5342 20.5821 62.564 20.1368 63.0749 19.1188C64.0984 17.0793 65.5824 15.9998 67.7758 15.6991C70.123 15.3774 72.6542 16.761 73.8669 19.0285C74.4074 20.0391 74.4398 20.4539 74.5618 27.9134C74.5182 34.1189 74.8102 35.935 75.3957 36.804C77.2684 39.6314 81.2048 40.2396 83.663 38.0813C85.4248 36.5344 85.4238 36.5397 85.5687 27.8938C85.6931 20.4725 85.7273 20.0365 86.2636 19.0285C88.5148 14.7977 94.2135 14.531 96.691 18.5406C98.2937 20.7624 97.5922 25.4641 97.5922 28.496C97.7085 32.4858 97.4744 37.6017 96.7768 39.1784C94.8788 44.5353 90.6515 48.7901 85.5658 50.4623C83.2589 51.2208 78.1753 51.4028 75.8847 50.809C73.6764 50.2364 71.7654 49.3593 69.9468 48.0836L68.4201 47.0127L66.8936 48.0835C65.0476 49.3783 63.1791 50.2553 61.1369 50.7854C59.2334 51.2796 54.5328 51.2772 52.4854 50.7811V50.7811ZM105.635 50.8184C104.469 50.3107 103.013 48.94 102.377 47.7509C101.82 46.7115 101.816 46.5967 101.816 33.5238C101.816 20.9439 101.839 20.2985 102.318 19.3319C104.311 15.3131 109.456 14.4086 112.577 17.5287C114.517 19.4692 114.512 19.4212 114.429 33.9372C114.357 46.4662 114.345 46.722 113.802 47.7266C113.087 49.0486 111.789 50.2838 110.589 50.7845C109.428 51.2687 106.712 51.2873 105.635 50.8184V50.8184ZM132.489 50.6743C126.801 49.1829 121.848 44.6888 119.757 39.1203C118.629 36.1153 118.539 34.5844 118.625 19.7048C118.705 5.98042 118.715 5.74152 119.258 4.73423C121.969 -0.288949 129.388 0.34693 130.997 5.74033C131.268 6.65027 131.373 8.30349 131.373 11.6666V16.3308L137.451 16.4234C143.071 16.5091 143.606 16.5573 144.552 17.0634C149 19.4416 149.021 25.3421 144.589 27.7102C143.595 28.2412 143.146 28.282 137.43 28.3617L131.331 28.4467L131.416 31.4331C131.515 34.9181 131.912 35.9626 133.641 37.2882C135.156 38.4491 136.109 38.6385 140.458 38.643C143.947 38.6463 144.414 38.7017 145.59 39.2494C150.505 41.5381 150.5 48.4682 145.582 50.7026C144.061 51.3932 135.158 51.374 132.489 50.6743H132.489ZM165.069 50.6866C158.625 48.9239 153.334 43.5103 151.665 36.9716C151.255 35.3641 151.21 33.7416 151.208 20.6005C151.305 6.96013 150.628 7.49352 151.906 4.68621C153.377 1.89664 156.412 0.667467 159.627 1.55989C160.967 1.93194 163.221 4.18641 163.593 5.52634C163.748 6.08407 163.871 8.70252 163.872 11.4519L163.873 16.3781H169.085C175.053 16.3781 176.638 16.5992 178.076 17.6324C181.19 19.8696 181.261 24.8825 178.21 27.0925C176.688 28.1952 175.249 28.4058 169.235 28.4058H163.873V30.7235C163.873 33.7763 164.224 35.0598 165.432 36.4323C167.079 38.3037 167.69 38.4821 172.979 38.6356C177.583 38.7693 177.613 38.774 178.865 39.5469C180.299 40.432 181.625 42.3884 181.882 43.9979C182.255 46.3275 181.034 48.9508 178.93 50.3448L177.86 51.0535L172.338 51.109C167.624 51.1563 166.561 51.0945 165.069 50.6866L165.069 50.6866ZM197.013 50.8023C193.272 49.7922 190.515 48.1318 187.817 45.2634C184.539 41.7793 183.061 37.939 183.071 32.9314C183.077 29.8724 183.601 27.4811 184.819 24.951C186.106 22.2784 187.518 20.5357 189.597 19.0518C195.652 14.7311 206.415 14.4611 213.194 18.4598C215.62 19.8912 218.144 22.6001 219.373 25.0938C221.86 30.1362 221.609 34.7034 218.765 36.1883C217.782 36.702 217.323 36.7255 206.93 36.7947L196.118 36.8666V37.538C196.118 38.5847 197.784 40.0032 199.618 40.5178C200.868 40.8686 202.377 40.9455 208.034 40.9466C211.862 40.9466 215.339 41.0624 215.853 41.2052C220.258 42.4288 221.141 48.2633 217.265 50.5349C216.009 51.3836 215.251 51.1703 207.227 51.1647C200.574 51.1522 197.966 51.0596 197.013 50.8024V50.8023ZM208.264 28.0858C207.782 26.4711 206.401 25.5153 203.875 25.0484C201.188 24.5518 197.432 25.663 196.707 27.1689C196.388 27.832 196.083 28.5869 196.083 28.5869C196.083 28.5869 198.319 28.6616 202.285 28.6616H208.436L208.264 28.0858ZM227.576 50.6889C226.257 49.9723 224.852 48.308 224.518 47.0657C224.322 46.3394 224.259 43.4982 224.324 38.2864C224.418 30.695 224.429 30.5498 225.119 28.4788C226.936 23.0237 231.795 18.4991 237.447 16.9993C239.524 16.448 249.115 16.1838 251.207 16.6203C254.112 17.2264 256 19.4683 256 22.3124C256 24.7381 254.898 26.6151 252.833 27.7063C251.861 28.22 251.303 28.2747 245.764 28.3989C240.02 28.5276 239.706 28.5606 238.785 29.1337C237.568 29.8901 236.681 31.0564 236.322 32.3723C236.153 32.9897 236.042 36.0414 236.041 40.0632C236.039 46.7289 236.039 46.7308 235.374 48.0656C234.925 48.967 234.322 49.6682 233.519 50.2245C232.474 50.948 232.095 51.0568 230.409 51.1171C228.901 51.1711 228.294 51.0793 227.576 50.6889V50.6889ZM105.321 11.8766C101.258 9.85217 100.52 4.50542 103.893 1.54318C105.208 0.389225 106.265 0 108.086 0C110.631 0 112.609 1.1894 113.752 3.40827C116.486 8.71384 110.679 14.5466 105.321 11.8766V11.8766Z" fill="white"/>
</svg>
