<svg width="33" height="32" viewBox="0 0 33 32" fill="none" xmlns="http://www.w3.org/2000/svg">
<g clip-path="url(#clip0)">
<path d="M16.0635 0C24.9356 0 32.127 7.163 32.127 16C32.127 24.837 24.9356 32 16.0635 32C7.19143 32 0 24.837 0 16C0 7.163 7.19143 0 16.0635 0ZM15.9882 5C9.93127 5 5.01985 9.892 5.01985 15.925C5.01985 21.959 9.92926 26.851 15.9872 26.852C17.4281 26.8523 18.8549 26.5698 20.1861 26.0207C21.5173 25.4716 22.7269 24.6667 23.7457 23.6518C24.7646 22.637 25.5727 21.4322 26.124 20.1063C26.6753 18.7803 26.9589 17.3592 26.9586 15.924C26.9576 9.89 22.0462 5 15.9882 5ZM15.9872 5.852C17.3156 5.85095 18.6312 6.11072 19.8588 6.61647C21.0863 7.12221 22.2017 7.864 23.1412 8.79943C24.0808 9.73486 24.8259 10.8456 25.3342 12.0681C25.8424 13.2906 26.1037 14.6008 26.1032 15.924C26.1012 21.483 21.5753 25.988 15.9952 25.988C10.4142 25.988 5.88929 21.483 5.88728 15.924C5.88527 10.365 10.4061 5.856 15.9872 5.852ZM21.742 22.21C20.1701 23.6417 18.1172 24.4356 15.9872 24.4356C13.8572 24.4356 11.8043 23.6417 10.2325 22.21L9.63008 22.81L9.85296 23.008C11.5978 24.5109 13.8371 25.3214 16.1436 25.2849C18.4501 25.2484 20.6624 24.3674 22.3584 22.81L21.742 22.21ZM9.07388 9.598C7.47536 11.325 6.58787 13.588 6.58787 15.937C6.58787 18.286 7.47536 20.549 9.07388 22.276L9.67626 21.656L9.48551 21.442C8.13567 19.8668 7.4101 17.8547 7.44523 15.7841C7.48036 13.7134 8.27377 11.7269 9.67626 10.198L9.07388 9.598ZM22.9086 9.572V9.586L22.3062 10.186L22.497 10.4C23.8484 11.9756 24.575 13.9889 24.5399 16.061C24.5048 18.133 23.7103 20.1208 22.3062 21.65L22.9086 22.25L23.1074 22.028C24.6162 20.29 25.4299 18.0596 25.3933 15.7622C25.3566 13.4649 24.4721 11.2613 22.9086 9.572ZM15.3085 10.4H14.2564V12.136H12.1059V13.266H12.128C12.2545 13.263 12.888 13.253 12.8769 13.266C13.0181 13.2505 13.1598 13.2903 13.2722 13.3768C13.3846 13.4634 13.4588 13.59 13.4793 13.73V18.482L13.4672 18.555C13.448 18.6269 13.4074 18.6914 13.3508 18.74C13.3138 18.7729 13.2706 18.798 13.2237 18.8138C13.1768 18.8296 13.1271 18.8358 13.0777 18.832C13.0918 18.844 12.3067 18.832 12.3067 18.832L12.1059 20.094H14.2363V21.858H15.2965V20.12H16.1438V21.85H17.206V20.106L17.4028 20.093C19.0885 19.963 20.2521 19.496 20.4027 17.888C20.5292 16.544 19.8947 15.944 18.8807 15.702C19.4971 15.4 19.8786 14.84 19.7923 13.924C19.6718 12.672 18.5875 12.252 17.2161 12.124V10.4H16.1559V12.092H15.3085V10.4ZM15.4129 16.513C16.2081 16.503 18.3064 16.359 18.3064 17.68C18.3064 18.992 16.0495 18.842 15.3306 18.842V16.514L15.4129 16.513ZM15.4069 13.337C16.0736 13.326 17.8144 13.198 17.8144 14.4C17.8144 15.6 15.931 15.454 15.3326 15.454V13.338L15.4069 13.337ZM22.1295 8.84C20.3846 7.3371 18.1454 6.52661 15.8389 6.56312C13.5324 6.59964 11.3201 7.48062 9.62405 9.038L10.2405 9.638L10.4553 9.448C12.0372 8.10185 14.0585 7.37814 16.1388 7.41314C18.219 7.44813 20.2147 8.23942 21.75 9.638L22.3524 9.038L22.1295 8.84Z" fill="#F7931A"/>
</g>
<defs>
<clipPath id="clip0">
<rect width="32.127" height="32" fill="white"/>
</clipPath>
</defs>
</svg>
