<?xml version="1.0" encoding="utf-8"?>
<!-- Generator: Adobe Illustrator 19.1.0, SVG Export Plug-In . SVG Version: 6.00 Build 0)  -->
<svg version="1.1" id="Layer_1" xmlns="http://www.w3.org/2000/svg" xmlns:xlink="http://www.w3.org/1999/xlink" x="0px" y="0px"
	 viewBox="0 0 40 40" style="enable-background:new 0 0 40 40;" xml:space="preserve">
<style type="text/css">
	.st0{fill:#345D9D;}
</style>
<path class="st0" d="M20,0C9,0,0,9,0,20s9,20,20,20s20-9,20-20S31,0,20,0z M28.8,32.2c0,0-0.1,0.1-0.1,0.1H11.2
	c-0.1,0-0.1-0.1-0.1-0.2l2.8-9.4l-2.9,0.8l0.6-2.3l3-0.9l4.2-13.9c0,0,0.1-0.1,0.1-0.1h5.6c0.1,0,0.1,0.1,0.1,0.2L21,18.3l3.3-1
	L23.6,20l-3.4,1l-2,6.5c0,0.1,0,0.1,0.1,0.1h11.5c0.1,0,0.1,0.1,0.1,0.2L28.8,32.2z"/>
</svg>
