<svg width="16" height="16" viewBox="0 0 512 512" fill="none" xmlns="http://www.w3.org/2000/svg">
<path d="M512 255.516C512.261 396.563 397.233 511.899 256.186 511.999C195.267 512.042 139.31 490.806 95.3372 455.316C83.9029 446.088 83.0482 428.951 93.4389 418.561L105.069 406.93C113.956 398.044 128.143 397.071 137.989 404.882C170.386 430.591 211.387 445.935 256 445.935C360.986 445.935 445.935 360.969 445.935 256C445.935 151.014 360.969 66.0645 256 66.0645C205.611 66.0645 159.846 85.6454 125.865 117.607L178.256 169.998C188.662 180.403 181.292 198.193 166.578 198.193H16.5161C7.39406 198.193 0 190.799 0 181.677V31.6149C0 16.9011 17.7899 9.53186 28.1951 19.936L79.1597 70.9006C125.119 26.9791 187.408 0 256 0C397.223 0 511.738 114.353 512 255.516ZM325.252 336.841L335.392 323.804C343.792 313.003 341.846 297.438 331.046 289.038L289.032 256.36V148.645C289.032 134.962 277.94 123.871 264.258 123.871H247.742C234.059 123.871 222.968 134.962 222.968 148.645V288.672L290.486 341.187C301.287 349.586 316.851 347.642 325.252 336.841V336.841Z" fill="#F9BA42"/>
</svg>
