<svg width="89" height="80" viewBox="0 0 89 80" fill="none" xmlns="http://www.w3.org/2000/svg">
<path d="M31.7239 42.3789C32.5561 42.3789 33.3542 42.7095 33.9427 43.298C34.5312 43.8865 34.8618 44.6846 34.8618 45.5168V53.7927C34.8618 54.6249 34.5312 55.4231 33.9427 56.0115C33.3542 56.6 32.5561 56.9306 31.7239 56.9306C30.8916 56.9306 30.0935 56.6 29.505 56.0115C28.9165 55.4231 28.5859 54.6249 28.5859 53.7927V45.5168C28.5859 44.6846 28.9165 43.8865 29.505 43.298C30.0935 42.7095 30.8916 42.3789 31.7239 42.3789ZM58.7703 43.298C59.3588 43.8865 59.6894 44.6846 59.6894 45.5168V53.7927C59.6894 54.6249 59.3588 55.4231 58.7703 56.0115C58.1818 56.6 57.3837 56.9306 56.5515 56.9306C55.7192 56.9306 54.9211 56.6 54.3326 56.0115C53.7441 55.4231 53.4135 54.6249 53.4135 53.7927V45.5168C53.4135 44.6846 53.7441 43.8865 54.3326 43.298C54.9211 42.7095 55.7192 42.3789 56.5515 42.3789C57.3837 42.3789 58.1818 42.7095 58.7703 43.298Z" stroke="#1DA9BC" stroke-width="2"/>
<path d="M42.3793 8.27586V7.27586H41.3793H34.4828C33.6505 7.27586 32.8524 6.94526 32.2639 6.35678C31.6754 5.76831 31.3448 4.97016 31.3448 4.13793C31.3448 3.3057 31.6754 2.50755 32.2639 1.91908C32.8524 1.3306 33.6505 1 34.4828 1H45.5172C46.3495 1 47.1476 1.3306 47.7361 1.91908C48.3246 2.50756 48.6552 3.3057 48.6552 4.13793V19.3103V20.3103H49.6552H67.5862C70.6133 20.3103 73.5165 21.5129 75.657 23.6534C77.7975 25.7939 79 28.697 79 31.7241V44.1379V45.1379H80H84.1379C84.9702 45.1379 85.7683 45.4685 86.3568 46.057C86.9453 46.6455 87.2759 47.4436 87.2759 48.2759C87.2759 49.1081 86.9453 49.9062 86.3568 50.4947C85.7683 51.0832 84.9702 51.4138 84.1379 51.4138H80H79V52.4138V67.5862C79 70.6133 77.7975 73.5165 75.657 75.657C73.5165 77.7975 70.6133 79 67.5862 79H20.6897C17.6625 79 14.7594 77.7975 12.6189 75.657C10.4784 73.5165 9.27586 70.6133 9.27586 67.5862V52.4138V51.4138H8.27586H4.13793C3.3057 51.4138 2.50756 51.0832 1.91908 50.4947C1.3306 49.9062 1 49.1081 1 48.2759C1 47.4436 1.3306 46.6455 1.91908 46.057C2.50756 45.4685 3.3057 45.1379 4.13793 45.1379H8.27586H9.27586V44.1379V31.7241C9.27586 28.697 10.4784 25.7939 12.6189 23.6534C14.7594 21.5129 17.6625 20.3103 20.6897 20.3103H41.3793H42.3793V19.3103V8.27586ZM17.0566 28.0911C16.093 29.0546 15.5517 30.3615 15.5517 31.7241V67.5862C15.5517 68.9489 16.093 70.2557 17.0566 71.2193C18.0201 72.1828 19.327 72.7241 20.6897 72.7241H67.5862C68.9489 72.7241 70.2557 72.1828 71.2193 71.2193C72.1828 70.2557 72.7241 68.9489 72.7241 67.5862V31.7241C72.7241 30.3615 72.1828 29.0546 71.2193 28.0911C70.2557 27.1275 68.9489 26.5862 67.5862 26.5862H20.6897C19.327 26.5862 18.0201 27.1275 17.0566 28.0911Z" stroke="#1DA9BC" stroke-width="2"/>
</svg>
