<svg width="81" height="80" viewBox="0 0 81 80" fill="none" xmlns="http://www.w3.org/2000/svg">
<path d="M54.6307 26.1063V26.0666L54.3375 25.7737C53.8653 25.3018 53.3048 24.9276 52.688 24.6724C52.0712 24.4171 51.4102 24.2859 50.7426 24.2861C50.0751 24.2864 49.4141 24.4181 48.7975 24.6737C48.1809 24.9294 47.6206 25.304 47.1488 25.7762C46.6769 26.2484 46.3027 26.8089 46.0475 27.4257C45.7922 28.0425 45.661 28.7036 45.6612 29.3711C45.6614 30.0387 45.7932 30.6996 46.0488 31.3163C46.3045 31.9329 46.6791 32.4931 47.1513 32.965L47.1573 32.971L47.1635 32.9769C48.122 33.9027 49.4058 34.415 50.7384 34.4034C52.071 34.3918 53.3457 33.8573 54.288 32.915C55.2304 31.9727 55.7649 30.698 55.7764 29.3654C55.7868 28.1742 55.3786 27.0221 54.6307 26.1063ZM44.2339 22.8608C45.9606 21.1341 48.3025 20.1641 50.7444 20.1641C53.1863 20.1641 55.5283 21.1341 57.255 22.8608C58.9817 24.5875 59.9517 26.9294 59.9517 29.3714C59.9517 31.8133 58.9817 34.1552 57.255 35.8819C55.5283 37.6086 53.1863 38.5787 50.7444 38.5787C48.3025 38.5787 45.9606 37.6086 44.2339 35.8819C42.5072 34.1552 41.5371 31.8133 41.5371 29.3714C41.5371 26.9294 42.5072 24.5875 44.2339 22.8608Z" stroke="#1DA9BC" stroke-width="2"/>
<path d="M77.2954 10.4674L77.0768 9.76432C76.5843 8.18031 75.7139 6.73987 74.5406 5.56724C73.3673 4.39462 71.9264 3.525 70.3421 3.03338L70.3418 3.03327L67.6356 2.19243C63.0154 0.759158 58.0915 0.61508 53.3954 1.77575C48.6994 2.93642 44.4095 5.35776 40.989 8.77835L40.9886 8.77871L36.9226 12.8407L36.3099 13.4528L35.6165 12.9338C33.0589 11.0191 29.8967 10.0906 26.71 10.3186C23.5234 10.5466 20.5259 11.9157 18.267 14.1747C18.2668 14.1749 18.2667 14.175 18.2665 14.1752M77.2954 10.4674L17.5593 13.4682L18.2665 14.1752M77.2954 10.4674H77.299L77.9217 12.4744L77.9218 12.4749C79.3579 17.0964 79.5038 22.0224 78.3438 26.7208C77.1837 31.4192 74.7619 35.7113 71.3398 39.1333L67.2656 43.2075L66.6531 43.82L67.172 44.5136C69.0848 47.0707 70.0119 50.2316 69.7832 53.4168C69.5545 56.6021 68.1853 59.5981 65.9267 61.8557L65.9263 61.8561L60.8567 66.9298C60.4701 67.3159 59.9461 67.5328 59.3997 67.5328C58.8533 67.5328 58.3293 67.3159 57.9427 66.9298L51.4522 60.4392L50.747 59.7341L50.0399 60.4372L49.3174 61.1557L49.3153 61.1578C48.7448 61.7284 48.0674 62.181 47.3219 62.4898C46.5765 62.7986 45.7774 62.9576 44.9705 62.9576C44.1636 62.9576 43.3646 62.7986 42.6191 62.4898C41.8736 62.181 41.1962 61.7284 40.6257 61.1578L40.6257 61.1577L38.5967 59.1288L37.6714 58.2035L37.0216 59.3394L33.7639 65.0343L33.7635 65.0349C33.6064 65.3101 33.3879 65.5453 33.1251 65.7224C32.8623 65.8994 32.5622 66.0135 32.2482 66.0558C31.9342 66.0981 31.6146 66.0674 31.3143 65.9662C31.0141 65.8649 30.7412 65.6958 30.5169 65.472L14.6414 49.5924L14.6408 49.5918C14.4163 49.3677 14.2466 49.0948 14.1448 48.7944C14.043 48.4939 14.0119 48.1741 14.054 47.8597C14.096 47.5453 14.21 47.2448 14.3871 46.9816C14.5641 46.7187 14.7993 46.5001 15.0745 46.3428C15.0746 46.3427 15.0746 46.3427 15.0747 46.3427C15.0748 46.3426 15.075 46.3425 15.0751 46.3424M77.2954 10.4674L15.0751 46.3424M18.2665 14.1752L13.2008 19.2491L13.2006 19.2492C12.8145 19.6358 12.5977 20.1599 12.5977 20.7062C12.5977 21.2524 12.8144 21.7762 13.2002 22.1628L18.2665 14.1752ZM18.9597 39.4959C18.3894 38.9255 17.937 38.2484 17.6284 37.5032C17.3195 36.7577 17.1606 35.9587 17.1606 35.1518C17.1606 34.3448 17.3195 33.5458 17.6284 32.8003C17.9372 32.0549 18.3898 31.3775 18.9604 30.8069L18.9604 30.8069L19.6953 30.0721L20.4024 29.365L19.6953 28.6579L13.2006 22.1632L18.2811 30.0721L18.2533 30.0998C17.5899 30.7632 17.0636 31.5508 16.7045 32.4176C16.3454 33.2845 16.1606 34.2135 16.1606 35.1518C16.1606 36.09 16.3454 37.0191 16.7045 37.8859C17.0636 38.7527 17.5899 39.5403 18.2533 40.2037L18.9597 39.4959ZM18.9597 39.4959C18.96 39.4961 18.9602 39.4963 18.9604 39.4966M18.9597 39.4959L18.9604 39.4966M18.9604 39.4966L20.9846 41.5167L21.9132 42.4434L20.7735 43.0932L15.0751 46.3424M18.9604 39.4966L15.0751 46.3424M73.9814 13.6972L73.9817 13.6982C75.1942 17.6022 75.3168 21.7634 74.3363 25.732C73.3559 29.7006 71.3096 33.3258 68.4186 36.216C68.4186 36.2161 68.4185 36.2161 68.4184 36.2162L46.3941 58.2446L46.393 58.2457C46.0142 58.6233 45.5012 58.8353 44.9664 58.8353C44.4316 58.8353 43.9186 58.6233 43.5399 58.2457L43.5387 58.2446L21.8735 36.5753L21.8724 36.5742C21.4949 36.1955 21.2829 35.6825 21.2829 35.1477C21.2829 34.6129 21.4949 34.0999 21.8724 33.7211L21.8735 33.7201L43.902 11.6875L43.9022 11.6873C46.7925 8.79774 50.4172 6.75268 54.385 5.77297C58.3525 4.79332 62.5123 4.91611 66.4151 6.12807L73.9814 13.6972ZM73.9814 13.6972L73.1367 10.9876L73.9814 13.6972ZM69.1177 6.96496L66.4159 6.12831L73.1363 10.9865C72.6154 9.30943 71.4009 7.94969 69.8218 7.23619V7.18302L69.1177 6.96496ZM64.4204 47.8145L63.7642 46.7049L62.8525 47.6165L54.3612 56.1078L53.6537 56.8153L54.3615 57.5224L58.6888 61.8456L59.396 62.5521L60.1027 61.8453L63.0094 58.9386C66.026 55.922 66.4966 51.3252 64.4204 47.8145ZM21.1877 17.0924L21.1877 17.0925L18.2811 19.9991L17.5739 20.7062L18.2811 21.4133L22.6084 25.7407L23.3155 26.4478L24.0226 25.7407L32.514 17.2493L33.4266 16.3367L32.315 15.6809C30.5662 14.6492 28.5242 14.228 26.5099 14.4835C24.4957 14.739 22.6235 15.6568 21.1877 17.0924ZM34.2666 55.8465L34.6469 55.1829L34.1059 54.6421L25.4676 46.0078L24.9281 45.4686L24.2654 45.8464L20.5994 47.9366L19.4609 48.5857L20.3876 49.5124L30.5935 59.7184L31.5182 60.643L32.1683 59.5084L34.2666 55.8465Z" stroke="#1DA9BC" stroke-width="2"/>
<path d="M17.3945 64.7714C17.3989 65.3095 17.1928 65.8278 16.8204 66.2159L6.72968 76.3025C6.34158 76.675 5.82318 76.8811 5.28509 76.8767C4.74449 76.8723 4.22726 76.6557 3.84481 76.2736C3.46235 75.8915 3.24527 75.3745 3.24032 74.8339C3.2354 74.296 3.44086 73.7776 3.81269 73.3892L13.9068 63.2992C14.2952 62.9272 14.8137 62.7217 15.3516 62.7266C15.8922 62.7316 16.4092 62.9487 16.7913 63.3311C17.1734 63.7136 17.39 64.2308 17.3945 64.7714Z" stroke="#1DA9BC" stroke-width="2"/>
<path d="M4.55167 62.6004L4.55798 62.594L8.88487 58.2672C9.27098 57.8806 9.48785 57.3565 9.48785 56.8102C9.48785 56.2639 9.27106 55.7399 8.88508 55.3534L4.55167 62.6004ZM4.55167 62.6004L4.54547 62.6068M4.55167 62.6004L4.54547 62.6068M4.54547 62.6068C4.35538 62.8038 4.12795 62.961 3.87645 63.0691C3.62495 63.1773 3.35443 63.2343 3.08067 63.2368C2.80691 63.2393 2.53539 63.1873 2.28196 63.0837L1.91329 63.986M4.54547 62.6068L1.91329 63.986M1.91329 63.986L2.28196 63.0837C2.02853 62.9802 1.79825 62.8272 1.60457 62.6337C1.41089 62.4402 1.25769 62.2101 1.1539 61.9567C1.05012 61.7034 0.997821 61.4319 1.00007 61.1582C1.00232 60.8844 1.05907 60.6138 1.167 60.3622C1.27494 60.1106 1.4319 59.8831 1.62873 59.6928L1.63481 59.6869M1.91329 63.986L1.63481 59.6869M1.63481 59.6869L1.64078 59.6809M1.63481 59.6869L1.64078 59.6809M1.64078 59.6809L5.96811 55.3536L5.96834 55.3534M1.64078 59.6809L5.96834 55.3534M5.96834 55.3534C6.15981 55.1618 6.38716 55.0098 6.63739 54.9061M5.96834 55.3534L6.63739 54.9061M6.63739 54.9061C6.88763 54.8024 7.15584 54.749 7.42671 54.749M6.63739 54.9061L7.42671 54.749M7.42671 54.749C7.69758 54.749 7.96579 54.8024 8.21603 54.9061M7.42671 54.749L8.21603 54.9061M8.21603 54.9061C8.46617 55.0098 8.69344 55.1617 8.88487 55.3532L8.21603 54.9061Z" stroke="#1DA9BC" stroke-width="2"/>
<path d="M24.7769 74.1259L22.9186 75.8575H23.0453L20.4423 78.4556C20.0528 78.8131 19.5407 79.0074 19.0117 78.9981C18.4776 78.9887 17.968 78.7723 17.5902 78.3945C17.2125 78.0168 16.9961 77.5071 16.9866 76.973C16.9773 76.4442 17.1715 75.9323 17.5287 75.5429L21.8381 71.2376L21.8507 71.225L21.8629 71.2119C22.0517 71.0093 22.2793 70.8468 22.5322 70.7342C22.7851 70.6215 23.0582 70.5609 23.335 70.556C23.6118 70.5511 23.8868 70.602 24.1435 70.7057C24.4003 70.8094 24.6335 70.9638 24.8293 71.1595C25.0251 71.3553 25.1794 71.5885 25.2831 71.8453C25.3868 72.102 25.4377 72.377 25.4328 72.6538C25.4279 72.9307 25.3674 73.2037 25.2547 73.4566C25.142 73.7095 24.9795 73.9371 24.7769 74.1259Z" stroke="#1DA9BC" stroke-width="2"/>
</svg>
