<svg width="188" height="21" viewBox="0 0 188 21" fill="none" xmlns="http://www.w3.org/2000/svg">
<path d="M10.6992 20.3633C13.5586 20.3633 15.5859 19.1211 17.25 17.4688L15.0703 14.3984C13.8164 15.6289 12.3164 16.5547 10.582 16.5547C7.66406 16.5547 4.66406 13.9531 4.66406 10.5898C4.66406 7.28516 7.55859 4.58984 10.5938 4.58984C12.2227 4.58984 13.7695 5.36328 15.0586 6.62891L17.25 3.64062C15.2695 1.73047 13.0898 0.757812 10.6289 0.722656C5.30859 0.722656 0.820312 5.23438 0.820312 10.5664C0.820312 15.875 5.25 20.3633 10.6992 20.3633ZM27.5508 20.3633C32.9648 20.3633 37.3945 15.957 37.3945 10.5781C37.3945 5.15234 32.9648 0.722656 27.5625 0.722656C22.1602 0.722656 17.7422 5.15234 17.7422 10.5781C17.7422 15.957 22.1602 20.3633 27.5508 20.3633ZM27.5508 16.5195C24.2578 16.5195 21.5742 13.8359 21.5742 10.5547C21.5742 7.25 24.2578 4.55469 27.5508 4.55469C30.8555 4.55469 33.5508 7.25 33.5508 10.5547C33.5508 13.8359 30.8555 16.5195 27.5508 16.5195ZM58.1602 0.640625L49.125 13.1211L40.0781 0.640625H39.8672V20H43.6641V11.7734L49.1133 19.6836H49.1367L54.5742 11.7734V20H58.3711V0.640625H58.1602ZM61.6641 20H65.4609V1.10938H61.6641V20ZM80.1211 1.0625V11.6445L68.9297 0.757812H68.7422V20.0234H72.5391V9.44141L83.7539 20.3516H83.9297V1.0625H80.1211ZM105.258 9.39453H96.375V12.8984H101.262C101.133 15.1719 99.1992 16.5547 96.5039 16.5547C92.8125 16.5547 90.2578 13.8594 90.2578 10.5781C90.2578 7.05078 93.2227 4.56641 96.1523 4.56641C97.8398 4.56641 99.5273 5.38672 101.004 6.82812L103.113 3.67578C101.262 1.87109 98.6484 0.746094 96.1992 0.722656C90.7969 0.722656 86.3906 5.17578 86.3906 10.5781C86.3906 15.9688 90.7734 20.375 96.3398 20.375C101.262 20.375 105.352 16.918 105.352 10.9883C105.352 10.4727 105.316 9.94531 105.258 9.39453ZM120.504 20.375C124.547 20.375 127.359 18.1836 127.359 14.7383C127.359 11.832 125.391 10.2383 122.262 8.76172C120.094 7.74219 118.664 7.35547 118.664 6.23047C118.664 5.25781 119.719 4.4375 121.137 4.4375C122.191 4.4375 123.281 4.89453 123.844 6.01953L126.645 4.0625C125.789 1.77734 123.656 0.710938 121.078 0.710938C117.609 0.710938 114.844 2.86719 114.844 6.13672C114.844 9.14844 117.176 10.3086 119.297 11.3633C121.277 12.3477 123.539 13.4375 123.539 14.8203C123.539 15.8281 122.344 16.5547 120.562 16.5547C118.934 16.5547 117.727 15.9453 116.895 14.6094L113.859 16.7422C115.125 19.0859 117.41 20.375 120.504 20.375ZM138.645 20.3633C144.059 20.3633 148.488 15.957 148.488 10.5781C148.488 5.15234 144.059 0.722656 138.656 0.722656C133.254 0.722656 128.836 5.15234 128.836 10.5781C128.836 15.957 133.254 20.3633 138.645 20.3633ZM138.645 16.5195C135.352 16.5195 132.668 13.8359 132.668 10.5547C132.668 7.25 135.352 4.55469 138.645 4.55469C141.949 4.55469 144.645 7.25 144.645 10.5547C144.645 13.8359 141.949 16.5195 138.645 16.5195ZM159.949 20.3633C165.363 20.3633 169.793 15.957 169.793 10.5781C169.793 5.15234 165.363 0.722656 159.961 0.722656C154.559 0.722656 150.141 5.15234 150.141 10.5781C150.141 15.957 154.559 20.3633 159.949 20.3633ZM159.949 16.5195C156.656 16.5195 153.973 13.8359 153.973 10.5547C153.973 7.25 156.656 4.55469 159.949 4.55469C163.254 4.55469 165.949 7.25 165.949 10.5547C165.949 13.8359 163.254 16.5195 159.949 16.5195ZM183.645 1.0625V11.6445L172.453 0.757812H172.266V20.0234H176.062V9.44141L187.277 20.3516H187.453V1.0625H183.645Z" fill="white"/>
</svg>
