<svg width="350" viewBox="0 0 4722 2339" fill="none" xmlns="http://www.w3.org/2000/svg">
<path d="M437.25 877.074C562.758 877.074 658.207 822.23 728.871 752.094L673.5 675.102C612.328 735.219 530.59 780.57 434.613 780.57C260.59 780.57 97.1133 633.441 97.1133 441.488C97.1133 249.008 262.172 101.352 433.031 101.352C526.371 101.352 611.801 145.121 672.973 207.875L728.871 132.465C651.879 54.9453 545.883 4.84766 436.723 3.79297C198.363 3.79297 0.0820312 202.602 0.0820312 441.488C0.0820312 682.484 201 877.074 437.25 877.074ZM1199.79 877.074C1440.79 877.074 1637.48 680.902 1637.48 441.488C1637.48 200.492 1440.79 3.79297 1200.32 3.79297C960.375 3.79297 763.676 200.492 763.676 441.488C763.676 680.902 960.375 877.074 1199.79 877.074ZM1199.79 780.043C1013.11 780.043 860.707 627.641 860.707 440.961C860.707 253.754 1013.11 100.297 1199.79 100.297C1387.52 100.297 1540.45 253.754 1540.45 440.961C1540.45 627.641 1387.52 780.043 1199.79 780.043ZM2594.61 0.101562L2189.09 676.156L1783.56 0.101562H1772.48V866H1868.46V288.031L2188.56 851.762H2189.61L2509.18 289.086V866H2605.16V0.101562H2594.61ZM2784.98 866H2880.96V15.9219H2784.98V866ZM3647.72 13.8125V649.262L3065.53 2.73828H3060.26V867.055H3156.23V232.133L3738.95 879.184H3743.7V13.8125H3647.72ZM4717.7 415.648H4313.75V502.133H4618.56C4619.09 506.879 4619.09 512.68 4619.09 519.008C4619.09 669.301 4488.3 780.57 4322.19 780.57C4126.02 780.57 3975.73 628.168 3975.73 441.488C3975.73 249.008 4134.98 100.297 4314.28 100.297C4399.71 100.297 4503.07 146.176 4568.99 211.566L4622.78 131.938C4546.31 57.582 4419.22 4.84766 4314.81 4.32031C4074.87 4.32031 3878.17 201.547 3878.17 441.488C3878.17 681.43 4074.34 877.602 4318.5 877.602C4537.88 877.602 4721.39 714.652 4721.39 476.293C4721.39 452.035 4719.28 429.359 4717.7 415.648ZM960.375 2336.6C1123.85 2336.6 1259.38 2241.15 1259.38 2094.55C1259.38 1957.97 1138.62 1898.91 1011 1847.23C901.312 1805.04 807.973 1774.98 807.973 1692.71C807.973 1616.78 886.02 1556.66 977.25 1556.66C1053.71 1556.66 1122.27 1599.9 1149.69 1663.71L1221.94 1615.2C1190.3 1531.35 1104.34 1462.27 978.305 1462.27C829.066 1462.27 711.469 1559.82 711.469 1690.61C711.469 1821.91 828.012 1873.07 932.426 1913.67C1041.06 1954.8 1162.88 2000.68 1162.88 2096.13C1162.88 2179.98 1072.17 2240.1 960.902 2240.1C870.727 2240.1 783.715 2191.58 745.219 2118.81L671.391 2173.12C711.996 2263.83 820.629 2336.6 960.375 2336.6ZM1776.7 2336.07C2017.7 2336.07 2214.4 2139.9 2214.4 1900.49C2214.4 1659.49 2017.7 1462.79 1777.23 1462.79C1537.29 1462.79 1340.59 1659.49 1340.59 1900.49C1340.59 2139.9 1537.29 2336.07 1776.7 2336.07ZM1776.7 2239.04C1590.02 2239.04 1437.62 2086.64 1437.62 1899.96C1437.62 1712.75 1590.02 1559.3 1776.7 1559.3C1964.44 1559.3 2117.37 1712.75 2117.37 1899.96C2117.37 2086.64 1964.44 2239.04 1776.7 2239.04ZM2740.69 2336.07C2981.68 2336.07 3178.38 2139.9 3178.38 1900.49C3178.38 1659.49 2981.68 1462.79 2741.21 1462.79C2501.27 1462.79 2304.57 1659.49 2304.57 1900.49C2304.57 2139.9 2501.27 2336.07 2740.69 2336.07ZM2740.69 2239.04C2554.01 2239.04 2401.61 2086.64 2401.61 1899.96C2401.61 1712.75 2554.01 1559.3 2740.69 1559.3C2928.42 1559.3 3081.35 1712.75 3081.35 1899.96C3081.35 2086.64 2928.42 2239.04 2740.69 2239.04ZM3900.84 1472.81V2108.26L3318.66 1461.74H3313.38V2326.05H3409.36V1691.13L3992.07 2338.18H3996.82V1472.81H3900.84Z" fill="white"/>
</svg>
