<svg width="80" height="80" viewBox="0 0 80 80" fill="none" xmlns="http://www.w3.org/2000/svg">
<path d="M23.265 44.3998L22.5108 44.2163L22.146 44.9013L6.74595 73.8156L5.96297 75.2857H7.62857H79V79H5.71429C4.46398 79 3.26488 78.5033 2.38078 77.6192C1.49668 76.7351 1 75.536 1 74.2857V1H4.71429V65.7143L6.59682 66.1845L18.8825 43.1274L19.2509 42.4361L18.6679 41.9129C17.4835 40.85 16.5581 39.5301 15.9626 38.0544C15.367 36.5786 15.1171 34.9861 15.2319 33.3989C15.3468 31.8116 15.8234 30.2717 16.6252 28.8971C17.427 27.5225 18.5328 26.3496 19.8579 25.4682C21.183 24.5869 22.6921 24.0205 24.2699 23.8125C25.8476 23.6044 27.452 23.7602 28.9603 24.2679C30.4685 24.7756 31.8406 25.6218 32.9713 26.7415C34.1021 27.8613 34.9616 29.225 35.484 30.7283L35.488 30.7397L35.4922 30.7511C35.9918 32.0835 36.2037 33.5066 36.1141 34.9268C36.0245 36.3469 35.6354 37.7321 34.9723 38.9912L34.6079 39.6832L35.1918 40.2037L44.3918 48.4037L44.971 48.9199L45.6149 48.4871C47.3339 47.332 49.3578 46.7148 51.4288 46.7143L51.4315 46.7143C52.1653 46.7121 52.8972 46.7906 53.6139 46.9481L54.3753 47.1155L54.7234 46.4179L61.9805 31.8751L62.3285 31.1778L61.7373 30.67C60.0669 29.2353 58.8936 27.3088 58.3853 25.1664C57.877 23.024 58.0598 20.7757 58.9076 18.7436C59.7554 16.7114 61.2246 14.9998 63.1048 13.8539C64.985 12.708 67.1797 12.1866 69.3743 12.3644C71.569 12.5422 73.6511 13.4101 75.3223 14.8438C76.9935 16.2775 78.168 18.2033 78.6776 20.3454C79.1872 22.4875 79.0057 24.7359 78.1591 26.7685C77.3125 28.8011 75.8443 30.5137 73.9648 31.6607L73.9502 31.6696L73.9359 31.679C72.8353 32.4035 71.5999 32.8985 70.3037 33.1346C69.0074 33.3707 67.6768 33.343 66.3914 33.0531L65.6267 32.8806L65.2766 33.5821L58.0195 48.1249L57.6698 48.8257L58.2664 49.3331C59.4874 50.3718 60.4526 51.678 61.0869 53.1502C61.7212 54.6225 62.0076 56.2211 61.9237 57.822C61.8399 59.4229 61.3881 60.9829 60.6035 62.3808C59.8189 63.7787 58.7226 64.977 57.3997 65.8824C56.0769 66.7878 54.5631 67.3761 52.9759 67.6016C51.3888 67.827 49.771 67.6835 48.2484 67.1822C46.7257 66.6809 45.3391 65.8353 44.1963 64.7112C43.0534 63.587 42.1851 62.2145 41.6589 60.7003L41.6549 60.6889L41.6506 60.6775C41.1511 59.3451 40.9391 57.922 41.0287 56.5018C41.1183 55.0816 41.5075 53.6965 42.1705 52.4374L42.535 51.7453L41.9511 51.2249L32.7511 43.0249L32.1719 42.5087L31.528 42.9414C29.8111 44.0951 27.79 44.7122 25.7217 44.7143C24.8936 44.7011 24.0697 44.5956 23.265 44.3998ZM72.3017 17.2744C71.1975 16.5366 69.8994 16.1429 68.5714 16.1429C66.7907 16.1429 65.0829 16.8503 63.8237 18.1094C62.5645 19.3686 61.8571 21.0764 61.8571 22.8571C61.8571 24.1851 62.2509 25.4832 62.9887 26.5874C63.7265 27.6916 64.7751 28.5521 66.002 29.0603C67.2289 29.5685 68.5789 29.7015 69.8813 29.4424C71.1838 29.1833 72.3801 28.5439 73.3191 27.6049C74.2582 26.6658 74.8976 25.4695 75.1567 24.167C75.4158 22.8646 75.2828 21.5146 74.7746 20.2877C74.2664 19.0608 73.4058 18.0122 72.3017 17.2744ZM57.0113 60.8731C57.7491 59.769 58.1429 58.4708 58.1429 57.1429C58.1429 55.3621 57.4355 53.6543 56.1763 52.3951C54.9171 51.136 53.2093 50.4286 51.4286 50.4286C50.1006 50.4286 48.8025 50.8224 47.6983 51.5601C46.5942 52.2979 45.7336 53.3465 45.2254 54.5734C44.7172 55.8003 44.5842 57.1503 44.8433 58.4528C45.1024 59.7552 45.7418 60.9516 46.6809 61.8906C47.6199 62.8296 48.8162 63.4691 50.1187 63.7281C51.4211 63.9872 52.7711 63.8542 53.998 63.3461C55.2249 62.8379 56.2735 61.9773 57.0113 60.8731ZM29.4445 28.703C28.3404 27.9652 27.0422 27.5714 25.7143 27.5714C23.9335 27.5714 22.2257 28.2788 20.9666 29.538C19.7074 30.7972 19 32.505 19 34.2857C19 35.6137 19.3938 36.9118 20.1316 38.016C20.8693 39.1201 21.918 39.9807 23.1448 40.4889C24.3717 40.9971 25.7217 41.1301 27.0242 40.871C28.3266 40.6119 29.523 39.9724 30.462 39.0334C31.401 38.0944 32.0405 36.8981 32.2996 35.5956C32.5586 34.2932 32.4257 32.9431 31.9175 31.7163C31.4093 30.4894 30.5487 29.4408 29.4445 28.703Z" stroke="#1DA9BC" stroke-width="2"/>
</svg>
