<svg width="166" height="80" viewBox="0 0 166 80" fill="none" xmlns="http://www.w3.org/2000/svg">
<path d="M94.5098 19.7613L87.7829 54.3532L87.7829 54.3534C86.4344 61.2926 82.7113 67.547 77.252 72.0439C71.7926 76.5407 64.9371 78.9998 57.8613 78.999H1.24882L18.2959 2.90625H64.475C58.6641 7.12395 56.3371 11.1501 55.4341 13.3686L33.0902 13.3928C33.0901 13.3928 33.0901 13.3928 33.09 13.3928L33.0892 13.3928L33.0903 14.3928M94.5098 19.7613L30.3463 16.5943M94.5098 19.7613L87.7309 19.8L87.7305 19.8C85.9757 19.8095 84.2743 20.4035 82.8956 21.4878C81.517 22.5721 80.5399 24.0848 80.1188 25.7862L80.1181 25.7887L72.2728 57.1336L94.5098 19.7613ZM33.0903 14.3928C32.4504 14.3928 31.8296 14.611 31.3307 15.0114C30.8317 15.4117 30.4845 15.9701 30.3463 16.5943M33.0903 14.3928L56.1275 14.3679L33.0903 14.3928ZM30.3463 16.5943L29.3699 16.378L29.3699 16.3782M30.3463 16.5943L29.3699 16.3782M29.3699 16.3782L18.7073 64.5018L29.3699 16.3782Z" stroke="#1DA9BC" stroke-width="2"/>
<path d="M46.903 64.2158L56.2703 24.0955L56.2704 24.0951C57.8004 17.5293 61.5088 11.6735 66.7926 7.48032C72.0763 3.28719 78.6246 1.00323 85.3725 1H125.31L121.983 15.0838H87.31H87.3099C84.4459 15.0841 81.6664 16.0532 79.424 17.8334C77.1815 19.6136 75.6083 22.1002 74.9607 24.8881L74.9607 24.8881L67.6309 56.4576L67.6305 56.4589C67.1224 58.6614 65.8826 60.6272 64.113 62.0358C62.3434 63.4445 60.1483 64.213 57.8854 64.2158H46.903Z" stroke="#1DA9BC" stroke-width="2"/>
<path d="M94.2642 47.8737L97.2723 33.6113H117.721L114.713 47.8737H94.2642Z" stroke="#1DA9BC" stroke-width="2"/>
<path d="M124.009 29.5949L126.289 18.8965H142.001L139.721 29.5949H124.009Z" stroke="#1DA9BC" stroke-width="2"/>
<path d="M145.9 11.6942L148.18 1H163.892L161.612 11.6942H145.9Z" stroke="#1DA9BC" stroke-width="2"/>
</svg>
