<svg width="81" height="80" viewBox="0 0 81 80" fill="none" xmlns="http://www.w3.org/2000/svg">
<path d="M39.9921 57.2865L23.2523 48.6022V31.3947L31.5864 27.0745L40.0001 22.713L56.7551 31.3948V48.5922L39.9921 57.2865ZM1.00371 56.0981V23.9136L15.449 31.4046V48.6055L1.00371 56.0981ZM43.9128 63.5542L60.6609 54.8598L74.9334 62.2541L43.9128 78.3543V63.5542ZM19.3395 54.8564L36.0946 63.5446V78.3543L5.07326 62.2538L19.3395 54.8564ZM79.0074 56.0878L64.5696 48.5956V31.4041L73.2475 26.8975L79.0074 23.9061V56.0878ZM36.0983 16.4623L19.3578 25.1502L5.07414 17.7464L36.0983 1.65517V16.4623ZM43.9054 1.64535L74.9411 17.7464L60.6605 25.1502L43.9054 16.4621V1.64535Z" stroke="#1DA9BC" stroke-width="2"/>
</svg>
