<svg width="92" height="80" viewBox="0 0 92 80" fill="none" xmlns="http://www.w3.org/2000/svg">
<path d="M14.3766 38.9608C6.5602 32.0932 1.33432 22.736 1.01546 12.4286H11.4286C32.9656 12.4286 50.4286 29.8916 50.4286 51.4286V77.1429C50.4286 78.162 49.5906 79 48.5714 79H46.8571C45.838 79 45 78.162 45 77.1429V51.4286V50.4286H44C33.217 50.4286 22.4475 46.0521 14.3766 38.9608ZM56.3261 38.6947C54.3702 31.8399 50.899 25.632 46.2804 20.4379C53.0412 8.81428 65.5975 1 80 1H90.416C89.9269 20.4361 75.2201 36.3193 56.3261 38.6947Z" stroke="#1DA9BC" stroke-width="2"/>
</svg>
