<svg width="512" height="512" viewBox="0 0 512 512" fill="none" xmlns="http://www.w3.org/2000/svg">
<path d="M256 0C397.392 0 512 114.608 512 256C512 397.392 397.392 512 256 512C114.608 512 0 397.392 0 256C0 114.608 114.608 0 256 0ZM254.8 80C158.272 80 80 158.272 80 254.8C80 351.344 158.24 429.616 254.784 429.632C277.747 429.636 300.485 425.116 321.7 416.331C342.916 407.546 362.193 394.667 378.43 378.43C394.667 362.193 407.546 342.916 416.331 321.7C425.116 300.485 429.636 277.747 429.632 254.784C429.616 158.24 351.344 80 254.8 80ZM254.784 93.632C275.955 93.6152 296.921 97.7715 316.484 105.863C336.047 113.955 353.823 125.824 368.796 140.791C383.769 155.758 395.644 173.529 403.744 193.089C411.844 212.649 416.008 233.613 416 254.784C415.968 343.728 343.84 415.808 254.912 415.808C165.968 415.808 93.856 343.728 93.824 254.784C93.792 165.84 165.84 93.696 254.784 93.632ZM346.496 355.36C321.445 378.267 288.729 390.97 254.784 390.97C220.839 390.97 188.123 378.267 163.072 355.36L153.472 364.96L157.024 368.128C184.832 392.174 220.518 405.142 257.276 404.558C294.034 403.974 329.291 389.878 356.32 364.96L346.496 355.36ZM144.608 153.568C119.133 181.201 104.989 217.408 104.989 254.992C104.989 292.576 119.133 328.783 144.608 356.416L154.208 346.496L151.168 343.072C129.656 317.869 118.093 285.675 118.653 252.545C119.212 219.414 131.857 187.63 154.208 163.168L144.608 153.568ZM365.088 153.152V153.376L355.488 162.976L358.528 166.4C380.066 191.609 391.646 223.823 391.086 256.976C390.526 290.128 377.865 321.932 355.488 346.4L365.088 356L368.256 352.448C392.302 324.64 405.27 288.954 404.686 252.196C404.102 215.438 390.006 180.181 365.088 153.152V153.152ZM243.968 166.4H227.2V194.176H192.928V212.256H193.28C195.296 212.208 205.392 212.048 205.216 212.256C207.466 212.008 209.725 212.644 211.516 214.029C213.306 215.414 214.49 217.44 214.816 219.68V295.712L214.624 296.88C214.317 298.031 213.67 299.063 212.768 299.84C212.179 300.366 211.49 300.768 210.742 301.021C209.994 301.274 209.203 301.373 208.416 301.312C208.64 301.504 196.128 301.312 196.128 301.312L192.928 321.504H226.88V349.728H243.776V321.92H257.28V349.6H274.208V321.696L277.344 321.488C304.208 319.408 322.752 311.936 325.152 286.208C327.168 264.704 317.056 255.104 300.896 251.232C310.72 246.4 316.8 237.44 315.424 222.784C313.504 202.752 296.224 196.032 274.368 193.984V166.4H257.472V193.472H243.968V166.4V166.4ZM245.632 264.208C258.304 264.048 291.744 261.744 291.744 282.88C291.744 303.872 255.776 301.472 244.32 301.472V264.224L245.632 264.208ZM245.536 213.392C256.16 213.216 283.904 211.168 283.904 230.4C283.904 249.6 253.888 247.264 244.352 247.264V213.408L245.536 213.392ZM352.672 141.44C324.864 117.394 289.178 104.426 252.42 105.01C215.662 105.594 180.405 119.69 153.376 144.608L163.2 154.208L166.624 151.168C191.833 129.63 224.047 118.05 257.2 118.61C290.352 119.17 322.156 131.831 346.624 154.208L356.224 144.608L352.672 141.44Z" fill="#F9BA42"/>
</svg>
