<svg width="40" height="40" viewBox="0 0 40 40" fill="none" xmlns="http://www.w3.org/2000/svg">
<path d="M20 0C31.0462 0 40 8.95375 40 20C40 31.0462 31.0462 40 20 40C8.95375 40 0 31.0462 0 20C0 8.95375 8.95375 0 20 0ZM19.9062 6.25C12.365 6.25 6.25 12.365 6.25 19.9062C6.25 27.4487 12.3625 33.5637 19.905 33.565C21.6989 33.5653 23.4754 33.2122 25.1328 32.5259C26.7903 31.8395 28.2963 30.8333 29.5648 29.5648C30.8333 28.2963 31.8395 26.7903 32.5259 25.1328C33.2122 23.4754 33.5653 21.6989 33.565 19.905C33.5637 12.3625 27.4487 6.25 19.9062 6.25ZM19.905 7.315C21.5589 7.31369 23.1969 7.6384 24.7253 8.27058C26.2537 8.90276 27.6424 9.83 28.8122 10.9993C29.9819 12.1686 30.9097 13.557 31.5425 15.0851C32.1753 16.6132 32.5007 18.2511 32.5 19.905C32.4975 26.8538 26.8625 32.485 19.915 32.485C12.9663 32.485 7.3325 26.8538 7.33 19.905C7.3275 12.9562 12.9562 7.32 19.905 7.315ZM27.07 27.7625C25.1129 29.5521 22.557 30.5446 19.905 30.5446C17.253 30.5446 14.6971 29.5521 12.74 27.7625L11.99 28.5125L12.2675 28.76C14.44 30.6386 17.228 31.6517 20.0997 31.6061C22.9714 31.5604 25.7258 30.4592 27.8375 28.5125L27.07 27.7625ZM11.2975 11.9975C9.30725 14.1563 8.20228 16.985 8.20228 19.9212C8.20228 22.8575 9.30725 25.6862 11.2975 27.845L12.0475 27.07L11.81 26.8025C10.1294 24.8335 9.226 22.3184 9.26974 19.7301C9.31347 17.1417 10.3013 14.6586 12.0475 12.7475L11.2975 11.9975ZM28.5225 11.965V11.9825L27.7725 12.7325L28.01 13C29.6927 14.9695 30.5973 17.4862 30.5536 20.0762C30.5098 22.6663 29.5207 25.151 27.7725 27.0625L28.5225 27.8125L28.77 27.535C30.6486 25.3625 31.6617 22.5745 31.6161 19.7028C31.5704 16.8311 30.4692 14.0767 28.5225 11.965ZM19.06 13H17.75V15.17H15.0725V16.5825H15.1C15.2575 16.5788 16.0462 16.5662 16.0325 16.5825C16.2083 16.5632 16.3847 16.6128 16.5247 16.721C16.6646 16.8292 16.757 16.9875 16.7825 17.1625V23.1025L16.7675 23.1938C16.7435 23.2837 16.693 23.3643 16.6225 23.425C16.5765 23.4661 16.5227 23.4975 16.4642 23.5172C16.4058 23.537 16.344 23.5447 16.2825 23.54C16.3 23.555 15.3225 23.54 15.3225 23.54L15.0725 25.1175H17.725V27.3225H19.045V25.15H20.1V27.3125H21.4225V25.1325L21.6675 25.1163C23.7662 24.9538 25.215 24.37 25.4025 22.36C25.56 20.68 24.77 19.93 23.5075 19.6275C24.275 19.25 24.75 18.55 24.6425 17.405C24.4925 15.84 23.1425 15.315 21.435 15.155V13H20.115V15.115H19.06V13ZM19.19 20.6413C20.18 20.6287 22.7925 20.4487 22.7925 22.1C22.7925 23.74 19.9825 23.5525 19.0875 23.5525V20.6425L19.19 20.6413ZM19.1825 16.6712C20.0125 16.6575 22.18 16.4975 22.18 18C22.18 19.5 19.835 19.3175 19.09 19.3175V16.6725L19.1825 16.6712ZM27.5525 11.05C25.38 9.17138 22.592 8.15826 19.7203 8.20391C16.8486 8.24955 14.0942 9.35078 11.9825 11.2975L12.75 12.0475L13.0175 11.81C14.987 10.1273 17.5037 9.22268 20.0937 9.26642C22.6838 9.31017 25.1685 10.2993 27.08 12.0475L27.83 11.2975L27.5525 11.05Z" fill="#F9BD00"/>
</svg>
