<svg width="40" height="40" viewBox="0 0 40 40" fill="none" xmlns="http://www.w3.org/2000/svg">
<path d="M39.9076 15.4938C39.9076 15.5761 39.9282 15.6379 39.9692 15.679C40.0103 15.7202 40.0103 15.7819 39.9692 15.8642V17.0988C39.9692 17.5103 39.8255 17.8601 39.5381 18.1481C39.2507 18.4362 38.9017 18.5802 38.4911 18.5802H35.6582V38.5802C35.6582 38.9918 35.535 39.321 35.2887 39.5679C35.0423 39.8148 34.6934 39.9588 34.2417 40H5.72748C5.31691 40 4.96792 39.856 4.68052 39.5679C4.39312 39.2798 4.24942 38.9506 4.24942 38.5802V18.5802H1.41647C1.0059 18.5802 0.677444 18.4362 0.431101 18.1481C0.184758 17.8601 0.0410572 17.5103 0 17.0988V15.8642C0 15.6996 0.0205286 15.5761 0.0615858 15.4938L3.69515 2.09877C3.90044 1.44033 4.24942 0.925926 4.74211 0.555556C5.2348 0.185185 5.8096 0 6.46651 0H33.5027C34.1596 0 34.7344 0.185185 35.2271 0.555556C35.7198 0.925926 36.0482 1.44033 36.2125 2.09877L39.9076 15.4938ZM31.4088 18.5802H8.56043V26.4198C8.56043 26.6255 8.64255 26.7901 8.80677 26.9136C8.971 27.037 9.13523 27.1193 9.29946 27.1605H30.6697C30.875 27.1605 31.0598 27.0782 31.224 26.9136C31.3882 26.749 31.4498 26.5844 31.4088 26.4198V18.5802Z" fill="white"/>
</svg>
