<svg width="46" height="40" viewBox="0 0 46 40" fill="none" xmlns="http://www.w3.org/2000/svg">
<path d="M7.33238 5.59846H39.334C39.7079 5.59828 40.0813 5.622 40.4521 5.66946C40.3264 4.78719 40.0234 3.93951 39.5612 3.17752C39.0991 2.41554 38.4874 1.75504 37.7631 1.23584C37.0387 0.716639 36.2168 0.349498 35.3468 0.156552C34.4767 -0.0363943 33.5766 -0.0511499 32.7007 0.113174L6.38233 4.60641H6.35233C4.70032 4.92232 3.23123 5.857 2.24512 7.21954C3.73079 6.16281 5.50923 5.59611 7.33238 5.59846Z" fill="white"/>
<path d="M39.3336 7.99854H7.33197C5.63507 8.00039 4.0082 8.6753 2.8083 9.8752C1.60841 11.0751 0.933494 12.702 0.931641 14.3989V33.5999C0.933494 35.2968 1.60841 36.9236 2.8083 38.1235C4.0082 39.3234 5.63507 39.9984 7.33197 40.0002H39.3336C41.0305 39.9984 42.6574 39.3234 43.8573 38.1235C45.0572 36.9236 45.7321 35.2968 45.734 33.5999V14.3989C45.7321 12.702 45.0572 11.0751 43.8573 9.8752C42.6574 8.6753 41.0305 8.00039 39.3336 7.99854ZM34.5834 27.1995C33.9505 27.1995 33.3317 27.0118 32.8055 26.6602C32.2792 26.3086 31.869 25.8088 31.6268 25.224C31.3846 24.6393 31.3212 23.9958 31.4447 23.375C31.5682 22.7543 31.873 22.1841 32.3205 21.7365C32.7681 21.289 33.3383 20.9842 33.9591 20.8607C34.5798 20.7372 35.2233 20.8006 35.808 21.0428C36.3928 21.285 36.8926 21.6952 37.2442 22.2214C37.5959 22.7477 37.7836 23.3664 37.7836 23.9994C37.7836 24.8481 37.4464 25.6621 36.8463 26.2622C36.2461 26.8624 35.4321 27.1995 34.5834 27.1995Z" fill="white"/>
<path d="M0.981445 21.1491V11.1986C0.981445 9.03151 2.18151 5.39832 6.34672 4.61128C9.88191 3.94824 13.3821 3.94824 13.3821 3.94824C13.3821 3.94824 15.6822 5.54833 13.7821 5.54833C11.882 5.54833 11.932 7.99845 13.7821 7.99845C15.6322 7.99845 13.7821 10.3486 13.7821 10.3486L6.33172 18.799L0.981445 21.1491Z" fill="white"/>
</svg>
