<svg width="586" height="512" viewBox="0 0 586 512" fill="none" xmlns="http://www.w3.org/2000/svg">
<path d="M83.6033 71.6607H501.567C506.449 71.6585 511.327 71.9621 516.17 72.5696C514.528 61.2764 510.57 50.426 504.534 40.6725C498.498 30.9191 490.509 22.4646 481.049 15.8188C471.589 9.17303 460.854 4.47361 449.49 2.00388C438.127 -0.465849 426.371 -0.654723 414.931 1.44864L71.195 58.9624H70.8032C49.2268 63.0061 30.0395 74.9701 17.1602 92.4107C36.5641 78.8845 59.7917 71.6306 83.6033 71.6607V71.6607Z" fill="#F9BA42"/>
<path d="M501.557 102.377H83.5928C61.43 102.401 40.1819 111.04 24.5105 126.398C8.83904 141.757 0.0242008 162.581 0 184.302V430.076C0.0242008 451.797 8.83904 472.621 24.5105 487.979C40.1819 503.338 61.43 511.977 83.5928 512.001H501.557C523.719 511.977 544.967 503.338 560.639 487.979C576.31 472.621 585.125 451.797 585.149 430.076V184.302C585.125 162.581 576.31 141.757 560.639 126.398C544.967 111.04 523.719 102.401 501.557 102.377V102.377ZM439.515 348.151C431.249 348.151 423.168 345.749 416.294 341.248C409.421 336.747 404.064 330.349 400.9 322.865C397.737 315.38 396.909 307.143 398.522 299.198C400.135 291.252 404.115 283.953 409.961 278.224C415.806 272.495 423.253 268.594 431.361 267.014C439.469 265.433 447.873 266.244 455.51 269.345C463.147 272.445 469.675 277.695 474.268 284.431C478.86 291.168 481.312 299.087 481.312 307.189C481.312 318.053 476.908 328.472 469.07 336.154C461.231 343.836 450.6 348.151 439.515 348.151Z" fill="#F9BA42"/>
<path d="M0.642578 270.727V143.36C0.642578 115.621 16.3162 69.1158 70.7168 59.0416C116.889 50.5547 162.604 50.5547 162.604 50.5547C162.604 50.5547 192.645 71.0359 167.828 71.0359C143.012 71.0359 143.665 102.398 167.828 102.398C191.992 102.398 167.828 132.479 167.828 132.479L70.5209 240.646L0.642578 270.727Z" fill="#F9BA42"/>
</svg>
