<svg width="128" height="128" viewBox="0 0 128 128" fill="none" xmlns="http://www.w3.org/2000/svg">
<path d="M62.2609 40.4193C62.8098 39.6366 63.3037 38.943 63.7259 38.3557C64.1647 38.9478 64.6794 39.6493 65.2523 40.4423C67.1401 43.055 69.6537 46.6515 72.1638 50.5945C74.6782 54.5443 77.1657 58.8053 79.0178 62.7529C80.9037 66.7726 82 70.2009 82 72.5745C82 82.8592 73.4699 91.1818 63.7018 91.1818C54.0134 91.1818 46 82.9371 46 72.5745C46 70.1875 47.0686 66.7507 48.8986 62.7322C50.6968 58.7834 53.1117 54.5216 55.5523 50.5717C57.9888 46.6286 60.4285 43.0321 62.2609 40.4193Z" stroke="white" stroke-width="4"/>
<path d="M52.9902 81.6143C53.5478 82.8923 56.3993 85.8845 60.263 87.0209" stroke="white" stroke-width="2" stroke-linecap="round" stroke-linejoin="round"/>
<path d="M64.0003 67.2598C60.3639 67.2598 60.3639 66.1205 60.3639 65.4398C60.3639 64.5589 61.6384 63.6198 64.0003 63.6198C66.1548 63.6198 66.5203 64.781 66.5457 65.4726L68.3639 65.4398H70.1821C70.1821 63.5725 68.9712 60.9462 65.8184 60.2V58.1816H62.1821V60.1345C58.5984 60.7369 56.7275 63.0956 56.7275 65.4398C56.7275 67.4782 57.673 70.8998 64.0003 70.8998C67.6366 70.8998 67.6366 72.1301 67.6366 72.7198C67.6366 73.4751 66.5094 74.5398 64.0003 74.5398C60.653 74.5398 60.3839 72.9801 60.3639 72.7198H56.7275C56.7275 74.3906 57.9294 77.3663 62.1821 78.0342V79.9998H65.8184V78.0251C69.4021 77.4227 71.273 75.064 71.273 72.7198C71.273 70.6814 70.3275 67.2598 64.0003 67.2598Z" fill="white"/>
<circle cx="51.6259" cy="79.2929" r="0.909091" fill="white"/>
<circle cx="64" cy="64" r="53" stroke="white" stroke-opacity="0.25" stroke-width="4"/>
<circle cx="64" cy="64" r="62" stroke="white" stroke-width="4"/>
</svg>
