<svg width="128" height="128" viewBox="0 0 128 128" fill="none" xmlns="http://www.w3.org/2000/svg">
<path d="M65.2481 43L64.6791 43.5108L52.3516 55.7256H44V84.8127H74.6215C77.1848 84.8127 79.4208 83.002 79.9608 80.4951L83.8821 62.3157C84.5965 58.9561 81.9714 55.7256 78.5409 55.7256H68.0878L68.4295 54.3622C68.7986 54.0786 69.0331 53.9567 69.5657 53.2259C70.4165 52.0625 71.2692 50.2572 71.2692 47.8285C71.2692 45.2361 68.924 43 65.9862 43H65.2481ZM66.5534 46.8068C67.3206 46.9558 67.6333 47.2685 67.6333 47.8285C67.6333 49.4701 67.137 50.4845 66.6679 51.1244C66.1989 51.7625 65.8717 51.9188 65.8717 51.9188L65.2481 52.2606L65.0209 52.9987L63.941 57.0891L63.372 59.3615H78.5409C79.7408 59.3615 80.5498 60.405 80.3025 61.5776L76.4394 79.757C76.254 80.6078 75.4868 81.1768 74.6215 81.1768H54.9077V58.2816L66.5534 46.8068ZM47.6359 59.3615H51.2718V81.1768H47.6359V59.3615Z" fill="white"/>
<circle cx="64" cy="64" r="53" stroke="white" stroke-opacity="0.25" stroke-width="4"/>
<circle cx="64" cy="64" r="62" stroke="white" stroke-width="4"/>
</svg>
