<svg width="128" height="128" viewBox="0 0 128 128" fill="none" xmlns="http://www.w3.org/2000/svg">
<path d="M56.3943 45.5429C53.6731 46.2928 50.9704 47.1083 48.2886 47.9886C48.0437 48.0679 47.826 48.2144 47.6603 48.4114C47.4946 48.6084 47.3876 48.848 47.3514 49.1029C45.7686 60.98 49.4257 69.6457 53.7886 75.3543C55.6358 77.7954 57.8383 79.9459 60.3229 81.7343C61.3114 82.4314 62.1857 82.9343 62.8743 83.2571C63.2171 83.42 63.4971 83.5285 63.7114 83.5943C63.8051 83.6271 63.9018 83.651 64 83.6657C64.0971 83.6499 64.1926 83.626 64.2857 83.5943C64.5029 83.5285 64.7829 83.42 65.1257 83.2571C65.8114 82.9343 66.6886 82.4285 67.6771 81.7343C70.1617 79.9459 72.3642 77.7953 74.2114 75.3543C78.5743 69.6485 82.2314 60.98 80.6486 49.1029C80.6127 48.8479 80.5058 48.6081 80.3401 48.4111C80.1743 48.214 79.9565 48.0676 79.7114 47.9886C77.8514 47.38 74.7114 46.3886 71.6057 45.5457C68.4343 44.6857 65.5171 44.0486 64 44.0486C62.4857 44.0486 59.5657 44.6857 56.3943 45.5457V45.5429ZM55.6343 42.6C58.7343 41.7571 62.0286 41 64 41C65.9714 41 69.2657 41.7571 72.3657 42.6C75.5371 43.4571 78.7343 44.4714 80.6143 45.0857C81.4003 45.3453 82.0972 45.8213 82.6248 46.4591C83.1524 47.097 83.4895 47.8707 83.5971 48.6914C85.3 61.4828 81.3486 70.9628 76.5543 77.2343C74.5213 79.9171 72.0971 82.2796 69.3629 84.2428C68.4174 84.9222 67.4157 85.5196 66.3686 86.0285C65.5686 86.4057 64.7086 86.7142 64 86.7142C63.2914 86.7142 62.4343 86.4057 61.6314 86.0285C60.5843 85.5196 59.5826 84.9222 58.6371 84.2428C55.9029 82.2795 53.4788 79.917 51.4457 77.2343C46.6514 70.9628 42.7 61.4828 44.4029 48.6914C44.5106 47.8707 44.8476 47.097 45.3752 46.4591C45.9028 45.8213 46.5997 45.3453 47.3857 45.0857C50.1148 44.1909 52.8652 43.3621 55.6343 42.6V42.6Z" fill="white"/>
<path d="M72.1534 55.7029C72.2865 55.8356 72.392 55.9932 72.464 56.1668C72.5361 56.3404 72.5731 56.5264 72.5731 56.7143C72.5731 56.9022 72.5361 57.0883 72.464 57.2619C72.392 57.4354 72.2865 57.5931 72.1534 57.7258L63.582 66.2972C63.4493 66.4302 63.2917 66.5358 63.1181 66.6078C62.9445 66.6798 62.7585 66.7169 62.5706 66.7169C62.3827 66.7169 62.1966 66.6798 62.0231 66.6078C61.8495 66.5358 61.6919 66.4302 61.5592 66.2972L57.2734 62.0115C57.1406 61.8786 57.0353 61.721 56.9634 61.5474C56.8915 61.3739 56.8545 61.1879 56.8545 61C56.8545 60.8122 56.8915 60.6262 56.9634 60.4527C57.0353 60.2791 57.1406 60.1214 57.2734 59.9886C57.4063 59.8558 57.5639 59.7504 57.7375 59.6785C57.911 59.6067 58.097 59.5697 58.2849 59.5697C58.4727 59.5697 58.6587 59.6067 58.8322 59.6785C59.0058 59.7504 59.1635 59.8558 59.2963 59.9886L62.5706 63.2658L70.1306 55.7029C70.2633 55.5699 70.4209 55.4643 70.5945 55.3923C70.768 55.3203 70.9541 55.2832 71.142 55.2832C71.3299 55.2832 71.516 55.3203 71.6895 55.3923C71.8631 55.4643 72.0207 55.5699 72.1534 55.7029V55.7029Z" fill="white"/>
<circle cx="64" cy="64" r="53" stroke="white" stroke-opacity="0.25" stroke-width="4"/>
<circle cx="64" cy="64" r="62" stroke="white" stroke-width="4"/>
</svg>
