<svg xmlns="http://www.w3.org/2000/svg" viewBox="0 0 512 128"><defs><style>.cls-1{fill:#eb1a2d;}.cls-2{fill:#fff;}.cls-3{fill:#ed1c25;}.cls-4{fill:#243d93;}.cls-5{fill:#e32329;}.cls-6{fill:#fad802;}</style></defs><title>Asset 9</title><g id="Layer_2" data-name="Layer 2"><g id="Layer_1-2" data-name="Layer 1"><rect class="cls-1" width="512" height="128"/><path class="cls-2" d="M32,49A16,16,0,0,1,48,33H199.25V79.43a16,16,0,0,1-16,16H32Z"/><path class="cls-3" d="M177.11,62.3c.16,0,.71,3.81-4.45,3.88-2,0-3.29-.68-3.74-1.76-1.13-2.7.88-6.6,1.66-9.34h-.07a8,8,0,0,0-3.05.4,0,0,0,0,1,0,0c-.31-.35-.07-.79,0-1.17s.12-.51.16-.78a1.52,1.52,0,0,1,.95-.8,8.63,8.63,0,0,1,2.18-.17s.07,0,.12,0a.29.29,0,0,0,.18-.06.42.42,0,0,0,.13-.17,13.45,13.45,0,0,0,.85-3.79,7.46,7.46,0,0,0,0-1c0-.15-.23-.35-.07-.47.66-.5,3.19-.44,4.06-.29.09,0,.12.07.17.1a1.45,1.45,0,0,1,.31,1.65c-.38,1.22-.76,2.43-1.09,3.65a.46.46,0,0,0,0,.14.44.44,0,0,0,0,.14.35.35,0,0,0,.07.11.26.26,0,0,0,.1.06l.23,0a13,13,0,0,0,2.94-.08,4,4,0,0,1,1-.17,2.73,2.73,0,0,1-.95,2.12,6,6,0,0,1-2.78.76,3,3,0,0,1-1-.17.32.32,0,0,0-.22,0,.42.42,0,0,0-.18.16c-.85,2.21-2.34,6.15-1.54,7.38a1.49,1.49,0,0,0,1.42.69c.88,0,2.15-1.08,2.67-1Z"/><path class="cls-4" d="M93.41,47.47c0,.62,0,1.23,0,1.85a9.53,9.53,0,0,1,1.91-.17c1.92.46,1.54,3.56-1.35,3.09-.21,0-.57-.26-.59-.14-.07,3.63,0,7.64-.07,11-.07.91-1.56,1.51-3,1.48-1.82-.06-3.05-.88-3.05-1.94,0-3.42.17-6.8,0-10.12,0-.1-.17-.22-.35-.21l-.31.07c-2.82.29-3.43-3.27-.19-3.14.19,0,.35,0,.54,0s.21,0,.23,0a.28.28,0,0,0,.05-.09.34.34,0,0,0,0-.11c.07-1.07-.43-2.89.78-3.71,1.87-1.27,4.43-1.07,7-.86.8.07,1.3.29,1.42.79s.23,1.68-.66,1.9a16.7,16.7,0,0,1-2.39.35Z"/><path class="cls-4" d="M76.7,62.3V46.87c.14-1.65.31-2.73,3.08-3,2.51.18,2.94,1.27,3.05,2.59l-.14,15.72c0,1.22-.62,2.52-2.86,2.49-2.41,0-2.89-.9-3.12-2.38Z"/><path class="cls-3" d="M164.59,55.84a.1.1,0,0,1-.09,0c-.21-.19-.54-.66-1-.71a1.93,1.93,0,0,0-1.44.72,32.49,32.49,0,0,0-4,6c-.35.62-1.11,2.24-.78,3a1,1,0,0,1,.1.37c0,.59-1.92.62-2.56.54-1.61-.25-1.87-1.12-1.58-2,1.13-3.6,2.51-7.18,3.1-10.81a4.8,4.8,0,0,0,.16-1.63c0-.21-.12-.69.28-.82,1.26-.36,3.71-.72,4.14.44.33.9-.52,3-.9,4-.07.19-.14.38-.21.55,0,0,0,.06,0,.06l.43-.65c.83-1.13,3.31-4.93,5.68-4.73.68.06,1.11.35,1.18.75.28,1.34-1,3.93-2.46,5Z"/><path class="cls-3" d="M136,61.93c.59-3,1.52-6,2.37-8.94.14-.53.68-3.15-1-3.42-4-.62-6.27,3.74-7.48,5.53l-.06.06h-.08c-.21,0-.14-.32-.12-.4.33-1,1.75-5.08-.73-5.27-3.55-.25-6.25,4.7-7,4.44s2.08-3.47-.31-4.25a4.39,4.39,0,0,0-3.13.35,0,0,0,0,0,0,0,63.92,63.92,0,0,1-3.15,12.48c-.26.78-.71,2.84,1.54,2.84a6.49,6.49,0,0,0,2.26-.59c.09-.1,0-.21,0-.32a5.33,5.33,0,0,1,.35-2.26A8.38,8.38,0,0,1,120,61c.45-.8,4.71-8.25,5.85-8.1s-2.32,9.58-2.53,10.36-.38,1.58,1,1.88a7.06,7.06,0,0,0,2.58,0,.34.34,0,0,0,.15-.07.46.46,0,0,0,.12-.14.6.6,0,0,0,.06-.19.66.66,0,0,0,0-.21,3.17,3.17,0,0,1,0-1.24,28.84,28.84,0,0,1,6.37-10.09.51.51,0,0,1,.4-.17.22.22,0,0,1,.13,0,.32.32,0,0,1,.09.13.41.41,0,0,1,0,.17.4.4,0,0,1,0,.17c-.73,2.95-1.92,6-2.29,8.94-.07.66-.21,2.59,1.13,2.86.92.18,3.46-.19,3.34-1a6.31,6.31,0,0,1-.38-2.46Z"/><path class="cls-3" d="M154.55,50.37c0-.36-1-.39-1.66-.46a4.34,4.34,0,0,0-2,.21c-.23.11-.33.35-.64.36a21.48,21.48,0,0,0-2.46-.76c-3.79-.37-6.08,2.77-7.17,4.37-2.08,3.1-3.76,7.11-2.27,10.41a2,2,0,0,0,2.08,1.2c3.5,0,5.35-3.49,6.48-5.15a1.48,1.48,0,0,1,.21-.28s0,0,.07,0,0,.06,0,.08a10,10,0,0,0-.14,3.44,2,2,0,0,0,1.56,1.76c1.11.25,3-.25,3-1.05a.19.19,0,0,0,0-.11,4.33,4.33,0,0,1-.1-.54l-.07-.55a4.65,4.65,0,0,1,0-.57c0-.2,0-.39,0-.59a15.66,15.66,0,0,1,.95-5.23C153.11,54.77,154.39,52.6,154.55,50.37Zm-5,3.38a38,38,0,0,1-5.84,8.12c-.12.06-.28.25-.47.18a.48.48,0,0,1-.18-.12.66.66,0,0,1-.13-.21c-.88-2.67.5-7.16,3-9.12.33-.26,1.4-.73,1.87-.43a18.1,18.1,0,0,1,1.92,1.39C149.77,53.62,149.63,53.69,149.58,53.76Z"/><path class="cls-4" d="M74.36,62.34l-6.51-16.5c-.5-1.27-1.89-2.27-4.13-2.34-2.54-.08-4.46,1.12-5,2.55l-5,12.34c-.73,1.8-3.55,6.2,1.47,6.41,4.71.21,4.14-5.37,5.14-5.37h6c.07,0,.14,0,.14,0,.61,1.84.64,5,4.69,5.27C73.65,65,74.78,63.45,74.36,62.34ZM65.2,55.75c-1.28.06-2.51,0-3.76,0-.14-.48,1.13-3.59,1.77-5.37a.2.2,0,0,1,.21-.13c.12,0,.14.15.16.21.59,1.76,1.23,3.54,1.66,5.3Z"/><path class="cls-4" d="M113.36,49.61c0-1.3-3.9-1.33-5.06-.65a6.76,6.76,0,0,1-.54.42c-.62-.06-1.4-.44-2.13-.55a8.11,8.11,0,0,0-4.71.42c-4.88,2.43-6.27,13.53,1,15.1a11.58,11.58,0,0,0,5.73-.79c.17-.06.26.17.36.25a2.72,2.72,0,0,0,.59.42,6.35,6.35,0,0,0,2.6.38c1.36-.08,2.27-.9,2.27-1.65C113.47,58.5,113.57,54,113.36,49.61Zm-6.7,11a1.57,1.57,0,0,1-1,.19c-1.91.08-2.3-1.16-2.43-2.45a11.36,11.36,0,0,1,.11-4.44,2.41,2.41,0,0,1,2.09-1.86,2.33,2.33,0,0,1,2.4,2C108.11,55.49,108.49,59.49,106.66,60.61Z"/><path class="cls-5" d="M51.77,80.67l125.8,0c2-1.89,2.11-5.17,2-12.1H65C58.56,68.66,53.5,68.69,51.77,80.67Z"/><path class="cls-6" d="M51.75,82.31H177.14c-1.49,1.61-2.64,2.55-5.19,2.55H51.75Z"/><polygon class="cls-2" points="482.78 0 482.78 128 432.64 128 432.71 0 482.78 0"/><rect class="cls-6" x="405.78" width="16.46" height="128"/></g></g></svg>