<svg xmlns="http://www.w3.org/2000/svg" xmlns:xlink="http://www.w3.org/1999/xlink" viewBox="0 0 512 128"><defs><style>.cls-1{fill:#108de8;}.cls-2{fill:#fff;}.cls-3{fill:url(#linear-gradient);}</style><linearGradient id="linear-gradient" x1="363.65" y1="64" x2="493.19" y2="64" gradientUnits="userSpaceOnUse"><stop offset="0" stop-color="#0071bc"/><stop offset="1" stop-color="#108de8"/></linearGradient></defs><title>Asset 6</title><g id="Layer_2" data-name="Layer 2"><g id="Layer_1-2" data-name="Layer 1"><rect class="cls-1" width="512" height="128"/><path class="cls-2" d="M180.29,70V61.82a13.2,13.2,0,0,1,26.25-2.17,16.92,16.92,0,0,1,.17,2.45v17c0,.62-.17.76-.76.76q-2.58-.06-5.16,0c-.58,0-.76-.17-.76-.76V61.95a6.58,6.58,0,1,0-13.11-.06V79c0,.62-.19.76-.76.76-1.72,0-3.44,0-5.16,0-.59,0-.72-.17-.71-.76C180.31,76.06,180.29,73,180.29,70Z"/><path class="cls-2" d="M89.47,49.65A30.22,30.22,0,0,0,46.31,37.74,31.39,31.39,0,0,0,36.15,79.66a30.38,30.38,0,0,0,32.76,14.7A31,31,0,0,0,93,64,31.69,31.69,0,0,0,89.47,49.65ZM80.25,64.16v8.35c0,1.06-.13,1.14-1,.61C75.64,71,71.82,71,67.91,72c-3.37.9-6.59,2.28-9.93,3.26a15.94,15.94,0,0,1-9.55.38,14.19,14.19,0,0,1-2.76-1.27,1.85,1.85,0,0,1-1-1.69V57.32c0-.56,0-1.13.05-1.69s.24-.82.86-.41a11.82,11.82,0,0,0,6.36,2.07,20.91,20.91,0,0,0,7.59-1.62c3.17-1.16,6.29-2.51,9.57-3.37a11.94,11.94,0,0,1,10,1.42,2.28,2.28,0,0,1,1.18,2.1C80.23,58.6,80.25,61.37,80.25,64.16Z"/><path class="cls-2" d="M244.64,61.82a13.19,13.19,0,0,0-26.36-1c-.17,3,0,6,0,9h-.05v9.25c0,.57.14.76.76.76,1.75,0,3.49,0,5.24,0,.55,0,.69-.17.68-.7v-5.4c0-.5.14-.66.65-.66h12c.48,0,.61.15.6.61v5.4c0,.55.09.76.71.76q2.62-.07,5.24,0c.6,0,.71-.17.71-.76C244.64,73.33,244.64,67.57,244.64,61.82Zm-7.24,4.56H225.55c-.59,0-.76-.18-.76-.76,0-1.44,0-2.88.08-4.31a6.53,6.53,0,0,1,6.71-6.08A6.61,6.61,0,0,1,238,61.52c.08,1.44,0,2.87,0,4.31,0,.52-.24.52-.61.52Z"/><path class="cls-2" d="M168.77,70v-8.1a14.38,14.38,0,0,0-.14-2.07,13.18,13.18,0,0,0-26.24,1.35c-.14,6,0,12-.05,18,0,.45.15.56.58.55h5.48c.48,0,.61-.16.6-.62V73.71c0-.49.13-.66.64-.66H161.5c.57,0,.68.21.67.71v5.4c0,.51.15.65.65.65h5.32c.55,0,.68-.16.68-.69C168.77,76.1,168.77,73.06,168.77,70Zm-7.25-3.68H149.65c-.55,0-.71-.16-.68-.7a33.29,33.29,0,0,1,.18-5.22,6.55,6.55,0,0,1,13,1.08c.06,1.41,0,2.83,0,4.24.05.49-.12.61-.58.61Z"/><path class="cls-2" d="M115.54,48.47H105.21c-.68,0-.76.21-.76.82V79.12c0,.58.15.76.76.72h10.48a13.46,13.46,0,0,0,2.6-.27,15.69,15.69,0,0,0-2.76-31.11Zm8.63,17A8.82,8.82,0,0,1,115.6,73h-3.93c-.48,0-.6-.14-.6-.61V56c0-.67.2-.82.82-.76,2,.11,4-.21,5.9.32a8.92,8.92,0,0,1,6.38,9.9Z"/><path class="cls-3" d="M493.15,64.55V95c0,3.86-.44,4.15-3.67,2.22-13.09-7.82-27-7.78-41.21-4-12.26,3.27-24,8.29-36.12,11.86-11.42,3.42-23,5.06-34.74,1.38a51.19,51.19,0,0,1-10-4.62,6.72,6.72,0,0,1-3.71-6.11v-56c0-2,0-4.11.18-6.15,0-2.58.87-3,3.13-1.49a43.18,43.18,0,0,0,23.13,7.49,76.45,76.45,0,0,0,27.61-5.86c11.57-4.26,22.88-9.17,34.81-12.29a44.25,44.25,0,0,1,18.77-1.45,43.72,43.72,0,0,1,17.61,6.62,8.28,8.28,0,0,1,4.29,7.64C493.07,44.32,493.15,54.4,493.15,64.55Z"/></g></g></svg>