<svg xmlns="http://www.w3.org/2000/svg" xmlns:xlink="http://www.w3.org/1999/xlink" viewBox="0 0 512 128"><defs><style>.cls-1{fill:url(#linear-gradient);}.cls-2{fill:#00add9;}.cls-3{fill:#fff;}.cls-4{fill:#0093b5;}</style><linearGradient id="linear-gradient" y1="64" x2="512" y2="64" gradientUnits="userSpaceOnUse"><stop offset="0" stop-color="#006a85"/><stop offset="1" stop-color="#00add9"/></linearGradient></defs><title>Asset 8</title><g id="Layer_2" data-name="Layer 2"><g id="Layer_1-2" data-name="Layer 1"><rect class="cls-1" width="512" height="128"/><path class="cls-2" d="M63,94.91a31,31,0,1,0-21.86-9.09A30.95,30.95,0,0,0,63,94.91Z"/><path class="cls-3" d="M45.13,70.9a9.35,9.35,0,0,0,9.43,9.26,154.32,154.32,0,0,0,16.87,0,9.89,9.89,0,0,0,9.43-9.26q.29-3.9.25-7.81a8.31,8.31,0,0,0-7.77-7.23H53.48a1.25,1.25,0,1,1,0-2.49H73.54c0-4.69-5.4-5.57-7.85-5.73H64.2c-3.24,0-6.44,0-9.68.29a9.39,9.39,0,0,0-9.39,9.18,89.42,89.42,0,0,0,0,13.83Zm29.79-2.66V69.9a1.16,1.16,0,0,1-2.33,0V68.24a1.83,1.83,0,0,1-.83-1.54,2.08,2.08,0,1,1,4.15,0,1.83,1.83,0,0,1-1,1.54Z"/><path class="cls-3" d="M175.64,48.87a18.39,18.39,0,0,0-31.26,12.68,18.41,18.41,0,0,0,36.77,0A18.12,18.12,0,0,0,175.64,48.87Zm-5.43,20a10.39,10.39,0,0,1-17.73-7.35,10.14,10.14,0,0,1,10.3-10,10.23,10.23,0,0,1,3.95.66,10.4,10.4,0,0,1,3.38,2.13,10.18,10.18,0,0,1,3.14,7.18A10.38,10.38,0,0,1,170.21,68.9Zm48.58-19.43A16.93,16.93,0,0,0,207,44.31a16.63,16.63,0,0,0-10.85,4.16V44.85H187V91.63h9.1V74.47A16.63,16.63,0,0,0,207,78.63a17.26,17.26,0,0,0,11.84-29.16Zm-3.88,13.71a9.51,9.51,0,0,1-18.85-1.83,9.63,9.63,0,0,1,.71-3.64,9.33,9.33,0,0,1,2-3.09,9.57,9.57,0,0,1,3.08-2.06,9.53,9.53,0,0,1,13,10.62Zm76-18.87-9.59,21.07L270.14,44.27h-9.65l16,30-8.31,17.45H278l22.61-47.45ZM140.43,77V44.85h-9v3.7a16.62,16.62,0,0,0-10.85-4.15,17.16,17.16,0,0,0,0,34.31,16.62,16.62,0,0,0,10.85-4.15V78A8.83,8.83,0,0,1,126,86.33a9,9,0,0,1-3.43.69,12.5,12.5,0,0,1-10.47-4.15l-6,5.27A20,20,0,0,0,122.69,95a16.92,16.92,0,0,0,7-1.16A17,17,0,0,0,140.43,77ZM129.77,66.64a9.51,9.51,0,0,1-17.24-3.46,9.53,9.53,0,0,1,13-10.62,9.52,9.52,0,0,1,4.23,14.08ZM242.13,43.81A15,15,0,0,0,227.59,55l7.19,1.78c2.29-6.48,10.76-8.3,14.37-3.74a2.06,2.06,0,0,1,.45,1.88,2.07,2.07,0,0,1-.48.87,2,2,0,0,1-.84.54c-2.12,1.08-6.15.79-10.26,1.91C220.66,63,226.1,79,240.51,78.42a15.26,15.26,0,0,0,10.18-4.15V77.8h7.15v-22h0C257.88,47.14,249.57,43.11,242.13,43.81Zm8,17.63v5.31a10.9,10.9,0,0,1-8.31,4.69c-6.6.91-6.6-3.2-6.15-4.15s2-2.54,7.48-3.41c4.4-.7,6.38-2,7-2.44v-.26l.21.08Z"/><path class="cls-4" d="M493,77.57a37.11,37.11,0,0,0-34.71-32.31H369.52a5.58,5.58,0,1,1,0-11.15h89.67a20.88,20.88,0,0,0-4.34-13.26H345.77l-1,.9A42,42,0,0,0,332.2,50.83a398.69,398.69,0,0,0,0,61.82A41.72,41.72,0,0,0,335.34,128H488a44.21,44.21,0,0,0,3.87-15.53Q493.18,95,493,77.57Zm-24.5,20.18a8.28,8.28,0,0,1-3.15,2.84V108a5.2,5.2,0,1,1-10.4,0v-7.42a8.15,8.15,0,0,1-3.71-6.88,9.28,9.28,0,0,1,18.56,0A8.18,8.18,0,0,1,468.47,97.75Z"/></g></g></svg>