<svg xmlns="http://www.w3.org/2000/svg" xmlns:xlink="http://www.w3.org/1999/xlink" viewBox="0 0 512 128"><defs><style>.cls-1{fill:#fff;}.cls-1,.cls-5{stroke:#fff;stroke-width:4px;}.cls-2,.cls-5{fill:#e82529;}.cls-3{fill:url(#linear-gradient);}.cls-4{mask:url(#mask);}.cls-6{fill:#fefefe;}</style><linearGradient id="linear-gradient" y1="92.25" x2="512" y2="92.25" gradientUnits="userSpaceOnUse"><stop offset="0" stop-color="#e82529"/><stop offset="1" stop-color="#fff"/></linearGradient><mask id="mask" x="30.5" y="31.55" width="65.21" height="65" maskUnits="userSpaceOnUse"><g id="mask0"><path class="cls-1" d="M32.5,33.55H93.71v61H32.5Z"/></g></mask></defs><title>Asset 5</title><g id="Layer_2" data-name="Layer 2"><g id="Layer_1-2" data-name="Layer 1"><rect class="cls-2" width="512" height="128"/><path class="cls-3" d="M512,58.94v5.13A2561.73,2561.73,0,0,0,248.61,88.38C140.92,103.88,76.72,118.71,39,128H0V102.49c11.32-2.39,24.73-5.08,40.14-7.94,15.78-2.93,33.66-6,53.57-9.2,43.07-6.85,95.65-13.92,157-19.89C371.28,53.72,461.93,55.83,512,58.94Z"/><g class="cls-4"><path class="cls-5" d="M88.37,94.55H37.84a5.35,5.35,0,0,1-5.34-5.32V38.87a5.35,5.35,0,0,1,5.34-5.32H88.37a5.35,5.35,0,0,1,5.34,5.32V89.23A5.35,5.35,0,0,1,88.37,94.55Z"/></g><path class="cls-6" d="M45.42,44.72h2.95a.37.37,0,0,1,.36.42l-1.37,9.46a.6.6,0,0,0,.6.69h5.17a.24.24,0,0,1,.24.27L53,58.29a.29.29,0,0,1-.29.25H46.84c-1.74,0-3.41-1.42-3.16-3.14L45.06,45A.37.37,0,0,1,45.42,44.72Z"/><path class="cls-6" d="M55.25,48.5,53.9,58.15a.25.25,0,0,0,.25.29H57a.41.41,0,0,0,.4-.35l1.34-9.49a.37.37,0,0,0-.36-.41H55.62A.37.37,0,0,0,55.25,48.5Z"/><path class="cls-6" d="M61.13,57.7a2.83,2.83,0,0,0-1.81.55c.13-.87,1.11-7.65,1.2-8.07a3.09,3.09,0,0,1,.57-1.56c.46-.44,1.17-.69,4.71-.7s4.31,2.58,4.12,4.26c-.16,1.44-.7,5-.85,6a.31.31,0,0,1-.31.26H66a.34.34,0,0,1-.33-.38c.14-1,.52-3.64.65-4.41a4.72,4.72,0,0,0,0-2.41c-.25-.41-1-.73-2.48-.48l-1.08,7.64A2.77,2.77,0,0,0,61.13,57.7Z"/><path class="cls-6" d="M72.94,44.18H76a.19.19,0,0,1,.19.22L74.3,58.29a.21.21,0,0,1-.21.18H71a.21.21,0,0,1-.21-.24l1.92-13.89A.19.19,0,0,1,72.94,44.18Z"/><path class="cls-6" d="M78.59,52.31l-.22.25.14.3L81.7,59.7H79.18l-3.26-7.07,3.29-3.84a.08.08,0,0,1,.06,0h2.52Zm3.57-4h0Z"/><path class="cls-6" d="M59.35,45.57a2.36,2.36,0,0,1-2.2,1.83,1.51,1.51,0,0,1-1.51-1.9,2.33,2.33,0,0,1,2.25-1.9A1.53,1.53,0,0,1,59.35,45.57Z"/><path class="cls-6" d="M62.49,60.9a2.36,2.36,0,0,1-2.2,1.83,1.51,1.51,0,0,1-1.51-1.9A2.33,2.33,0,0,1,61,58.93,1.53,1.53,0,0,1,62.49,60.9Z"/><path class="cls-6" d="M77.46,73.47a2.3,2.3,0,0,1-2.22,1.81,1.61,1.61,0,0,1-1.68-1.88,2.26,2.26,0,0,1,2.28-1.88A1.62,1.62,0,0,1,77.46,73.47Z"/><path class="cls-6" d="M51.12,68.29H49.25a.1.1,0,0,1-.09-.13L50.79,64a.08.08,0,0,1,.15,0l.37,4A.19.19,0,0,1,51.12,68.29Zm4.54,5.18L53.57,61a1.13,1.13,0,0,0-1.12-.94h-2.1a1.63,1.63,0,0,0-1.49,1L43.24,73.49a.27.27,0,0,0,.25.38l2.93,0a.5.5,0,0,0,.46-.3l1-2.28a.17.17,0,0,1,.16-.1h3.54a.17.17,0,0,1,.17.15l.21,2.16a.49.49,0,0,0,.49.44h2.87A.39.39,0,0,0,55.66,73.47Z"/><path class="cls-6" d="M54.26,75.73l.68,2.08c.12.34.21.42.45.37A7,7,0,0,0,59.31,76c1.32-1.77,1.5-4.91,1.73-6.5.19-1.31.61-4.54.75-5.64a.33.33,0,0,0-.33-.37H58.84a.46.46,0,0,0-.46.4c-.21,1.55-1,7.13-1.11,7.9s-.19,2.2-1.52,3a8.53,8.53,0,0,1-1.27.58C54.35,75.43,54.2,75.5,54.26,75.73Z"/><path class="cls-6" d="M68.69,70.93s-1.37.46-2,0S66,69.4,66.34,68a2,2,0,0,1,1.75-1.72,5.3,5.3,0,0,1,1.18.17Zm3.79-7a13.09,13.09,0,0,0-4.76-.53c-2.21.16-4.7,1.18-5.16,5.52s1.52,5.18,4.38,5.3a10.43,10.43,0,0,0,4.47-.8.78.78,0,0,0,.47-.62l1.06-8.35C73,64.08,72.81,64,72.48,63.89Z"/><path class="cls-6" d="M74.52,70.13l.77-8c0-.29.27-.4.56-.4h2.65c.25,0,.35.19.28.49l-1.62,8a.34.34,0,0,1-.33.27h-2A.34.34,0,0,1,74.52,70.13Z"/><path class="cls-6" d="M43.45,84.88a2.42,2.42,0,0,0,1.72.24,159.56,159.56,0,0,1,18.38-3.6,184.09,184.09,0,0,1,23.81-2l0,0s-9-1.23-23.67.2S40.8,83.42,40.8,83.42Z"/></g></g></svg>