<svg xmlns="http://www.w3.org/2000/svg" viewBox="0 0 512 128"><defs><style>.cls-1{fill:#4c3494;}.cls-2{fill:#fff;}.cls-3{fill:#5345ba;}</style></defs><title>Asset 4</title><g id="Layer_2" data-name="Layer 2"><g id="Layer_1-2" data-name="Layer 1"><rect class="cls-1" width="512" height="128"/><path class="cls-2" d="M62.78,95C45.68,95.17,32,81.67,32,64.12a30.72,30.72,0,1,1,61.43,0C93.36,81.6,79.73,95.13,62.78,95ZM43.48,64.39c.1,1,.22,2.41.38,3.77A15,15,0,0,0,44.24,70c2,8.17,8.59,14.22,16.88,14.82a17.9,17.9,0,0,0,16.11-6.93c5.54-6.9,6.16-17.29,1.67-25.16a18.56,18.56,0,0,0-26.44-6.4C46.18,50.47,43.71,56.69,43.48,64.39Z"/><path class="cls-2" d="M190.33,33.11c16.63-.24,30.69,13,30.69,31a30.43,30.43,0,0,1-29.83,30.94c-17.89.43-31.63-13.5-31.58-31.05S173.35,32.9,190.33,33.11Zm19.33,31c-.28-1.92-.43-3.88-.88-5.77-2-8.44-8.59-14.24-16.42-15-6.75-.62-12.58,1.55-16.65,7-5.71,7.66-6.16,16.07-1.88,24.5a18.58,18.58,0,0,0,29.75,4.47C207.7,75.14,209.42,69.93,209.65,64.11Z"/><path class="cls-2" d="M95.88,34.7h23.36c.95,0,1.35.2,1.29,1.24-.08,2.5-.07,5,0,7.51,0,1-.2,1.41-1.3,1.35-1.49-.1-3,0-4.69,0L128.59,78l13.56-33.25h-5.82v-10h19.48c-.2,2.38.41,4.73-.6,7.08-4.9,11.38-9.73,22.8-14.59,34.2-2.54,6-5.1,11.89-7.59,17.87A1.61,1.61,0,0,1,131.28,95a10,10,0,0,1-9.15-4.33A26.7,26.7,0,0,1,119.8,86q-8.71-20-17.36-40.08a1.66,1.66,0,0,0-1.91-1.21c-1.26.1-2.54,0-3.81,0-.6,0-.86-.14-.86-.8C95.89,40.95,95.88,37.93,95.88,34.7Z"/><path class="cls-3" d="M452,0H395.41a69.52,69.52,0,0,0,2.36,128h51.84A69.52,69.52,0,0,0,452,0ZM423.69,105a41.5,41.5,0,1,1,41.5-41.5A41.5,41.5,0,0,1,423.69,105Z"/><circle class="cls-3" cx="423.69" cy="63.5" r="27.5"/></g></g></svg>