<svg xmlns="http://www.w3.org/2000/svg" viewBox="0 0 512 128"><defs><style>.cls-1{fill:#ef3e4e;}.cls-2{fill:#fff;}.cls-3{fill:#cc3346;}</style></defs><title>Asset 7</title><g id="Layer_2" data-name="Layer 2"><g id="Layer_1-2" data-name="Layer 1"><rect class="cls-1" width="512" height="128"/><path class="cls-2" d="M193.11,71.07v-16H166.44V49.74h26.67V39.07H150.44V65.74h26.67v5.34H150.44V81.74h42.66Z"/><path class="cls-2" d="M145.11,39.07H134.45V81.74h10.67Z"/><path class="cls-2" d="M86.45,39.07V49.74h32v5.34h-32V81.74H97.11V65.9l16,15.84h16l-16.69-16h16.69V39.07H86.45Z"/><path class="cls-2" d="M54.45,65.74H65.09V55.1H54.45Zm2.67-8h5.33V63H57.12Z"/><path class="cls-2" d="M49.12,39.07H39.78a1.33,1.33,0,0,0-1.33,1.33v40a1.33,1.33,0,0,0,1.33,1.33H65.12V71.1h-16Z"/><path class="cls-2" d="M79.78,39.07H54.45V49.71h16v16H81.09V40.41a1.33,1.33,0,0,0-1.33-1.33Z"/><path class="cls-2" d="M81.12,71.07H70.45v24H81.12Z"/><path class="cls-2" d="M53.33,33.08h-20A1.33,1.33,0,0,0,32,34.41v20h2.67V37.05A1.33,1.33,0,0,1,36,35.74H53.36Z"/><path class="cls-2" d="M197.32,67.74V85.1A1.33,1.33,0,0,1,196,86.43H178.63v2.64h20A1.33,1.33,0,0,0,200,87.74v-20Z"/><path class="cls-3" d="M427.57,45.25v22h22v-22ZM444.13,61.7h-11v-11h11Z"/><path class="cls-3" d="M416.53,12.07H397.21a2.76,2.76,0,0,0-2.76,2.76v82.8a2.76,2.76,0,0,0,2.76,2.76h52.44v-22H416.53Z"/><path class="cls-3" d="M480,12.07H427.57v22H460.7V67.27h22V14.84A2.76,2.76,0,0,0,480,12.08Z"/><path class="cls-3" d="M482.78,78.32H460.7V128h22.08Z"/></g></g></svg>