<svg xmlns="http://www.w3.org/2000/svg" xmlns:xlink="http://www.w3.org/1999/xlink" viewBox="0 0 512 128"><defs><style>.cls-1{fill:#ee4e2e;}.cls-2{fill:#fff;}.cls-3{fill:url(#linear-gradient);}</style><linearGradient id="linear-gradient" x1="413.14" y1="128" x2="413.14" y2="5" gradientUnits="userSpaceOnUse"><stop offset="0" stop-color="#ee4e2e"/><stop offset="1" stop-color="#f7931e"/></linearGradient></defs><title>Asset 3</title><g id="Layer_2" data-name="Layer 2"><g id="Layer_1-2" data-name="Layer 1"><rect class="cls-1" width="512" height="128"/><path class="cls-2" d="M38.81,42.92H84.3a5.51,5.51,0,0,1,5.5,5.49V80.26a5.51,5.51,0,0,1-5.5,5.49H37.5A5.51,5.51,0,0,1,32,80.26V40.94a2.74,2.74,0,0,1,2.6-2.59l42-5.34a2.59,2.59,0,0,1,2.6,2.59v4.46h-43c0,1.86.55,2.9,2.63,2.9ZM64.33,77.78c-3.82.73-8.73-.55-11.42-3.42-1.22-1.28.73-3.27,2-2,1.8,1.92,5,2.84,7.63,2.78,3.33-.06,6.32-3.11,4.4-6.5-2.63-4.7-9.1-3.39-12.4-7.05-2.69-3-1.4-7.66,1.74-9.74,3.3-2.17,9-2.08,11.66,1,1.16,1.34-.79,3.3-2,2-2.2-2.5-7.36-2.17-9.31.43C53.83,59,58,61,61,61.85c4,1.22,8.49,3.45,9.22,8.06C70.78,73.63,67.91,77.08,64.33,77.78Z"/><path class="cls-1" d="M64.3,77.81c-3.82.73-8.73-.55-11.42-3.42-1.22-1.28.73-3.27,2-2,1.8,1.92,5,2.84,7.63,2.78,3.33-.06,6.32-3.11,4.4-6.5-2.63-4.7-9.1-3.39-12.4-7.05-2.69-3-1.4-7.66,1.74-9.74,3.3-2.17,9-2.08,11.66,1,1.16,1.34-.79,3.3-2,2-2.2-2.5-7.36-2.17-9.31.43C53.8,59,58,61,60.94,61.88c4,1.22,8.49,3.45,9.25,8.06.58,3.72-2.29,7.17-5.86,7.88Z"/><path class="cls-2" d="M142.65,41a5.64,5.64,0,0,0-4.09,1.77V41.46a.92.92,0,0,0-1.83,0v15a.92.92,0,0,0,1.83,0V49.79a5.53,5.53,0,0,0,4.09,1.77,5.31,5.31,0,1,0,0-10.62Zm0,8.7a3.39,3.39,0,0,1-.58-6.75h0a3,3,0,0,1,.52,0,3.51,3.51,0,0,1,3.21,2,3.34,3.34,0,0,1-3.18,4.73Zm-13.59,1.92a5.31,5.31,0,1,1,5.47-5.31A5.39,5.39,0,0,1,129.06,51.59Zm0-8.7a3.39,3.39,0,1,0,3.51,3.39A3.47,3.47,0,0,0,129.06,42.89Zm44,3.3a4.92,4.92,0,0,0-4-5.13,5.66,5.66,0,0,0-6,2.84,5.6,5.6,0,0,0,1.4,6.66c2.17,1.65,5.56,1.13,7.79-.09,1-.55.12-2.11-.95-1.56a6.5,6.5,0,0,1-4.82.64,3,3,0,0,1-2-2.47h7.66A.91.91,0,0,0,173.09,46.19Zm-8.52-.89a.43.43,0,0,1,.06-.18,3.64,3.64,0,0,1,3.48-2.35,3,3,0,0,1,3.05,2.53h-6.59Zm-3.76.92a4.92,4.92,0,0,0-4-5.13,5.66,5.66,0,0,0-6,2.84,5.6,5.6,0,0,0,1.4,6.65c2.17,1.65,5.56,1.13,7.79-.09,1-.55.12-2.11-.95-1.56a6.5,6.5,0,0,1-4.82.64,3.08,3.08,0,0,1-2-2.47h7.66A.91.91,0,0,0,160.81,46.22Zm-8.52-.89a.43.43,0,0,1,.06-.18,3.64,3.64,0,0,1,3.48-2.35,3,3,0,0,1,3.05,2.53h-6.6Zm-30.87-.82v6.2a.92.92,0,0,1-1.83,0V44.63a2.22,2.22,0,0,0-1.13-1.77,4.55,4.55,0,0,0-5.1,1.5v6.38a.92.92,0,0,1-1.83,0V34.8a.92.92,0,0,1,1.83,0V42c2.26-1.5,5.13-1.34,6.47-.43a3.4,3.4,0,0,1,1.59,3Zm-12.95-9c-1.8-2-5.59-2-7.79-.64s-3,4.33-1.16,6.26c2.23,2.38,6.53,1.53,8.27,4.55,1.25,2.17-.73,4.12-2.93,4.18a7.31,7.31,0,0,1-5.1-1.8c-.82-.82-2.11.43-1.31,1.25a9,9,0,0,0,7.63,2.2A4.64,4.64,0,0,0,110,46.43c-.49-3-3.48-4.4-6.17-5.19-2-.58-4.76-1.83-2.9-4.21,1.31-1.65,4.76-1.86,6.23-.27C108,37.61,109.25,36.36,108.48,35.5Z"/><path class="cls-2" d="M140.54,64V66.4a10.78,10.78,0,0,0-7.11-2.63,11,11,0,1,0,0,22,10.84,10.84,0,0,0,7.11-2.63v2.45h4.31V64Zm-7.11,17.22a6.38,6.38,0,1,1,6.38-6.38A6.38,6.38,0,0,1,133.43,81.17ZM109.77,55.28H98.26V85.75h4.88v-9h6.63c6.87,0,12.42-4.83,12.42-10.75S116.64,55.28,109.77,55.28Zm0,16.58h-6.63V60.2h6.63c3.72,0,6.74,2.62,6.74,5.83S113.49,71.86,109.77,71.86Zm57.46-8.12-7.12,13.43L153,63.74h-6.35l10.29,19.42L150.68,95h5.86l16.55-31.26Z"/><path class="cls-3" d="M512,43.74V128H314.28V36c0-5.63,4.65-9.41,10.15-10.16L488.26,5a10.11,10.11,0,0,1,10.11,10.11V32.53H330.6c0,7.27,2.15,11.33,10.27,11.33v-.12Z"/></g></g></svg>