<svg xmlns="http://www.w3.org/2000/svg" xmlns:xlink="http://www.w3.org/1999/xlink" viewBox="0 0 512 128"><defs><style>.cls-1{fill:url(#linear-gradient);}.cls-2{fill:#444;}.cls-3{fill:#fff;}</style><linearGradient id="linear-gradient" y1="19.5" x2="512" y2="-108.5" gradientTransform="matrix(1, 0, 0, -1, 0, 19.5)" gradientUnits="userSpaceOnUse"><stop offset="0" stop-color="#434343"/><stop offset="1" stop-color="#333"/></linearGradient></defs><title>Asset 10</title><g id="Layer_2" data-name="Layer 2"><g id="Layer_1-2" data-name="Layer 1"><rect class="cls-1" width="512" height="128"/><path class="cls-2" d="M434,45.23a6.31,6.31,0,1,0,0,.27A2.43,2.43,0,0,0,434,45.23Zm0,0a6.31,6.31,0,1,0,0,.27A2.43,2.43,0,0,0,434,45.23Zm-45.91,14V58.6h-.4A6.31,6.31,0,0,1,388.13,59.25Zm39.37-46.5L362,45.5V71.7H493V45.5ZM479.9,58.6H375.1v-5l52.4-26.2,52.4,26.2Zm-57-17.73A6.55,6.55,0,1,0,434,45.5a2.43,2.43,0,0,0,0-.27,6.54,6.54,0,0,0-11.17-4.36ZM466.8,78.25V124.1h13.1V78.25Zm-32.75,0V124.1h13.1V78.25Zm-26.2,0V124.1H421V78.25Zm-32.75,0V124.1h13.1V78.25Z"/><path class="cls-3" d="M32,88.8H94V95H32ZM38.2,64h6.2V85.7H38.2Zm15.5,0h6.2V85.7H53.7Zm12.4,0h6.2V85.7H66.1Zm15.5,0h6.2V85.7H81.6ZM32,48.5,63,33,94,48.5V60.9H32Zm6.2,3.83V54.7H87.8V52.33L63,39.93ZM63,51.6a3.1,3.1,0,1,1,2.19-.91A3.1,3.1,0,0,1,63,51.6Z"/><path class="cls-3" d="M150.29,47.29v3.55h-9.12v29.9H136.8V50.85h-9.17V47.29ZM160,58.72a8.42,8.42,0,0,1,3.26-3.5A10.3,10.3,0,0,1,168.53,54v4.51h-1.15q-7.34,0-7.34,8v14.3h-4.37V54.45H160Zm11.91,8.78a14.63,14.63,0,0,1,1.63-7.06A11.86,11.86,0,0,1,178,55.69,12.44,12.44,0,0,1,184.42,54a11.67,11.67,0,0,1,6,1.49,9.91,9.91,0,0,1,3.79,3.74v-4.8h4.42v26.3h-4.42v-4.9a10.42,10.42,0,0,1-3.89,3.84,11.57,11.57,0,0,1-6,1.49A11.92,11.92,0,0,1,178,79.45a12.12,12.12,0,0,1-4.46-4.85A15.1,15.1,0,0,1,171.94,67.5Zm22.27,0a10.69,10.69,0,0,0-1.2-5.18A8.26,8.26,0,0,0,189.75,59a8.56,8.56,0,0,0-4.46-1.2A8.84,8.84,0,0,0,180.82,59a8.36,8.36,0,0,0-3.22,3.36,10.69,10.69,0,0,0-1.2,5.18,11.08,11.08,0,0,0,1.2,5.28,8.7,8.7,0,0,0,3.22,3.41,9.22,9.22,0,0,0,8.93,0A8.59,8.59,0,0,0,193,72.78,11,11,0,0,0,194.21,67.55ZM218.82,54a10.61,10.61,0,0,1,7.78,2.93q3,2.88,3,8.35v15.5h-4.32V65.87a8.37,8.37,0,0,0-2-6,7,7,0,0,0-5.38-2.11,7.28,7.28,0,0,0-5.52,2.16q-2,2.16-2,6.29V80.75H206V54.45h4.37v3.74a8.71,8.71,0,0,1,3.5-3.12A11.09,11.09,0,0,1,218.82,54ZM246,81.18a13.89,13.89,0,0,1-5.42-1,9.42,9.42,0,0,1-3.79-2.88A7.78,7.78,0,0,1,235.27,73h4.51a4.45,4.45,0,0,0,1.82,3.22A7.14,7.14,0,0,0,246,77.49a6.32,6.32,0,0,0,3.94-1.1,3.37,3.37,0,0,0,1.44-2.78,2.7,2.7,0,0,0-1.54-2.54,20.56,20.56,0,0,0-4.75-1.68,39.11,39.11,0,0,1-4.8-1.54,9.11,9.11,0,0,1-3.17-2.35,6.31,6.31,0,0,1-1.3-4.13,6.22,6.22,0,0,1,1.2-3.7A8,8,0,0,1,240.41,55a12,12,0,0,1,5-1,10.75,10.75,0,0,1,7.05,2.21,8,8,0,0,1,2.88,6H251A4.48,4.48,0,0,0,249.34,59a6.08,6.08,0,0,0-4-1.25,6.26,6.26,0,0,0-3.74,1,3.12,3.12,0,0,0-1.39,2.64,3,3,0,0,0,.82,2.16,7,7,0,0,0,2.11,1.34q1.3.48,3.55,1.1a34.9,34.9,0,0,1,4.61,1.54,7.64,7.64,0,0,1,3,2.21,5.89,5.89,0,0,1,1.34,3.89,6.66,6.66,0,0,1-1.2,3.89A8.14,8.14,0,0,1,251,80.22,12.18,12.18,0,0,1,246,81.18ZM272.49,58H267v22.7h-4.37V58H259.2v-3.6h3.41V52.57q0-4.42,2.26-6.43t7.34-2.06v3.65q-2.88,0-4.08,1.15a5,5,0,0,0-1.15,3.7v1.87h5.52Zm29.09,8.54a26,26,0,0,1-.14,2.64h-21A8.19,8.19,0,0,0,289,77.49a8.08,8.08,0,0,0,4.71-1.3,7.07,7.07,0,0,0,2.69-3.55h4.7a11.41,11.41,0,0,1-4.22,6.19A12.84,12.84,0,0,1,289,81.18a13.43,13.43,0,0,1-6.72-1.68,12,12,0,0,1-4.61-4.75,16.37,16.37,0,0,1,0-14.35,11.34,11.34,0,0,1,4.56-4.7A13.62,13.62,0,0,1,289,54a13.21,13.21,0,0,1,6.63,1.63A11.1,11.1,0,0,1,300,60.16,13,13,0,0,1,301.59,66.59Zm-4.51-.91A7.92,7.92,0,0,0,296,61.41a6.94,6.94,0,0,0-3-2.74,9,9,0,0,0-4.18-1,8.18,8.18,0,0,0-5.66,2.11,8.64,8.64,0,0,0-2.64,5.86Zm14.64-7a8.43,8.43,0,0,1,3.26-3.5A10.29,10.29,0,0,1,320.22,54v4.51h-1.15q-7.35,0-7.35,8v14.3h-4.37V54.45h4.37Zm43.09,4.8A6.93,6.93,0,0,1,358.12,65a8.4,8.4,0,0,1,2.4,3,8.19,8.19,0,0,1,.91,3.79,8.48,8.48,0,0,1-1.3,4.61,9,9,0,0,1-3.79,3.22,13.52,13.52,0,0,1-5.81,1.15H338.05V47.29h12a13.33,13.33,0,0,1,5.81,1.15,8.07,8.07,0,0,1,3.6,3,8,8,0,0,1,1.2,4.32A7.49,7.49,0,0,1,359,60.73,8.93,8.93,0,0,1,354.81,63.52Zm-12.39-1.78h7.35a7.09,7.09,0,0,0,4.75-1.44,5.56,5.56,0,0,0,0-8,7.25,7.25,0,0,0-4.85-1.44h-7.25Zm7.73,15.41a7.67,7.67,0,0,0,5.09-1.54,5.28,5.28,0,0,0,1.82-4.27A5.36,5.36,0,0,0,355.14,67,7.66,7.66,0,0,0,350,65.34h-7.59V77.15Zm15.71-9.65a14.64,14.64,0,0,1,1.63-7.06A11.86,11.86,0,0,1,372,55.69,12.44,12.44,0,0,1,378.34,54a11.67,11.67,0,0,1,6,1.49,9.91,9.91,0,0,1,3.79,3.74v-4.8h4.42v26.3h-4.42v-4.9a10.41,10.41,0,0,1-3.89,3.84,11.57,11.57,0,0,1-6,1.49A11.92,11.92,0,0,1,372,79.45a12.12,12.12,0,0,1-4.46-4.85A15.1,15.1,0,0,1,365.86,67.5Zm22.27,0a10.69,10.69,0,0,0-1.2-5.18A8.26,8.26,0,0,0,383.67,59a8.57,8.57,0,0,0-4.47-1.2A8.84,8.84,0,0,0,374.74,59a8.37,8.37,0,0,0-3.21,3.36,10.69,10.69,0,0,0-1.2,5.18,11.08,11.08,0,0,0,1.2,5.28,8.71,8.71,0,0,0,3.21,3.41,9.23,9.23,0,0,0,8.93,0,8.59,8.59,0,0,0,3.26-3.41A11,11,0,0,0,388.13,67.55ZM412.75,54a10.61,10.61,0,0,1,7.77,2.93q3,2.88,3,8.35v15.5h-4.32V65.87a8.37,8.37,0,0,0-2-6,7,7,0,0,0-5.37-2.11,7.28,7.28,0,0,0-5.52,2.16q-2,2.16-2,6.29V80.75h-4.37V54.45h4.37v3.74a8.71,8.71,0,0,1,3.51-3.12A11.1,11.1,0,0,1,412.75,54Zm32.58,26.78L435,69.13V80.75h-4.37V45.23H435V66.11l10.13-11.66h6.1l-12.38,13.1,12.43,13.2Z"/></g></g></svg>