<svg width="33" height="33" viewBox="0 0 40 40" fill="none" xmlns="http://www.w3.org/2000/svg">
<path d="M0 0H32C36.4183 0 40 3.58172 40 8V32C40 36.4183 36.4183 40 32 40H0V0Z"/>
<path d="M14.8397 23.6001L13.6396 26.3901L16.4297 25.1901C15.7997 24.7401 15.2597 24.2001 14.8397 23.6001Z" fill="#F9BD00"/>
<path d="M25.1606 16.3999L26.3606 13.6099L23.6006 14.8099C24.2006 15.2599 24.7406 15.7999 25.1606 16.3999Z" fill="#F9BD00"/>
<path d="M13.82 18.8906L11 20.0006L13.82 21.1106C13.73 20.7506 13.7 20.3906 13.7 20.0006C13.7 19.6106 13.73 19.2506 13.82 18.8906Z" fill="#F9BD00"/>
<path d="M26.1807 21.1106L29.0007 20.0006L26.1807 18.8906C26.2407 19.2506 26.3007 19.6406 26.3007 20.0006C26.3007 20.3906 26.2707 20.7506 26.1807 21.1106Z" fill="#F9BD00"/>
<path d="M16.3994 14.8401L13.6094 13.6401L14.8094 16.4302C15.2594 15.8002 15.7994 15.2601 16.3994 14.8401Z" fill="#F9BD00"/>
<path d="M23.6006 25.1603L26.3906 26.3603L25.1906 23.5703C24.7406 24.2003 24.2006 24.7403 23.6006 25.1603Z" fill="#F9BD00"/>
<path d="M21.1106 13.82L20.0006 11L18.8906 13.82C19.2506 13.76 19.6406 13.7 20.0006 13.7C20.3606 13.7 20.7506 13.73 21.1106 13.82Z" fill="#F9BD00"/>
<path d="M18.8906 26.1797L20.0006 28.9997L21.1106 26.1797C20.7506 26.2697 20.3906 26.2997 20.0006 26.2997C19.6106 26.2997 19.2506 26.2697 18.8906 26.1797Z" fill="#F9BD00"/>
<path d="M20.0008 25.6999C23.1489 25.6999 25.7009 23.1479 25.7009 19.9998C25.7009 16.8518 23.1489 14.2998 20.0008 14.2998C16.8528 14.2998 14.3008 16.8518 14.3008 19.9998C14.3008 23.1479 16.8528 25.6999 20.0008 25.6999Z" fill="#F9BD00"/>
</svg>
