<svg xmlns="http://www.w3.org/2000/svg" xmlns:xlink="http://www.w3.org/1999/xlink" viewBox="0 0 512 128"><defs><style>.cls-1{fill:#005faf;}.cls-2{fill:#fff;}.cls-3{fill:none;}.cls-4{fill:url(#linear-gradient);}</style><linearGradient id="linear-gradient" x1="411.39" y1="128" x2="411.39" gradientUnits="userSpaceOnUse"><stop offset="0" stop-color="#005faf"/><stop offset="0.28" stop-color="#006ebf"/><stop offset="0.6" stop-color="#0077c9"/><stop offset="1" stop-color="#007acc"/></linearGradient></defs><title>bca</title><g id="Layer_2" data-name="Layer 2"><g id="Layer_1-2" data-name="Layer 1"><rect class="cls-1" width="512" height="128"/><path class="cls-2" d="M95.69,95.91,97,95.53l-1.45-2Zm-21.63-.34-.25,1.79c.66-.06,1.46.5,1.79-.77C75.56,95.61,74.81,95.55,74.06,95.57Zm10.5,0C84.44,95,84,94.68,83,95l.34,1.84C84.2,96.67,84.63,96.17,84.55,95.53ZM60.84,94l-.41,1.63c.65,0,1.42.56,1.85-.41C62.31,94.65,62.34,94,60.84,94Zm22.82,4.19.3,1.88c.7,0,1.33-.4,1.15-1.28S84.22,98.11,83.66,98.22Z"/><path class="cls-2" d="M183.46,61.89c17.64-8,20.25-34.28-4.84-34.28H149.55L138.81,48.77h5.05L131,99.34h33.69C189.29,99.55,200.35,70.47,183.46,61.89Zm-18.74,19h-8.42l3.16-11.42h8C176.93,71.41,171,81.35,164.71,80.93Zm5.05-24.33h-7.16l2.11-9.94h8C180.45,48.56,173.77,57,169.77,56.6Z"/><path class="cls-2" d="M252.44,54.64l11-19.57-14.93-7.82-1.95,2.41c-8.05-4.28-50.23,1.63-52.87,43.43,1.58,35.06,40.68,28.75,44.52,26.53L249,77.28c-10.53,7-32.1,10.32-33-10.62C217.88,49.39,238.17,42.94,252.44,54.64Zm55.05-27H273.57L262.79,48.14h5.54l-25.56,51.2h24.74L272.59,87h15.19l.38,12.35h22.78Zm-28,42.75,8.31-19.92.38,19.92Z"/><path class="cls-2" d="M111.29,28.58a79.45,79.45,0,0,0-70.82-.5C29.42,47.63,29.06,75,40.47,99.23a78.18,78.18,0,0,0,71,.5C121.44,79.15,123.09,54.4,111.29,28.58ZM73.29,87,72,87c-.33-3.7-1.21-6.82-3.1-9.2C60.18,66.87,42.47,75.09,47,56.53,49.39,47,76.39,41.45,73.29,87ZM47.05,68.64c1.89,3.87,13.75,4.5,17.86,7.47C71.44,80.81,70.51,87,70.51,87H69c-3-9.33-11.54-1.94-18.35-4.46C46.34,81,43.23,74.38,47.05,68.64Zm21.6,30.43L69.29,94l1.15.09-.51,5.59c-.51,2.46-4.17,2.13-4.63-.21l.59-5.81,1.36.21-.59,4.87C66.73,100.34,68.34,100.25,68.65,99.07Zm-6.1,1.39-1.31-.32c.15-1.09,1.44-3.3-1.1-3.3l-.71,2.89L58,99.46l1.53-6.93c3.75.41,4.07,1.46,4.15,2.58-.15.87-.38,1.48-1.13,1.63C63.42,97.54,62.56,99.22,62.55,100.46ZM54.24,92.7a8.68,8.68,0,0,0-1.19,3.5c-.11,1.42,1.24,1.12,1.58,1s.47-1.27.47-1.27l-.95-.32.32-1,2.14.72-1,3.58-.87-.24.08-.56c-1.07.49-3,.12-3.24-1.11a9.12,9.12,0,0,1,1.58-5.4c1.09-1.37,3.73,0,3.8.79a5,5,0,0,1-.26,1.75l-1-.19s.06-.3.15-.77S54.63,92.18,54.24,92.7Zm19.43,5.82-.25,3.07-1.06,0,.38-7.3c2.65.06,4.17.42,4.12,2.31C76.7,99.13,74.63,98.55,73.67,98.52ZM76.31,87H74.54c-.16-6.32,1.05-17.89-2.25-26.4C69.78,54.14,63.44,51.24,62,46c-2.22-8.25,1.56-17.18,14.28-17.86,11,1.14,14.42,9.69,12.54,17.65-3.23,8-6.47,6.82-10.5,14.75C75.06,69.07,76.32,80.21,76.31,87ZM96,98.69l-1.23.43-.38-7.34,1.44-.38,3.57,6.06-1,.64-1.19-1.71-1.36.51ZM81.64,87H80.22c1.17-16.24,21.48-12.71,23.34-18.34,3.21,5.59,2.06,10.3-1.3,12.71C93.93,87.36,85.95,76.91,81.64,87Zm7.54,8.2.64,3.37c.4.78.67.63,1.27.55.71-.51.56-1,.43-1.67l1.23-.17c.32,2.44-.83,2.69-1.7,2.86-1.85.13-2.22-.23-2.72-2.65-.29-2.07-.8-4.25.94-4.65,2.84-.44,2.67.85,2.93,1.75L91,94.81c-.2-.77-.48-1.08-1.1-1A1.14,1.14,0,0,0,89.18,95.19Zm-2.59,3.5c.06,1.06-.3,1.77-1,2l-2.89.6-1.15-7c.59-.1,3.5-1.17,4.21.77a1.93,1.93,0,0,1-.43,2.13A1.91,1.91,0,0,1,86.59,98.69ZM79.17,63.34c6.44-18.21,21.17-15,24.44-6.8C108.08,73,93.67,68.46,84.43,75.2a14.55,14.55,0,0,0-5.35,11.85H77.5C77.4,76.37,77.23,68.81,79.17,63.34Z"/><rect class="cls-3" x="32" y="20" width="279.31" height="88"/><path class="cls-4" d="M344,61.45c-10.81,44.06,31.26,24.54,51.83,50.47,3.47,4.38,5.51,9.79,6.62,16.08h4.24C411.47,26.12,349.55,39.34,344,61.45Zm42.49,46.48c-9.77-7-37.92-8.54-42.42-17.73-9.07,13.61-1.69,29.35,8.47,33C367,128.52,384.73,115,393.45,128h6.16C398.79,122.71,395.89,114.68,386.52,107.93ZM431.31,0h-39c-13,8-16.43,22.64-12.69,36.5C383,48.87,398.06,55.76,404,71.08c6.93,17.84,5.51,41.33,5.33,56.92h4.15c-.43-16.17-2-39,4.93-57,9.56-18.83,17.25-16.11,24.92-35C446.57,22.34,443.27,7.94,431.31,0Zm47,90.2c-4.18,12.67-47.64,5.84-54.6,37.8h5.85c10.7-13.63,27.85,5.23,45.67-7.62C483.16,114.65,485.9,103.47,478.28,90.2Zm.1-28.75c-7.76-19.45-42.74-27.09-58,16.15-4.23,12-4.22,28.13-4,50.4h4.2c1.23-9.4,5.41-16.18,12.32-22.22C454.79,89.78,489,100.48,478.38,61.45Z"/></g></g></svg>