<svg xmlns="http://www.w3.org/2000/svg" viewBox="0 0 512 128"><defs><style>.cls-1{fill:#f2f2f2;}.cls-2{fill:#f15a23;}.cls-3{fill:#005e6a;}.cls-4{fill:#d8d8d8;}</style></defs><title>bni</title><g id="Layer_2" data-name="Layer 2"><g id="Layer_1-2" data-name="Layer 1"><rect class="cls-1" width="512" height="128"/><path class="cls-2" d="M30,50.61l25.4,32-25.4,21Z"/><path class="cls-2" d="M40.22,103.69l19.11-16,13.21,16Z"/><path class="cls-2" d="M30,33.47l6.63,8.38,27.25,34,8.83-7A109.45,109.45,0,0,1,60.45,50.61c-9.62-18.83-2.81-30.55-2.81-30.55H30Z"/><path class="cls-2" d="M67.76,81.16l9-7.43S85.34,85,95.3,87.71c13.05,3.5,18.83-5.06,18.83-5.06v21H85.46l6.46-5.59s-3.37,2.25-11.62-3.46C75.44,91.27,67.76,81.16,67.76,81.16Z"/><path class="cls-2" d="M68.59,20s-2.87,3.91-.83,13.47c2.18,10.22,10.86,21,10.84,20.8,0,0,.56-10.74,6.86-17a24.92,24.92,0,0,1,28.66-5.44V20.06Z"/><path class="cls-2" d="M114.12,45.95s-8.5-7.28-15.88-7.28A14.62,14.62,0,0,0,83.63,52.75c0,8.62,4.14,13.41,8.29,17.56,6,6,13.23,12.4,22.2,7.22Z"/><path class="cls-3" d="M210.89,20.88h20s17.76,26.89,26.49,38,18.12,23.77,18.12,23.77V26.9c0-2.41-6.32-6-6.32-6h23.12s-7.59,3.12-7.59,6V108s-7.28-4-15.53-13.63C260,83.59,227,40.09,227,40.09V96.44c0,2.89,6.32,7.25,6.32,7.25h-22.4s6.14-4.4,6.14-7.25V26.9C217,24.34,210.89,20.88,210.89,20.88Z"/><path class="cls-3" d="M305.3,20.88H331s-6.91,3.27-6.91,6V96.44c0,3,6.91,7.25,6.91,7.25H305.3s6.43-4.34,6.43-7.25V26.9C311.73,24.26,305.3,20.88,305.3,20.88Z"/><path class="cls-3" d="M135.18,20.88s6.67,3.33,6.67,6V96.44c0,3-6.67,7.25-6.67,7.25H173.3c2.38,0,29.07-4.36,29.07-24.94s-20.73-22.5-20.73-22.5,12.63-3.51,12.63-17.59c0-15.17-18.58-17.79-21-17.79Zm20.25,34V29h15.49c2.38,0,10.72,2.78,10.72,13.1,0,8.51-8.34,12.79-10.72,12.79Zm0,6.79H173.3c2.38,0,16.44,3.65,16.44,15.85,0,12.43-14.06,16.84-16.44,16.84H155.43Z"/><path class="cls-4" d="M384,46.57l38.64,48.74-38.64,32Z"/><path class="cls-4" d="M399.55,127.33,428.62,103l20.1,24.32Z"/><path class="cls-4" d="M384,20.49l10.08,12.75,41.46,51.8L449,74.36s-11.15-13.13-18.64-27.78C415.69,17.93,426.06.09,426.06.09H384Z"/><path class="cls-4" d="M441.45,93.05l13.68-11.3S468.2,99,483.35,103c19.85,5.32,28.65-7.7,28.65-7.7v32H468.38l9.83-8.5s-5.13,3.42-17.68-5.27C453.13,108.43,441.45,93.05,441.45,93.05Z"/><path class="cls-4" d="M442.71,0s-4.36,5.95-1.26,20.49C444.78,36,458,52.5,458,52.13c0,0,.85-16.34,10.44-25.93C488.83,5.76,512,17.93,512,17.93V.09Z"/><path class="cls-4" d="M512,39.48S499.06,28.4,487.82,28.4c-14.38,0-22.22,12.41-22.22,21.42,0,13.11,6.29,20.4,12.61,26.72,9.08,9.08,20.13,18.87,33.78,11Z"/></g></g></svg>