<svg xmlns="http://www.w3.org/2000/svg" xmlns:xlink="http://www.w3.org/1999/xlink" viewBox="0 0 512 128"><defs><style>.cls-1{fill:#898989;}.cls-2{fill:url(#linear-gradient);}.cls-3{font-size:38.72px;fill:#fff;font-family:LEMONMILK-Regular, LEMON MILK;}.cls-4{fill:#faa61a;}.cls-5{fill:#00579f;}.cls-6{fill:#ff5f00;}.cls-7{fill:#f79e1b;}</style><linearGradient id="linear-gradient" x1="256" x2="256" y2="128" gradientUnits="userSpaceOnUse"><stop offset="0" stop-color="#898989"/><stop offset="0.29" stop-color="#878787"/><stop offset="0.46" stop-color="#7e7e7e"/><stop offset="0.59" stop-color="#707070"/><stop offset="0.71" stop-color="#5d5d5d"/><stop offset="0.81" stop-color="#434343"/><stop offset="0.91" stop-color="#242424"/><stop offset="1"/></linearGradient></defs><title>Asset 21</title><g id="Layer_2" data-name="Layer 2"><g id="Layer_1-2" data-name="Layer 1"><rect class="cls-1" width="512" height="128"/><path class="cls-2" d="M512,0V128H0v-8c16.43-19.12,58.23-28,161-28C407,92,409.14,42.54,443,0Z"/><text class="cls-3" transform="translate(31.81 76.11)">Credit Card</text><polygon class="cls-4" points="512 128 512 0 508.45 0 452 128 512 128"/><polygon class="cls-5" points="512 128 512 0 508.45 0 481.72 128 512 128"/><polygon class="cls-6" points="512 0 512 128 508.45 128 452 0 512 0"/><polygon class="cls-7" points="512 0 512 128 508.45 128 481.72 0 512 0"/></g></g></svg>