<svg xmlns="http://www.w3.org/2000/svg" xmlns:xlink="http://www.w3.org/1999/xlink" viewBox="0 0 512 128"><defs><style>.cls-1{fill:#ececec;}.cls-2{fill:#ccc;}.cls-3{font-size:38.72px;fill:#333;font-family:LEMONMILK-Regular, LEMON MILK;}.cls-4{fill:url(#linear-gradient);}.cls-5{fill:#ff5f00;}.cls-6{fill:#eb001b;}.cls-7{fill:#f79e1b;}.cls-8{fill:#00579f;}.cls-9{fill:#faa61a;}.cls-10{fill:url(#linear-gradient-2);}</style><linearGradient id="linear-gradient" x1="418.47" y1="128" x2="418.47" gradientUnits="userSpaceOnUse"><stop offset="0" stop-color="#fff"/><stop offset="1" stop-color="#ececec"/></linearGradient><linearGradient id="linear-gradient-2" x1="367.46" y1="64" x2="512" y2="64" gradientUnits="userSpaceOnUse"><stop offset="0" stop-color="#ccc"/><stop offset="1" stop-color="#f4f4f4"/></linearGradient></defs><title>credit card</title><g id="Layer_2" data-name="Layer 2"><g id="Layer_1-2" data-name="Layer 1"><rect class="cls-1" width="512" height="128"/><path class="cls-2" d="M379.08,128H367.15q-.15-4.26-.15-9c0-51.72-30.71-100.37-44-119h1.93c11.5,11.37,30.39,33.1,42.52,63,.27.66.54,1.33.79,2A152.92,152.92,0,0,1,379,121Q379,124.64,379.08,128Z"/><text class="cls-3" transform="translate(31.81 76.11)">Credit Card</text><path class="cls-4" d="M512,0V128H379.08q-.07-3.36-.08-7a152.92,152.92,0,0,0-10.75-56c-.25-.67-.52-1.34-.79-2-12.13-29.9-31-51.63-42.52-63Z"/><path class="cls-5" d="M460.9,77.53H440.51v36.64H460.9Z"/><path class="cls-6" d="M441.8,95.85a23.36,23.36,0,0,1,8.87-18.32,23.3,23.3,0,1,0,0,36.64A23.27,23.27,0,0,1,441.8,95.85Z"/><path class="cls-7" d="M488.41,95.85a23.28,23.28,0,0,1-37.67,18.32,23.35,23.35,0,0,0,0-36.64,23.28,23.28,0,0,1,37.67,18.32Z"/><path class="cls-8" d="M428.88,52.36h-8.51l5.32-32.91h8.51Z"/><path class="cls-8" d="M459.73,20.25a21,21,0,0,0-7.63-1.4c-8.4,0-14.32,4.48-14.36,10.89-.07,4.73,4.24,7.35,7.46,8.93s4.41,2.66,4.41,4.1c0,2.2-2.66,3.22-5.11,3.22a16.94,16.94,0,0,1-8-1.75l-1.12-.53L434.2,51.1a25.9,25.9,0,0,0,9.49,1.75c8.93,0,14.74-4.41,14.81-11.24,0-3.75-2.24-6.62-7.14-9-3-1.51-4.8-2.52-4.8-4.06s1.54-2.84,4.9-2.84A14.46,14.46,0,0,1,457.8,27l.77.35Z"/><path class="cls-8" d="M471,40.7l3.4-9.21c0,.07.7-1.93,1.12-3.15l.59,2.84s1.61,7.88,2,9.52Zm10.5-21.25H475c-2,0-3.57.59-4.45,2.73L457.87,52.36h8.93l1.79-4.94h10.93c.24,1.16,1,4.94,1,4.94h7.88Z"/><path class="cls-8" d="M413.26,19.45l-8.33,22.44L404,37.34c-1.54-5.25-6.37-11-11.77-13.8l7.63,28.78h9l13.38-32.88Z"/><path class="cls-9" d="M397.18,19.45H383.49l-.14.67C394,22.84,401.11,29.43,404,37.34l-3-15.13C400.55,20.11,399,19.51,397.18,19.45Z"/><path class="cls-10" d="M512,63v2H368.25c-.25-.67-.52-1.34-.79-2Z"/></g></g></svg>