<svg xmlns="http://www.w3.org/2000/svg" xmlns:xlink="http://www.w3.org/1999/xlink" viewBox="0 0 512 128"><defs><style>.cls-1{fill:#043e6e;}.cls-2{fill:none;}.cls-3{fill:url(#linear-gradient);}.cls-4{fill:#fff;}.cls-5{fill:#fdd213;}</style><linearGradient id="linear-gradient" x1="146.63" y1="64" x2="512" y2="64" gradientUnits="userSpaceOnUse"><stop offset="0" stop-color="#043e6e"/><stop offset="0.23" stop-color="#054a78"/><stop offset="0.57" stop-color="#075481"/><stop offset="1" stop-color="#075784"/></linearGradient></defs><title>mandiri</title><g id="Layer_2" data-name="Layer 2"><g id="Layer_1-2" data-name="Layer 1"><rect class="cls-1" width="512" height="128"/><rect class="cls-2" x="30" y="20" width="301.82" height="88"/><path class="cls-3" d="M512,56.54V75c-13.78-12.67-36.35-21.2-71.73-1.77l-.12.06L385,105.3c-5.3,3-8.95,4.7-14.31,4.81-9.73.24-17.9-4.84-23.08-12.69l-1.2-2c-.11-.2-.19-.39-.33-.6l0,0c-.33-.51-.63-1.09-1-1.62-10.62-17-34.65-42.61-83.35-15.85-.22.1-57.18,33.12-57.18,33.12-20.63,9.37-34-1.74-41.07-8.51L146.63,81.22l32.6-18.64v0s44.54-25.5,63.69-36.44C274.6,11,293.61,19.48,305.49,31.5a65.61,65.61,0,0,1,5,5.75c1.61,2.09,3.12,4.27,4.53,6.51l3.12,5.11.6,1a6.44,6.44,0,0,0,.54.82c4.6,6.82,18.77,16.11,37.28,8.48,0,0,49.28-28.19,64.4-37,32-15.37,51.06-6.91,63,5.18a59.66,59.66,0,0,1,5,5.75,95.68,95.68,0,0,1,7,10.49l1.25,2.16a15,15,0,0,0,1.38,2A28.26,28.26,0,0,0,512,56.54Z"/><path class="cls-4" d="M30.35,80.47c0-4.37-.08-8-.31-11.3H38.3l.39,5.62h.23A13.12,13.12,0,0,1,50.6,68.31a10.94,10.94,0,0,1,10.51,7h.16a14.33,14.33,0,0,1,4.67-4.75,12.65,12.65,0,0,1,7.64-2.27c6.31,0,12.69,4.29,12.69,16.46v22.37H76.92v-21c0-6.31-2.18-10.06-6.78-10.06a7.31,7.31,0,0,0-6.7,5.08A13.76,13.76,0,0,0,63,84.37v22.78H53.64v-22c0-5.29-2.1-9-6.54-9-3.57,0-6,2.81-6.86,5.46a8.33,8.33,0,0,0-.54,3.12v22.46H30.35ZM122.68,98a61.74,61.74,0,0,0,.54,9.12h-8.64l-.62-4.21h-.24A14.07,14.07,0,0,1,102.51,108c-7.64,0-11.92-5.53-11.92-11.3,0-9.6,8.48-14.43,22.51-14.35v-.62c0-2.5-1-6.63-7.72-6.63a20.11,20.11,0,0,0-10.2,2.81l-1.87-6.24A27.26,27.26,0,0,1,107,68.3c12.15,0,15.66,7.73,15.66,16Zm-9.35-9.43c-6.78-.16-13.24,1.32-13.24,7.09,0,3.74,2.42,5.46,5.45,5.46A7.77,7.77,0,0,0,113,95.91a7,7,0,0,0,.31-2.1V88.59Zm16-8.12c0-4.37-.08-8-.3-11.3h8.4l.46,5.7h.24a13.66,13.66,0,0,1,12.07-6.56c6.62,0,13.47,4.29,13.47,16.3v22.53h-9.58V85.7c0-5.46-2-9.6-7.24-9.6a8,8,0,0,0-7.48,5.62,9.74,9.74,0,0,0-.39,3.11v22.31h-9.66Zm75.87-26.56V96.46c0,3.9.16,8.12.31,10.68h-8.56l-.39-6h-.16c-2.25,4.21-6.85,6.86-12.38,6.86-9,0-16.2-7.72-16.2-19.41-.08-12.71,7.86-20.28,17-20.28,5.22,0,9,2.18,10.67,5h.16V53.92h9.57ZM195.6,85a13.28,13.28,0,0,0-.24-2.5,8.39,8.39,0,0,0-8.25-6.78c-6.15,0-9.58,5.46-9.58,12.55,0,6.93,3.43,12,9.51,12a8.45,8.45,0,0,0,8.25-6.79,10.59,10.59,0,0,0,.32-2.81V85Zm16.35,22.15v-38h9.66v38Zm16.43-25.73c0-5.14-.07-8.81-.3-12.24h8.33l.31,7.25H237a10.43,10.43,0,0,1,10.36-7.25,10.56,10.56,0,0,1,2.25,0V77.6a13.22,13.22,0,0,0-2.8-.31c-4.6,0-7.72,3-8.57,7.25a17.3,17.3,0,0,0-.31,3v19.64h-9.58Zm25.71,25.73v-38h9.65v38Z"/><path class="cls-5" d="M323.85,29c-4.78-5.46-9.87-3-13.9-1-1.7.84-14,7.8-14,7.8-6.72,2.77-12-.25-14-2.8a6.06,6.06,0,0,1-.53-.77l-.48-.83a37.34,37.34,0,0,0-2.69-4,22.78,22.78,0,0,0-1.93-2.21c-4.6-4.65-11.95-7.9-24.23-2-5.81,3.37-24.76,14.21-24.76,14.21-7.12,2.93-12.56-.64-14.33-3.26a1.91,1.91,0,0,1-.21-.32l-.23-.4-1.2-2q-.81-1.29-1.74-2.5a25.21,25.21,0,0,0-1.94-2.21c-4.57-4.62-11.88-7.87-24.05-2.07l-24.48,14h0l-12.53,7.17,6.48,8c2.73,2.6,7.86,6.87,15.79,3.27,0,0,21.9-12.7,22-12.73,18.72-10.29,28-.46,32,6.09.14.2.26.43.38.62h0c.05.08.08.15.13.23l.46.76A10.24,10.24,0,0,0,232.78,57c2.06,0,3.46-.72,5.5-1.85l21.19-12.3,0,0c19-10.41,28.35.06,32.36,6.61a15.66,15.66,0,0,0,1,1.61,9.72,9.72,0,0,0,8.21,4.38,12.44,12.44,0,0,0,5.26-1.68L331.78,39A105.18,105.18,0,0,0,323.85,29Z"/></g></g></svg>