<svg xmlns="http://www.w3.org/2000/svg" viewBox="0 0 512 128"><defs><style>.cls-1{fill:#ececec;}.cls-2{fill:#ff5f00;}.cls-3{fill:#eb001b;}.cls-4{fill:#f79e1b;}</style></defs><title>mastercard</title><g id="Layer_2" data-name="Layer 2"><g id="Layer_1-2" data-name="Layer 1"><rect class="cls-1" width="512" height="128"/><path class="cls-2" d="M104,36.45H73.37v55.1H104Z"/><path class="cls-3" d="M75.32,64A35.14,35.14,0,0,1,88.65,36.45a35,35,0,1,0,0,55.1A35,35,0,0,1,75.32,64Z"/><path class="cls-4" d="M145.41,64A35,35,0,0,1,88.75,91.55a35.12,35.12,0,0,0,0-55.1A35,35,0,0,1,145.41,64Z"/><path d="M197.41,79.53V65.41c0-5.41-3.29-8.94-8.94-8.94a9.28,9.28,0,0,0-8,4,8.23,8.23,0,0,0-7.53-4,7.6,7.6,0,0,0-6.59,3.29V56.94h-4.94V79.53h4.94V67.06c0-4,2.12-5.88,5.41-5.88s4.94,2.12,4.94,5.88V79.53h4.94V67.06c0-4,2.35-5.88,5.41-5.88,3.29,0,4.94,2.12,4.94,5.88V79.53Zm73.18-22.59h-8V50.12h-4.94v6.82h-4.47v4.47h4.47V71.77c0,5.18,2.12,8.23,7.77,8.23a13.16,13.16,0,0,0,6.12-1.65l-1.41-4.23a7.75,7.75,0,0,1-4.24,1.18c-2.35,0-3.29-1.41-3.29-3.77V61.41h8Zm41.88-.47a6.63,6.63,0,0,0-5.88,3.29V56.94h-4.94V79.53h4.94V66.82c0-3.77,1.65-5.88,4.71-5.88a13.81,13.81,0,0,1,3.06.47l1.41-4.71A15.57,15.57,0,0,0,312.47,56.47Zm-63.3,2.35c-2.35-1.65-5.65-2.35-9.18-2.35-5.65,0-9.41,2.82-9.41,7.29,0,3.77,2.82,5.88,7.76,6.59l2.35.24c2.59.47,4,1.18,4,2.35,0,1.65-1.88,2.82-5.18,2.82A13,13,0,0,1,232,73.41l-2.35,3.76A16.63,16.63,0,0,0,239.29,80c6.59,0,10.35-3.06,10.35-7.29,0-4-3.06-6.12-7.76-6.82l-2.35-.23c-2.12-.24-3.76-.71-3.76-2.12,0-1.65,1.65-2.59,4.23-2.59a17,17,0,0,1,7.06,1.88Zm131.3-2.35a6.63,6.63,0,0,0-5.88,3.29V56.94h-4.94V79.53h4.94V66.82c0-3.77,1.65-5.88,4.71-5.88a13.81,13.81,0,0,1,3.06.47l1.41-4.71A15.58,15.58,0,0,0,380.47,56.47ZM317.41,68.23c0,6.82,4.71,11.77,12,11.77a11.71,11.71,0,0,0,8-2.59l-2.35-4a9.51,9.51,0,0,1-5.88,2.12c-4,0-6.82-2.82-6.82-7.29a6.94,6.94,0,0,1,6.82-7.29,9.51,9.51,0,0,1,5.88,2.12l2.35-4a11.71,11.71,0,0,0-8-2.59C322.12,56.47,317.41,61.41,317.41,68.23Zm45.65,0V56.94h-4.94v2.82a8.5,8.5,0,0,0-7.06-3.29c-6.35,0-11.29,4.94-11.29,11.76S344.71,80,351.06,80c3.29,0,5.65-1.18,7.06-3.29v2.82h4.94Zm-18.12,0c0-4,2.59-7.29,6.82-7.29,4,0,6.82,3.06,6.82,7.29,0,4-2.82,7.29-6.82,7.29A6.93,6.93,0,0,1,344.94,68.23ZM285.88,56.47c-6.59,0-11.29,4.71-11.29,11.76S279.29,80,286.12,80a14.39,14.39,0,0,0,9.18-3.06l-2.35-3.53a11.25,11.25,0,0,1-6.59,2.35c-3.06,0-6.12-1.41-6.82-5.41h16.71V68.47C296.47,61.18,292.23,56.47,285.88,56.47Zm0,4.23c3.06,0,5.18,1.88,5.65,5.41H279.76A6,6,0,0,1,285.88,60.71Zm122.59,7.53V48h-4.94V59.76a8.5,8.5,0,0,0-7.06-3.29c-6.35,0-11.29,4.94-11.29,11.76S390.12,80,396.47,80c3.29,0,5.65-1.18,7.06-3.29v2.82h4.94Zm-18.12,0c0-4,2.59-7.29,6.82-7.29,4,0,6.82,3.06,6.82,7.29,0,4-2.82,7.29-6.82,7.29A6.93,6.93,0,0,1,390.35,68.23Zm-165.18,0V56.94h-4.94v2.82a8.5,8.5,0,0,0-7.06-3.29c-6.35,0-11.29,4.94-11.29,11.76S206.82,80,213.17,80c3.29,0,5.65-1.18,7.06-3.29v2.82h4.94Zm-18.35,0c0-4,2.59-7.29,6.82-7.29,4,0,6.82,3.06,6.82,7.29,0,4-2.82,7.29-6.82,7.29A6.93,6.93,0,0,1,206.82,68.23Z"/><polygon class="cls-3" points="512 0 479.06 64 446.11 0 512 0"/><polygon class="cls-2" points="512 0 512 128 479.06 64 512 0"/><polygon class="cls-4" points="512 128 446.11 128 479.06 64 512 128"/></g></g></svg>