<svg xmlns="http://www.w3.org/2000/svg" xmlns:xlink="http://www.w3.org/1999/xlink" viewBox="0 0 512 128"><defs><style>.cls-1{fill:#ffc600;}.cls-2{fill:url(#linear-gradient);}.cls-3{fill:url(#linear-gradient-2);}.cls-4{fill:url(#linear-gradient-3);}.cls-5{fill:url(#linear-gradient-4);}.cls-6{fill:url(#linear-gradient-5);}.cls-7{fill:url(#linear-gradient-6);}.cls-8{fill:url(#linear-gradient-7);}.cls-9{fill:url(#linear-gradient-8);}.cls-10{fill:url(#linear-gradient-9);}.cls-11{fill:url(#linear-gradient-10);}.cls-12{fill:url(#linear-gradient-11);}.cls-13{fill:url(#linear-gradient-12);}</style><linearGradient id="linear-gradient" x1="437" y1="128" x2="437" gradientUnits="userSpaceOnUse"><stop offset="0" stop-color="#ffc600"/><stop offset="1" stop-color="#f79e1b"/></linearGradient><linearGradient id="linear-gradient-2" x1="408.14" y1="71.28" x2="408.14" y2="56.39" xlink:href="#linear-gradient"/><linearGradient id="linear-gradient-3" x1="406.63" y1="59.76" x2="406.63" y2="50.71" xlink:href="#linear-gradient"/><linearGradient id="linear-gradient-4" x1="411.41" y1="76.73" x2="411.41" y2="62.71" xlink:href="#linear-gradient"/><linearGradient id="linear-gradient-5" x1="467.41" y1="91.28" x2="467.41" y2="25.2" xlink:href="#linear-gradient"/><linearGradient id="linear-gradient-6" x1="433.4" y1="25.07" x2="433.4" y2="13.55" xlink:href="#linear-gradient"/><linearGradient id="linear-gradient-7" x1="439.12" y1="47.32" x2="439.12" y2="12.46" xlink:href="#linear-gradient"/><linearGradient id="linear-gradient-8" x1="464.35" y1="23.01" x2="464.35" y2="6.06" xlink:href="#linear-gradient"/><linearGradient id="linear-gradient-9" x1="422.29" y1="53.45" x2="422.29" xlink:href="#linear-gradient"/><linearGradient id="linear-gradient-10" x1="488.73" y1="50.42" x2="488.73" xlink:href="#linear-gradient"/><linearGradient id="linear-gradient-11" x1="436.58" y1="81.82" x2="436.58" y2="29.39" xlink:href="#linear-gradient"/><linearGradient id="linear-gradient-12" x1="445.48" x2="445.48" y2="34.77" xlink:href="#linear-gradient"/></defs><title>maybank</title><g id="Layer_2" data-name="Layer 2"><g id="Layer_1-2" data-name="Layer 1"><rect class="cls-1" width="512" height="128"/><path class="cls-2" d="M369.4,64A81.73,81.73,0,0,1,400.31,0H389a89.33,89.33,0,0,0,0,128h11.3A81.73,81.73,0,0,1,369.4,64Zm132.28,64H512v-9.57A82.82,82.82,0,0,1,501.68,128Zm.51-128A81.56,81.56,0,0,1,512,9.23V0Z"/><path class="cls-3" d="M415.48,59.76c-6.3-1.09-11.52,6.31-14.67,11.52C401.9,62.91,411.35,50.3,415.48,59.76Z"/><path class="cls-4" d="M401.9,59.76c2.06-7.4,7.4-10.55,9.46-8.37C407.11,53.45,404,55.63,401.9,59.76Z"/><path class="cls-5" d="M417.67,71.4c3.15-3.15,3.15-6.31-2.06-8.37S404.09,69.34,403,76.73C406.15,72.37,415.49,65.09,417.67,71.4Z"/><path class="cls-6" d="M469.08,91.28c1.09-9.46-8.37-14.67-10.55-24.13s14.67-25.22,4.24-42C482.78,41,467,50.42,476.47,63a16.31,16.31,0,0,1-8.37-6.31C462.77,64,481.69,73.46,469.08,91.28Z"/><path class="cls-7" d="M437.56,13.55c2.06,0,6.3,2.06,5.21,3.15-5.21,5.21-12.61,3.15-18.92,8.37C426,18.89,436.59,17.8,437.56,13.55Z"/><path class="cls-8" d="M431.24,34.53c-1.09,0-1.09-1.09-1.09-2.06,1.09,2.06,3.15,1.09,2.06-2.06h4.25C433.43,31.38,432.34,34.53,431.24,34.53Zm24.13-14.67c2.06-2.06,0-6.31-9.46-7.4,9.46,4.24-6.31,5.21-6.31,13.7-5.21,2.06-9.46-1.09-11.52,1.09s-5.21,1.09-4.24-2.06c-2.06,1.09-2.06,3.15-1.09,5.21,0,1.09,1.09,1.09,2.06,2.06l1.09,1.09c-3.15,3.15-4.24,5.21-1.09,8.37A29.93,29.93,0,0,1,430,35.62c2.06,1.09,5.21,0,9.46-4.24-3.15,12.61-12.61,13.7-15.76,13.7,2.06,2.06,13.7,4.24,14.67-1.09,3.15-11.52,14.67-16.86,5.21-16.86C443.86,25.2,453.31,22,455.38,19.86Z"/><path class="cls-9" d="M459.62,14.65A23.85,23.85,0,0,1,469.08,23c1.09-6.31-2.06-12.61-6.31-16.86C461.68,5.19,458.53,11.49,459.62,14.65Z"/><path class="cls-10" d="M453,0h5.44a40.94,40.94,0,0,0-2,8.46c0,2.06-3.16,4.25-5.22,4.25,1.09-1.1,1.09-2.07,1.09-4.25a46,46,0,0,0-20,7.4c-12.61,5.21-15.76,8.37-18.91,17.82-11.52,4-19.89,11.4-27.29,19.77,4.25-10.55,12.61-18.92,22.07-24.13,3.16-7.4,2.06-11.52,30.44-23A57,57,0,0,0,439.71,0h6.6a14.58,14.58,0,0,1,2.76,3.13h3.15C452.49,2.08,452.75,1,453,0Z"/><path class="cls-11" d="M505.82,50.42c-2.06-10.55-8.37-18.92-16.86-23,3.16,11.52-10.55,7.4-15.76-1.09,1.09,1.09,2.06,1.09,4.24,0A42,42,0,0,0,468.5,0h9.61c2.28,2.27,4.5,4.72,6.73,7.37,9.46,3.15,17.83,9.46,24.13,16.86-3.15-2.07-7.4-3.16-11.52-4.25C505.82,27.38,509,40,505.82,50.42Z"/><path class="cls-12" d="M449.19,51.39a26.85,26.85,0,0,1,0,30.44c2.06-11.52-5.21-34.68-12.61-23,4.24,1.09,7.4,6.31,6.31,11.52-2.06-5.21-8.37-7.4-13.7-6.31a8.4,8.4,0,0,1-9.46-3.15c-3.15-5.21,2.06-11.52-8.37-11.52C424,43,420.82,55.63,426,56.72s8.37-3.15,10.55-5.21A6.76,6.76,0,0,1,446,49.45c2.06-5.21-1.09-14.67,4.24-18.92,3.15-2.06,8.37-1.09,11.52,1.09C457.56,31.38,452.22,36.72,449.19,51.39Z"/><path class="cls-13" d="M412.83,86.59a21.21,21.21,0,0,0,.19,2.72.9.9,0,0,0,.51-.21A19,19,0,0,1,412.83,86.59Zm98.32-1.49c1.09-8.37-6.3-20-3.15-33.59-13.7,12.61,7.39,45.11-23,66.09,4.24-10.55,6.3-21,5.21-32.5a8.56,8.56,0,0,1,4.25,4.24c3.15-10.55,2.06-22.07-2.06-32.5,2.06,0,5.21,2.07,6.3,3.16C499.75,41.08,486,40,482.9,34.77c0,5.22,6.3,9.46,7.39,16.86-3.15-2.06-7.39-2.06-10.55-2.06,7.4,8.37,10.55,18.92,8.37,29.34-3.15-2.06-6.31-4.24-9.46-4.24A32.54,32.54,0,0,1,479.74,104a20.68,20.68,0,0,0-2.06-8.37c-2.06,7.4-7.4,12.61-14.67,13.7,5.21-4.24,5.21-12.61,1.09-16.85-1.09-1.1-3.15-2.07-4.24-3.16-8.37-3.15-17.83,2.06-22.07,21-5.22,2.06-23-2.06-12.62-12.61,6.31,2.06,22.07-8.37,21-15.76-2.06-8.37-9.46-14.68-18.91-13.71a18.09,18.09,0,0,0-9,2.6h0a5,5,0,0,0-.6.33c-4.75,2.83-8.88,7-13.39,9.67-6.31-1.09-8.37-2.06-11.52-10.55,0-5.21,5.21-8.36,5.21-13.7-4.24,1.09-5.21-6.3-14.67,1.09-1-1-.09-4,0-4.22A17.62,17.62,0,0,0,379,60.85c2.07,3.15,4.25,6.3,8.37,8.36C392.56,82.92,397.89,85,403.11,85a19.33,19.33,0,0,0,10.54,7.39,28.28,28.28,0,0,1-.63-3.06c-1.58.17-4.82-2.62-4.82-5.42a14,14,0,0,1,4.24-3.16,27.86,27.86,0,0,0,.39,5.84,21.75,21.75,0,0,1,.82-5.72c11.52-11.52,20-4.24,21-1.09-9.46,2.06-3.15,23-18.91,13.71,0,3.15,0,7.39,2.06,10.55,2.06,14.67,20,10.55,25.22,13.7-1.09-13.7,7.4-24.13,13.7-23s8.37,11.52-3.15,22.07c7.4,1.09,14.67-1.09,21-5.22A43.2,43.2,0,0,1,469,128h12.38A70.65,70.65,0,0,0,512,99.28V82.92C511.73,83.65,511.44,84.38,511.15,85.1ZM391.34,68.24l-6.3-6.3c1.09-1.09,3.15-3.16,5.21-3.16s3.15,1.1,2.06,1.1-2.06,0-2.06,2.06,1.09,3.15,2.06,4.24C393.52,66.06,392.43,68.24,391.34,68.24Zm42.08,19.89c1.09,0,2.06,1.09,3.15,0s0-4.24-1.09-5.21c1.09,0,5.22,0,5.22,2.06,0,4.24-3.16,5.21-9.46,8.37C432.33,92.37,432.33,90.19,433.42,88.13Zm-12.61,13.7a7.86,7.86,0,0,1-2.06-5.21A7.86,7.86,0,0,0,424,98.68C422.87,100.74,421.78,101.83,420.81,101.83Z"/><path d="M276.75,55.38c-1.47,0-2.44.51-3.91.51V74a8,8,0,0,0,3.46.51c4.94,0,8.34-3.46,8.34-9.82S281.68,55.38,276.75,55.38Zm-1.47,27.52a51.73,51.73,0,0,1-15.21-2.44V32.34h12.26V48.51a27.88,27.88,0,0,1,6.41-1c10.78,0,17.7,5.9,17.7,16.23C296.89,77,289.51,82.89,275.27,82.89Z"/><path d="M322,66.21c-6.86.51-11.8,1-11.8,4.94,0,3,3,4.43,7.38,4.43a13.15,13.15,0,0,0,4.43-.51Zm-3.91,16.23c-12.77,0-19.18-3.91-19.18-11.29,0-8.85,11.29-11.29,23.6-11.8V57.87c0-3-2.44-3.91-6.41-3.91a47.17,47.17,0,0,0-11.8,2l-3-6.87a46.53,46.53,0,0,1,16.23-3c11.29,0,16.68,3.91,16.68,12.77V79.55A32.71,32.71,0,0,1,318.05,82.44Z"/><path d="M361.29,81.93V59.8c0-3-1.47-4.94-5.9-4.94a15.49,15.49,0,0,0-4.43,1v26H338.71V49.48a50,50,0,0,1,17.19-3c12.77,0,18.67,4.43,18.67,11.8v23.6Z"/><path d="M404,81.93,391.25,65.25V81.93H378.93V32.34h12.31V62.75l11.29-14.7h14.24L404,63.77l13.73,18.16Z"/><path d="M236.46,95.66H223.7l5.9-13.73L214.39,48.06h13.73L236,72.11l8.34-24.06h13.73Z"/><path d="M171.67,36.26H156.92l-9.36,28.48-9.82-28.48H123l-6.35,45.67h11.8l3.92-31.43,11.29,31.43h7.89L162.31,50.5l3.91,31.43H178Z"/><path d="M203.1,66.21c-6.87.51-11.8,1-11.8,4.94,0,3,3,4.43,7.38,4.43a13.15,13.15,0,0,0,4.43-.51Zm-4,16.23c-12.77,0-19.18-3.91-19.18-11.29,0-8.85,11.29-11.29,23.6-11.8V57.87c0-3-2.44-3.91-6.41-3.91a47.17,47.17,0,0,0-11.8,2L182.45,49a94.81,94.81,0,0,1,16.23-3c11.29,0,16.68,3.91,16.68,12.77V79.49A32.25,32.25,0,0,1,199.13,82.44Z"/><path class="cls-1" d="M101,64A33,33,0,1,1,68,31,33.07,33.07,0,0,1,101,64Z"/><path d="M68,97a33,33,0,1,1,33-33C101,82.2,86.2,96.62,68,97Zm0-69a36,36,0,1,0,36,36A36,36,0,0,0,68,28Z"/><path d="M53.57,62.29c-2.54-.44-4.65,2.54-5.92,4.65C48.09,63.56,51.91,58.47,53.57,62.29Z"/><path d="M48.09,62.29c.83-3,3-4.26,3.82-3.37A7.4,7.4,0,0,0,48.09,62.29Z"/><path d="M54.45,67c1.27-1.27,1.27-2.54-.83-3.37S49,66.15,48.54,69.14C49.81,67.37,53.57,64.44,54.45,67Z"/><path d="M75.19,75c.44-3.82-3.37-5.92-4.25-9.73s5.92-10.17,1.71-16.92c8.07,6.36,1.71,10.17,5.53,15.26a6.58,6.58,0,0,1-3.37-2.54C72.65,64,80.28,67.82,75.19,75Z"/><path d="M62.48,43.65c.83,0,2.54.83,2.1,1.27-2.1,2.1-5.09,1.27-7.63,3.37C57.83,45.8,62.09,45.36,62.48,43.65Z"/><path d="M59.93,52.11c-.44,0-.44-.44-.44-.83.44.83,1.27.44.83-.83H62C60.81,50.84,60.37,52.11,59.93,52.11Zm9.73-5.92c.83-.83,0-2.54-3.82-3,3.82,1.71-2.54,2.1-2.54,5.53-2.1.83-3.82-.44-4.65.44s-2.1.44-1.71-.83c-.83.44-.83,1.27-.44,2.1,0,.44.44.44.83.83l.44.44c-1.27,1.27-1.71,2.1-.44,3.37a12.07,12.07,0,0,1,2.1-2.54c.83.44,2.1,0,3.82-1.71-1.27,5.09-5.09,5.53-6.36,5.53.83.83,5.53,1.71,5.92-.44,1.27-4.65,5.92-6.8,2.1-6.8C65,48.35,68.83,47.08,69.66,46.2Z"/><path d="M71.38,44.09a9.62,9.62,0,0,1,3.82,3.37,8,8,0,0,0-2.54-6.8C72.21,40.28,70.94,42.82,71.38,44.09Z"/><path d="M41.73,59.74A19.87,19.87,0,0,1,50.64,50c1.27-3,.83-4.65,12.28-9.29.44-1.71.44-3.82.83-3.82a6.58,6.58,0,0,1,3.38,2.54h1.27a23.07,23.07,0,0,1,1.71-5.09c.83-1.27,2.54-1.27,4.65.44a33.19,33.19,0,0,1,6.8,6.36A22.44,22.44,0,0,1,91.28,48a16.34,16.34,0,0,0-4.65-1.71A12.15,12.15,0,0,1,90,58.52a12.87,12.87,0,0,0-6.8-9.29c1.27,4.65-4.26,3-6.36-.44.44.44.83.44,1.71,0a17,17,0,0,0-5.09-12.28c-1.71-1.71-3,2.1-3.37,5.09,0,.83-1.27,1.71-2.1,1.71.44-.44.44-.83.44-1.71a18.59,18.59,0,0,0-8.07,3C55.28,46.68,54,48,52.74,51.77,48.09,53.39,44.72,56.37,41.73,59.74Z"/><path d="M67.17,58.91a10.83,10.83,0,0,1,0,12.28c.83-4.65-2.1-14-5.09-9.29a4,4,0,0,1,2.54,4.65c-.83-2.1-3.38-3-5.53-2.54a3.39,3.39,0,0,1-3.82-1.27c-1.27-2.1.83-4.65-3.37-4.65,5.09-2.54,3.82,2.54,5.92,3s3.37-1.27,4.25-2.1a2.73,2.73,0,0,1,3.82-.83c.83-2.1-.44-5.92,1.71-7.63,1.27-.83,3.38-.44,4.65.44C70.54,50.84,68.39,53,67.17,58.91Z"/><path d="M55.72,79.26a3.17,3.17,0,0,1-.83-2.1A3.17,3.17,0,0,0,57,78C56.55,78.82,56.11,79.26,55.72,79.26Zm5.09-5.53c.44,0,.83.44,1.27,0s0-1.71-.44-2.1c.44,0,2.1,0,2.1.83,0,1.71-1.27,2.1-3.82,3.37C60.37,75.45,60.37,74.56,60.81,73.73ZM50.63,72a5.74,5.74,0,0,1,1.71-1.27,8.92,8.92,0,0,0,.44,3.37C52.3,74.56,50.63,73.29,50.63,72Zm-6.8-6.31-2.54-2.54c.44-.44,1.27-1.27,2.1-1.27s1.27.44.83.44-.83,0-.83.83a2.39,2.39,0,0,0,.83,1.71C44.71,64.83,44.28,65.71,43.83,65.71ZM93,49.62a32.89,32.89,0,0,1-.83,22.89c.44-3.37-2.54-8.07-1.27-13.55-5.53,5.09,3,18.2-9.29,26.66a27.28,27.28,0,0,0,2.1-13.11,3.43,3.43,0,0,1,1.71,1.71,20.16,20.16,0,0,0-.83-13.11,4.84,4.84,0,0,1,2.54,1.27c.44-7.63-5.09-8.07-6.36-10.17,0,2.1,2.54,3.82,3,6.8a7.83,7.83,0,0,0-4.26-.83A13.54,13.54,0,0,1,82.87,70c-1.27-.83-2.54-1.71-3.82-1.71a13.14,13.14,0,0,1,.44,11.84,8.34,8.34,0,0,0-.83-3.37,7.25,7.25,0,0,1-5.92,5.53,4.82,4.82,0,0,0,.44-6.8c-.44-.44-1.27-.83-1.71-1.27-3.38-1.27-7.19.83-8.9,8.46-2.1.83-9.29-.83-5.09-5.09,2.54.83,8.9-3.37,8.46-6.36a7.06,7.06,0,0,0-7.63-5.53C54.5,65.71,52,69.09,49,70.8c-2.54-.44-3.37-.83-4.65-4.26,0-2.1,2.1-3.37,2.1-5.53-1.71.44-2.1-2.54-5.92.44-.44-.44,0-1.71,0-1.71a7.15,7.15,0,0,0-1.71,3,8.6,8.6,0,0,0,3.37,3.37c2.1,5.53,4.26,6.36,6.36,6.36a7.8,7.8,0,0,0,4.25,3,8.35,8.35,0,0,1,0-4.65c4.65-4.65,8.07-1.71,8.46-.44-3.82.83-1.27,9.29-7.63,5.53a7.83,7.83,0,0,0,.83,4.26c.83,5.92,8.07,4.26,10.17,5.53-.44-5.53,3-9.73,5.53-9.29s3.38,4.65-1.27,8.9a12.21,12.21,0,0,0,8.46-2.1,17.2,17.2,0,0,1-3.82,8.9,28.68,28.68,0,0,0,22-34.29A13.56,13.56,0,0,0,93,49.62Z"/></g></g></svg>