<svg xmlns="http://www.w3.org/2000/svg" viewBox="0 0 512 128"><defs><style>.cls-1{fill:#f2f2f2;}.cls-2{fill:#253b80;}.cls-3{fill:#179bd7;}.cls-4{fill:#222d65;}.cls-5{fill:#7a7a7a;}</style></defs><title>paypal</title><g id="Layer_2" data-name="Layer 2"><g id="Layer_1-2" data-name="Layer 1"><rect class="cls-1" width="512" height="128"/><path class="cls-2" d="M168.56,41.34H150a2.58,2.58,0,0,0-2.55,2.18l-7.52,47.65A1.55,1.55,0,0,0,141.45,93h8.87a2.58,2.58,0,0,0,2.55-2.18l2-12.85a2.58,2.58,0,0,1,2.55-2.18h5.88c12.24,0,19.31-5.92,21.15-17.66.83-5.14,0-9.17-2.37-12C179.47,43,174.78,41.34,168.56,41.34Zm2.14,17.4c-1,6.67-6.11,6.67-11,6.67h-2.8l2-12.45a1.55,1.55,0,0,1,1.53-1.31h1.29c3.36,0,6.52,0,8.16,1.91C170.78,54.7,171.08,56.4,170.71,58.74Z"/><path class="cls-2" d="M224.11,58.53h-8.9a1.55,1.55,0,0,0-1.53,1.31l-.39,2.49-.62-.9c-1.93-2.8-6.22-3.73-10.51-3.73-9.83,0-18.23,7.45-19.87,17.9a16.79,16.79,0,0,0,3.32,13.67c2.71,3.2,6.59,4.53,11.21,4.53a17,17,0,0,0,12.32-5.1l-.4,2.47A1.55,1.55,0,0,0,210.26,93h8a2.58,2.58,0,0,0,2.55-2.18l4.81-30.46A1.54,1.54,0,0,0,224.11,58.53Zm-12.4,17.32a9.92,9.92,0,0,1-10,8.5,6.89,6.89,0,0,1-7.37-8.65,10,10,0,0,1,10-8.57,7.51,7.51,0,0,1,5.93,2.42A7.7,7.7,0,0,1,211.71,75.85Z"/><path class="cls-2" d="M271.5,58.53h-8.94a2.59,2.59,0,0,0-2.14,1.13L248.09,77.83l-5.23-17.46a2.59,2.59,0,0,0-2.48-1.84h-8.79a1.55,1.55,0,0,0-1.47,2L240,89.48l-9.26,13.07A1.55,1.55,0,0,0,232,105h8.93a2.58,2.58,0,0,0,2.12-1.11L272.77,61A1.55,1.55,0,0,0,271.5,58.53Z"/><path class="cls-3" d="M301.11,41.34H282.53A2.58,2.58,0,0,0,280,43.52l-7.52,47.65A1.55,1.55,0,0,0,274,93h9.54a1.81,1.81,0,0,0,1.78-1.53l2.13-13.51A2.58,2.58,0,0,1,290,75.74h5.88c12.24,0,19.31-5.92,21.15-17.66.83-5.14,0-9.17-2.37-12C312,43,307.33,41.34,301.11,41.34Zm2.14,17.4c-1,6.67-6.11,6.67-11,6.67h-2.8l2-12.45a1.54,1.54,0,0,1,1.53-1.31h1.29c3.35,0,6.52,0,8.16,1.91C303.33,54.7,303.63,56.4,303.26,58.74Z"/><path class="cls-3" d="M356.66,58.53h-8.89a1.54,1.54,0,0,0-1.53,1.31l-.39,2.49-.62-.9c-1.93-2.8-6.22-3.73-10.51-3.73-9.83,0-18.23,7.45-19.87,17.9-.85,5.21.36,10.2,3.31,13.67,2.72,3.2,6.59,4.53,11.21,4.53a17,17,0,0,0,12.32-5.1l-.4,2.47A1.55,1.55,0,0,0,342.82,93h8a2.58,2.58,0,0,0,2.55-2.18l4.81-30.46A1.55,1.55,0,0,0,356.66,58.53Zm-12.4,17.32a9.91,9.91,0,0,1-10,8.5,6.89,6.89,0,0,1-7.37-8.65,10,10,0,0,1,10-8.57,7.51,7.51,0,0,1,5.93,2.42A7.66,7.66,0,0,1,344.26,75.85Z"/><path class="cls-3" d="M367.15,42.65l-7.63,48.52A1.55,1.55,0,0,0,361,93h7.67a2.58,2.58,0,0,0,2.55-2.18l7.52-47.65a1.55,1.55,0,0,0-1.53-1.79h-8.59A1.55,1.55,0,0,0,367.15,42.65Z"/><path class="cls-2" d="M62.75,102.22l1.42-9L61,93.12H45.89l10.5-66.61a.88.88,0,0,1,.29-.52.86.86,0,0,1,.56-.21H82.73c8.46,0,14.3,1.76,17.35,5.24a11.94,11.94,0,0,1,2.78,5.21,18.81,18.81,0,0,1,0,7.18l0,.21v1.84l1.43.81a10,10,0,0,1,2.89,2.21,10.27,10.27,0,0,1,2.35,5.27,22.28,22.28,0,0,1-.33,7.64A26.92,26.92,0,0,1,106.05,70a17.81,17.81,0,0,1-5,5.43,20.12,20.12,0,0,1-6.68,3,33.32,33.32,0,0,1-8.35,1h-2a6,6,0,0,0-5.9,5l-.15.81L75.53,101.2l-.11.58a.5.5,0,0,1-.16.34.42.42,0,0,1-.26.1Z"/><path class="cls-3" d="M105.62,43.83q-.11.73-.26,1.49C102,62.58,90.5,68.54,75.82,68.54H68.34a3.63,3.63,0,0,0-3.59,3.08L60.92,95.9l-1.08,6.88A1.91,1.91,0,0,0,61.72,105H75a3.19,3.19,0,0,0,3.15-2.69l.13-.67,2.5-15.85.16-.87a3.19,3.19,0,0,1,3.15-2.69h2c12.85,0,22.91-5.22,25.85-20.31,1.23-6.31.59-11.57-2.66-15.28A12.69,12.69,0,0,0,105.62,43.83Z"/><path class="cls-4" d="M102.11,42.43q-.77-.22-1.59-.41t-1.68-.32a41.52,41.52,0,0,0-6.59-.48h-20a3.19,3.19,0,0,0-3.15,2.7L64.87,70.84l-.12.79a3.63,3.63,0,0,1,3.59-3.08h7.48c14.69,0,26.19-6,29.55-23.22.1-.51.18-1,.26-1.49a17.93,17.93,0,0,0-2.76-1.17Z"/><path class="cls-2" d="M69.12,43.92a3.19,3.19,0,0,1,3.15-2.69h20a41.52,41.52,0,0,1,6.59.48q.86.14,1.68.32t1.59.41l.76.23a18.21,18.21,0,0,1,2.76,1.17c1-6.38,0-10.72-3.46-14.65C98.37,24.85,91.51,23,82.73,23H57.24a3.64,3.64,0,0,0-3.6,3.08L43,93.37a2.19,2.19,0,0,0,2.16,2.53H60.92l4-25.07Z"/><path class="cls-5" d="M463,4.84h0c-.08.46-.15.92-.24,1.39.08-.48.16-.94.23-1.4Z"/><path class="cls-3" d="M512,15.91V128H481.55l1.36-8.63.83-5.26,6.41-40.69a.13.13,0,0,0,0-.06l.23-1.42,8-50.93a6,6,0,0,1,6-5.1Z"/><path class="cls-2" d="M512,0V15.91h-7.61a6,6,0,0,0-6,5.1l-8,50.93-.21,1.35-6.44,40.82-.83,5.26H453.14a4.15,4.15,0,0,1-4.09-4.8L467.13,0Z"/></g></g></svg>