<svg xmlns="http://www.w3.org/2000/svg" xmlns:xlink="http://www.w3.org/1999/xlink" viewBox="0 0 512 128"><defs><style>.cls-1{fill:none;}.cls-2{fill:#f2f2f2;}.cls-3{clip-path:url(#clip-path);}.cls-4{fill:#252525;}.cls-5{fill:#d50f22;}.cls-6{fill:#a91f24;}.cls-7{fill:#de4152;}.cls-8{fill:#d01220;}.cls-9{fill:#6a1317;}.cls-10{fill:#ad1f24;}.cls-11{fill:#0094b6;}.cls-12{fill:#00b4e6;}.cls-13{fill:#006e8d;}.cls-14{fill:#0092b5;}.cls-15{fill:#004c6c;}.cls-16{fill:#79ae2b;}.cls-17{fill:#528737;}.cls-18{fill:#9dc142;}.cls-19{fill:#2c7238;}.cls-20{fill:#7aac2c;}.cls-21{fill:#658d33;}.cls-22{fill:url(#linear-gradient);}.cls-23{fill:url(#linear-gradient-2);}.cls-24{fill:url(#linear-gradient-3);}</style><clipPath id="clip-path"><rect class="cls-1" x="30" y="20" width="353.8" height="88"/></clipPath><linearGradient id="linear-gradient" x1="469.88" y1="128" x2="469.88" y2="46.08" gradientUnits="userSpaceOnUse"><stop offset="0" stop-color="#528737"/><stop offset="1" stop-color="#9dc142"/></linearGradient><linearGradient id="linear-gradient-2" x1="479.88" y1="128" x2="479.88" y2="25.6" gradientUnits="userSpaceOnUse"><stop offset="0" stop-color="#a91f24"/><stop offset="1" stop-color="#de4152"/></linearGradient><linearGradient id="linear-gradient-3" x1="489.88" y1="128" x2="489.88" gradientUnits="userSpaceOnUse"><stop offset="0" stop-color="#006e8d"/><stop offset="1" stop-color="#00b4e6"/></linearGradient></defs><title>permata</title><g id="Layer_2" data-name="Layer 2"><g id="Layer_1-2" data-name="Layer 1"><rect class="cls-2" width="512" height="128"/><g class="cls-3"><path class="cls-4" d="M82.51,101.25l-.34,3.81-3.1,1.39-.08,1H91.89v-1.17c-2.63,0-3.82-.93-3.82-3.52V92.45c0-2.73,1.48-7,4.11-7,1.64,0,.78,2.93,2.63,2.93H96.3a2.63,2.63,0,0,0,2.63-2.63v-.29a3.32,3.32,0,0,0-3.23-3.23H94.53c-3.68,0-4.86,3.16-6.46,5v-5L79,82.78v1.17h1.17a2.39,2.39,0,0,1,2.35,2.63v14.66ZM62.27,91.87c0-3.58,2-8.8,5.26-8.8,3.62,0,4.69,5.73,4.69,9.68h-10v-.88Zm6.15,14.08c-4.4,0-6.46-7.22-6.46-12H78.11V93c0-6.36-3.64-10.86-10-10.86h-.86c-15.23,0-15.42,25.52,0,25.52h2.05c3.57,0,8.51-3.57,8.51-6.16,0-.6-.61-.53-1.17-.58-.56,2.1-3.68,5-6.46,5Zm176.9-4.69c0-6.15,5.94-7.92,12-7.92v3.81c0,4.83-2.73,9.09-7.33,9.09h-.57c-2.26,0-4.1-2.63-4.1-5ZM313,84.72c1.58-.94,2.7-.31,3.06-1.64H305.46v.58c1.39,0,3.23.53,3.23,1.76,0,1.62-9,11.48-10,11.73V81l.35-9.09-7.1.29v.88h1.76c.95,0,1.47,1.05,1.47,2.05v29a2.2,2.2,0,0,1-2.35,2.35h-2.35c-6.67,0,3.79-24.35-9.39-24.35-7.29,0-6.51,3.47-9.39,5.57V82.5l-6.74.37v.79c2.22,0,3.23,1,3.23,3.23v17a2.48,2.48,0,0,1-2.63,2.63h-2.35a2.56,2.56,0,0,1-2.35-1.47v-15c0-5.32-1.43-7.92-6.75-7.92h-2.06c-3.84,0-9.09,1.92-9.09,5.26v.88c0,.67.2.88.88.88h2.05c.66,0,.64-.23,1.17-.58,0-3.52,1.28-5.87,4.69-5.87,3.88,0,5.57,1.71,5.57,5.57v1.76L257,92.73h-1.43c-5.43,0-14.08,2-14.08,7v2.63c0,2.15,2.84,5,5,5h3.82c2.82,0,5.39-3.3,7-4.4,0,2.9.34,4.4,3.23,4.4h15v-.88h-1.16c-1.86,0-2.63-1.68-2.63-3.52V93c0-4.1,2.75-9.39,6.75-9.39h1.76c3.16,0,4.4,4,4.4,7.33v9.68c0,2.69,0,5.87-2.63,5.87h-1.17v.88h21.71v-.88h-1.17c-1.86,0-2.63-1.68-2.63-3.52V99.45c0-.9,3.58-4.77,4.4-5l7.54,12.79,6.25.12v-.88c-3.49-.29-4.89-4.14-6.57-6.63-.68-1-4.87-7.39-4.87-8,0,0,4.17-4.63,4.61-5.07a13.89,13.89,0,0,1,2.89-2.1ZM191.06,99.49c0-3.8,4-5.57,7.92-5.57h1.17v4.69c0,3.85-1.83,7.33-5.57,7.33-1.64,0-3.52-2.43-3.52-4.1V99.5Zm-.29-9.09c3.27,0,.1-7.33,5.87-7.33h.29c2.52,0,3.23,2.68,3.23,5.26v4.4h-1.76c-7.28,0-13.5,1.93-13.5,9.39,0,2.63,3.48,5.87,6.16,5.87h.88c4.36,0,5.68-1.83,8.21-3.52.18,2.16,2.36,2.93,4.69,2.93h4.1v-1.17c-3.6,0-3.23-1.84-3.23-5.26V92.74c0-3.42.43-5.35-.88-7.62a6.31,6.31,0,0,0-5.26-2.94h-3.82c-4,0-9.39,2.26-9.39,5.87,0,2,1.82,2.35,3.82,2.35Zm-40.19,9.09c0-3.52,3.8-5.57,7.34-5.57h1.76v5.87c0,3.13-2.38,6.16-5.57,6.16-1.92,0-3.52-2.58-3.52-4.69V99.5ZM150,90.4c4,0,.21-7.33,6.16-7.33h.29c2.1,0,3.23,2,3.23,4.1v5.57c-6.69,0-15.26,1.45-15.26,7.92v.58c0,4.14,2.58,5.92,6.38,6.52,5.58.88,6.76-2.63,9.16-3.3.05,2.29,2.1,2.93,4.4,2.93h4.1v-1.17c-3.41,0-3.24-1.93-3.23-5.26V92.46c0-6.46-.27-10.27-6.75-10.27h-3.23c-4,0-9.09,2-9.09,5.87v.58c0,1.21,1.62,1.76,2.93,1.76Zm69.23-1.17h7.07c4.49,0,8.21,3.25,8.21,7.63V98c0,5.07-3.79,8.21-8.8,8.21h-6.47v-17Zm0-15.84h5.87c4.59,0,8.21,2.14,8.21,6.75V81c0,5-4.31,7-9.39,7h-4.69Zm7.07-1.17H211.59v.88h1.17a2.21,2.21,0,0,1,2.35,2.35v29c0,1.48-1.88,2.05-3.52,2.05v.58H228c5.79,0,10.86-2.76,10.86-8.51V97.14c0-5.31-5.26-8.51-10.56-8.51,2.18-1.9,9.39-.35,9.39-8.51v-.88c0-4.86-6.31-7-11.44-7Zm-95.93,12c-3,0-5.57,3.62-5.57,6.45V103.6c0,1.35.65,2.35,2.05,2.35h1.47v1.47H115.67v-1.17c1.91,0,3.23-.46,3.23-2.35V88.64c0-2.13-1.41-4.4-3.52-4.4-4.08,0-5.87,4.27-5.87,8.51v8.51c0,2.59,0,5,2.63,5H113v1.17h-12.9v-1.47h2.05c1.43,0,1.76-2,1.76-3.52V87.17c0-1.91-.74-3.23-2.63-3.23h-.88V82.77l9.09-.58v4.4c1.53-1.12,3.26-4.4,6.45-4.4h3.5c2.32,0,4.21,2.35,4.69,4.4h.59c.53-2,4.1-4.4,7-4.4h2.35c10.93,0,1.58,24.06,8.51,24.06h.88v1.17H130.88v-1.17c1.91,0,3.23-.46,3.23-2.35V90.4c0-3-.53-6.16-3.52-6.16Zm38.12,0V82.76h.88c4.74,0,4.74-7.62,6.16-7.62H177v7.62h5.57v1.47H177v17.89c0,1.93,1.05,3.81,2.93,3.81,1.18,0,2.32-1,3.23-1.47.19.78.29.55.29,1.17,0,1.23-4.59,2.35-6.46,2.35-4.13,0-5.87-2.3-5.87-6.46V84.24Zm-123.21-12h-15v1.15c2.21,0,3.82.77,3.82,2.93v27c0,1.89-1.32,2.63-3.23,2.63H30v1.47H43.79v-1.47h-.88c-2.32,0-3.23-.9-3.23-3.22V92.44h4.7c7.14,0,11.73-3.3,11.73-10.56v0C56.12,75.48,51.52,72.22,45.26,72.22Zm4.69,12c0,4.14-3.36,7-7.62,7H39.69V73.67h4.39c3.25,0,5.87,3.77,5.87,7.33Z"/><path class="cls-5" d="M328.64,20.29,340.38,25l15.25-5Z"/><path class="cls-6" d="M327.18,22.05c2.55,1.35,9.6,4.26,11.15,5.87l2.05-2.63V25l-11.73-4.69h-.93Z"/><path class="cls-7" d="M340.38,25v.29l3.23,2.34,14.67-5.28L356.51,20h-.88Z"/><path class="cls-8" d="M338.32,27.92l5.28,38.72v-39l-3.23-2.34Z"/><path class="cls-9" d="M343.62,68.11V66.64l-5.26-38.72c-1.58-1.6-8.63-4.51-11.18-5.87l15.57,45.71Z"/><path class="cls-10" d="M343.62,27.62V68.11c1.46.85,2-3,2.46-4.58.58-2.08,1.16-3.73,1.76-5.87,1.13-4,2.38-7.64,3.52-11.73s2.37-7.64,3.52-11.73c.83-3,3.18-9.26,3.41-11.85Z"/><path class="cls-11" d="M306.06,48.45,316,49,324,39.36Z"/><path class="cls-12" d="M323.95,39.36,316,49v.29l3.82,1.47,7.62-10.27-2.65-1.78Z"/><path class="cls-13" d="M305.76,50.51,316,52.27V49l-10-.58-.63.29Z"/><path class="cls-14" d="M316,52.27l24.35,37L319.84,50.8,316,49.33Z"/><path class="cls-15" d="M341.26,91.28l-.88-2.05L316,52.27l-10.27-1.75c4.58,6.84,12.41,13.81,17.49,20.65C325.2,73.83,339.41,90.85,341.26,91.28Z"/><path class="cls-13" d="M319.84,50.8l20.52,38.41.88,2.05c.53-.19.88-.21.88-1.17S328.41,42.5,327.47,40.52Z"/><path class="cls-16" d="M368,48.16l15.26-.29-21.42-9.68Z"/><path class="cls-17" d="M359.44,39.07l5,11.44L368,48.45v-.29l-6.16-10Z"/><path class="cls-18" d="M368,48.16v.29l.88,3.81,15-1.18,0-2.9-.57-.32Z"/><path class="cls-19" d="M345.07,107.12l.58-1.47,18.78-55.14-5-11.44c-.53.85-7.12,30.65-7.65,34-.86,5.38-2.72,11.45-3.81,17C347.39,93.09,343.84,105.36,345.07,107.12Z"/><path class="cls-20" d="M364.43,50.51l-18.78,55.15,23.17-53.38L368,48.45Z"/><path class="cls-21" d="M368.83,52.27l-23.15,53.39-.58,1.47c1.87,1.09,4.74-4.43,5.63-5.79,1.65-2.48,3.07-4.77,4.74-7.28,3.27-4.87,6.18-9.42,9.45-14.32,6.39-9.6,12.52-19.11,18.9-28.63Z"/></g><polygon class="cls-22" points="479.85 128 447.75 46.08 492 46.08 492 128 479.85 128"/><polygon class="cls-23" points="489.85 128 457.75 25.6 502 25.6 502 128 489.85 128"/><polygon class="cls-24" points="499.85 128 467.75 0 512 0 512 128 499.85 128"/></g></g></svg>