<svg xmlns="http://www.w3.org/2000/svg" viewBox="0 0 512 128"><defs><style>.cls-1{fill:#f2f2f2;}.cls-2{fill:#fff;}.cls-3{fill:#ed1d24;}.cls-4{fill:#414145;}</style></defs><title>sinarmas</title><g id="Layer_2" data-name="Layer 2"><g id="Layer_1-2" data-name="Layer 1"><rect class="cls-1" width="512" height="128"/><path class="cls-2" d="M502.19,0H433.51a72.41,72.41,0,0,0-38,62.12h29.53A55.67,55.67,0,0,1,512,15.77V6.38A71.94,71.94,0,0,0,502.19,0ZM387.66,0A93.22,93.22,0,0,0,362.2,62.12h29.58a76.51,76.51,0,0,1,22.28-54A74.89,74.89,0,0,1,423.6,0Zm93.23,11.37a52.12,52.12,0,0,0-52,50.75h25.83V60.84A37.11,37.11,0,0,1,512,29.46V21.73A51.92,51.92,0,0,0,480.89,11.37ZM454.83,65.88v1.28a37.18,37.18,0,1,1-74.36,0V65.88h-3.79a52,52,0,0,0,104,0Zm-66.88,54a76.5,76.5,0,0,1-22.29-54H362A93.22,93.22,0,0,0,387.46,128h10A74.89,74.89,0,0,1,388,119.88Zm107.61,0A74.89,74.89,0,0,1,486,128h26V95.26A76.34,76.34,0,0,1,495.56,119.88Zm-11.16-54a55.73,55.73,0,1,1-111.46,0h-3.58A72.61,72.61,0,0,0,404.27,128h74.84A72.55,72.55,0,0,0,512,82.9v-17Z"/><path class="cls-3" d="M111.69,19.75H40a8,8,0,0,0-8,8v72a8,8,0,0,0,8,8h71.71a8,8,0,0,0,8-8v-72A8,8,0,0,0,111.69,19.75Z"/><path class="cls-2" d="M101.32,64.57a31.12,31.12,0,1,1-62.24,0h1.54a24,24,0,1,0,48,0Zm14.44,0H103a32.74,32.74,0,1,1-65.48,0H35.91a39.92,39.92,0,0,0,79.83,0ZM87,64.57H75.86v.55a16,16,0,1,1-32,0v-.55H42.23a22.39,22.39,0,0,0,44.76,0ZM64.69,63a22.39,22.39,0,0,1,44.76,0H107.8V62.4a16,16,0,0,0-9.88-14.84A16,16,0,0,0,77,56.26,16.1,16.1,0,0,0,75.8,62.4V63ZM35.91,63H48.73a32.74,32.74,0,1,1,65.48,0h1.63A39.92,39.92,0,0,0,36,63Zm14.44,0H63.06a24,24,0,1,1,48,0h1.54a31.11,31.11,0,0,0-62.21,0Z"/><path class="cls-4" d="M137.46,34.81a7.4,7.4,0,0,0,.87,4,3.7,3.7,0,0,0,3.22,1.78,3.29,3.29,0,0,0,2.62-1.3,6.44,6.44,0,0,0,1.1-4.09,6.79,6.79,0,0,0-1.1-4.33,3.62,3.62,0,0,0-5.61,0,5.9,5.9,0,0,0-1.11,3.93Zm18.16-3L151.37,31a6.54,6.54,0,0,1,2.46-3.77A9,9,0,0,1,159,26a11.11,11.11,0,0,1,4.67.83,4.52,4.52,0,0,1,2.14,1.78,9.39,9.39,0,0,1,.67,4.16v5.42a19.54,19.54,0,0,0,.21,3.43,10.14,10.14,0,0,0,.85,2.34h-4.71c-.12-.3-.27-.76-.44-1.37a1.27,1.27,0,0,0-.16-.55,8.43,8.43,0,0,1-2.57,1.78,7.39,7.39,0,0,1-2.9.59,6.06,6.06,0,0,1-4.32-1.58,4.88,4.88,0,0,1-1.56-3.71,4.92,4.92,0,0,1,.71-2.65,4.6,4.6,0,0,1,2-1.78,15.61,15.61,0,0,1,3.72-1.08,25.61,25.61,0,0,0,4.53-1.14v-.43a2.36,2.36,0,0,0-.67-1.9,4,4,0,0,0-2.51-.57,2.8,2.8,0,0,0-3.08,2.27Zm6.25,3.77a28.74,28.74,0,0,1-2.85.71,8.65,8.65,0,0,0-2.55.82,1.94,1.94,0,0,0-.92,1.63,2.28,2.28,0,0,0,.73,1.69,2.56,2.56,0,0,0,1.86.71,4.06,4.06,0,0,0,2.41-.82,2.89,2.89,0,0,0,1.11-1.53,9,9,0,0,0,.18-2.26v-1ZM185.42,44h-4.67V35.08a13.69,13.69,0,0,0-.3-3.66,2.57,2.57,0,0,0-1-1.31,2.75,2.75,0,0,0-1.61-.46,3.75,3.75,0,0,0-2.18.66,3.37,3.37,0,0,0-1.33,1.78,15.4,15.4,0,0,0-.35,4v7.94h-4.67V26.43h4.25V29a7.07,7.07,0,0,1,5.82-3,6.93,6.93,0,0,1,2.83.57,4.59,4.59,0,0,1,2,1.39,4.93,4.93,0,0,1,.92,2,14.19,14.19,0,0,1,.27,3.13V44Zm2.87,0V19.75H193V32.61l5.31-6.18h5.75l-6,6.41L204.6,44h-5l-4.44-7.89L193,38.35V44Zm-55.41,0V19.75h4.67v8.72A6.63,6.63,0,0,1,142.66,26,6.89,6.89,0,0,1,148,28.35,9.56,9.56,0,0,1,150.08,35a10.08,10.08,0,0,1-2.16,6.93,6.71,6.71,0,0,1-5.31,2.43,6.6,6.6,0,0,1-3-.75,7.24,7.24,0,0,1-2.53-2.24V44Z"/><path class="cls-4" d="M366.34,89l9.27-1.42A6.9,6.9,0,0,0,378,91.73a8.16,8.16,0,0,0,5.06,1.39,9.1,9.1,0,0,0,5.31-1.31,2.95,2.95,0,0,0,1.22-2.47,2.44,2.44,0,0,0-.66-1.78,7.37,7.37,0,0,0-3.1-1.23q-11.18-2.47-14.16-4.53a9,9,0,0,1-4.14-7.89,9.73,9.73,0,0,1,3.54-7.66q3.54-3.11,11.11-3.11,7.17,0,10.62,2.35a12,12,0,0,1,4.8,6.93L388.91,74a5.33,5.33,0,0,0-2.14-3.14,7.66,7.66,0,0,0-4.44-1.08,10,10,0,0,0-5.31,1,2.2,2.2,0,0,0-1,1.88,2,2,0,0,0,.92,1.69A34.52,34.52,0,0,0,385.51,77a25.7,25.7,0,0,1,10.34,4.12,8.59,8.59,0,0,1,2.9,6.89,10.67,10.67,0,0,1-4,8.3q-4,3.55-11.88,3.55a19.41,19.41,0,0,1-11.06-3A13.41,13.41,0,0,1,366.34,89Zm-11.57-6.84a57.34,57.34,0,0,1-5.63,1.42,16.92,16.92,0,0,0-5,1.62,3.88,3.88,0,0,0-1.77,3.27,4.56,4.56,0,0,0,1.45,3.36,5,5,0,0,0,3.68,1.42,8,8,0,0,0,4.76-1.65,5.81,5.81,0,0,0,2.21-3.07A18.62,18.62,0,0,0,354.8,84V82.24Zm-12.39-7.53L334,73a13.1,13.1,0,0,1,4.87-7.53,17.77,17.77,0,0,1,10.26-2.43,21.83,21.83,0,0,1,9.2,1.49,9,9,0,0,1,4.25,3.73,18.88,18.88,0,0,1,1.26,8.3l-.11,10.84a39.16,39.16,0,0,0,.42,6.84A20.56,20.56,0,0,0,365.87,99h-9.15q-.35-.92-.89-2.74c-.16-.55-.26-.91-.34-1.08a16.62,16.62,0,0,1-5.06,3.55,14.51,14.51,0,0,1-5.75,1.16,11.92,11.92,0,0,1-8.51-2.95,10.51,10.51,0,0,1-1.68-12.7,9.14,9.14,0,0,1,3.95-3.55,30.7,30.7,0,0,1,7.36-2.27,50.33,50.33,0,0,0,9-2.27v-.92a4.75,4.75,0,0,0-1.31-3.8,7.76,7.76,0,0,0-5-1.15,6.51,6.51,0,0,0-3.84,1,6.66,6.66,0,0,0-2.23,3.39ZM278.24,64h8.6v4.78a13.69,13.69,0,0,1,10.88-5.58,11.69,11.69,0,0,1,5.82,1.39,10.64,10.64,0,0,1,4.05,4.19,16.17,16.17,0,0,1,5-4.19,12.14,12.14,0,0,1,5.7-1.39,12.52,12.52,0,0,1,6.51,1.58,9.51,9.51,0,0,1,4,4.58,20.06,20.06,0,0,1,1,7.27V99h-9.26V78.9a15,15,0,0,0-1-6.73,4.37,4.37,0,0,0-3.95-2,6.28,6.28,0,0,0-3.65,1.19,6.59,6.59,0,0,0-2.48,3.55,25,25,0,0,0-.76,7.23V99h-9.24V79.74a26.75,26.75,0,0,0-.5-6.61,4.19,4.19,0,0,0-1.54-2.2,4.75,4.75,0,0,0-2.8-.73,6.71,6.71,0,0,0-3.84,1.15,6.41,6.41,0,0,0-2.48,3.34,25.37,25.37,0,0,0-.73,7.23V99h-9.24V63.89ZM263.93,99.06h-9.24V63.89h8.58v5a15.2,15.2,0,0,1,4-4.72,7.35,7.35,0,0,1,4-1.12,11.72,11.72,0,0,1,6.09,1.78l-2.9,8.12a8.11,8.11,0,0,0-4.34-1.51,5.07,5.07,0,0,0-3.29,1.08,7.3,7.3,0,0,0-2.14,3.87,56.35,56.35,0,0,0-.76,11.76V99.06ZM241.27,82.22a57.35,57.35,0,0,1-5.63,1.42,16.9,16.9,0,0,0-5,1.62,3.88,3.88,0,0,0-1.77,3.27,4.56,4.56,0,0,0,1.45,3.36A5,5,0,0,0,234,93.31a8,8,0,0,0,4.76-1.65A5.78,5.78,0,0,0,241,88.58a18.49,18.49,0,0,0,.35-4.53V82.28Zm-12.39-7.53L220.55,73a13.11,13.11,0,0,1,4.87-7.53,17.77,17.77,0,0,1,10.27-2.43,21.83,21.83,0,0,1,9.2,1.49,9,9,0,0,1,4.25,3.73,18.86,18.86,0,0,1,1.26,8.3l-.11,10.84a39.25,39.25,0,0,0,.43,6.84A20.51,20.51,0,0,0,252.39,99h-9.15q-.35-.92-.88-2.74c-.16-.55-.27-.91-.34-1.08A16.59,16.59,0,0,1,237,98.69a14.51,14.51,0,0,1-5.75,1.16,11.92,11.92,0,0,1-8.51-2.95A10.51,10.51,0,0,1,221,84.2,9.13,9.13,0,0,1,225,80.64a30.71,30.71,0,0,1,7.36-2.27,50.34,50.34,0,0,0,9-2.27v-.92a4.76,4.76,0,0,0-1.31-3.8,7.77,7.77,0,0,0-5-1.15,6.53,6.53,0,0,0-3.86,1,6.66,6.66,0,0,0-2.23,3.39ZM216.05,99h-9.27V81.05a27.51,27.51,0,0,0-.58-7.34,5.11,5.11,0,0,0-1.95-2.61,5.4,5.4,0,0,0-3.19-.92,7.4,7.4,0,0,0-4.3,1.31A6.73,6.73,0,0,0,194.13,75a31.07,31.07,0,0,0-.69,8V99H184.2V63.89h8.58V69a14,14,0,0,1,11.52-6,13.66,13.66,0,0,1,5.59,1.12A9.15,9.15,0,0,1,213.72,67a10,10,0,0,1,1.77,3.89,28.38,28.38,0,0,1,.53,6.23V99ZM168.91,63.89h9.24V99h-9.24Zm0-13.34h9.24v8.58h-9.24ZM131.55,89l9.27-1.42a6.91,6.91,0,0,0,2.41,4.12,8.17,8.17,0,0,0,5.06,1.39,9.1,9.1,0,0,0,5.31-1.31,3,3,0,0,0,1.22-2.47,2.44,2.44,0,0,0-.65-1.78,7.38,7.38,0,0,0-3.1-1.23q-11.18-2.47-14.16-4.53a9,9,0,0,1-4-7.94,9.72,9.72,0,0,1,3.54-7.66q3.54-3.11,11.11-3.11,7.17,0,10.62,2.35A12,12,0,0,1,163,72.37L154.24,74a5.33,5.33,0,0,0-2.14-3.14,7.66,7.66,0,0,0-4.44-1.08,10,10,0,0,0-5.31,1,2.2,2.2,0,0,0-1.06,1.88,2.06,2.06,0,0,0,.92,1.69A34.5,34.5,0,0,0,150.82,77a25.73,25.73,0,0,1,10.34,4.12,8.59,8.59,0,0,1,2.9,6.89,10.67,10.67,0,0,1-4,8.3q-4,3.55-11.88,3.55a19.42,19.42,0,0,1-11.31-2.91A13.42,13.42,0,0,1,131.55,89Z"/></g></g></svg>