<svg xmlns="http://www.w3.org/2000/svg" viewBox="0 0 512 296.56"><defs><style>.cls-1{fill:#0b0c22;}.cls-2{fill:#f9bd00;}.cls-3{fill:#1c233f;}</style></defs><title>Asset 2</title><g id="Layer_2" data-name="Layer 2"><g id="Layer_1-2" data-name="Layer 1"><path class="cls-1" d="M358.24,162.24a27.31,27.31,0,0,1-.82,4.31l-.47-.43A35.27,35.27,0,0,1,358.24,162.24Z"/><path class="cls-1" d="M462.93,111.67a47.22,47.22,0,0,0-19.25,4.09,52.53,52.53,0,0,0-70-37.26C362.89,33.69,316.77,0,261.5,0,198.26,0,147,44.1,147,98.5c0,1.56,0,3.12.13,4.66a90.9,90.9,0,0,0-16.29-1.45c-20.52,0-38.88,6.69-51.14,17.22a42.66,42.66,0,1,0-45.42,63c-.1,1.22-.15,2.44-.15,3.68a48.38,48.38,0,0,0,70.67,42.92.41.41,0,0,1,.11-.07,42.06,42.06,0,0,0,4.43-2.64l.09,0,.06,0a48.2,48.2,0,0,0,7.61-6.35l.12-.11c-.24,1.79-.41,3.59-.5,5.42-.07,1.19-.1,2.39-.1,3.6a67.86,67.86,0,0,0,8.68,33.32,68.56,68.56,0,0,0,18.19,21,68.25,68.25,0,0,0,99.88-19c.75-1.24,1.46-2.51,2.13-3.8a.24.24,0,0,0,0-.1.69.69,0,0,1,.06-.13c.63-1.18,1.2-2.39,1.74-3.61.7.14,1.41.27,2.12.37a43.93,43.93,0,0,0,6.53.48,45,45,0,0,0,7.3-.59,44.09,44.09,0,0,0,81.42-5.25c.3-.89.58-1.8.82-2.72.5,0,1,0,1.48,0,1.22,0,2.42-.05,3.61-.14a44.13,44.13,0,0,0,36.1-24.78,43.57,43.57,0,0,0,2-4.73,65.85,65.85,0,0,0,19,3.93h0q2,.12,4,.12a66.66,66.66,0,0,0,19.52-2.87l.14,0,.24-.08a60.09,60.09,0,0,0,13-5.76c1.17-.7,2.31-1.43,3.41-2.2l.33.1a43.08,43.08,0,0,0,5.89,1.51,46.24,46.24,0,0,0,8.7.81c27.1,0,49.07-22.93,49.07-51.2S490,111.67,462.93,111.67ZM357,166.12a35.27,35.27,0,0,1,1.29-3.88,27.31,27.31,0,0,1-.82,4.31Z"/><path class="cls-1" d="M358.24,162.24a27.31,27.31,0,0,1-.82,4.31l-.47-.43A35.27,35.27,0,0,1,358.24,162.24Z"/><path class="cls-1" d="M358.24,162.24a27.31,27.31,0,0,1-.82,4.31l-.47-.43A35.27,35.27,0,0,1,358.24,162.24Z"/><path class="cls-1" d="M358.24,162.24a27.31,27.31,0,0,1-.82,4.31l-.47-.43A35.27,35.27,0,0,1,358.24,162.24Z"/><path class="cls-1" d="M358.24,162.24a27.31,27.31,0,0,1-.82,4.31l-.47-.43A35.27,35.27,0,0,1,358.24,162.24Z"/><path class="cls-2" d="M211.88,133.87s8.82-9.6,17.63-11.5c0,0-32.31,33.66-11.17,67.21a63.44,63.44,0,1,1,80.55-97.77C297.76,91.27,222.88,55.87,211.88,133.87Z"/><path class="cls-2" d="M306.91,146.9s-17.63-20.68-42.93-4.6,6.13,35.65-1.92,53.67a42.66,42.66,0,0,0-9.6-18.78c-7.67-8.43-8.43-16.87-8.43-16.87S237.15,168,241,176.41c-.53-.74-17.08-24.51,16.88-47.9,0,0-51.61,6.88-24.12,69.53q2.29,5.22,5.33,11a80.3,80.3,0,0,1-11.82-13.84h0c-12.19-17.92-23.69-50.28,21.4-79.32,0,0-8.05-8.82-4.22-14.18,0,0,13,17.63,36.8,16.87,0,0,.38,5.37,3.83,7.28s6.13,1.15,8.05,4.22c0,0,2.68-9.2-15.72-14.95s-31-10.34-30.28-23c0,0,16.87,11.5,27.22,13s23,12.27,23.39,21.07C297.71,126.18,313.43,131.18,306.91,146.9Z"/><path class="cls-2" d="M319.56,138.66a63.46,63.46,0,0,1-53.76,62.71c7.56-8,.87-20.35-4.87-35.31s8.82-22.23,8.82-22.23c-6.13,31,3.63,27.53,4.22,26.83,1.77-2.16-.74-8.82-.74-8.82,8.43,4.6,3.83,21.85,3.83,21.85,30.28,6.13,42.42-49.07,42.42-49.07s0,0,0,0Q319.56,136.67,319.56,138.66Z"/><path class="cls-3" d="M136,201c-.33.56-8,13.73-19.27,23.67.09-1.83.26-3.63.5-5.42C123.48,213.88,131.88,206.29,136,201Z"/><path class="cls-3" d="M350.63,248.06c-1.19.09-2.39.14-3.61.14-.5,0-1,0-1.48,0-.24.92-.52,1.83-.82,2.72A23.85,23.85,0,0,1,329,236c12,14,21.48,12,21.48,12Z"/><path class="cls-3" d="M431.39,219.69a104,104,0,0,0,13.21-5.84A60.36,60.36,0,0,1,431.39,219.69Z"/><path class="cls-3" d="M407.69,222.48a65.85,65.85,0,0,1-19-3.93,43.57,43.57,0,0,1-2,4.73,41.08,41.08,0,0,1-14.44-26.37S381.43,220,407.69,222.48Z"/><path class="cls-3" d="M292,217s26.14,19,64-3C356,214,318.14,250,292,217Z"/><path class="cls-3" d="M123,184s-1.74,40,53,33C176,217,140.38,214,123,184Z"/><path class="cls-3" d="M70.19,174.69S43.14,204.2,9.38,160.55C9.38,160.55,36.69,183.62,70.19,174.69Z"/></g></g></svg>