<svg width="75" height="75" viewBox="0 0 75 75" fill="none" xmlns="http://www.w3.org/2000/svg">
<circle cx="37.5" cy="37.5" r="37.5" fill="#4580D6"/>
<path d="M43.9063 55.4375C41.879 55.4375 39.8973 54.8364 38.2117 53.7101C36.5261 52.5838 35.2123 50.983 34.4365 49.11C33.6607 47.2371 33.4577 45.1761 33.8532 43.1878C34.2487 41.1995 35.2249 39.3731 36.6584 37.9397C38.0919 36.5062 39.9183 35.53 41.9066 35.1345C43.8949 34.739 45.9558 34.9419 47.8288 35.7177C49.7017 36.4935 51.3025 37.8073 52.4288 39.4929C53.5551 41.1785 54.1563 43.1602 54.1563 45.1875C54.1563 47.906 53.0763 50.5131 51.1541 52.4354C49.2319 54.3576 46.6247 55.4375 43.9063 55.4375ZM43.9063 37.5C42.3858 37.5 40.8995 37.9509 39.6353 38.7956C38.3711 39.6403 37.3858 40.8409 36.8039 42.2456C36.2221 43.6503 36.0698 45.196 36.3665 46.6873C36.6631 48.1785 37.3953 49.5483 38.4704 50.6234C39.5455 51.6985 40.9153 52.4307 42.4065 52.7273C43.8977 53.0239 45.4434 52.8717 46.8481 52.2898C48.2528 51.708 49.4535 50.7227 50.2982 49.4585C51.1429 48.1942 51.5938 46.7079 51.5938 45.1875C51.5938 43.1487 50.7838 41.1933 49.3421 39.7516C47.9005 38.3099 45.9451 37.5 43.9063 37.5Z" fill="white"/>
<path d="M45.9434 49.0312L42.625 45.7128V40.0625H45.1875V44.6622L47.75 47.2247L45.9434 49.0312Z" fill="white"/>
<path d="M52.875 24.6875C52.875 24.0079 52.605 23.3561 52.1245 22.8755C51.6439 22.395 50.9921 22.125 50.3125 22.125H45.1875V19.5625H42.625V22.125H32.375V19.5625H29.8125V22.125H24.6875C24.0079 22.125 23.3561 22.395 22.8755 22.8755C22.395 23.3561 22.125 24.0079 22.125 24.6875V50.3125C22.125 50.9921 22.395 51.6439 22.8755 52.1245C23.3561 52.605 24.0079 52.875 24.6875 52.875H29.8125V50.3125H24.6875V24.6875H29.8125V27.25H32.375V24.6875H42.625V27.25H45.1875V24.6875H50.3125V32.375H52.875V24.6875Z" fill="white"/>
</svg>
