<svg width="17" height="17" viewBox="0 0 31 30" fill="none" xmlns="http://www.w3.org/2000/svg">
<path d="M19.8057 9.63281L20.0368 10.1075L20.5591 10.1845L29.8492 11.5527C29.8495 11.5528 29.8498 11.5528 29.8501 11.5528C29.9431 11.5674 30.0133 11.6574 29.9977 11.7598L29.9976 11.7598L29.9961 11.7707C29.9903 11.8115 29.9715 11.8493 29.9417 11.8791C29.9415 11.8792 29.9414 11.8794 29.9412 11.8795L23.2193 18.5209L22.8494 18.8865L22.9362 19.3993L24.5247 28.7799L24.5248 28.7806C24.5439 28.8924 24.4687 28.9816 24.3832 28.9965L24.3818 28.9968C24.3468 29.0029 24.3122 28.9963 24.2871 28.9827L24.2826 28.9803L15.9703 24.5515L15.5001 24.301L15.0299 24.5515L6.71758 28.9803L6.71603 28.9812C6.68898 28.9956 6.65952 29.0017 6.63069 28.9996C6.60184 28.9975 6.57293 28.9872 6.54735 28.9684C6.52164 28.9495 6.49997 28.9223 6.48654 28.8888C6.47307 28.8552 6.46898 28.8178 6.47522 28.7812L6.47544 28.7799L8.06396 19.3992L8.1508 18.8865L7.78083 18.5209L1.05708 11.8777L1.05702 11.8777C1.02276 11.8438 1.00073 11.7948 1.00002 11.7405C0.999317 11.6868 1.01956 11.6376 1.05243 11.6027C1.08161 11.573 1.11456 11.558 1.14538 11.5535L1.14781 11.5532L10.441 10.1845L10.9634 10.1075L11.1944 9.63281L15.3464 1.10272C15.3466 1.10225 15.3469 1.10178 15.3471 1.10131C15.3961 1.00369 15.5002 0.980612 15.5724 1.01674L15.5736 1.01733C15.6049 1.03295 15.6331 1.06016 15.651 1.09704L15.6514 1.09791L19.8057 9.63281Z" stroke="#AEB4CE" stroke-width="2"/>
</svg>
