<svg width="1080" height="800" viewBox="0 0 1080 800" fill="none" xmlns="http://www.w3.org/2000/svg">
<g clip-path="url(#clip0)">
<path d="M1080 481.537C1080 566.012 1046.44 647.028 986.709 706.761C926.976 766.494 845.96 800.052 761.484 800.052H0V481.537H1080Z" fill="#39B54A"/>
<path d="M42.1875 600.231H96.757V617.465H78.1523V681.358H60.6656V617.465H42.1875V600.231Z" fill="white"/>
<path d="M104.477 640.773C104.304 635.269 105.271 629.79 107.319 624.679C109.366 619.567 112.449 614.935 116.373 611.073C120.04 607.318 124.429 604.345 129.276 602.333C134.123 600.321 139.328 599.311 144.576 599.366C152.765 599.493 160.74 602.002 167.528 606.585C174.316 611.169 179.622 617.629 182.801 625.178C185.979 632.726 186.891 641.037 185.426 649.095C183.961 657.153 180.182 664.61 174.55 670.557C170.722 674.444 166.132 677.5 161.069 679.532C156.006 681.565 150.578 682.531 145.124 682.37C139.723 682.532 134.347 681.572 129.337 679.549C124.326 677.527 119.79 674.487 116.015 670.621C112.187 666.674 109.193 661.998 107.211 656.87C105.228 651.742 104.299 646.268 104.477 640.773V640.773ZM145.377 615.46C142.281 615.291 139.187 615.838 136.337 617.06C133.487 618.282 130.957 620.146 128.945 622.506C124.604 627.734 122.35 634.383 122.617 641.174C122.373 647.737 124.636 654.147 128.945 659.103C130.937 661.398 133.41 663.224 136.188 664.453C138.966 665.682 141.982 666.282 145.019 666.212C148.112 666.321 151.191 665.749 154.038 664.535C156.885 663.321 159.43 661.495 161.493 659.188C165.863 654.042 168.124 647.433 167.821 640.689C168.137 634.074 165.936 627.585 161.662 622.527C159.604 620.272 157.089 618.483 154.285 617.279C151.48 616.074 148.45 615.483 145.398 615.545L145.377 615.46Z" fill="white"/>
<path d="M201.193 600.231H228.932C235.569 599.933 242.053 602.277 246.967 606.749C249.254 608.962 251.047 611.634 252.229 614.59C253.41 617.546 253.953 620.718 253.822 623.898C253.824 628.527 252.664 633.082 250.447 637.145C248.206 641.32 244.625 644.619 240.28 646.51C236.652 648.328 232.704 649.417 228.657 649.717L218.532 649.97V681.357H201.193V600.231ZM218.321 614.807V635.521H225.114C227.897 635.477 230.555 634.352 232.523 632.383C234.492 630.415 235.617 627.757 235.661 624.974C235.733 623.508 235.451 622.047 234.838 620.713C234.224 619.38 233.298 618.215 232.138 617.317C229.191 615.326 225.667 614.369 222.118 614.596L218.321 614.807Z" fill="white"/>
<path d="M370.639 617.844L359.016 628.728C356.893 624.843 353.778 621.59 349.988 619.299C345.59 616.688 340.427 615.671 335.367 616.421C330.308 617.17 325.66 619.639 322.208 623.413C319.955 625.642 318.172 628.302 316.966 631.233C315.759 634.164 315.153 637.308 315.184 640.478C315.116 643.747 315.702 646.996 316.909 650.036C318.115 653.075 319.917 655.842 322.208 658.175C324.358 660.496 326.97 662.341 329.877 663.59C332.783 664.84 335.919 665.467 339.083 665.431C342.711 665.421 346.275 664.484 349.44 662.71C353.204 660.343 356.03 656.742 357.434 652.522H338.218V636.702H375.659V647.249C375.414 653.447 373.489 659.462 370.091 664.651C366.696 670.56 361.593 675.303 355.452 678.256C349.726 681.015 343.455 682.457 337.1 682.475C331.779 682.571 326.498 681.535 321.607 679.437C316.716 677.338 312.327 674.226 308.729 670.304C304.916 666.294 301.932 661.571 299.949 656.406C297.965 651.241 297.021 645.734 297.17 640.203C297.083 634.809 298.092 629.452 300.137 624.46C302.182 619.467 305.22 614.941 309.066 611.157C312.753 607.284 317.201 604.214 322.13 602.141C327.06 600.069 332.365 599.037 337.712 599.113C351.999 599.113 362.975 605.356 370.639 617.844Z" fill="white"/>
<path d="M416.918 600.231H430.461L463.514 681.379H445.922L439.425 665.432H408.291L401.963 681.379H384.455L416.918 600.231ZM423.689 626.809L414.155 650.729H433.435L423.689 626.809Z" fill="white"/>
<path d="M474.969 600.231H492.455V681.379H474.969V600.231Z" fill="white"/>
<path d="M562.339 600.231H579.467V681.379H562.423L525.235 628.834V681.358H507.748V600.231H525.235L562.339 652.396V600.231Z" fill="white"/>
<path d="M595.898 600.231H641.566V616.304H613.385V632.673H641.566V648.493H613.385V665.368H641.566V681.442H595.898V600.231Z" fill="white"/>
<path d="M656.205 600.231H682.931C691.059 600.231 697.485 602.34 702.21 606.559C704.583 608.764 706.446 611.459 707.67 614.457C708.894 617.455 709.45 620.684 709.298 623.919C709.212 628.434 708.101 632.87 706.05 636.892C703.469 641.746 699.21 645.495 694.068 647.439L716.765 681.189H696.663L675.569 649.801H673.586V681.189H656.1L656.205 600.231ZM673.818 614.701V635.795H677.594C686.735 635.795 691.305 632.068 691.305 624.615C691.336 623.203 691.019 621.804 690.383 620.543C689.746 619.281 688.81 618.195 687.656 617.38C684.738 615.434 681.264 614.494 677.763 614.701H673.818Z" fill="white"/>
<path d="M874.062 199.745C872.923 201.243 824.45 264.144 745.707 223.75C745.224 225.658 744.597 227.527 743.83 229.339C722.124 280.661 710.27 276.695 710.27 276.695C704.342 292.473 690.526 308.336 690.526 308.336C694.47 328.079 655.004 324.114 655.004 324.114L651.059 314.242H643.17C631.337 292.536 643.17 280.682 643.17 280.682L639.141 256.951L611.509 260.896C611.509 260.896 614.694 271.443 588.516 294.161C628.595 285.997 635.197 310.255 611.509 331.961C587.82 353.666 579.868 381.299 572.042 377.354C564.216 373.41 552.298 389.188 552.298 389.188L516.798 410.893C514.815 399.06 524.687 379.253 524.687 379.253L510.87 387.142L502.981 383.197C471.341 393.069 461.532 391.086 461.532 391.086C471.404 363.454 493.173 353.582 493.173 353.582L505.006 357.526C508.951 351.599 522.767 357.526 522.767 357.526C522.898 354.515 523.901 351.606 525.653 349.153C527.406 346.701 529.833 344.81 532.639 343.71C542.511 339.765 564.28 327.932 564.28 327.932L551.623 320.76L546.413 323.987C475.37 367.398 390.509 327.932 390.509 327.932H331.447C295.313 362.167 260.298 365.521 260.298 365.521C260.298 365.521 256.353 389.209 276.076 414.859C295.798 440.509 287.909 440.509 287.909 440.509L295.798 452.343C309.615 454.325 327.439 481.874 327.439 481.874H280.041C278.059 470.04 268.208 466.096 266.225 462.13C265.662 460.891 265.371 459.546 265.371 458.186C265.371 456.825 265.662 455.48 266.225 454.241L260.298 442.407C248.464 442.407 246.481 434.518 244.52 422.664C243.17 414.606 225.409 379.189 214.187 357.273L208.998 357.463C151.77 359.446 141.898 428.507 141.898 434.434C141.898 440.361 132.027 440.361 132.027 440.361L135.971 462.067C153.732 476.031 161.621 487.864 161.621 487.864H112.283L108.338 470.104C94.5219 464.176 108.338 436.543 108.338 436.543L100.449 428.654C100.449 428.654 137.954 373.389 143.86 353.666C149.766 333.943 155.694 329.978 175.501 324.135C193.346 318.777 216.022 268.279 242.073 216.346C191.848 245.455 118.126 225.374 118.126 225.374C66.889 217.485 53.0726 272.708 53.0726 272.708C53.0726 272.708 70.8336 284.542 66.889 298.358C62.9445 312.175 68.8719 320.064 68.8719 320.064C64.9273 318.081 59 308.23 59 308.23C59 319.705 68.2601 327.468 68.8508 327.953C7.69997 302.239 62.9445 201.707 122.155 211.536C181.365 221.366 187.292 217.464 230.703 201.664C238.592 198.775 246.439 196.117 253.906 193.649C286.285 144.163 366.821 166.227 366.821 166.227L404.326 158.338C546.477 2.37073 609.61 91.1754 609.61 91.1754C646.25 98.7692 699.891 132.266 728.052 168.843C731.61 168.764 735.088 169.911 737.902 172.091C745.791 178.018 789.223 209.596 822.762 185.907C822.762 185.907 814.325 215.439 764.101 204.428C788.084 218.708 826.391 229.255 874.062 199.745Z" fill="url(#paint0_linear)"/>
<path d="M1080 481.537V800.052L761.484 481.537H1080Z" fill="#2D8C36"/>
<path d="M592.607 800.052C831.916 728.84 909.393 481.537 909.393 481.537H1080C1080 566.012 1046.44 647.028 986.709 706.761C926.975 766.494 845.96 800.052 761.484 800.052H592.607Z" fill="#2D8C36"/>
</g>
<defs>
<linearGradient id="paint0_linear" x1="458.136" y1="487.864" x2="458.136" y2="65.9895" gradientUnits="userSpaceOnUse">
<stop stop-color="#39B54A"/>
<stop offset="1" stop-color="#2D8C36"/>
</linearGradient>
<clipPath id="clip0">
<rect width="1080" height="800" fill="white"/>
</clipPath>
</defs>
</svg>
