<svg width="1080" height="800" viewBox="0 0 1080 800" fill="none" xmlns="http://www.w3.org/2000/svg">
<path d="M1080 481.261V799.777H0C0 715.301 33.5578 634.286 93.2911 574.552C153.024 514.819 234.04 481.261 318.516 481.261H1080Z" fill="#ED4C5C"/>
<path d="M1017.48 483.434C1013.68 487.231 994.654 488.496 975.628 488.496C956.601 488.496 956.643 484.7 956.643 484.7C951.581 461.876 979.467 466.939 979.467 466.939C976.936 460.61 981.998 454.282 981.998 454.282C932.554 422.642 885.621 360.457 885.621 360.457C885.621 360.457 886.697 360.099 874.061 360.732C855.478 378.957 823.436 414.563 809.536 455.653C809.536 455.653 799.39 488.623 704.278 488.623C704.278 488.623 706.809 468.331 725.836 468.331C725.836 468.331 742.31 460.716 743.597 434.096C744.461 415.617 741.234 387.12 746.929 364.486C731.116 362.488 715.672 358.226 701.072 351.83C704.636 385.58 710.058 464.323 685.293 477.211C653.653 493.685 618.089 503.832 611.74 494.972C605.39 486.113 605.411 469.66 637.052 468.352C637.052 468.352 637.052 459.471 642.115 458.206C642.115 458.206 642.115 425.384 627.602 405.957C621.727 413.596 614.112 419.722 605.39 423.823C563.54 442.807 526.774 446.646 540.717 463.142C554.66 479.637 536.92 497.377 536.92 497.377C507.747 498.642 496.336 446.752 497.601 423.823C498.867 400.894 547.045 371.827 547.045 371.827C538.165 360.415 540.717 312.237 521.732 299.539C502.748 286.84 444.382 293.21 444.382 293.21C391.12 312.195 363.234 285.596 363.234 285.596C353.088 283.064 353.088 280.533 350.578 275.45C348.068 270.366 360.724 265.303 365.786 262.793C370.849 260.283 393.693 224.825 393.693 224.825C382.282 212.168 430.46 166.5 430.46 166.5C430.46 166.5 429.194 151.292 432.991 147.516C436.788 143.74 469.758 158.928 469.758 158.928C494.02 150.961 519.13 145.857 544.577 143.719C582.546 90.3308 630.703 133.446 630.703 133.446L795.572 119.503C960.419 105.56 980.711 295.763 981.977 300.91C983.243 306.057 1028.89 411.23 1028.89 411.23C1054.24 468.204 1017.48 483.434 1017.48 483.434Z" fill="url(#paint0_linear)"/>
<path d="M450.604 600.019H505.173V617.253H486.568V681.146H469.082V617.189H450.604V600.019Z" fill="white"/>
<path d="M512.895 640.477C512.721 634.973 513.688 629.493 515.736 624.382C517.783 619.27 520.867 614.638 524.792 610.777C528.459 607.022 532.848 604.049 537.695 602.037C542.542 600.025 547.747 599.016 552.995 599.07C561.184 599.197 569.159 601.706 575.947 606.29C582.735 610.873 588.041 617.333 591.22 624.882C594.398 632.43 595.31 640.741 593.845 648.799C592.38 656.857 588.601 664.315 582.969 670.261C579.14 674.149 574.551 677.204 569.488 679.237C564.425 681.269 558.997 682.235 553.543 682.074C548.128 682.248 542.736 681.293 537.71 679.271C532.684 677.248 528.134 674.201 524.349 670.325C520.537 666.371 517.558 661.692 515.59 656.564C513.623 651.437 512.706 645.966 512.895 640.477V640.477ZM553.796 615.164C550.7 614.995 547.606 615.542 544.756 616.764C541.906 617.986 539.376 619.85 537.364 622.21C533.025 627.439 530.771 634.088 531.036 640.878C530.792 647.441 533.055 653.851 537.364 658.807C539.356 661.102 541.829 662.928 544.607 664.157C547.385 665.386 550.4 665.986 553.438 665.916C556.531 666.025 559.61 665.453 562.457 664.239C565.304 663.025 567.849 661.2 569.912 658.892C574.282 653.746 576.543 647.137 576.24 640.393C576.556 633.778 574.355 627.289 570.081 622.231C568.021 619.98 565.505 618.195 562.701 616.994C559.896 615.794 556.867 615.206 553.817 615.27L553.796 615.164Z" fill="white"/>
<path d="M609.609 600.019H637.348C643.985 599.719 650.471 602.063 655.383 606.537C657.67 608.75 659.463 611.422 660.645 614.378C661.826 617.334 662.369 620.506 662.238 623.686C662.241 628.315 661.08 632.87 658.863 636.933C656.622 641.108 653.041 644.407 648.696 646.298C645.068 648.116 641.12 649.205 637.073 649.505L626.948 649.758V681.145H609.609V600.019ZM626.738 614.595V635.351H633.53C636.313 635.307 638.971 634.182 640.939 632.214C642.908 630.245 644.033 627.588 644.077 624.804C644.149 623.338 643.867 621.877 643.254 620.544C642.64 619.211 641.714 618.045 640.554 617.147C637.607 615.156 634.083 614.199 630.534 614.426L626.738 614.595Z" fill="white"/>
<path d="M710.459 600.019H727.735V663.68H751.655V681.167H710.459V600.019Z" fill="white"/>
<path d="M760.219 640.477C760.037 634.983 760.992 629.511 763.025 624.403C765.058 619.296 768.124 614.664 772.032 610.798C775.699 607.043 780.088 604.07 784.935 602.058C789.782 600.046 794.986 599.037 800.234 599.091C808.424 599.218 816.399 601.727 823.187 606.311C829.974 610.894 835.281 617.354 838.459 624.903C841.637 632.451 842.55 640.762 841.085 648.82C839.619 656.878 835.84 664.336 830.209 670.282C826.38 674.17 821.791 677.225 816.728 679.258C811.664 681.29 806.236 682.256 800.783 682.095C795.368 682.269 789.976 681.314 784.95 679.292C779.924 677.269 775.374 674.222 771.589 670.346C767.789 666.383 764.824 661.697 762.871 656.566C760.918 651.435 760.016 645.963 760.219 640.477V640.477ZM801.12 615.164C798.024 614.995 794.93 615.542 792.08 616.764C789.23 617.986 786.7 619.85 784.688 622.21C780.349 627.439 778.095 634.088 778.36 640.878C778.116 647.441 780.379 653.851 784.688 658.807C786.68 661.102 789.153 662.928 791.931 664.157C794.709 665.386 797.725 665.986 800.762 665.916C803.855 666.025 806.934 665.453 809.781 664.239C812.628 663.025 815.173 661.2 817.236 658.892C821.606 653.746 823.867 647.137 823.564 640.393C823.88 633.778 821.679 627.289 817.405 622.231C815.343 619.977 812.824 618.19 810.015 616.99C807.207 615.789 804.174 615.203 801.12 615.27V615.164Z" fill="white"/>
<path d="M902.096 607.296L891.212 619.214C885.488 615.839 881.368 614.152 878.851 614.152C877.916 614.135 876.989 614.313 876.128 614.677C875.266 615.04 874.491 615.58 873.852 616.261C873.172 616.946 872.636 617.76 872.274 618.654C871.911 619.549 871.731 620.506 871.742 621.471C871.742 625.465 875.37 628.924 882.627 631.849C886.817 633.539 890.848 635.6 894.671 638.009C897.518 639.981 899.859 642.597 901.505 645.645C903.328 648.86 904.273 652.497 904.248 656.192C904.239 659.649 903.48 663.063 902.023 666.199C900.566 669.334 898.446 672.117 895.81 674.353C890.417 679.412 883.27 682.18 875.877 682.074C867.439 682.074 859.135 678.122 850.965 670.219L862.461 656.803C867.608 662.119 872.431 664.777 876.931 664.777C878.075 664.73 879.199 664.458 880.237 663.977C881.276 663.495 882.21 662.814 882.985 661.971C883.849 661.244 884.554 660.345 885.055 659.333C885.556 658.32 885.842 657.215 885.896 656.086C885.896 651.867 881.424 648.134 872.48 644.885C868.63 643.649 864.967 641.888 861.596 639.654C859.248 637.756 857.395 635.317 856.196 632.546C854.791 629.557 854.071 626.292 854.087 622.99C853.963 619.734 854.526 616.489 855.74 613.465C856.954 610.441 858.791 607.707 861.132 605.44C863.607 603.161 866.508 601.393 869.668 600.239C872.828 599.084 876.185 598.565 879.547 598.711C887.895 598.525 895.985 601.606 902.096 607.296V607.296Z" fill="white"/>
<path d="M916.945 600.019H962.613V616.092H934.453V632.461H962.634V648.282H934.453V665.157H962.634V681.23H916.945V600.019Z" fill="white"/>
<path d="M977.252 600.019H1004.06C1012.19 600.019 1018.62 602.128 1023.34 606.347C1025.71 608.552 1027.58 611.247 1028.8 614.245C1030.02 617.243 1030.58 620.472 1030.43 623.707C1030.34 628.222 1029.23 632.658 1027.18 636.68C1024.6 641.534 1020.34 645.283 1015.2 647.227L1037.9 680.977H1017.79L996.7 649.589H994.717V680.977H977.23L977.252 600.019ZM994.865 614.489V635.583H998.641C1007.78 635.583 1012.35 631.857 1012.35 624.403C1012.4 622.995 1012.09 621.597 1011.47 620.332C1010.85 619.067 1009.93 617.973 1008.79 617.147C1005.87 615.201 1002.4 614.261 998.894 614.468L994.865 614.489Z" fill="white"/>
<path d="M487.392 481.261C248.084 552.474 170.606 799.777 170.606 799.777H0C0 715.301 33.5578 634.286 93.2911 574.552C153.024 514.819 234.04 481.261 318.516 481.261H487.392Z" fill="#BF4052"/>
<path d="M318.516 799.777H0V481.261L158.203 639.464L182.123 663.385L318.516 799.777Z" fill="#BF4052"/>
<defs>
<linearGradient id="paint0_linear" x1="693.984" y1="498.136" x2="693.984" y2="116.972" gradientUnits="userSpaceOnUse">
<stop stop-color="#ED4C5C"/>
<stop offset="1" stop-color="#BF4052"/>
</linearGradient>
</defs>
</svg>
