<svg width="512" height="216" viewBox="0 0 512 216" fill="none" xmlns="http://www.w3.org/2000/svg">
<rect width="512" height="215.904" rx="40" fill="#005FAF"/>
<g clip-path="url(#clip0)">
<path d="M274.023 104.993C298.757 93.7216 302.415 56.9404 267.232 56.9404H226.489L211.432 86.6026H218.518L200.508 157.495H247.746C282.209 157.791 297.708 117.02 274.023 104.993ZM247.746 131.689H235.937L240.365 115.672H251.584C264.87 118.341 256.604 132.282 247.746 131.689ZM254.832 97.577H244.794L247.746 83.636H258.965C269.805 86.3058 260.442 98.1707 254.832 97.577Z" fill="white"/>
<path d="M370.73 94.8238L386.198 67.3908L365.268 56.4224L362.538 59.8075C351.247 53.8027 292.124 62.0937 288.422 120.689C290.635 169.844 345.458 161.002 350.835 157.883L365.913 126.567C351.146 136.34 320.908 141.031 319.629 111.675C322.281 87.4675 350.729 78.4273 370.73 94.8238ZM447.915 56.9412H400.364L385.249 85.7154H393.014L357.179 157.496H391.865L398.987 140.182H420.279L420.809 157.496H452.739L447.915 56.9412ZM408.633 116.872L420.278 88.9466L420.809 116.872H408.633Z" fill="white"/>
<path d="M150.974 152.694L152.821 152.156L150.795 149.343L150.974 152.694ZM120.648 152.215L120.291 154.73C121.211 154.64 122.342 155.436 122.794 153.652C122.76 152.262 121.707 152.186 120.648 152.215ZM135.365 152.156C135.212 151.471 134.643 150.967 133.22 151.438L133.697 154.011C134.866 153.751 135.467 153.056 135.365 152.156ZM102.12 150.05L101.551 152.336C102.465 152.375 103.536 153.12 104.143 151.765C104.184 150.916 104.218 150.07 102.12 150.05ZM134.114 155.927L134.531 158.561C135.507 158.586 136.398 157.997 136.14 156.766C135.891 155.582 134.901 155.769 134.114 155.927Z" fill="white"/>
<path d="M172.852 58.2957C141.303 42.1484 103.625 42.5975 73.5652 57.5914C58.0646 85.0065 57.571 123.365 73.5652 157.338C106.682 174.175 143.309 173.066 173.085 158.042C187.078 129.198 189.39 94.4899 172.852 58.2957ZM119.569 140.157L117.699 140.179C117.236 134.987 116.001 130.624 113.351 127.285C101.2 111.976 76.3622 123.501 82.7445 97.4846C86.063 84.1841 123.915 76.3396 119.569 140.157ZM82.7893 114.461C85.4425 119.887 102.065 120.776 107.835 124.929C116.988 131.516 115.674 140.181 115.674 140.181H113.515C109.266 127.094 97.3384 137.456 87.7849 133.932C81.787 131.788 77.4323 122.498 82.7893 114.461ZM113.074 157.125L113.968 150.001L115.577 150.121L114.861 157.962C114.14 161.416 109.014 160.954 108.367 157.663L109.201 149.523L111.108 149.823L110.274 156.646C110.38 158.904 112.634 158.769 113.074 157.125ZM104.515 159.07L102.681 158.625C102.896 157.102 104.693 154.005 101.141 154.005L100.152 158.053L98.1291 157.672L100.279 147.953C105.532 148.528 105.992 149.997 106.096 151.574C105.889 152.797 105.564 153.651 104.516 153.86C105.743 154.98 104.53 157.325 104.515 159.07ZM92.8685 148.184C92.3631 148.857 91.3515 151.211 91.205 153.086C91.0493 155.074 92.9498 154.655 93.423 154.423C93.8048 154.237 94.0884 152.641 94.0884 152.641L92.7576 152.195L93.2012 150.859L96.1964 151.862L94.7547 156.876L93.5348 156.541L93.6457 155.761C92.1523 156.445 89.4188 155.932 89.0979 154.201C88.7771 152.811 89.7489 148.595 91.3159 146.625C92.8389 144.709 96.5494 146.581 96.64 147.739C96.7297 148.892 96.2768 150.19 96.2768 150.19L94.88 149.926C94.88 149.926 94.9655 149.509 95.0874 148.852C95.216 148.157 93.4103 147.46 92.8685 148.184ZM120.105 156.345L119.748 160.656L118.259 160.596L118.795 150.36C122.514 150.438 124.645 150.955 124.574 153.593C124.352 157.198 121.447 156.387 120.105 156.345ZM123.812 140.18H121.321C121.1 131.316 122.796 115.103 118.16 103.17C114.648 94.1251 105.759 90.0561 103.789 82.7492C100.67 71.1837 105.978 58.6699 123.812 57.7063C139.273 59.301 144.023 71.2926 141.386 82.4575C136.852 93.6207 132.317 92.0166 126.671 103.136C122.06 115.057 123.816 130.673 123.812 140.18ZM151.443 156.585L149.715 157.184L149.179 146.888L151.204 146.35L156.209 154.849L154.839 155.748L153.17 153.354L151.264 154.072L151.443 156.585ZM131.286 140.18H129.293C130.935 117.415 159.409 122.361 162.012 114.461C166.512 122.293 164.894 128.896 160.195 132.281C148.517 140.697 137.32 126.054 131.286 140.18ZM141.852 151.678L142.746 156.407C143.302 157.496 143.679 157.295 144.533 157.185C145.522 156.465 145.316 155.765 145.129 154.85L146.856 154.611C147.307 158.037 145.686 158.387 144.473 158.621C141.874 158.809 141.364 158.3 140.66 154.911C140.251 152.009 139.543 148.946 141.971 148.386C145.957 147.775 145.721 149.577 146.082 150.84L144.354 151.14C144.078 150.055 143.681 149.625 142.805 149.705C142.007 150.073 141.679 150.669 141.852 151.678ZM138.217 156.585C138.3 158.076 137.797 159.066 136.847 159.399L132.795 160.237L131.187 150.36C132.018 150.224 136.094 148.724 137.085 151.439C137.573 153.096 137.067 153.691 136.489 154.431C137.585 154.785 137.955 155.642 138.217 156.585ZM127.813 107.022C136.839 81.4896 157.493 86.0016 162.073 97.4855C168.349 120.529 148.142 114.209 135.198 123.659C130.305 127.934 127.731 132.838 127.693 140.272H125.475C125.342 125.298 125.101 114.694 127.813 107.022Z" fill="white"/>
</g>
<defs>
<clipPath id="clip0">
<rect width="391.577" height="123.373" fill="white" transform="translate(61.6875 46.2654)"/>
</clipPath>
</defs>
</svg>
