<svg width="512" height="216" viewBox="0 0 512 216" fill="none" xmlns="http://www.w3.org/2000/svg">
<rect width="512" height="215.904" rx="40" fill="white"/>
<path fill-rule="evenodd" clip-rule="evenodd" d="M59 90.0039L92.1878 131.869L59 159.37V90.0039Z" fill="#F15A23"/>
<path fill-rule="evenodd" clip-rule="evenodd" d="M72.3555 159.37L97.3276 138.479L114.588 159.37H72.3555Z" fill="#F15A23"/>
<path fill-rule="evenodd" clip-rule="evenodd" d="M59 67.6026L67.6608 78.5581L103.271 123.055L114.81 113.867C114.81 113.867 105.23 102.589 98.7981 90.0041C86.2225 65.3991 95.1257 50.0801 95.1257 50.0801H59V67.6026Z" fill="#F15A23"/>
<path fill-rule="evenodd" clip-rule="evenodd" d="M108.344 129.925L120.095 120.218C120.095 120.218 131.319 134.992 144.333 138.479C161.387 143.049 168.938 131.869 168.938 131.869V159.37H131.48L139.926 152.067C139.926 152.067 135.519 155.005 124.742 147.54C118.38 143.134 108.344 129.925 108.344 129.925Z" fill="#F15A23"/>
<path fill-rule="evenodd" clip-rule="evenodd" d="M109.43 50C109.43 50 105.681 55.107 108.349 67.6026C111.202 80.9587 122.545 95.0947 122.519 94.7782C122.519 94.7782 123.248 80.7418 131.485 72.5048C149.043 54.9475 168.944 65.3992 168.944 65.3992V50.0801L109.43 50Z" fill="#F15A23"/>
<path fill-rule="evenodd" clip-rule="evenodd" d="M168.935 83.9079C168.935 83.9079 157.832 74.3975 148.179 74.3975C135.83 74.3975 129.09 85.0584 129.09 92.7918C129.09 104.056 134.497 110.315 139.923 115.742C147.722 123.54 157.21 131.951 168.935 125.182C168.935 112.369 168.935 83.9079 168.935 83.9079Z" fill="#F15A23"/>
<path fill-rule="evenodd" clip-rule="evenodd" d="M295.391 51.1458H321.592C321.592 51.1458 344.802 86.29 356.209 100.81C367.616 115.33 379.894 131.869 379.894 131.869C379.894 131.869 379.894 83.9082 379.894 59.0163C379.894 55.8698 371.633 51.1458 371.633 51.1458H401.847C401.847 51.1458 391.933 55.2188 391.933 59.0163C391.933 90.0041 391.933 165 391.933 165C391.933 165 382.42 159.725 371.633 147.19C359.513 133.107 316.399 76.2475 316.399 76.2475C316.399 76.2475 316.399 129.925 316.399 149.893C316.399 153.665 324.66 159.37 324.66 159.37H295.391C295.391 159.37 303.416 153.619 303.416 149.893C303.416 123.055 303.416 83.9082 303.416 59.0163C303.416 55.6718 295.391 51.1458 295.391 51.1458Z" fill="#005E6A"/>
<path fill-rule="evenodd" clip-rule="evenodd" d="M418.762 51.1458H452.389C452.389 51.1458 443.359 55.4228 443.359 59.0163C443.359 83.9082 443.359 125.182 443.359 149.893C443.359 153.82 452.389 159.37 452.389 159.37H418.762C418.762 159.37 427.168 153.694 427.168 149.893C427.168 120.218 427.168 83.9082 427.168 59.0163C427.168 55.5615 418.762 51.1458 418.762 51.1458Z" fill="#005E6A"/>
<path fill-rule="evenodd" clip-rule="evenodd" d="M196.449 51.1458C196.449 51.1458 205.167 55.4927 205.167 59.0163C205.167 83.9082 205.167 120.218 205.167 149.893C205.167 153.756 196.449 159.37 196.449 159.37C196.449 159.37 240.003 159.37 246.267 159.37C249.381 159.37 284.253 153.668 284.253 126.782C284.253 99.8972 257.165 97.3797 257.165 97.3797C257.165 97.3797 273.667 92.7921 273.667 74.3978C273.667 54.5707 249.381 51.1458 246.267 51.1458C239.797 51.1458 196.449 51.1458 196.449 51.1458ZM222.915 95.598V61.7638C222.915 61.7638 237.355 61.7638 243.154 61.7638C246.267 61.7638 257.165 65.3992 257.165 78.8869C257.165 90.0041 246.267 95.598 243.154 95.598C236.095 95.598 222.915 95.598 222.915 95.598ZM222.915 104.472C222.915 104.472 243.154 104.472 246.267 104.472C249.381 104.472 267.751 109.244 267.751 125.182C267.751 141.432 249.381 147.19 246.267 147.19C243.154 147.19 222.915 147.19 222.915 147.19V104.472Z" fill="#005E6A"/>
</svg>
