<svg width="512" height="217" viewBox="0 0 512 217" fill="none" xmlns="http://www.w3.org/2000/svg">
<rect y="0.903564" width="512" height="215.904" rx="40" fill="#043E6E"/>
<g clip-path="url(#clip0)">
<path d="M61.459 130.242C61.459 124.58 61.3601 119.839 61.0547 115.598H71.7502L72.2578 122.875H72.5543C74.9755 119.034 79.4136 114.483 87.6879 114.483C94.1474 114.483 99.1874 118.126 101.308 123.577H101.514C103.23 120.851 105.243 118.828 107.561 117.42C110.287 115.495 113.423 114.483 117.452 114.483C125.627 114.483 133.893 120.037 133.893 135.806V164.788H121.787V137.614C121.787 129.437 118.961 124.58 113.009 124.58C108.773 124.58 105.642 127.62 104.335 131.155C103.972 132.504 103.768 133.892 103.729 135.289V164.793H91.6229V136.296C91.6229 129.442 88.9007 124.584 83.1464 124.584C78.5152 124.584 75.3887 128.227 74.2657 131.655C73.7671 132.869 73.5605 134.29 73.5605 135.693V164.793H61.459V130.242ZM181.063 152.978C181.063 157.417 181.266 161.757 181.764 164.793H170.566L169.762 159.342H169.456C166.428 163.183 161.281 165.899 154.938 165.899C145.046 165.899 139.499 158.734 139.499 151.255C139.499 138.819 150.486 132.568 168.657 132.667V131.861C168.657 128.623 167.34 123.271 158.662 123.271C153.815 123.271 148.775 124.791 145.446 126.905L143.025 118.823C146.659 116.597 153.015 114.478 160.778 114.478C176.522 114.478 181.068 124.49 181.068 135.185L181.063 152.978ZM168.953 140.758C160.171 140.551 151.802 142.471 151.802 149.946C151.802 154.795 154.938 157.021 158.868 157.021C163.805 157.021 167.444 153.778 168.553 150.248C168.825 149.365 168.961 148.446 168.957 147.522V140.758H168.953ZM189.634 130.242C189.634 124.58 189.531 119.839 189.239 115.598H200.123L200.725 122.983H201.031C203.146 119.138 208.496 114.483 216.667 114.483C225.247 114.483 234.119 120.037 234.119 135.603V164.788H221.712V137.016C221.712 129.946 219.084 124.575 212.328 124.575C207.391 124.575 203.95 128.115 202.643 131.857C202.239 132.963 202.14 134.484 202.14 135.887V164.784H189.63L189.634 130.242ZM287.924 95.8359V150.954C287.924 156.004 288.131 161.469 288.328 164.793H277.238L276.73 157.021H276.523C273.604 162.472 267.643 165.904 260.487 165.904C248.781 165.904 239.505 155.906 239.505 140.762C239.397 124.292 249.684 114.487 261.498 114.487C268.254 114.487 273.096 117.316 275.315 120.968H275.526V95.8404H287.929V95.8359H287.924ZM275.522 136.103C275.522 135.1 275.423 133.885 275.216 132.869C274.107 128.03 270.181 124.085 264.525 124.085C256.556 124.085 252.109 131.16 252.109 140.348C252.109 149.33 256.552 155.901 264.426 155.901C269.462 155.901 273.905 152.46 275.113 147.108C275.418 146.002 275.526 144.783 275.526 143.474V136.103H275.522ZM296.702 164.793V115.598H309.221V164.793H296.702ZM317.989 131.461C317.989 124.796 317.895 120.042 317.594 115.603H328.388L328.784 124.989H329.192C331.613 118.022 337.359 115.603 342.619 115.603C343.827 115.603 344.528 115.396 345.534 115.603V126.518C344.344 126.255 343.129 126.119 341.909 126.114C335.944 126.114 331.91 129.955 330.805 135.5C330.561 136.769 330.427 138.057 330.405 139.35V164.797H317.989V131.461ZM351.293 164.793V115.598H363.794V164.793H351.293Z" fill="white"/>
<path d="M441.668 63.5704C435.473 56.4957 428.888 59.698 423.655 62.3021C421.454 63.3905 405.565 72.4081 405.565 72.4081C396.86 76.0017 390.081 72.0798 387.422 68.7786C387.168 68.4655 386.938 68.1332 386.735 67.7846L386.115 66.7097C385.067 64.8954 383.903 63.1511 382.629 61.488C381.856 60.4799 381.019 59.523 380.123 58.6231C374.166 52.6008 364.648 48.3866 348.737 56.0414C341.204 60.4131 316.664 74.45 316.664 74.45C307.442 78.2505 300.389 73.6225 298.098 70.2268C297.995 70.0997 297.905 69.9626 297.829 69.8175L297.528 69.3048L295.974 66.7592C295.272 65.6441 294.52 64.562 293.719 63.5164C292.938 62.5148 292.1 61.5597 291.208 60.656C285.292 54.6697 275.823 50.4645 260.051 57.9754C250.515 63.4265 228.333 76.1231 228.333 76.1231L228.324 76.1321L212.09 85.4196L220.49 95.746C224.025 99.1192 230.669 104.651 240.947 99.9872C240.947 99.9872 269.314 83.5396 269.426 83.4901C293.678 70.1638 305.645 82.8965 310.937 91.3834C311.121 91.6487 311.269 91.9366 311.435 92.193L311.444 92.2064C311.512 92.3099 311.552 92.4043 311.61 92.5033L312.208 93.4838C314.786 97.3966 318.852 99.9243 323.698 99.8074C326.371 99.7534 328.186 98.8808 330.827 97.4101L358.274 81.4707L358.332 81.4438C382.89 67.9555 395.059 81.5202 400.256 90.0071C400.66 90.7402 401.118 91.4419 401.59 92.094C404.164 95.5886 407.713 97.8779 412.223 97.7654C415.201 97.707 418.538 95.9169 419.037 95.5886L451.941 76.5729C451.95 76.5819 448.59 71.4951 441.668 63.5704Z" fill="#FDD213"/>
</g>
<defs>
<clipPath id="clip0">
<rect width="391" height="114" fill="white" transform="translate(61 51.9036)"/>
</clipPath>
</defs>
</svg>
