<svg width="512" height="217" viewBox="0 0 512 217" fill="none" xmlns="http://www.w3.org/2000/svg">
<rect y="0.903564" width="512" height="215.904" rx="40" fill="#4C3494"/>
<path d="M141.974 163.636C111.43 163.938 87 139.821 87 108.469C87 77.1169 111.527 53 141.999 53C171.976 53 196.732 76.8637 196.732 108.541C196.599 139.7 172.265 163.865 141.974 163.636ZM107.499 108.951C107.68 110.82 107.885 113.256 108.187 115.68C108.345 116.77 108.571 117.849 108.862 118.911C112.479 133.514 124.2 144.307 139.008 145.38C150.729 146.224 160.448 142.16 167.779 132.996C177.667 120.672 178.789 102.102 170.758 88.0539C168.529 84.0742 165.502 80.5974 161.867 77.8411C158.233 75.0848 154.069 73.1083 149.635 72.0353C145.201 70.9623 140.594 70.8159 136.101 71.6052C131.609 72.3945 127.327 74.1026 123.525 76.6225C112.323 84.0987 107.909 95.2045 107.499 108.951Z" fill="white"/>
<path d="M369.816 53.084C399.516 52.6499 424.633 76.2965 424.633 108.468C424.633 140.134 400.263 163.033 371.347 163.732C339.392 164.504 314.853 139.615 314.938 108.263C315.022 76.9115 339.489 52.7102 369.816 53.084ZM404.339 108.468C403.833 105.032 403.567 101.535 402.771 98.1585C399.226 83.0733 387.421 72.7151 373.445 71.4249C361.387 70.3155 350.968 74.1983 343.697 83.9536C333.496 97.6399 332.688 112.653 340.345 127.726C350.546 147.803 377.726 151.758 393.486 135.708C400.842 128.16 403.917 118.851 404.339 108.468Z" fill="white"/>
<path d="M201.106 55.9304H204.941C217.566 55.9304 230.204 55.9304 242.829 55.9304C244.517 55.9304 245.24 56.2801 245.132 58.1371C244.987 62.6108 245.011 67.0845 245.132 71.5582C245.132 73.3549 244.77 74.0784 242.817 73.9698C240.152 73.789 237.463 73.9698 234.436 73.9698L259.542 133.309L283.767 73.9216H273.373V56.051H308.173C307.812 60.2956 308.909 64.4919 307.1 68.7003C298.346 89.0308 289.712 109.422 281.03 129.788C276.496 140.424 271.914 151.035 267.464 161.707C267.262 162.354 266.838 162.909 266.266 163.273C265.695 163.637 265.013 163.787 264.341 163.697C257.516 163.926 251.909 161.55 248.002 155.955C246.345 153.312 244.952 150.514 243.842 147.599C233.463 123.747 223.125 99.8834 212.827 76.0077C212.636 75.2836 212.178 74.6586 211.545 74.2582C210.912 73.8579 210.151 73.7118 209.415 73.8493C207.16 74.0301 204.881 73.8493 202.614 73.9096C201.541 73.9096 201.07 73.6563 201.07 72.4867C201.131 67.0845 201.106 61.6944 201.106 55.9304Z" fill="white"/>
</svg>
