<svg width="512" height="216" viewBox="0 0 512 216" fill="none" xmlns="http://www.w3.org/2000/svg">
<rect width="512" height="215.904" rx="40" fill="white"/>
<g clip-path="url(#clip0)">
<path fill-rule="evenodd" clip-rule="evenodd" d="M117.477 149.488L117.096 153.73L113.645 155.283L113.551 156.35H127.926V155.043C124.996 155.043 123.677 154.012 123.677 151.123V139.685C123.677 136.644 125.33 131.845 128.254 131.845C130.082 131.845 129.121 135.109 131.184 135.109H132.837C133.614 135.109 134.359 134.8 134.908 134.251C135.458 133.701 135.767 132.956 135.767 132.179V131.851C135.74 130.907 135.353 130.009 134.685 129.341C134.017 128.673 133.119 128.286 132.174 128.259H130.868C126.766 128.259 125.459 131.775 123.677 133.814V128.259L113.557 128.91V130.216H114.864C116.551 130.216 117.477 131.576 117.477 133.146V149.476V149.488ZM94.9338 139.035C94.9338 135.045 97.1254 129.238 100.794 129.238C104.826 129.238 106.021 135.619 106.021 140.019H94.8869V139.041L94.9338 139.035ZM101.778 154.715C96.8793 154.715 94.588 146.676 94.588 141.32H112.578V140.342C112.578 133.257 108.529 128.253 101.444 128.253H100.489C83.5243 128.253 83.3133 156.672 100.489 156.672H102.775C106.748 156.672 112.25 152.699 112.25 149.81C112.25 149.142 111.576 149.225 110.943 149.16C110.316 151.504 106.841 154.715 103.753 154.715H101.778ZM298.775 149.488C298.775 142.644 305.386 140.67 312.171 140.67V144.918C312.171 150.297 309.13 155.043 304.003 155.043H303.364C300.844 155.043 298.793 152.113 298.793 149.488H298.775ZM374.124 131.072C375.882 130.023 377.136 130.726 377.529 129.25H365.767V129.9C367.314 129.9 369.36 130.486 369.36 131.857C369.36 133.662 359.316 144.637 358.226 144.924V126.97L358.618 116.845L350.707 117.167V118.146H352.67C353.725 118.146 354.305 119.318 354.305 120.431V152.752C354.329 153.101 354.277 153.451 354.154 153.779C354.031 154.107 353.839 154.404 353.591 154.652C353.344 154.899 353.046 155.091 352.719 155.214C352.391 155.337 352.041 155.389 351.692 155.365H349.078C341.653 155.365 353.303 128.253 338.624 128.253C330.502 128.253 331.369 132.115 328.169 134.459V128.599L320.663 129.015V129.9C323.13 129.953 324.255 130.978 324.255 133.492V152.441C324.28 152.833 324.221 153.225 324.083 153.591C323.944 153.958 323.729 154.291 323.452 154.568C323.175 154.846 322.842 155.061 322.475 155.199C322.108 155.337 321.716 155.396 321.325 155.371H318.711C317.258 155.371 316.678 154.604 316.098 153.736C316.098 148.187 316.098 142.603 316.098 137.078C316.127 131.154 314.51 128.259 308.585 128.259H306.294C302.022 128.259 296.168 130.392 296.168 134.119V135.097C296.168 135.847 296.396 136.076 297.146 136.076H299.432C300.164 136.076 300.147 135.818 300.739 135.425C300.739 131.5 302.168 128.892 305.966 128.892C310.29 128.892 312.171 130.791 312.171 135.097V137.06L311.808 139.99H310.214C304.167 139.99 294.533 142.269 294.533 147.83V150.76C294.533 153.156 297.691 156.315 300.088 156.315H304.337C307.483 156.315 310.343 152.641 312.177 151.416C312.177 154.645 312.552 156.315 315.77 156.315H332.43V155.336H331.14C329.066 155.336 328.21 153.467 328.21 151.416V140.283C328.21 135.718 331.275 129.83 335.723 129.83H337.686C341.202 129.83 342.585 134.318 342.585 137.998V148.779C342.585 151.779 342.585 155.313 339.655 155.313H338.348V156.291H362.521V155.313H361.214C359.14 155.313 358.284 153.443 358.284 151.393V147.473C358.284 146.471 362.275 142.164 363.183 141.918L371.575 156.156L378.536 156.291V155.313C374.645 154.99 373.087 150.707 371.217 147.93C370.461 146.805 365.797 139.697 365.797 138.982C365.797 138.982 370.444 133.826 370.936 133.339C371.903 132.423 372.984 131.635 374.153 130.996L374.124 131.072ZM238.358 147.525C238.358 143.289 242.865 141.32 247.178 141.32H248.485V146.547C248.485 150.83 246.451 154.715 242.279 154.715C240.45 154.715 238.358 152.014 238.358 150.144V147.531V147.525ZM238.03 137.4C241.675 137.4 238.136 129.232 244.564 129.232H244.892C247.693 129.232 248.485 132.214 248.485 135.091V139.99H246.521C238.411 139.99 231.49 142.14 231.49 150.443C231.49 153.373 235.364 156.977 238.352 156.977H239.331C244.183 156.977 245.66 154.943 248.479 153.057C248.678 155.459 251.104 156.32 253.706 156.32H258.277V155.014C254.263 155.014 254.679 152.963 254.684 149.154C254.684 146.107 254.684 143.058 254.684 140.008C254.684 136.199 255.165 134.054 253.7 131.517C253.073 130.527 252.209 129.709 251.185 129.138C250.162 128.567 249.012 128.261 247.84 128.248H243.591C239.155 128.248 233.137 130.767 233.137 134.781C233.137 137.019 235.165 137.394 237.386 137.394L238.03 137.4ZM193.271 147.525C193.271 143.605 197.502 141.32 201.44 141.32H203.397V147.853C203.397 151.34 200.749 154.715 197.192 154.715C195.053 154.715 193.271 151.844 193.271 149.488V147.531V147.525ZM192.609 137.4C197.063 137.4 192.838 129.232 199.471 129.232H199.799C202.143 129.232 203.391 131.447 203.391 133.802V140.008C195.937 140.008 186.397 141.625 186.397 148.826V149.476C186.397 154.082 189.269 156.068 193.506 156.742C199.717 157.727 201.036 153.812 203.708 153.068C203.767 155.623 206.052 156.332 208.607 156.332H213.178V155.025C209.375 155.025 209.574 152.875 209.586 149.166C209.586 146.008 209.586 142.849 209.586 139.691C209.586 132.496 209.281 128.259 202.073 128.259H198.481C194.033 128.259 188.355 130.521 188.355 134.793V135.443C188.355 136.785 190.154 137.4 191.619 137.4H192.609ZM269.71 136.093H277.58C282.578 136.093 286.727 139.709 286.727 144.59V145.896C286.727 151.539 282.502 155.043 276.923 155.043H269.721V136.093H269.71ZM269.71 118.456H276.244C281.359 118.456 285.391 120.835 285.391 125.968V126.97C285.391 132.572 280.592 134.81 274.937 134.81H269.71V118.456V118.456ZM277.58 117.15H261.224V118.128H262.531C262.88 118.105 263.231 118.156 263.558 118.28C263.886 118.403 264.183 118.594 264.431 118.842C264.678 119.089 264.87 119.387 264.993 119.714C265.116 120.042 265.168 120.392 265.145 120.742V153.08C265.145 154.732 263.053 155.365 261.224 155.365V156.016H279.519C285.965 156.016 291.609 152.945 291.609 146.541V144.906C291.609 138.994 285.749 135.431 279.847 135.431C282.279 133.316 290.302 135.039 290.302 125.956V124.978C290.302 119.57 283.27 117.138 277.562 117.138L277.58 117.15ZM170.751 130.544C167.364 130.544 164.545 134.576 164.545 137.728V152.102C164.545 153.607 165.266 154.715 166.831 154.715H168.466V156.35H154.402V155.043C156.529 155.043 157.994 154.533 157.994 152.43V135.437C157.994 133.064 156.423 130.539 154.073 130.539C149.532 130.539 147.539 135.297 147.539 140.013V149.488C147.539 152.377 147.58 155.043 150.469 155.043H151.448V156.35H137.079V154.715H139.365C140.953 154.715 141.322 152.477 141.322 150.795V133.802C141.322 131.675 140.496 130.21 138.392 130.21H137.407V128.904L147.534 128.253V133.152C149.239 131.904 151.167 128.253 154.718 128.253H158.621C161.205 128.253 163.309 130.867 163.848 133.152H164.504C165.09 130.919 169.075 128.253 172.345 128.253H174.959C187.136 128.253 176.717 155.043 184.434 155.043H185.413V156.35H171.349V155.043C173.476 155.043 174.941 154.533 174.941 152.43V137.4C174.941 134.019 174.355 130.539 171.021 130.539L170.751 130.544ZM69.7825 118.767H74.6815C78.2971 118.767 81.2154 122.962 81.2154 126.935V130.527C81.2154 135.144 77.4767 138.367 72.7242 138.367H69.7942V118.767H69.7825ZM88.0775 127.914C88.0775 136 82.9617 139.674 75.0096 139.674H69.7825V151.105C69.7825 153.689 70.7904 154.697 73.3747 154.697H74.3533V156.332H59V154.697H59.9786C62.1058 154.697 63.5708 153.871 63.5708 151.768V121.697C63.5708 119.288 61.7835 118.433 59.3223 118.433V117.15H75.9941C82.9676 117.15 88.0834 120.783 88.0834 127.931L88.0775 127.914ZM213.201 130.527V128.892H214.18C219.454 128.892 219.454 120.402 221.042 120.402H222.677V128.892H228.883V130.527H222.677V150.449C222.677 152.6 223.849 154.697 225.941 154.697C227.254 154.697 228.525 153.596 229.533 153.062C229.744 153.936 229.861 153.678 229.861 154.369C229.861 155.734 224.751 156.982 222.671 156.982C218.071 156.982 216.137 154.422 216.137 149.793V130.539L213.201 130.527Z" fill="#252525"/>
<path fill-rule="evenodd" clip-rule="evenodd" d="M391.574 59.3281L404.648 64.5548L421.636 59L391.574 59.3281Z" fill="#D50F22"/>
<path fill-rule="evenodd" clip-rule="evenodd" d="M389.945 61.2852C392.782 62.7911 400.64 66.0314 402.357 67.8185L404.642 64.8888V64.5548L391.58 59.3281H390.549L389.945 61.2852Z" fill="#A91F24"/>
<path fill-rule="evenodd" clip-rule="evenodd" d="M404.648 64.5548V64.8829L408.241 67.4904L424.573 61.6133L422.615 59H421.637L404.648 64.5548Z" fill="#DE4152"/>
<path fill-rule="evenodd" clip-rule="evenodd" d="M402.359 67.8184L408.243 110.938V67.4903L404.651 64.8828L402.359 67.8184Z" fill="#D01220"/>
<path fill-rule="evenodd" clip-rule="evenodd" d="M408.258 112.573V110.938L402.398 67.8185C400.64 66.0313 392.782 62.791 389.945 61.2852L407.285 112.187L408.258 112.573Z" fill="#6A1317"/>
<path fill-rule="evenodd" clip-rule="evenodd" d="M408.258 67.4904V112.573C409.881 113.517 410.526 109.186 411 107.476C411.645 105.161 412.295 103.327 412.963 100.942C414.217 96.448 415.612 92.4342 416.884 87.8755C418.155 83.3168 419.521 79.3675 420.804 74.8089C421.73 71.5158 424.349 64.502 424.596 61.6133L408.258 67.4904Z" fill="#AD1F24"/>
<path fill-rule="evenodd" clip-rule="evenodd" d="M366.426 90.6882L377.531 91.3386L386.356 80.563L366.426 90.6882Z" fill="#0094B6"/>
<path fill-rule="evenodd" clip-rule="evenodd" d="M386.353 80.563L377.527 91.3386V91.6667L381.776 93.3015L390.267 81.8638L387.314 79.8833L386.353 80.563Z" fill="#00B4E6"/>
<path fill-rule="evenodd" clip-rule="evenodd" d="M366.096 92.9732L377.529 94.9361V91.6665V91.3384L366.424 90.688L365.727 91.0161L366.096 92.9732Z" fill="#006E8D"/>
<path fill-rule="evenodd" clip-rule="evenodd" d="M377.527 94.9363L404.648 136.093L381.776 93.3015L377.527 91.6667V94.9363Z" fill="#0092B5"/>
<path fill-rule="evenodd" clip-rule="evenodd" d="M405.626 138.379L404.647 136.093L377.527 94.9363L366.094 92.9851C371.198 100.602 379.912 108.36 385.567 115.984C387.747 118.949 403.569 137.904 405.626 138.379Z" fill="#004C6C"/>
<path fill-rule="evenodd" clip-rule="evenodd" d="M381.777 93.3015L404.632 136.076L405.61 138.361C406.196 138.15 406.589 138.127 406.589 137.054C406.589 135.982 391.323 84.0552 390.274 81.8521L381.777 93.3015Z" fill="#006E8D"/>
<path fill-rule="evenodd" clip-rule="evenodd" d="M435.354 90.3601L452.343 90.032L428.492 79.2505L435.354 90.3601Z" fill="#79AE2B"/>
<path fill-rule="evenodd" clip-rule="evenodd" d="M425.879 80.2349L431.434 92.9734L435.355 90.6882V90.3601L428.492 79.2505L425.879 80.2349Z" fill="#528737"/>
<path fill-rule="evenodd" clip-rule="evenodd" d="M435.355 90.3601V90.6882L436.334 94.9364L453 93.6238L452.982 90.3894L452.344 90.032L435.355 90.3601Z" fill="#9DC142"/>
<path fill-rule="evenodd" clip-rule="evenodd" d="M409.875 156.022L410.525 154.387L431.434 92.9851L425.879 80.2466C425.293 81.1958 417.95 114.384 417.358 118.111C416.397 124.099 414.328 130.867 413.115 137.06C412.459 140.394 408.509 154.064 409.875 156.022Z" fill="#2C7238"/>
<path fill-rule="evenodd" clip-rule="evenodd" d="M431.436 92.9732L410.527 154.387L436.335 94.9361L435.356 90.688L431.436 92.9732Z" fill="#7AAC2C"/>
<path fill-rule="evenodd" clip-rule="evenodd" d="M436.333 94.9363L410.549 154.393L409.898 156.027C411.985 157.24 415.172 151.094 416.169 149.582C418.009 146.822 419.585 144.273 421.443 141.478C425.082 136.058 428.328 130.99 431.962 125.535C439.081 114.841 445.908 104.253 453.005 93.6531L436.333 94.9363Z" fill="#658D33"/>
</g>
<defs>
<clipPath id="clip0">
<rect width="394" height="98" fill="white" transform="translate(59 59)"/>
</clipPath>
</defs>
</svg>
