<svg width="512" height="217" viewBox="0 0 512 217" fill="none" xmlns="http://www.w3.org/2000/svg">
<rect y="0.807129" width="512" height="215.904" rx="40" fill="white"/>
<path d="M145.126 62H68.5258C63.8172 62 60 65.8313 60 70.5575V147.442C60 152.169 63.8172 156 68.5258 156H145.126C149.835 156 153.652 152.169 153.652 147.442V70.5575C153.652 65.8313 149.835 62 145.126 62Z" fill="#ED1D24"/>
<path fill-rule="evenodd" clip-rule="evenodd" d="M134.05 109.873C134.05 118.722 130.548 127.209 124.313 133.467C118.079 139.724 109.623 143.24 100.807 143.24C91.9902 143.24 83.5346 139.724 77.3003 133.467C71.066 127.209 67.5636 118.722 67.5636 109.873H69.2082C69.2082 116.692 71.907 123.231 76.7108 128.053C81.5146 132.875 88.03 135.583 94.8236 135.583C101.617 135.583 108.133 132.875 112.936 128.053C117.74 123.231 120.439 116.692 120.439 109.873H134.05ZM149.476 109.873H135.808C135.808 119.183 132.124 128.111 125.565 134.694C119.006 141.277 110.111 144.976 100.835 144.976C91.5597 144.976 82.6642 141.277 76.1055 134.694C69.5468 128.111 65.8622 119.183 65.8622 109.873H64.1797C64.4145 121.067 69.01 131.724 76.9807 139.557C84.9514 147.391 95.6629 151.778 106.818 151.778C117.974 151.778 128.685 147.391 136.656 139.557C144.627 131.724 149.222 121.067 149.457 109.873H149.476ZM118.738 109.873H106.847C106.847 110.063 106.847 110.271 106.847 110.461C106.847 115.01 105.046 119.373 101.841 122.59C98.6364 125.807 94.2896 127.614 89.7572 127.614C85.2248 127.614 80.878 125.807 77.6731 122.59C74.4682 119.373 72.6677 115.01 72.6677 110.461C72.6677 110.252 72.6677 110.063 72.6677 109.873H70.9285C71.1036 116.119 73.6988 122.051 78.1627 126.408C82.6266 130.764 88.6071 133.201 94.833 133.201C101.059 133.201 107.04 130.764 111.503 126.408C115.967 122.051 118.563 116.119 118.738 109.873ZM94.9181 108.146C95.0931 101.9 97.6884 95.9677 102.152 91.6115C106.616 87.2552 112.597 84.8181 118.823 84.8181C125.049 84.8181 131.029 87.2552 135.493 91.6115C139.957 95.9677 142.552 101.9 142.727 108.146H140.969C140.969 107.956 140.969 107.748 140.969 107.558C140.969 105.305 140.527 103.075 139.668 100.994C138.809 98.9127 137.551 97.0217 135.964 95.4289C134.377 93.8361 132.493 92.5726 130.419 91.7106C128.346 90.8486 126.124 90.4049 123.88 90.4049C121.635 90.4049 119.413 90.8486 117.34 91.7106C115.266 92.5726 113.382 93.8361 111.795 95.4289C110.209 97.0217 108.95 98.9127 108.091 100.994C107.232 103.075 106.79 105.305 106.79 107.558C106.79 107.767 106.79 107.956 106.79 108.146H94.9181ZM64.1797 108.146H77.8664C77.8664 98.8363 81.5511 89.9077 88.1098 83.3246C94.6685 76.7415 103.564 73.0432 112.839 73.0432C122.115 73.0432 131.01 76.7415 137.569 83.3246C144.128 89.9077 147.812 98.8363 147.812 108.146H149.552C149.317 96.9517 144.721 86.2952 136.751 78.4615C128.78 70.6279 118.068 66.2407 106.913 66.2407C95.7574 66.2407 85.046 70.6279 77.0752 78.4615C69.1045 86.2952 64.5091 96.9517 64.2742 108.146H64.1797ZM79.6056 108.146H93.1789C93.1789 101.327 95.8777 94.7877 100.681 89.9661C105.485 85.1444 112.001 82.4356 118.794 82.4356C125.588 82.4356 132.103 85.1444 136.907 89.9661C141.711 94.7877 144.41 101.327 144.41 108.146H146.054C145.847 99.4395 142.256 91.1593 136.048 85.0749C129.84 78.9905 121.507 75.5844 112.83 75.5844C104.153 75.5844 95.8202 78.9905 89.612 85.0749C83.4038 91.1593 79.8125 99.4395 79.6056 108.146Z" fill="white"/>
<path fill-rule="evenodd" clip-rule="evenodd" d="M172.65 78.0904C172.544 79.5854 172.866 81.0797 173.576 82.3977C173.935 82.9874 174.442 83.4728 175.045 83.8056C175.649 84.1385 176.329 84.3072 177.017 84.2951C177.558 84.2959 178.092 84.1713 178.577 83.931C179.063 83.6908 179.486 83.3414 179.815 82.91C180.686 81.6303 181.099 80.0917 180.987 78.5458C181.13 76.9138 180.717 75.2814 179.815 73.916C179.455 73.4647 178.997 73.1019 178.476 72.8552C177.955 72.6086 177.385 72.4847 176.809 72.4929C176.239 72.483 175.675 72.6024 175.158 72.8423C174.64 73.0821 174.184 73.4362 173.822 73.8781C172.939 75.0883 172.517 76.5758 172.631 78.0715L172.65 78.0904ZM192.046 74.8458L187.509 74.0299C187.883 72.419 188.814 70.9934 190.137 70.0073C191.811 69.0247 193.74 68.5687 195.676 68.698C197.384 68.6324 199.086 68.9365 200.666 69.5898C201.609 69.9652 202.409 70.6291 202.954 71.4873C203.526 72.8933 203.772 74.4118 203.672 75.9273V81.7146C203.64 82.9396 203.716 84.1651 203.899 85.3767C204.097 86.246 204.402 87.0872 204.806 87.8813H199.778C199.646 87.5587 199.494 87.0654 199.305 86.4203C199.305 86.1356 199.173 85.9269 199.135 85.8321C198.347 86.6302 197.417 87.2737 196.394 87.7295C195.413 88.1453 194.359 88.3582 193.294 88.3557C191.595 88.4214 189.939 87.815 188.681 86.6669C188.138 86.1634 187.708 85.549 187.421 84.8649C187.134 84.1809 186.997 83.4431 187.017 82.7013C186.997 81.7059 187.259 80.7251 187.774 79.874C188.283 79.0435 189.026 78.3832 189.91 77.9766C191.18 77.4275 192.514 77.0387 193.88 76.8191C195.526 76.5627 197.146 76.1562 198.719 75.6048V75.1494C198.756 74.7787 198.711 74.4044 198.587 74.0534C198.463 73.7024 198.262 73.3833 198.001 73.1191C197.198 72.6237 196.254 72.4102 195.316 72.5119C194.585 72.4697 193.859 72.6553 193.237 73.0432C192.64 73.5279 192.216 74.1936 192.027 74.9407L192.046 74.8458ZM198.719 78.8684C197.718 79.1732 196.702 79.4265 195.676 79.6274C194.729 79.7752 193.81 80.0697 192.953 80.5002C192.655 80.6836 192.409 80.9401 192.237 81.2455C192.065 81.5508 191.973 81.8951 191.97 82.2459C191.967 82.5839 192.035 82.9189 192.168 83.2293C192.302 83.5397 192.498 83.8187 192.745 84.0484C193.009 84.3011 193.321 84.4984 193.662 84.6288C194.003 84.7591 194.366 84.8198 194.73 84.8074C195.658 84.7993 196.559 84.4934 197.301 83.9346C197.869 83.54 198.289 82.9653 198.492 82.3028C198.656 81.5107 198.719 80.7011 198.681 79.893V78.8684H198.719ZM223.881 87.8623H218.89V78.375C218.959 77.0636 218.851 75.7488 218.569 74.4663C218.384 73.8972 218.019 73.4042 217.529 73.0622C217.02 72.7229 216.419 72.5505 215.809 72.5688C214.98 72.5559 214.168 72.8012 213.483 73.2709C212.811 73.7248 212.312 74.3935 212.066 75.1683C211.751 76.581 211.624 78.0294 211.688 79.4756V87.9572H206.697V69.1344H211.234V71.8857C211.941 70.8952 212.875 70.0902 213.958 69.5386C215.04 68.9871 216.239 68.7053 217.453 68.717C218.493 68.7048 219.523 68.9116 220.478 69.3242C221.296 69.6224 222.02 70.1332 222.576 70.8042C223.054 71.4185 223.389 72.1313 223.559 72.8914C223.777 73.9907 223.872 75.1107 223.843 76.2309V87.8813L223.881 87.8623ZM226.943 87.8623V62H232.029V75.7376L237.7 69.1344H243.844L237.473 75.9843L244.373 87.8813H239.004L234.259 79.4566L232.029 81.8664V87.8623H226.943ZM167.754 87.8813V62H172.745V71.3165C173.406 70.5023 174.239 69.8452 175.184 69.3924C176.128 68.9397 177.161 68.7025 178.208 68.698C179.276 68.6751 180.337 68.8855 181.316 69.3147C182.295 69.7439 183.17 70.3816 183.879 71.1837C185.499 73.1845 186.303 75.7271 186.129 78.2992C186.305 80.968 185.483 83.6069 183.823 85.6992C183.133 86.5323 182.264 87.1987 181.283 87.6487C180.301 88.0988 179.23 88.3209 178.151 88.2987C177.039 88.2891 175.944 88.0161 174.956 87.5018C173.88 86.9303 172.954 86.111 172.253 85.111V87.8623L167.754 87.8813Z" fill="#414145"/>
<path fill-rule="evenodd" clip-rule="evenodd" d="M417.14 136.001L427.045 134.483C427.352 136.211 428.264 137.772 429.616 138.885C431.208 139.961 433.108 140.481 435.023 140.365C437.012 140.49 438.991 140 440.694 138.961C441.109 138.661 441.445 138.264 441.673 137.805C441.9 137.345 442.012 136.837 441.999 136.324C442.014 135.976 441.961 135.63 441.841 135.304C441.72 134.978 441.536 134.679 441.299 134.426C440.31 133.743 439.179 133.295 437.991 133.117C430.026 131.359 424.985 129.746 422.868 128.278C421.467 127.379 420.322 126.129 419.547 124.653C418.771 123.176 418.391 121.522 418.444 119.854C418.421 118.293 418.749 116.747 419.404 115.331C420.058 113.915 421.023 112.666 422.225 111.676C424.745 109.462 428.703 108.355 434.097 108.355C439.201 108.355 442.982 109.19 445.439 110.86C447.984 112.622 449.804 115.252 450.562 118.26L441.243 119.986C440.918 118.622 440.104 117.426 438.955 116.628C437.527 115.768 435.872 115.364 434.21 115.471C432.255 115.311 430.294 115.691 428.539 116.571C428.197 116.782 427.915 117.078 427.719 117.43C427.524 117.783 427.422 118.179 427.424 118.582C427.427 118.941 427.519 119.293 427.69 119.607C427.862 119.921 428.108 120.189 428.407 120.385C431.341 121.713 434.436 122.65 437.613 123.174C441.569 123.817 445.336 125.319 448.653 127.576C449.69 128.489 450.508 129.625 451.045 130.9C451.582 132.175 451.824 133.556 451.753 134.938C451.745 136.644 451.355 138.325 450.612 139.859C449.869 141.393 448.793 142.739 447.462 143.8C444.601 146.329 440.373 147.594 434.777 147.594C430.604 147.728 426.487 146.598 422.962 144.35C420.067 142.377 417.995 139.406 417.14 136.001ZM404.776 128.696C402.799 129.303 400.793 129.81 398.765 130.214C396.896 130.505 395.085 131.087 393.396 131.94C392.814 132.316 392.336 132.833 392.006 133.443C391.675 134.054 391.503 134.737 391.505 135.432C391.502 136.105 391.638 136.771 391.905 137.388C392.172 138.006 392.564 138.561 393.055 139.018C393.576 139.523 394.192 139.918 394.868 140.179C395.543 140.44 396.264 140.561 396.988 140.536C398.828 140.513 400.611 139.894 402.073 138.771C403.204 137.973 404.036 136.817 404.436 135.489C404.759 133.898 404.886 132.272 404.814 130.65V128.753L404.776 128.696ZM391.543 120.651L382.62 118.924C383.354 115.711 385.196 112.862 387.819 110.879C391.129 108.922 394.951 108.015 398.783 108.279C402.136 108.096 405.489 108.64 408.614 109.873C410.514 110.677 412.105 112.074 413.151 113.858C414.257 116.672 414.716 119.701 414.493 122.719L414.38 134.293C414.317 136.737 414.469 139.181 414.833 141.599C415.226 143.335 415.83 145.018 416.629 146.608H406.856C406.604 145.95 406.288 144.976 405.91 143.686C405.74 143.097 405.627 142.718 405.551 142.528C404.001 144.121 402.167 145.408 400.145 146.323C398.201 147.149 396.111 147.568 394.001 147.557C390.676 147.737 387.413 146.607 384.908 144.407C383.155 142.663 382.029 140.386 381.704 137.931C381.379 135.476 381.874 132.982 383.112 130.84C384.112 129.184 385.579 127.864 387.327 127.045C389.837 125.908 392.479 125.092 395.192 124.616C398.454 124.103 401.662 123.29 404.776 122.188V121.201C404.854 120.462 404.769 119.716 404.527 119.014C404.285 118.313 403.893 117.673 403.377 117.14C401.795 116.142 399.924 115.707 398.065 115.907C396.621 115.826 395.187 116.197 393.963 116.97C392.812 117.899 391.979 119.166 391.581 120.594L391.543 120.651ZM323.034 109.266H332.221V114.37C333.568 112.541 335.318 111.051 337.336 110.018C339.353 108.984 341.582 108.434 343.848 108.412C346.013 108.357 348.156 108.867 350.067 109.892C351.897 110.951 353.397 112.502 354.396 114.37C355.846 112.532 357.654 111.008 359.708 109.892C361.587 108.908 363.677 108.4 365.795 108.412C368.224 108.332 370.628 108.916 372.752 110.101C374.665 111.222 376.159 112.942 377.006 114.996C377.82 117.498 378.166 120.129 378.027 122.757V146.608H368.14V125.186C368.355 122.741 368.005 120.281 367.119 117.994C366.665 117.3 366.036 116.739 365.295 116.369C364.554 115.999 363.729 115.833 362.903 115.888C361.505 115.895 360.144 116.34 359.009 117.159C357.725 118.088 356.793 119.426 356.362 120.954C355.716 123.475 355.442 126.077 355.549 128.677V146.665H345.681V126.077C345.798 123.712 345.62 121.34 345.152 119.019C344.876 118.074 344.298 117.248 343.507 116.666C342.616 116.102 341.572 115.831 340.52 115.888C339.06 115.871 337.629 116.301 336.418 117.121C335.165 117.982 334.234 119.237 333.772 120.689C333.144 123.212 332.883 125.813 332.996 128.411V146.608H323.128V109.152L323.034 109.266ZM307.74 146.722H297.872V109.152H307.041V114.484C308.099 112.527 309.547 110.809 311.294 109.437C312.58 108.632 314.07 108.217 315.586 108.241C317.886 108.264 320.135 108.92 322.089 110.139L318.988 118.81C317.631 117.837 316.023 117.277 314.357 117.197C313.086 117.158 311.841 117.567 310.841 118.355C309.67 119.462 308.87 120.908 308.553 122.491C307.844 126.638 307.571 130.848 307.74 135.052V146.627V146.722ZM283.543 128.734C281.566 129.341 279.559 129.848 277.531 130.252C275.663 130.542 273.851 131.125 272.162 131.978C271.581 132.354 271.102 132.871 270.772 133.481C270.442 134.091 270.27 134.775 270.272 135.47C270.269 136.143 270.405 136.809 270.672 137.426C270.939 138.044 271.33 138.599 271.822 139.056C272.342 139.561 272.959 139.956 273.634 140.217C274.31 140.477 275.031 140.599 275.754 140.574C277.594 140.551 279.378 139.932 280.839 138.809C281.972 138.012 282.804 136.856 283.202 135.527C283.527 133.936 283.654 132.31 283.581 130.688V128.791L283.543 128.734ZM270.31 120.689L261.406 118.924C262.141 115.712 263.982 112.863 266.604 110.879C269.914 108.922 273.737 108.015 277.569 108.279C280.922 108.096 284.274 108.64 287.399 109.873C289.299 110.677 290.89 112.074 291.936 113.858C293.043 116.672 293.501 119.701 293.278 122.719L293.165 134.293C293.103 136.737 293.255 139.181 293.619 141.599C294.012 143.335 294.615 145.018 295.415 146.608H285.641C285.389 145.95 285.074 144.976 284.696 143.686C284.526 143.097 284.412 142.718 284.337 142.528C282.787 144.122 280.953 145.409 278.93 146.323C276.987 147.149 274.896 147.568 272.786 147.557C269.462 147.737 266.199 146.607 263.693 144.407C261.941 142.663 260.814 140.386 260.489 137.931C260.164 135.476 260.659 132.982 261.897 130.84C262.897 129.184 264.364 127.863 266.113 127.045C268.623 125.908 271.265 125.092 273.977 124.616C277.239 124.103 280.448 123.29 283.562 122.188V121.201C283.639 120.462 283.554 119.716 283.312 119.014C283.071 118.313 282.678 117.673 282.163 117.14C280.58 116.142 278.709 115.707 276.851 115.907C275.4 115.823 273.96 116.194 272.729 116.97C271.579 117.899 270.746 119.166 270.348 120.594L270.31 120.689ZM256.604 146.608H246.698V127.481C246.842 124.853 246.632 122.217 246.074 119.645C245.703 118.512 244.973 117.533 243.995 116.856C242.991 116.178 241.801 115.833 240.592 115.869C238.953 115.849 237.348 116.339 235.998 117.273C234.66 118.183 233.667 119.52 233.182 121.068C232.563 123.889 232.315 126.778 232.444 129.664V146.627H222.576V109.152H231.745V114.655C233.133 112.677 234.977 111.066 237.12 109.959C239.263 108.852 241.642 108.282 244.052 108.298C246.104 108.272 248.14 108.679 250.025 109.494C251.625 110.116 253.033 111.15 254.109 112.492C255.032 113.723 255.677 115.141 255.999 116.647C256.433 118.839 256.623 121.073 256.566 123.307V146.608H256.604ZM206.243 109.152H216.111V146.608H206.243V109.152ZM206.243 94.9021H216.111V104.067H206.243V94.9021ZM166.336 136.001L176.242 134.483C176.55 136.211 177.462 137.771 178.813 138.885C180.405 139.96 182.304 140.48 184.219 140.365C186.208 140.49 188.188 140 189.891 138.961C190.306 138.661 190.642 138.264 190.869 137.805C191.096 137.345 191.208 136.837 191.195 136.324C191.211 135.976 191.157 135.63 191.037 135.304C190.917 134.978 190.733 134.679 190.496 134.426C189.506 133.743 188.375 133.295 187.187 133.117C179.222 131.359 174.181 129.746 172.064 128.278C170.675 127.36 169.548 126.096 168.793 124.609C168.037 123.122 167.679 121.464 167.754 119.797C167.731 118.236 168.059 116.69 168.713 115.274C169.368 113.858 170.332 112.609 171.535 111.619C174.055 109.405 178.013 108.298 183.407 108.298C188.511 108.298 192.292 109.133 194.749 110.803C197.301 112.562 199.128 115.192 199.891 118.203L190.571 119.93C190.247 118.565 189.432 117.37 188.284 116.571C186.856 115.711 185.201 115.307 183.539 115.414C181.584 115.253 179.622 115.633 177.868 116.514C177.522 116.723 177.236 117.018 177.037 117.37C176.839 117.723 176.734 118.121 176.733 118.525C176.739 118.883 176.831 119.235 177.002 119.549C177.174 119.863 177.419 120.13 177.716 120.328C180.651 121.656 183.746 122.594 186.923 123.117C190.878 123.761 194.646 125.263 197.963 127.519C199 128.432 199.818 129.568 200.355 130.843C200.892 132.118 201.134 133.499 201.063 134.882C201.055 136.587 200.665 138.268 199.922 139.802C199.179 141.336 198.103 142.683 196.772 143.743C193.911 146.273 189.683 147.538 184.087 147.538C179.838 147.765 175.622 146.679 172.007 144.426C169.154 142.408 167.137 139.411 166.336 136.001Z" fill="#414145"/>
</svg>
